<svg id="Layer_1" data-name="Layer 1" xmlns="http://www.w3.org/2000/svg" xmlns:xlink="http://www.w3.org/1999/xlink" viewBox="0 0 1431 622"><defs><style>.cls-1{fill:#141414;}.cls-2{opacity:0.4;}.cls-3{fill:none;stroke:#fff;stroke-miterlimit:10;stroke-width:0.75px;}.cls-4{opacity:0.7;}.cls-5{fill:#fff;}.cls-6{fill:url(#linear-gradient);}.cls-7{fill:#e73e60;}.cls-8{font-size:1.5px;font-family:Arial-BoldMT, Arial;font-weight:700;}.cls-9{letter-spacing:-0.07em;}.cls-10{letter-spacing:-0.02em;}</style><linearGradient id="linear-gradient" x1="846.67" y1="164.72" x2="846.62" y2="158.32" gradientUnits="userSpaceOnUse"><stop offset="0" stop-color="#e14074"/><stop offset="1" stop-color="#e94f55"/></linearGradient></defs><rect class="cls-1" x="-7.68" y="-6.12" width="1446.35" height="634.24"/><g class="cls-2"><g class="cls-2"><line class="cls-3" x1="-68.4" y1="35.89" x2="1459.16" y2="35.89"/><line class="cls-3" x1="-68.4" y1="84.94" x2="1459.16" y2="84.94"/><line class="cls-3" x1="-68.4" y1="133.98" x2="1459.16" y2="133.98"/><line class="cls-3" x1="-68.4" y1="183.03" x2="1459.16" y2="183.03"/><line class="cls-3" x1="-68.4" y1="232.07" x2="1459.16" y2="232.07"/><line class="cls-3" x1="-68.4" y1="281.12" x2="1459.16" y2="281.12"/><line class="cls-3" x1="-68.4" y1="330.16" x2="1459.16" y2="330.16"/><line class="cls-3" x1="-68.4" y1="379.21" x2="1459.16" y2="379.21"/><line class="cls-3" x1="-68.4" y1="428.25" x2="1459.16" y2="428.25"/></g><g class="cls-2"><line class="cls-3" x1="-68.4" y1="477.3" x2="1499.4" y2="477.3"/><line class="cls-3" x1="-68.4" y1="526.34" x2="1499.4" y2="526.34"/><line class="cls-3" x1="-68.4" y1="575.39" x2="1499.4" y2="575.39"/></g><g class="cls-2"><line class="cls-3" x1="32.16" y1="790.38" x2="32.16" y2="-166.87"/><line class="cls-3" x1="79.78" y1="790.38" x2="79.78" y2="-166.87"/><line class="cls-3" x1="127.4" y1="790.38" x2="127.4" y2="-166.87"/><line class="cls-3" x1="175.02" y1="790.38" x2="175.02" y2="-166.87"/><line class="cls-3" x1="222.64" y1="790.38" x2="222.64" y2="-166.87"/><line class="cls-3" x1="270.26" y1="790.38" x2="270.26" y2="-166.87"/><line class="cls-3" x1="317.88" y1="790.38" x2="317.88" y2="-166.87"/><line class="cls-3" x1="365.5" y1="790.38" x2="365.5" y2="-166.87"/><line class="cls-3" x1="413.12" y1="790.38" x2="413.12" y2="-166.87"/><line class="cls-3" x1="460.74" y1="790.38" x2="460.74" y2="-166.87"/><line class="cls-3" x1="504.96" y1="790.38" x2="504.96" y2="-166.87"/><line class="cls-3" x1="552.58" y1="790.38" x2="552.58" y2="-166.87"/><line class="cls-3" x1="600.2" y1="790.38" x2="600.2" y2="-166.87"/><line class="cls-3" x1="647.82" y1="790.38" x2="647.82" y2="-166.87"/><line class="cls-3" x1="695.44" y1="790.38" x2="695.44" y2="-166.87"/><line class="cls-3" x1="743.06" y1="790.38" x2="743.06" y2="-166.87"/><line class="cls-3" x1="790.68" y1="790.38" x2="790.68" y2="-166.87"/><line class="cls-3" x1="838.3" y1="790.38" x2="838.3" y2="-166.87"/><line class="cls-3" x1="885.92" y1="790.38" x2="885.92" y2="-166.87"/><line class="cls-3" x1="933.54" y1="790.38" x2="933.54" y2="-166.87"/><line class="cls-3" x1="981.16" y1="790.38" x2="981.16" y2="-166.87"/><line class="cls-3" x1="1036.72" y1="811.45" x2="1036.72" y2="-145.8"/><line class="cls-3" x1="1084.34" y1="811.45" x2="1084.34" y2="-145.8"/></g><g class="cls-2"><line class="cls-3" x1="1134.54" y1="785.38" x2="1134.54" y2="-189.45"/><line class="cls-3" x1="1182.16" y1="785.38" x2="1182.16" y2="-189.45"/><line class="cls-3" x1="1229.78" y1="785.38" x2="1229.78" y2="-189.45"/><line class="cls-3" x1="1277.4" y1="785.38" x2="1277.4" y2="-189.45"/><line class="cls-3" x1="1325.02" y1="785.38" x2="1325.02" y2="-189.45"/><line class="cls-3" x1="1372.64" y1="785.38" x2="1372.64" y2="-189.45"/><line class="cls-3" x1="1420.26" y1="785.38" x2="1420.26" y2="-189.45"/></g></g><g class="cls-4"><path class="cls-5" d="M920.25,272.07a108.42,108.42,0,0,1-5.46-9.9c-.56-1.28.26-3.17.45-4.78,1.72.4,3.92.28,5,1.32,2.13,2,3.52,4.7,5.46,6.91,2.57,2.94,5.36,5.68,8.07,8.49.8.83,2,1.49,2.38,2.48,1.93,4.5,6.11,6.94,9.14,10.41,4,4.56,8.06,8.9,14.62,9.68,1.39.17,2.67,1.3,4.51,2.25.58-4.24.85-8.13,1.71-11.9.73-3.21,1.6-6.61,3.38-9.27,1.59-2.38,4.35-4.15,6.89-5.69,4.1-2.47,8.61-4.28,12.6-6.9,1.77-1.15,2.68-3.59,4.33-5.95-9-2.53-10.69-8.72-11.09-15.75q-.33-6.09-.69-12.16c-.3-4.76,3.76-10.68,9.09-12.65a38.33,38.33,0,0,1,19.66-1.88c5,.81,8.77,3.45,10.32,8.15,3.26,9.79,10.11,16.08,18.84,20.78a24,24,0,0,1,11.7,14.12,31.44,31.44,0,0,0,4.76,9.53c1.85,2.32,4.94,3.63,8.57,6.13-2.29-.21-4,.14-4.82-.55a51.11,51.11,0,0,1-7.71-7.64c-1.43-1.84-2.09-4.37-2.79-6.69-2.33-7.76-8-12.09-15.33-14.87,1.64,1.28,3.19,2.71,4.94,3.82,5.45,3.48,8.6,8.29,8.93,14.82.27,5.16,2.2,9.07,7.45,10.94,2.49.88,4.53,3,3.26,5.59-.89,1.79-3.34,3.12-5.38,3.92-1.37.54-3.29,0-4.88-.4-4.45-1.1-8.37.38-12.12,2.43a3.18,3.18,0,0,0-1.21,2.42c.22,20.88-1.24,41.85,2.33,62.57a229.72,229.72,0,0,0,5.83,23.43c1.61,5.75,0,8.51-6,9.06-2.29.2-4.56.49-6.91.75,3.05,32.32,6.1,64.49,9.19,97.16l-6.75.66c.29,6.07.56,12,.85,18.27-6.33,0-12.31.18-18.28-.05s-11.74-.94-17.63-1.27c-3.11-.18-3.31-2-2.58-4.2,1.49-4.43,5-6.73,9.32-7.71,2.47-.56,5-.73,7.71-1.1.63-1.87.88-3.74-1.88-3.62-4.63.2-5.57-2.61-6.16-6.34-2.8-17.58-5.74-35.13-8.64-52.68,0-.34-.28-.65-1-.95v59.05l-5.27.63V498.1c-4.7,0-9,.09-13.28,0-7.31-.19-14.61-.58-21.91-.73-2.36,0-3.12-.92-3-3.23.2-5.59,2.94-9,8.76-9.92,2.63-.43,5.36-.21,8-.37a25.51,25.51,0,0,0,3.19-.59l0-1.19-6.84-1.23V382.69c-3.37,0-6.41.05-9.45,0-4.84-.1-6.31-2.07-5.52-6.81q3.12-18.94,6.07-37.93c.6-3.81-.82-5.6-4.43-6.8-4.37-1.45-8.71-3-12.92-4.85-1-.45-1.61-2.11-2.32-3.26a1.91,1.91,0,0,1,0-1.14c1.24-7.81-1-14.27-7.26-19.29-2.27-1.82-2.29-3.45.29-5.44a39.45,39.45,0,0,0,6.59-6.94c1.35-1.7,3.49-4.42,2.95-5.64-1.56-3.48-3.8-7.09-6.76-9.37-2.49-1.92-5.77-.07-8.15,2l0,1.24c1.43.16,2.89.22,4.29.52s3.21.55,3.48,1.32c.47,1.32-.12,3-.26,4.57l-1.4-.13c-.06-1.09-.12-2.19-.18-3.27-3.94-1.88-2.39,2.41-3.82,3.32-1.75,1.12-3.52,2.23-5.4,3.42l6.57,7.83-.93.94a8.33,8.33,0,0,1-1.91-1.19c-2.81-3-5.6-6-8.3-9.09-3.31-3.78-3-7.73.78-11C917.21,274.47,918.62,273.39,920.25,272.07Zm42.88,37-15.39-9.3-.9,1.42,8.42,6.31c-4.08,1.56-6.08-4.31-10.27-1.33l6.08,4.4-.54,1-4.85-1.39-.34.68c1.39,1.07,2.78,2.14,4.74,3.63l-4.94,1a96.91,96.91,0,0,0,22.61,10.73c.52.16,1.83-1.08,2.28-1.93,2-3.72,4-7.47,5.64-11.35,1.19-2.79,2.46-3.22,5.21-1.86,7.21,3.55,14.57,6.77,22.31,10.32L1019,292.89l1.13.56a10.45,10.45,0,0,1-.61,2.34c-5.48,10.14-10.9,20.31-16.61,30.32-1,1.74-3.13,2.9-4.89,4.11-.57.39-1.62.06-3.29.06l7.83-6.77-24.07-11.07-7.72,15.5a8.41,8.41,0,0,0,1.38,1.08c11.08,5,22.08,10.15,33.3,14.79,5.25,2.17,7.75.91,11.06-3.91,3.76-5.5,7.43-11,11.18-16.55a10.25,10.25,0,0,1,1.73-1.61l.84.55a20.75,20.75,0,0,1-1.4,3.06q-5.18,7.88-10.46,15.67c-4,5.92-7.79,7.51-14.45,4.61C991.83,340.4,980,334.55,968.08,329c-1.68-.78-3.46-1.35-5.39-2.1-.19,2.36-.34,4.22-.5,6.25l-5.17-.36a42.48,42.48,0,0,1,0,6.31q-2.85,18.42-6,36.78c-.51,3,.22,4.58,3.55,4.81,11.37.78,22.71,2.24,34.08,2.47,14.72.29,29.46-.19,44.18-.67,9.85-.32,10-.7,7-10.05-5.76-17.93-7.08-36.39-6.93-55.05.07-9.45,0-18.91,0-28.64-3.67.34-6.83.1-7.94-3.57-1.56-5.19-5.29-8.28-9.71-10.88-7.71-4.52-12.11-11-9.25-21.28,0-.11-.26-.31-.26-.31l-4.5,2.27-.69-.95,7.85-7.37a6.91,6.91,0,0,0,3.14-.47c1-.59,2.28-2.33,2-3.1-.37-1.17-2.3-3-3-2.72-4.22,1.37-6.45-1.67-9-3.69-3.59-2.79-7-5.85-10.42-8.78-2.3,2.92-5.61,5.29-6,8.08a36.75,36.75,0,0,0,.93,14.68c1.51,5.55,5.67,6.72,10.73,4.26.35-.17.91.1,1,.11-1.31,3-2.95,5.8-3.76,8.81-1.16,4.36.65,6.58,5.15,6.38,2.65-.12,5.26-1.18,7.85-1.81-1.14,5.66-9.91,5.41-17.12-.75-1.67.95-3.43,2-5.2,3s-3.44,2.34-5.32,2.75c-4.57,1-8,3.42-9.11,7.85C968.68,287,967.94,293,967,298.9a2.87,2.87,0,0,0,.45,1.78c2.36,3.69,4.78,7.34,7.38,11.31-2.83.27-4.36-.36-4.92-3.11-.82-4.07-3.23-6.93-7.92-8.63C962.37,303.38,962.69,305.83,963.13,309.11Zm68.12,190.62c-.35-6.1-.64-11.24-.93-16.23-3.62,0-6.54,0-9.47,0-3.8,0-8-.67-6.71,5.34-15.35,2.9-16.27,3.37-17,9.22ZM959.64,304.36c1.17-3.94.18-6-3.81-6.77-3.24-.62-6.34-2-9.51-3-2.7-.86-5.42-1.67-9.07-2.79,0,10.61,0,20.33.06,30.05a3.12,3.12,0,0,0,1.17,2.44c6.81,3.15,13.78,5.85,21.37,6.5,1.1-3.29.5-5.19-2.84-6.4a44.64,44.64,0,0,1-9.89-5.07,9.22,9.22,0,0,1-3.18-5.09,20.21,20.21,0,0,1,.7-12c1.47-4.19,2.45-5.26,6.44-3C954,300.86,956.73,302.61,959.64,304.36Zm27,178.65c-3.68-.23-6.87-.29-10-.66-2.13-.25-3.63-.23-4.38,2.32-.22.73-2.18,1.21-3.38,1.33-3.53.36-7.19,0-10.6.81-4.29,1-5.38,3.4-4.72,8.8h33.11Zm37.69-8.87,1.7-.35-17.34-83.55-1.7.35Zm14.16-196.92.85-1.08c-.9-.85-1.87-1.64-2.68-2.57-3.44-3.94-7-7.83-10.21-11.93a10.1,10.1,0,0,1-2.06-9.38c1-3.5-.47-6.36-3.34-8.34-3.4-2.34-4.82-5.53-5.8-9.48-.71-2.87-2.83-5.62-5-7.81-1.39-1.43-3.92-1.74-6.77-2.89.58,1.55.6,1.91.76,2a15.19,15.19,0,0,0,1.8.6c4.38,1.28,7.22,4.28,7.67,8.66.48,4.69,2.91,7.6,6.28,10.47a7.69,7.69,0,0,1,2.46,5.86,15.93,15.93,0,0,0,3.83,13.18c3.07,3.6,6.23,7.12,9.42,10.61A20,20,0,0,0,1038.52,277.22Zm-110.37-4.83-10.72-13.82-1.65,1.07,8,14.05Zm7,34.8v-13.3l-6.33,6.3ZM975,453.69l1,0V429.35l-1,0ZM968.08,417c.51-3.22.47-5.48,1.26-7.41,1.2-2.91,2.63-5.45.13-8.5-.64-.78,0-2.7.25-4.07.33-2.14.79-4.26,1.19-6.38l-1.3-.2c-.76,4-3.26,7.64-1.51,12.18a7.4,7.4,0,0,1,.14,4.78C967.19,410.28,966.16,413,968.08,417ZM938.36,289.84l9.13,2.75-6.82-6.36Zm67.07,139.89-1,.4c.17,3.44.15,6.92.63,10.32.14,1,1.69,1.78,2.6,2.66l.4-.75Q1006.76,436,1005.43,429.73Zm39-157.76,1-.87c-6-8.63-6-8.63-7.26-8.37Zm-128,6.4,6.72,5C921.7,279,919,277.21,916.37,278.37Zm-.66,2.39-1.1,1,3.15,4.59,2.78-2C918.76,283,917.23,281.9,915.71,280.76Z"/><path class="cls-5" d="M764.36,365.74V483.09h28.81c-3.4,2.24-44.07,2.48-47.57.05l12.16-.57v-116c-1.27,0-2.25-.06-3.22,0-12.78.92-25.56,1.93-38.35,2.75a38.34,38.34,0,0,1-8.76-.46c-3.86-.67-6.6-3.06-7.09-7.07-.42-3.53.59-6.54,4.53-7.93.7-.24,1.18-2.05,1.2-3.15q.85-41.35,1.56-82.7c.39-21.92.71-43.84,1.2-65.77.06-2.51-.31-4-3-4.82a5.77,5.77,0,0,1,.89-11.26,45.76,45.76,0,0,1,11-.17c15.35,2,30.67,4.44,46,6.48a6.93,6.93,0,0,0,5-1.76c9.61-9,19-18.35,28.62-27.39A9,9,0,0,1,803,161c10,0,20,.35,30,.61a15.21,15.21,0,0,1,2.39.44l.08,1a23.64,23.64,0,0,1-3.61.47c-9.36-.11-18.72-.36-28.08-.38a7,7,0,0,0-4.45,1.41c-9.46,8.84-18.78,17.84-28.12,26.81a20.41,20.41,0,0,0-1.5,1.91c6.48.71,12.42,1.43,18.37,1.94a3.35,3.35,0,0,0,2.28-1.47,10.55,10.55,0,0,1,9.28-4.52c4.23.08,8.45.36,12.66.7s7.5,2.13,9.28,6.35c.4.94,2.34,1.7,3.59,1.73,22.29.64,44.59,1.15,66.89,1.69,2.43.06,4.88,0,7.29.27,5,.54,8,3.17,8.42,7,.3,3-1.22,4.57-6.44,6.66-.44,20-.88,40.21-1.32,60.38l-1.35.21a19.37,19.37,0,0,1-.62-3.73c.3-17.43.67-34.87,1-52.31,0-1.39,0-2.78,0-4.76A812.64,812.64,0,0,1,711,199.21q-1.35,77.13-2.68,153.41c63.15.56,125.6-6.22,189.35-9.21V287.27l1.59,0v56.29c1.41.43,3,.49,3.95,1.3,1.45,1.23,3.22,2.88,3.42,4.52.16,1.43-1.33,3.65-2.71,4.51a15,15,0,0,1-6.53,1.88c-13.92,1.15-27.86,2.13-41.8,3.17-.61.05-1.23.21-2.09.36V476.18h22.62l-.05,1.33H833.34l-.07-1.22c2.13-.15,4.26-.35,6.4-.42s4.55,0,7,0V359.65Zm3.76-164.86.2-1.1-42.16-6.58C739.67,198.58,753.93,199.53,768.12,200.88Zm-13.39,156-.46-.52c-3.68.29-7.51.07-11,1-4,1.06-9-1.44-11.85,3.86-1-1.12-1.65-1.82-2.24-2.59-2.73-3.65-3.42-3.68-6.93-1-.86.66-2.28.58-3.79.92,1.29,2.32,3,2.64,4.51.81,2.27-2.84,3.5-1.94,5,.61,1.74,2.85,3.91,3.62,6.39.6a2.91,2.91,0,0,1,1.89-1c4.15-.19,8.34,0,12.46-.45C750.79,358.91,752.74,357.67,754.73,356.9Z"/><path class="cls-5" d="M806.3,267.59l-74.13,2.19c.4-17.68.79-35,1.19-52.57,7.54.53,14.54,1,21.53,1.52,16.09,1.23,32.17,2.5,48.25,3.7,1.83.14,3.21.23,3.19,2.68C806.26,239.06,806.3,253,806.3,267.59Zm-12.16-34.92-3.49-3.74-4.47,3.46-1-.38c0,5.47.13,10.94-.05,16.41-.09,2.67.08,4.66,3.33,4.2.35,1.3.65,2.38,1,3.67,1.11-1.54,1.85-2.61,2.64-3.65.64-.85,1.89-1.64,1.91-2.48C794.22,244.17,794.14,238.18,794.14,232.67Zm-26.49-3c-.29,1-.45,2.91-.91,3-4.38.72-2.51,4.1-2.74,6.37-.34,3.43-.27,6.91-.27,10.36,0,1,.24,2.71.58,2.76,3.28.5,2.1,2.88,2.21,4.73.07,1.11.25,2.21.38,3.31l1.27,0,.37-7c1.5-.61,2.89-1.54,3-2.57.38-5,.45-10,.54-15a4,4,0,0,0-.75-2.4A44.89,44.89,0,0,0,767.65,229.71Zm-18-4.27-1.23-.17c-1.48,3.46,1.15,8.43-3.53,10.72,0,0,0,.24,0,.37.62,6.48-2.79,13.72,4.49,19.78,1-3.74,2-7,2.55-10.4a56.06,56.06,0,0,0,.23-8.41c0-.87.06-2.36-.33-2.51-3.05-1.22-1.76-3.76-2-5.81C749.76,227.82,749.75,226.63,749.69,225.44Z"/><path class="cls-5" d="M678.11,438.77l3.38,1.83.73-.59c-1.77-2.36-3.17-5.22-5.45-6.88-1.39-1-4.62-.92-6.16.05a4.15,4.15,0,0,0-.54,6.45c2.17,2.14,5.1,3.56,7.81,5.09,1.11.63,2.51.76,4.36,1.29-3.5,1.74-9.09.18-12.26-2.83-3-2.85-3.89-6.5-2.39-9.76,1.88-4.07,7.28-5.08,11.09-1.79a22.81,22.81,0,0,1,3.9,5.16c3.26,5.08,6.43,10.22,9.92,15.79,3-5.29,2.81-6.91-.25-10.38a38.12,38.12,0,0,1-10-26.3,21.8,21.8,0,0,1,.82-4.09l1.33.05c.19,3.53.39,7.07.58,10.6l.89.23c2.08-5.64,4.39-11.2,6.12-16.95a10.65,10.65,0,0,0-.68-6.33c-2-5.13-7-6.18-11.19-2.62-6.93,5.88-7.8,16.85-1.94,24.29.93,1.2,1.87,2.39,2.76,3.62.08.11-.16.45-.37,1a6.4,6.4,0,0,1-1.83-.75c-8.13-7.1-8.8-21-1.3-28.7,2.69-2.79,6-4.61,10-3.34a8.93,8.93,0,0,1,6.56,8.59,32.06,32.06,0,0,1-1.38,9.75,64.2,64.2,0,0,1-4.08,9.93c-2.62,5.45-1.89,10.39,1.8,15,1.58,2,3.18,3.95,5.07,6.3,3.28-6.34,5.46-13.09,12.21-15.86l.94.76-8.25,9.38.67.83c7-1.14,14-2.62,19.93-6.89,3.75-2.68,5.16-6.78,3.71-10s-5.52-4.93-9.93-3.94c-7.13,1.6-12.16,5.74-14.61,12.79a14.83,14.83,0,0,1-2.53,4.83,16,16,0,0,1,3.28-11.07c4.24-5.9,10-9,17.4-8.68,3.72.17,6.9,1.58,8.32,5.16s1,7.35-1.84,10a28.62,28.62,0,0,1-8.78,5.88,95.6,95.6,0,0,1-14.4,3.89c-3.54.79-4.7,3.4-2.5,6.25,1.33,1.72,3.08,3.36,3.69,5.33,1,3.23,2.88,3.95,5.92,3.73,3.32-.23,6.67-.06,10-.05,4.44,0,4.74.37,4.16,4.9-1.33,10.4-7,17.62-16.35,22.93H733.7l-.05,1.31H680.82l-.11-1.21,5.06-.56c-3.35-2.89-7.08-5.55-10.09-8.86-3.82-4.18-5.3-9.54-5.76-15.17-.2-2.47.62-3.45,3.22-3.39,6.12.14,12.25.05,18.38.05l.8-1.06-15-14.21Zm-2.73,23c.86,7.07,10.58,15.72,16.61,14.53A31,31,0,0,1,675.38,461.77Zm27.12-7-5-7.39-.95.38-1.05,7Z"/><path class="cls-5" d="M1034.11,200.22c-.82,4.37-1.55,8.23-2.52,13.35-2.61-3-4.68-5.12-6.44-7.48-3-4.06-6.39-6.84-12-6.78-4.9,0-6.46-2.35-6.12-7.23q.74-10.53,1.5-21.06c.34-4.66,2.19-6.5,6.84-6.26q20.7,1.05,41.39,2.34c3.73.22,5.62,2.32,5.44,6-.35,7.54-.79,15.07-1.27,22.61-.28,4.35-2.43,6-7.32,5.71C1047.24,201.06,1040.88,200.64,1034.11,200.22Zm-9.95-11.43c-1.35-3.68-2.75-6.16-6.26-6.18-3.24,0-4.82,2.07-5.94,5.48Zm.68-14.55-.12,1.71,28.73,2.05.12-1.67Zm6.18,12.87-.11,1.66,21.11,1.46c0-.56.08-1.12.11-1.68Zm-9.7-7.77c-1.32-1.1-2.12-2.27-2.87-2.24a2,2,0,0,0-.3,4C1018.91,181.25,1019.86,180.23,1021.32,179.34Z"/><path class="cls-5" d="M765.7,294.58c10.29,4.42,15.67,12.19,15.91,24.23a55.69,55.69,0,0,1-8.4-.87c-.77-.18-1.29-2.2-1.57-3.46a14.29,14.29,0,0,0-27.37-2.4,14.3,14.3,0,0,0,23.14,15.63c.92-.88,1.74-1.85,2.76-2.94a25.91,25.91,0,0,1,2.41,1c6.56,3.43,6.64,4,1.27,9.11a23.93,23.93,0,0,1-38.69-26c3.92-10.42,14.34-16.92,25.17-15.36,2.47.36,3.65-.32,4.33-2.39,1.16-3.52,3.67-5.13,7.18-6,1.9-.48,3.42-2.36,5.31-3.12,1.34-.53,3.32-.79,4.43-.16.89.5,1.65,3.05,1.15,3.77a4.75,4.75,0,0,1-4,1.64C772,285.69,768.28,287.59,765.7,294.58Z"/><path class="cls-5" d="M837.52,172.17V152.45c3,0,5.48,0,8,0,15.11.28,30.22.63,45.33.85,2.85,0,4.12.78,3.95,4-.28,5.2-.07,10.44-.07,16.09Z"/><path class="cls-5" d="M842.76,223.63c8.22.43,14.94,3.74,18.87,11.15,4,7.63,4.12,15.63-.57,23A58.93,58.93,0,0,0,854.47,273c-1.46,4.86-1.44,9.48-2,14.22-.4,3.19-6.73,8.95-9.9,9.09s-9-5.42-9.45-9.31c-.26-2.11,0-4.3-.39-6.37-1.65-8.15-3.3-16.2-8.33-23.31s-5-15.2-.75-22.87C827.74,227.08,834.43,223.85,842.76,223.63ZM839,274.75c-.44-5.79-.68-11.4-1.38-16.95a7.21,7.21,0,0,0-2.7-4.36c-3.63-2.69-5.8-6.05-4.76-10.47.39-1.66,2.65-2.87,4.06-4.29,1.23,1.38,2.9,2.57,3.58,4.18.77,1.82.54,4,.94,6,.32,1.55-.39,3.88,2.5,3.87,2.53,0,3-1.55,3.42-3.67a59.56,59.56,0,0,1,3.2-11.37c.5-1.21,3.11-2.18,4.64-2,.9.08,2.24,2.59,2.23,4a16,16,0,0,1-6.53,12.88c-.86.67-2.19,1.55-2.22,2.36-.17,6.69-.1,13.39-.1,20.09,6.89-.1,6.66-.15,7.35-5.68a26,26,0,0,1,2.81-7.81c.93-1.93,2.55-3.52,3.65-5.39,5.17-8.82,2.9-20.33-5.1-26.15-9-6.53-19.81-5.52-27,2.52-5.84,6.54-6.35,16.39-1.11,24.2,2.72,4.06,5.6,8,5.72,13.15C832.25,273.74,834.27,275.39,839,274.75Zm-3.61,13.13c4.22,1.63,11.28,2.05,13.57.18,1.21-1,1.37-3.29,2.06-5.16l-8.57-.64.09-1.37c2.11-.17,4.23-.22,6.3-.57.62-.11,1.1-1.08,1.64-1.65-.63-.48-1.24-1.35-1.87-1.37-4.44-.12-8.87-.06-13.7-.06C835,280.88,835.19,284.26,835.35,287.88Zm4.48-32.82c.36,6.32.65,12.2,1.09,18.07.06.78.85,1.5,1.31,2.25.52-.66,1.49-1.31,1.5-2,.12-6.11.07-12.22.07-18.54Zm6.18-4c4.71-2.92,6-6.66,6.67-10.63.16-.92-.56-2-.88-3-.85.61-2.2,1-2.47,1.86C848.14,242.82,847.27,246.46,846,251Zm-9.09.8c-.36-3.12-.52-5.77-1-8.35-.17-.89-1.22-1.61-1.86-2.4-.7.81-1.88,1.56-2,2.45C831.52,247.21,833.26,249.79,836.92,251.84Z"/><path class="cls-5" d="M924.51,172c3.8-.69,7.38-1.1,10.81-2,2.3-.63,4.33-2.16,6.58-3a10.12,10.12,0,0,1,4.29-.76c2.54.16,5,.94,7.58,1.06,3.92.19,7.84.05,12,.05.41,6.63.68,12.25,1.12,17.85q1,13,2.24,26c.25,2.69-.53,3.6-3.49,3.94-9,1-18,2.52-26.94,4-10.19,1.71-10.29,1.81-11.22-8.12-1.16-12.37-2.11-24.76-3.14-37.14A11.82,11.82,0,0,1,924.51,172Zm5.57,46.19,37-5.86c-1.18-14.24-2.36-28.33-3.56-42.7-4.61,0-9.88-1.54-13,.39-4,2.45-6.6,2.88-11.15,1.67-3.75-1-8.38,1.29-13,2.19C927.59,188.41,928.79,202.79,930.08,218.14Z"/><path class="cls-5" d="M804.75,305.78c3.11-2.31,70.35-2.13,73.74,0Z"/><path class="cls-5" d="M696.77,229.6c-.46,27-.92,54-1.39,81.9-2.44-3-1.44-79,.32-81.92Z"/><path class="cls-5" d="M809.28,318.05h65.77C873.13,319.87,813.48,320.37,809.28,318.05Z"/><path class="cls-5" d="M1056.71,366c3.5,7.14-2.88,33.11-9.09,36.95A94.79,94.79,0,0,0,1056.71,366Z"/><path class="cls-5" d="M1075.44,176c-2.57-4.57-4.57-9.61-7.87-13.57s-7.91-6.86-11.76-10.5c6.08,1.07,10.37,5,14,9.64C1073.12,165.73,1076,170.23,1075.44,176Z"/><path class="cls-5" d="M681.12,278.68V247.46C683.22,249.72,683.25,273.92,681.12,278.68Z"/><path class="cls-5" d="M1064.79,149c5.38-.63,14.14,8.86,16,16.26l-.81.7c-1.22-1.87-2.36-3.8-3.69-5.58a57.89,57.89,0,0,0-5.1-6.16A81.85,81.85,0,0,0,1064.79,149Z"/><path class="cls-5" d="M895.5,220.84c-1.39.89-2.81,2.53-4.15,2.46s-3.52-2.18-3.36-3c.31-1.48,1.91-3.47,3.27-3.74,1.19-.24,2.78,1.6,4.2,2.52Z"/><path class="cls-5" d="M866.68,216.53c.88,1.42,2.63,3,2.4,4.22s-2.25,2.93-3.67,3.13c-.89.12-2.95-2.1-3-3.3,0-1.35,1.64-2.74,2.57-4.12Z"/><path class="cls-5" d="M748,320.09l18.4-6.56.54,1.52a71.37,71.37,0,0,1-18.45,6.47Z"/><path class="cls-5" d="M877.82,224.82c-1-1.24-2.93-2.63-2.75-3.66.26-1.47,2.06-2.68,3.2-4,1.19,1.1,3.18,2.09,3.35,3.33s-1.38,2.86-2.18,4.3Z"/><path class="cls-5" d="M1035.64,499.73h20c0,.55,0,1.1,0,1.65-6.67.14-13.33-.15-20-.32Z"/><path class="cls-5" d="M930.92,494.72l17.14,1-.1,1.92-17.17-.94Z"/><path class="cls-5" d="M713,431.41c2.28-3.83,9.91-4.94,5.58-12l1.35-.38c.64,1.11,1.68,2.16,1.85,3.33C722.37,426.56,719.27,429.92,713,431.41Z"/><path class="cls-5" d="M849.19,331.64H829.13v-1h20.06Z"/><path class="cls-5" d="M1060.3,396.85l4.17-11.18,1.28.44c.29,4.26-2.54,7.53-3.6,11.36Z"/><path class="cls-5" d="M683.28,397.45c4.91,1.3,6.51,4,5,7.42C686.72,402.56,685.21,400.33,683.28,397.45Z"/><path class="cls-5" d="M758.44,313.52c-1.44.91-2.4,2-3.15,1.86s-1.47-1.4-2.19-2.17c.76-.69,1.52-1.94,2.29-1.94S757.05,312.42,758.44,313.52Z"/><path class="cls-5" d="M966.34,377.71c-.07-5.81-2.26-11.7,1.23-17.37,1-1.7,1.43-3.51-.73-5a2.65,2.65,0,0,1-.75-2.4c1.63-4.12,3.46-8.17,5.23-12.24l1.81.8-5.34,11.95c3.76,1,3.35,3.81,2.29,6.09a23,23,0,0,0-1.88,14.53c.23,1.2-.39,2.56-.61,3.84Z"/><path class="cls-5" d="M1005.16,339.88l12.21-10.56c1.31,4.92-5.39,6.19-5.4,10.17Z"/><path class="cls-5" d="M1015.74,281.09c-2.58,3.05-3,5-.22,7.61,1.29,1.23.22,4.91.22,7.71-2,.13-3.16-.35-2.26-2.74.78-2.1.35-3.68-1.21-5.48C1009.94,285.51,1011.36,282,1015.74,281.09Z"/><path class="cls-5" d="M1026.31,378.39c.93-4.68,1.86-9.36,2.89-14.56,2,2.52.6,11.31-1.7,14.83Z"/><path class="cls-5" d="M1025.61,364.48c-1.08,4.15-2,7.78-3,11.4C1020.81,372.31,1022.67,365.85,1025.61,364.48Z"/><path class="cls-5" d="M982.33,282.6l-5.43,9.78C975.05,289.4,977.5,284.55,982.33,282.6Z"/><path class="cls-5" d="M989.92,239.05c-.42,2.47-.85,4.94-1.38,8-.38-.15-2-.63-2-.82.44-2.54,1.12-5,1.74-7.55Z"/><path class="cls-5" d="M941.16,306v11.14C938.67,314.55,938.45,309.69,941.16,306Z"/><path class="cls-5" d="M960.81,206.85c-10.79,1.51-8.88,2.39-9.61-6C959.69,197.55,961.37,198.56,960.81,206.85Z"/><path class="cls-5" d="M959.9,183.72a15.83,15.83,0,0,1-2.78-.48,12.41,12.41,0,0,0-11.35,1.25c-4.75,2.89-11.91,2.29-15.15-1.26a9.51,9.51,0,0,1,2.73.25c4.42,2,8.39,1,12.39-1.31C951,179.11,956.47,179.54,959.9,183.72Z"/><path class="cls-5" d="M959.82,193.18c-7.35,1.37-14.53,2.79-21.75,4-1.38.23-2.92-.54-4.6-.89.53-.88.68-1.27.76-1.25,6.29,1.12,12-.95,17.77-3C954.57,191.1,957.63,190.49,959.82,193.18Z"/></g><path d="M879.21,164.52v-6.38a.43.43,0,0,0,0-.16s-.07-.11-.11-.11h-.64v2.95h-3.38v-2.93h-.74v6.64h.75v-2.93h3.38v2.93Z"/><path d="M882.81,157.88v6.64h3.9v-.74h-3.14v-2.31h2.72v-.76h-2.71v-2.1h3.13v-.73Z"/><path d="M863.64,158.61h3.16v-.73h-3.91v6.64h3.91v-.74h-3.16v-2.31h2.72v-.77h-2.72Z"/><path d="M873,163a2.64,2.64,0,0,1-3.91-3.53,2.58,2.58,0,0,1,3.91-.14l.43-.58a3.29,3.29,0,0,0-4.75,0,3.38,3.38,0,0,0,.26,5,3.24,3.24,0,0,0,4.48-.2Z"/><path d="M853.73,161.57h2.73v-.75h-2.72V158.6h3.13v-.73H853v6.65h.77Z"/><path d="M862,157.87h-4.62v.75h1.93v5.9H860v-5.91H862Z"/><path d="M850.81,157.87v6.65h.73v-6.65Z"/><path d="M881.35,164.53v-6.65h-.71v6.65Z"/><path class="cls-5" d="M856.06,166.67h-5.44V167h5.44Z"/><path class="cls-5" d="M892,166.67h-.79V167H892Z"/><path class="cls-6" d="M843.44,160.36c0-.12,0-.23.07-.34a2.82,2.82,0,0,1,2.34-2.12,3.25,3.25,0,0,1,2.18.4l.08,0a1.28,1.28,0,0,1,1.73-.5l-.55.48a3.19,3.19,0,0,0-.61-.24.47.47,0,0,0-.3.11c-.17.13-.16.24,0,.38a2.61,2.61,0,0,1,.82,2.78,2.56,2.56,0,0,1-2.1,1.9,3.13,3.13,0,0,1-2.28-.32.5.5,0,0,0-.34,0,1,1,0,0,0-.8,1,1,1,0,0,0,.8,1,2.06,2.06,0,0,0,1.59-.25c.45-.24.88-.51,1.33-.74a1.73,1.73,0,0,1,1.28-.18,1.51,1.51,0,0,1,1.06,1.67,2,2,0,0,1-1.69,1.87,1.57,1.57,0,0,1-1.6-.66l.14.14a1.6,1.6,0,0,0,2.62-.62,1.28,1.28,0,0,0-.08-1,.93.93,0,0,0-1.17-.49c-.37.12-.71.33-1.06.48a9.68,9.68,0,0,1-1.34.55,2.12,2.12,0,0,1-.94,0,1.37,1.37,0,0,1-1.13-1.12,1.6,1.6,0,0,0,0-.21v-.4s0,0,0,0a1.35,1.35,0,0,1,.92-1.06l.12-.08a2.72,2.72,0,0,1-1-1.38c0-.17-.08-.34-.12-.51Zm4.82.23a4.48,4.48,0,0,0-.25-1.49A1.62,1.62,0,0,0,846.5,158a1.68,1.68,0,0,0-1.7,1.05,3.51,3.51,0,0,0-.3,1.39,3.65,3.65,0,0,0,.39,1.94,1.63,1.63,0,0,0,1.56.86,1.59,1.59,0,0,0,1.51-1A4.1,4.1,0,0,0,848.26,160.59Z"/><path d="M892.15,162.91a4.62,4.62,0,0,1-.29.73,2.18,2.18,0,0,1-1.68,1,2.64,2.64,0,0,1-2.34-.76,3.53,3.53,0,0,1-.36-.48l.59-.43a2.76,2.76,0,0,0,.31.37,2.07,2.07,0,0,0,2.41.32.93.93,0,0,0,.1-1.67,9.23,9.23,0,0,0-1.18-.58c-.37-.18-.76-.31-1.11-.52a1.54,1.54,0,0,1-.2-2.55,2.31,2.31,0,0,1,3.15.18,4.41,4.41,0,0,1,.31.48l-.58.38a1.51,1.51,0,0,0-1.44-.82,1.35,1.35,0,0,0-1,.48.78.78,0,0,0,.12,1.2,5.75,5.75,0,0,0,.82.42c.36.16.74.29,1.1.46a2,2,0,0,1,1.31,1.48Z"/><path d="M879.21,164.52h-.75v-2.93h-3.38v2.93h-.75v-6.64h.74v2.93h3.38v-2.95h.64s.09.07.11.11a.43.43,0,0,1,0,.16v6.38Z"/><path d="M882.81,157.88h3.9v.73h-3.13v2.1h2.71v.76h-2.72v2.31h3.14v.74h-3.9Z"/><path d="M863.64,158.61v2.09h2.72v.77h-2.72v2.31h3.16v.74h-3.91v-6.64h3.91v.73Z"/><path d="M873,163l.42.58a3.24,3.24,0,0,1-4.48.2,3.38,3.38,0,0,1-.26-5,3.29,3.29,0,0,1,4.75,0l-.43.58a2.58,2.58,0,0,0-3.91.14A2.64,2.64,0,0,0,873,163Z"/><path d="M853.73,161.57v3H853v-6.65h3.91v.73h-3.13v2.22h2.72v.75Z"/><path d="M862,157.87v.74H860v5.91h-.76v-5.9h-1.93v-.75Z"/><path d="M850.81,157.87h.73v6.65h-.73Z"/><path d="M881.35,164.53h-.71v-6.65h.71Z"/><path class="cls-7" d="M856.06,166.67V167h-5.44v-.35Z"/><path class="cls-7" d="M892,166.67V167h-.79v-.35Z"/><text class="cls-8" transform="translate(856.24 167.4)">WHERE INNO<tspan class="cls-9" x="9.77" y="0">VA</tspan><tspan x="11.63" y="0">TION MEETS THE REA</tspan><tspan class="cls-10" x="27.83" y="0">L</tspan><tspan x="28.72" y="0" xml:space="preserve"> WORLD</tspan></text><path d="M870.1,161.44a.15.15,0,0,1-.15.13.15.15,0,0,1-.09-.06.19.19,0,0,1,0-.19.13.13,0,0,1,.11-.08.15.15,0,0,1,.12.07A.17.17,0,0,1,870.1,161.44Z"/><path d="M870,161.79a.19.19,0,0,1,.12.22.11.11,0,0,1-.16.08.19.19,0,0,1-.09-.25A.1.1,0,0,1,870,161.79Z"/><path d="M869.85,161.71l0,0a.1.1,0,0,1-.16,0,.22.22,0,0,1-.06-.25.11.11,0,0,1,.18,0A.21.21,0,0,1,869.85,161.71Z"/><path d="M869.89,161.16s0,0,0,.05a.12.12,0,0,1-.21,0,.19.19,0,0,1,0-.19.11.11,0,0,1,.12-.05.1.1,0,0,1,.09.08A.19.19,0,0,1,869.89,161.16Z"/><path d="M869.63,161.41a.09.09,0,0,1,0,.06.1.1,0,0,1-.14,0,.2.2,0,0,1,0-.25.11.11,0,0,1,.19,0A.25.25,0,0,1,869.63,161.41Z"/><path d="M870.06,161.65a.12.12,0,0,1,.21-.05.16.16,0,0,1,0,.17.12.12,0,0,1-.2,0A.18.18,0,0,1,870.06,161.65Z"/><path d="M869.5,160.76a.15.15,0,0,1,.09-.1.09.09,0,0,1,.12.05.2.2,0,0,1,0,.23.1.1,0,0,1-.17-.05A.28.28,0,0,1,869.5,160.76Z"/><path d="M869.64,161.93a.09.09,0,0,1-.16.06.2.2,0,0,1-.08-.2s0-.07.07-.08a.09.09,0,0,1,.11,0A.24.24,0,0,1,869.64,161.93Z"/><path d="M870.24,161a.15.15,0,0,1,0,.29.13.13,0,0,1-.1,0,.16.16,0,0,1,0-.24A.12.12,0,0,1,870.24,161Z"/><path d="M869.75,162.3a.2.2,0,0,1-.12-.24.08.08,0,0,1,.1-.05.2.2,0,0,1,.14.24A.09.09,0,0,1,869.75,162.3Z"/><path d="M869.48,162.17a.08.08,0,0,1-.13.05.26.26,0,0,1-.11-.25.08.08,0,0,1,.11-.06.2.2,0,0,1,.07.06A.3.3,0,0,1,869.48,162.17Z"/><path d="M869.91,160.84a.12.12,0,0,1,.13-.1.11.11,0,0,1,.09,0,.19.19,0,0,1,0,.19.11.11,0,0,1-.12,0,.12.12,0,0,1-.09-.1A.25.25,0,0,1,869.91,160.84Z"/><path d="M869.42,161.64h0c0,.08-.1.09-.16,0a.21.21,0,0,1,0-.24.08.08,0,0,1,.13,0,.18.18,0,0,1,0,.07A.22.22,0,0,1,869.42,161.64Z"/><path d="M870.32,161.41a.11.11,0,0,1,.11-.08.12.12,0,0,1,.13.09.12.12,0,0,1,0,.13.11.11,0,0,1-.12,0,.13.13,0,0,1-.11-.08A.2.2,0,0,1,870.32,161.41Z"/><path d="M869.26,161a.2.2,0,0,1,0-.08c.05,0,.11,0,.14,0a.2.2,0,0,1,0,.17.13.13,0,0,1-.07.09.08.08,0,0,1-.11,0,.19.19,0,0,1,0-.16Z"/><path d="M870.56,162.05a.12.12,0,0,1-.14.08.15.15,0,0,1-.11-.18.11.11,0,0,1,.14-.08A.15.15,0,0,1,870.56,162.05Z"/><path d="M870.21,162.09a.17.17,0,0,1,.12.18.1.1,0,0,1-.13.08.17.17,0,0,1-.13-.17A.11.11,0,0,1,870.21,162.09Z"/><path d="M870,160.62a.18.18,0,0,1-.08.11.1.1,0,0,1-.14-.06.17.17,0,0,1,.09-.21.1.1,0,0,1,.13,0A.2.2,0,0,1,870,160.62Z"/><path d="M870.66,161.88a.14.14,0,0,1-.09-.17.11.11,0,0,1,.14-.08.14.14,0,0,1,.1.17A.12.12,0,0,1,870.66,161.88Z"/><path d="M869.25,161.31a.14.14,0,0,1,0,.08.06.06,0,0,1-.09,0s0,0,0,0a.27.27,0,0,1,0-.23l0,0a.07.07,0,0,1,.11,0l0,.06A.38.38,0,0,1,869.25,161.31Z"/><path d="M869.39,160.51a.25.25,0,0,1,.08-.12s.08,0,.1,0a.07.07,0,0,1,0,.05.21.21,0,0,1-.08.21.08.08,0,0,1-.14,0A.21.21,0,0,1,869.39,160.51Z"/><path d="M869.35,160.76a.28.28,0,0,1-.08.11.08.08,0,0,1-.11,0,.22.22,0,0,1,0-.16.16.16,0,0,1,.06-.08.07.07,0,0,1,.12,0A.23.23,0,0,1,869.35,160.76Z"/><path d="M870.6,161a.12.12,0,0,1-.18.08.13.13,0,0,1,0-.17.12.12,0,0,1,.15-.07A.13.13,0,0,1,870.6,161Z"/><path d="M869.47,162.26a.06.06,0,0,1,.09,0,.19.19,0,0,1,.14.15.13.13,0,0,1,0,.06.07.07,0,0,1-.09.06A.21.21,0,0,1,869.47,162.26Z"/><path d="M870.13,162.49a.09.09,0,0,1-.12.06.17.17,0,0,1-.13-.17.08.08,0,0,1,.1-.08.17.17,0,0,1,.15.18Z"/><path d="M870.83,161.26a.13.13,0,0,1-.24-.08.14.14,0,0,1,.14-.09A.15.15,0,0,1,870.83,161.26Z"/><path d="M869.06,161.67s0,0,0,0a.06.06,0,0,1,.08,0,.09.09,0,0,1,.06.06.21.21,0,0,1,0,.19c0,.07-.07.08-.11,0A.22.22,0,0,1,869.06,161.67Z"/><path d="M870.4,160.68s0,.07,0,.08a.09.09,0,0,1-.12,0,.11.11,0,0,1-.06-.11.24.24,0,0,1,.06-.11.11.11,0,0,1,.18.07A.13.13,0,0,1,870.4,160.68Z"/><path d="M869.35,162.38s0,.05-.08,0a.19.19,0,0,1-.11-.12.23.23,0,0,1,0-.11v0a.05.05,0,0,1,.08,0l.06,0a.36.36,0,0,1,.08.15Z"/><path d="M869.66,160.31a.18.18,0,0,1,.09-.12.08.08,0,0,1,.12.06.19.19,0,0,1-.1.19c-.06,0-.11,0-.12-.07A.13.13,0,0,1,869.66,160.31Z"/><path d="M869,160.89s0-.08,0-.1.08,0,.1,0a.21.21,0,0,1,0,.25s-.09,0-.12,0A.2.2,0,0,1,869,160.89Z"/><path d="M868.91,161.36a.08.08,0,0,1,0-.05.05.05,0,0,1,.08,0l0,0a.28.28,0,0,1,0,.22.09.09,0,0,1-.06.06.08.08,0,0,1-.07-.05A.26.26,0,0,1,868.91,161.36Z"/><path d="M871.07,161.54a.11.11,0,0,1-.14.08.12.12,0,0,1-.09-.15.11.11,0,0,1,.14-.08A.12.12,0,0,1,871.07,161.54Z"/><path d="M870.67,162.38a.12.12,0,0,1-.09-.15.11.11,0,0,1,.13-.08.14.14,0,0,1,.1.16A.1.1,0,0,1,870.67,162.38Z"/><path d="M869.54,160.22a.22.22,0,0,1-.08.13l0,0a.06.06,0,0,1-.09-.05.52.52,0,0,1,0-.11.25.25,0,0,1,.08-.1h0s.08,0,.09,0A.19.19,0,0,1,869.54,160.22Z"/><path d="M870.24,160.4a.14.14,0,0,1-.1.11.09.09,0,0,1-.1,0,.15.15,0,0,1,.11-.21.11.11,0,0,1,.09.05A.17.17,0,0,1,870.24,160.4Z"/><path d="M870.48,162.37a.14.14,0,0,1,.1.13.09.09,0,0,1-.08.1.17.17,0,0,1-.16-.12C870.33,162.4,870.39,162.35,870.48,162.37Z"/><path d="M871.06,162.07a.12.12,0,0,1-.14.08.13.13,0,0,1-.09-.15.12.12,0,0,1,.15-.07A.11.11,0,0,1,871.06,162.07Z"/><path d="M869.28,160.43a.21.21,0,0,1-.07.12s0,0-.08,0a.07.07,0,0,1,0-.07.26.26,0,0,1,.08-.19.08.08,0,0,1,.08,0,.09.09,0,0,1,0,.08S869.28,160.41,869.28,160.43Z"/><path d="M870,162.69a.07.07,0,0,1-.1,0,.19.19,0,0,1-.13-.14.06.06,0,0,1,0-.06s0-.05.09,0a.22.22,0,0,1,.14.17Z"/><path d="M870.85,160.74a.07.07,0,0,1,0,0,.11.11,0,0,1-.11,0,.15.15,0,0,1-.06-.09.12.12,0,0,1,.15-.13A.12.12,0,0,1,870.85,160.74Z"/><path d="M869.52,162.67a.26.26,0,0,1-.16-.21c0-.05,0-.07.07-.05a.24.24,0,0,1,.14.14.11.11,0,0,1,0,.08S869.55,162.68,869.52,162.67Z"/><path d="M870.27,162.57a.17.17,0,0,1,.11.11.08.08,0,0,1-.11.1.15.15,0,0,1-.12-.1.08.08,0,0,1,0-.09A.11.11,0,0,1,870.27,162.57Z"/><path d="M870.87,160.94a.12.12,0,0,1,.13-.08.11.11,0,0,1,.08.14.1.1,0,0,1-.13.08A.11.11,0,0,1,870.87,160.94Z"/><path d="M869.93,160.12a.2.2,0,0,1,.1-.12c.06,0,.1,0,.1.06a.17.17,0,0,1-.1.17.08.08,0,0,1-.11-.06A.07.07,0,0,1,869.93,160.12Z"/><path d="M870.46,160.41a.12.12,0,0,1,.08-.09.1.1,0,0,1,.11.05.13.13,0,0,1,0,.16s-.08,0-.11,0a.1.1,0,0,1,0-.1Z"/><path d="M868.94,161.2a.15.15,0,0,1,0,.08,0,0,0,0,1-.06,0l0-.05a.41.41,0,0,1,0-.22s0,0,0,0,0,0,0,0A.41.41,0,0,1,868.94,161.2Z"/><path d="M869.12,162.09s0,0-.08,0l0,0a.29.29,0,0,1-.06-.21,0,0,0,0,1,.08,0,.4.4,0,0,1,.09.17A.27.27,0,0,1,869.12,162.09Z"/><path d="M871.11,161.75a.1.1,0,0,1,.13-.07.11.11,0,0,1,.08.14.1.1,0,0,1-.14.07A.12.12,0,0,1,871.11,161.75Z"/><path d="M869.8,160a.2.2,0,0,1-.08.12s-.08,0-.1,0,0,0,0-.09a.25.25,0,0,1,.08-.12h0s0,0,.08,0a.08.08,0,0,1,0,.08Z"/><path d="M869.06,160.64a.26.26,0,0,1-.07.11s-.07,0-.08,0a.17.17,0,0,1,0-.07.38.38,0,0,1,.06-.16.1.1,0,0,1,.07,0s0,0,0,.06S869.06,160.6,869.06,160.64Z"/><path d="M869.54,159.92a.33.33,0,0,1-.11.15l0,0s0,0-.06,0,0,0,0-.06a.3.3,0,0,1,.14-.19s0,0,.06,0,0,0,0,0Z"/><path d="M871.32,161.28a.09.09,0,0,1-.12.07.12.12,0,0,1-.08-.14.12.12,0,0,1,.13-.07A.11.11,0,0,1,871.32,161.28Z"/><path d="M870.31,160.16a.12.12,0,0,1,.09-.09.07.07,0,0,1,.1.05.13.13,0,0,1-.07.15.08.08,0,0,1-.09,0,.1.1,0,0,1,0-.09S870.31,160.17,870.31,160.16Z"/><path d="M869.28,160.1a.37.37,0,0,1-.07.14l0,0s-.07,0-.07,0a.1.1,0,0,1,0-.09.28.28,0,0,1,.08-.12h0s.07,0,.07,0A.13.13,0,0,1,869.28,160.1Z"/><path d="M868.93,161.78v0s0,0,0,0a.1.1,0,0,1,0-.05.37.37,0,0,1,0-.21h0s0,0,0,0,0,0,0,0A.31.31,0,0,1,868.93,161.78Z"/><path d="M871.06,162.55a.1.1,0,0,1-.08.07.13.13,0,0,1-.1,0,.09.09,0,0,1,0-.13.11.11,0,0,1,.15,0A.1.1,0,0,1,871.06,162.55Z"/><path d="M870.11,163a.2.2,0,0,1-.11-.11.06.06,0,0,1,0-.07.06.06,0,0,1,.08,0,.18.18,0,0,1,.11.1l0,0C870.22,162.94,870.18,163,870.11,163Z"/><path d="M869.7,162.68a.26.26,0,0,1,.14.15s0,0,0,.06,0,0-.06,0a.22.22,0,0,1-.13-.12,0,0,0,0,1,0,0C869.6,162.68,869.64,162.66,869.7,162.68Z"/><path d="M871.31,162.32a.1.1,0,0,1-.13.07.09.09,0,0,1-.07-.12.1.1,0,0,1,.2,0Z"/><path d="M870.7,162.81a.11.11,0,0,1-.07-.06.07.07,0,0,1,.07-.12.12.12,0,0,1,.11,0s0,.08,0,.11A.1.1,0,0,1,870.7,162.81Z"/><path d="M870.06,159.84a.22.22,0,0,1-.1.13h-.07a.1.1,0,0,1,0-.07.18.18,0,0,1,.11-.13h0s0,0,.05,0A.07.07,0,0,1,870.06,159.84Z"/><path d="M868.77,160.76a.2.2,0,0,1,0-.08s0,0,0,0,0,0,0,0a.22.22,0,0,1,0,.08.33.33,0,0,1,0,.17.06.06,0,0,1-.05,0s0,0,0-.05A.45.45,0,0,1,868.77,160.76Z"/><path d="M871.51,161.43a.1.1,0,0,1,.07.12.09.09,0,0,1-.12.06.09.09,0,0,1-.07-.11C871.41,161.44,871.45,161.41,871.51,161.43Z"/><path d="M870.38,159.92a.13.13,0,0,1-.08.1.07.07,0,0,1-.1-.07.17.17,0,0,1,.1-.13.07.07,0,0,1,.09.05A.07.07,0,0,1,870.38,159.92Z"/><path d="M869.46,162.83s0,0,0,0a.4.4,0,0,1-.13-.16s0-.05,0-.07,0,0,.06,0a.36.36,0,0,1,.14.16v0S869.5,162.84,869.46,162.83Z"/><path d="M870.52,162.82a.11.11,0,0,1,.1.09.05.05,0,0,1,0,.08.13.13,0,0,1-.14-.08s0,0,0-.08A.08.08,0,0,1,870.52,162.82Z"/><path d="M869.08,162.33s0,0,0,0a.1.1,0,0,1,0,0,.32.32,0,0,1,.1.18s0,0,0,.06,0,0,0,0a.39.39,0,0,1-.13-.21S869.07,162.33,869.08,162.33Z"/><path d="M869.59,159.83a.27.27,0,0,1,.14-.14s.07,0,.06.05a.21.21,0,0,1-.12.16s0,0-.06,0S869.59,159.86,869.59,159.83Z"/><path d="M870.92,160.44a.1.1,0,0,1,.14-.06.11.11,0,0,1,0,.12.08.08,0,0,1-.09.06A.09.09,0,0,1,870.92,160.44Z"/><path d="M869.06,160.29a.54.54,0,0,1-.07.13s0,0,0,0,0,0,0,0,0,0,0,0a.29.29,0,0,1,0-.16.27.27,0,0,1,.07-.08.05.05,0,0,1,0,0,0,0,0,0,1,0,0S869.06,160.27,869.06,160.29Z"/><path d="M871.14,160.7a.1.1,0,0,1,.11-.07.1.1,0,0,1,.07.12.09.09,0,0,1-.11.07A.1.1,0,0,1,871.14,160.7Z"/><path d="M871.57,162.08a.09.09,0,0,1-.12.06.08.08,0,0,1-.06-.11.09.09,0,0,1,.12-.06A.09.09,0,0,1,871.57,162.08Z"/><path d="M868.8,161.45a.05.05,0,0,1,0,0s0,0,0,0a.13.13,0,0,1,0-.05.59.59,0,0,1,0-.23s0,0,0-.05,0,0,0,.05A.44.44,0,0,1,868.8,161.45Z"/><path d="M870.73,160.19a.1.1,0,0,1,.07-.07.08.08,0,0,1,.09,0,.11.11,0,0,1,0,.13.09.09,0,0,1-.09,0,.1.1,0,0,1,0-.09Z"/><path d="M868.92,162l0,0a.51.51,0,0,1,.1.21.08.08,0,0,1,0,0s0,0,0,0a.12.12,0,0,1,0-.05.33.33,0,0,1-.07-.16s0,0,0-.05A0,0,0,0,1,868.92,162Z"/><path d="M870,162.92a.19.19,0,0,1,.12.11,0,0,0,0,1,0,0s0,.05-.05.05a.21.21,0,0,1-.15-.14S869.9,162.9,870,162.92Z"/><path d="M868.76,160.56a.58.58,0,0,1,.06-.17l0,0s0,0,0,0v0a.73.73,0,0,1-.06.21s0,0,0,0,0,0,0,0,0,0,0,0,0,0,0,0Z"/><path d="M869.15,159.94a.38.38,0,0,1,.13-.18s0,0,.05,0,0,0,0,.05a.5.5,0,0,1-.13.19.07.07,0,0,1-.06,0S869.14,160,869.15,159.94Z"/><path d="M871.4,161a.09.09,0,0,1,.1-.06.1.1,0,0,1,.07.12.11.11,0,0,1-.11.06A.09.09,0,0,1,871.4,161Z"/><path d="M870.37,163.15a.18.18,0,0,1-.09-.08,0,0,0,0,1,0-.07s0,0,.07,0a.23.23,0,0,1,.1.07s0,0,0,.08S870.4,163.15,870.37,163.15Z"/><path d="M870.58,160a.16.16,0,0,1,.06-.08.07.07,0,0,1,.1.06.14.14,0,0,1,0,.09.08.08,0,0,1-.1,0S870.57,160,870.58,160Z"/><path d="M869.61,162.84a.29.29,0,0,1,.15.16,0,0,0,0,1,0,0,0,0,0,0,1,0,0,.28.28,0,0,1-.16-.16,0,0,0,0,1,0,0Z"/><path d="M871.23,162.67a.1.1,0,0,1,.07.07.07.07,0,0,1,0,.07.09.09,0,0,1-.1,0,.07.07,0,0,1,0-.1A.1.1,0,0,1,871.23,162.67Z"/><path d="M870.05,159.59a.2.2,0,0,1-.11.13h0s-.06,0,0,0,0,0,0-.05a.18.18,0,0,1,.1-.09h0s0,0,0,0Z"/><path d="M869.38,159.77a.36.36,0,0,1,.14-.16h0a0,0,0,0,1,0,0,0,0,0,0,1,0,0,.3.3,0,0,1-.15.18s0,0,0,0S869.38,159.79,869.38,159.77Z"/><path d="M870.32,159.67a.2.2,0,0,1-.09.11.06.06,0,0,1-.07,0s0,0,0-.06a.22.22,0,0,1,.09-.1.09.09,0,0,1,.07,0S870.32,159.65,870.32,159.67Z"/><path d="M871,163a.08.08,0,0,1-.07-.07,0,0,0,0,1,0-.06.12.12,0,0,1,.1,0h0a.07.07,0,0,1,0,.09.09.09,0,0,1-.1,0Z"/><path d="M871.83,161.81a.09.09,0,0,1-.11.06.09.09,0,1,1,.06-.16A.08.08,0,0,1,871.83,161.81Z"/><path d="M871.49,162.46a.08.08,0,0,1,.06.09.1.1,0,0,1-.12.06.08.08,0,0,1-.06-.09A.11.11,0,0,1,871.49,162.46Z"/><path d="M868.75,161.73a0,0,0,0,1,0,0l0,0a0,0,0,0,1,0,0,.62.62,0,0,1,.07.23s0,0,0,0,0,0,0,0a.62.62,0,0,1-.07-.23Z"/><path d="M869,160.11a.49.49,0,0,1,.11-.18s0,0,0,0,0,0,0,.05a.52.52,0,0,1-.11.19l0,0h0a0,0,0,0,1,0,0S869,160.12,869,160.11Z"/><path d="M869.83,159.51a.24.24,0,0,1-.14.14h0s0,0,0,0a.32.32,0,0,1,.14-.14h0S869.85,159.47,869.83,159.51Z"/><path d="M868.73,161.11s0,0,0,.06h0s0,0,0,0a.43.43,0,0,1,0,0,.58.58,0,0,1,0-.23h0s0,0,0,0a.06.06,0,0,1,0,0A.66.66,0,0,1,868.73,161.11Z"/><path d="M871.82,161.28a.08.08,0,0,1-.15-.05.07.07,0,0,1,.1,0A.08.08,0,0,1,871.82,161.28Z"/><path d="M870.78,163a.12.12,0,0,1,.08.06.06.06,0,0,1-.05.08.12.12,0,0,1-.12-.06.05.05,0,0,1,0-.08Z"/><path d="M870.48,159.74a.12.12,0,0,1,.08-.09.06.06,0,0,1,.07,0,.14.14,0,0,1-.08.13h-.06A.06.06,0,0,1,870.48,159.74Z"/><path d="M869.31,162.74h0a.65.65,0,0,1,.15.18s0,0,0,0,0,0,0,0a.46.46,0,0,1-.16-.18v0S869.29,162.74,869.31,162.74Z"/><path d="M870.28,163.28a.15.15,0,0,1-.11-.08s0,0,0-.06h.05a.17.17,0,0,1,.11.09,0,0,0,0,1,0,.05S870.3,163.29,870.28,163.28Z"/><path d="M869.23,162.73l0,0a.5.5,0,0,1-.13-.19s0,0,0,0,0,0,0,0a.64.64,0,0,1,.14.22s0,0,0,0S869.24,162.74,869.23,162.73Z"/><path d="M871.66,162.29a.08.08,0,0,1,.1-.06.07.07,0,0,1,0,.09.09.09,0,0,1-.11.05A.05.05,0,0,1,871.66,162.29Z"/><path d="M871.17,160.21a.07.07,0,0,1,.09-.05.09.09,0,0,1,0,.1.08.08,0,0,1-.09.05A.08.08,0,0,1,871.17,160.21Z"/><path d="M870,163.23a.24.24,0,0,1-.14-.12s0,0,0,0h0a.22.22,0,0,1,.15.13s0,0,0,0S870,163.23,870,163.23Z"/><path d="M871,160a.07.07,0,0,1,.1,0s0,.06,0,.1a.08.08,0,0,1-.09,0A.08.08,0,0,1,871,160Z"/><path d="M871.4,160.45a.07.07,0,0,1,.08,0,.09.09,0,0,1,.06.1.08.08,0,0,1-.09,0A.08.08,0,0,1,871.4,160.45Z"/><path d="M870.15,159.5a.19.19,0,0,1,.12-.11s.05,0,0,0a.17.17,0,0,1-.11.12h-.05S870.15,159.52,870.15,159.5Z"/><path d="M869.92,159.46a.1.1,0,0,1,.05-.06.21.21,0,0,1,.1-.06h0s0,0,0,0a.24.24,0,0,1-.15.13h0S869.91,159.48,869.92,159.46Z"/><path d="M868.73,161.69s0,0,0,0a0,0,0,0,1,0,0v0a.91.91,0,0,1,0-.23v0a0,0,0,0,1,0,0s0,0,0,0,0,0,0,0a.61.61,0,0,1,0,.23Z"/><path d="M870.62,163.31a.11.11,0,0,1-.08-.05s0-.08,0-.07a.13.13,0,0,1,.11.06s0,.07-.05.07Z"/><path d="M868.75,160.64a1.33,1.33,0,0,1,0,.19v0h0s0,0,0,0,0-.07,0-.11a.48.48,0,0,1,.05-.17h0s0,0,0,0,0,0,0,0S868.75,160.62,868.75,160.64Z"/><path d="M868.94,162.38a.78.78,0,0,1-.05-.14s0,0,0,0l0,0a.53.53,0,0,1,.11.21s0,0,0,0,0,0,0,0l0,0h0A.08.08,0,0,1,868.94,162.38Z"/><path d="M870.56,159.5s0,.08-.08.09h-.05a.09.09,0,0,1,0-.05.14.14,0,0,1,.08-.09h0S870.56,159.48,870.56,159.5Z"/><path d="M871,159.78v0a.06.06,0,0,1-.08,0s0-.05,0-.09,0,0,0,0,0,0,.06,0,0,0,0,.06Z"/><path d="M869.26,159.7a.08.08,0,0,1,0,0,.63.63,0,0,1,.11-.12h.05s0,0,0,0a.38.38,0,0,1-.09.13l-.07,0a0,0,0,0,1,0,0A0,0,0,0,1,869.26,159.7Z"/><path d="M869.72,163.17l-.06,0-.11-.11s0,0,0,0a0,0,0,0,1,0,0,.39.39,0,0,1,.16.15,0,0,0,0,1,0,0S869.73,163.17,869.72,163.17Z"/><path d="M871.7,160.8a.07.07,0,0,1,0-.1s0,0,.07,0a.07.07,0,0,1,0,.09A.06.06,0,0,1,871.7,160.8Z"/><path d="M869.49,159.55a.08.08,0,0,1,0,0,.36.36,0,0,1,.11-.1h0a0,0,0,0,1,0,0s0,0,0,0a.34.34,0,0,1-.15.14h0s0,0,0,0S869.48,159.56,869.49,159.55Z"/><path d="M868.82,160.3a.72.72,0,0,1,.09-.2s0,0,0,0,0,0,0,0a1,1,0,0,1-.11.23l0,0s0,0,0,0Z"/><path d="M872.07,161.53a.06.06,0,0,1-.08.05.08.08,0,0,1,0-.09.07.07,0,0,1,.08,0A.06.06,0,0,1,872.07,161.53Z"/><path d="M869.94,159.29h0a.34.34,0,0,1-.16.13h0a0,0,0,0,1,0,0,.34.34,0,0,1,.16-.13h0Z"/><path d="M871.4,163a.05.05,0,0,1,0-.07s0-.05.09,0,0,0,0,.06A.08.08,0,0,1,871.4,163Z"/><path d="M871.18,163.18s-.06,0,0-.06,0-.05.08-.05l0,0s0,.06,0,.09Z"/><path d="M872,162a.06.06,0,0,1,0,.07.07.07,0,0,1-.09.05.05.05,0,0,1,0-.08A.06.06,0,0,1,872,162Z"/><path d="M870.16,163.27a.31.31,0,0,1,.11.09s0,0,0,0h0a.22.22,0,0,1-.13-.1s0,0,0,0a0,0,0,0,1,0,0Z"/><path d="M871.66,162.81s0,0,0-.07a.08.08,0,0,1,.09,0,.05.05,0,0,1,0,.06A.08.08,0,0,1,871.66,162.81Z"/><path d="M870.73,159.55s0,0,0-.06.06,0,.06,0a.11.11,0,0,1,0,.08.09.09,0,0,1-.07,0S870.72,159.59,870.73,159.55Z"/><path d="M869.23,159.69a1,1,0,0,1-.08.14l-.06.06s0,0,0,0,0,0,0,0l.06-.09a.44.44,0,0,1,.09-.11h0S869.24,159.68,869.23,159.69Z"/><path d="M870.51,163.43a.16.16,0,0,1-.08-.06s0,0,0,0,0,0,0,0,.08,0,.1.06,0,0,0,0a0,0,0,0,1,0,0Z"/><path d="M871,163.33a.05.05,0,0,1,0,0s0-.05,0-.07a.11.11,0,0,1,.08,0,.07.07,0,0,1,0,.06.1.1,0,0,1-.05,0Z"/><path d="M870.35,159.24a.21.21,0,0,1-.13.11h0s0,0,0,0a.22.22,0,0,1,.1-.09h0S870.36,159.22,870.35,159.24Z"/><path d="M869.85,163.2a.44.44,0,0,1,.15.12s0,0,0,0h0a.33.33,0,0,1-.15-.11s0,0,0,0Z"/><path d="M870.42,159.35a.15.15,0,0,1,.1-.09s0,0,0,0-.06.09-.1.1S870.41,159.38,870.42,159.35Z"/><path d="M868.86,162.19h0l0,0a.73.73,0,0,1-.08-.25s0,0,0,0,0,0,0,0a1.14,1.14,0,0,1,.09.26Z"/><path d="M872,160.93a.06.06,0,0,1,0,.08.06.06,0,0,1-.07,0,.06.06,0,0,1,0-.08A.05.05,0,0,1,872,160.93Z"/><path d="M870,159.27a0,0,0,0,1,0,0,.34.34,0,0,1,.14-.09s0,0,0,0a0,0,0,0,1,0,0,.31.31,0,0,1-.15.1S870,159.29,870,159.27Z"/><path d="M868.64,161.39a1.22,1.22,0,0,1,0-.33h0a1.82,1.82,0,0,1,0,.33Z"/><path d="M871.49,160a0,0,0,0,1-.06,0,.05.05,0,0,1,0-.07s0,0,.05,0A.07.07,0,0,1,871.49,160Z"/><path d="M870.84,163.45a.06.06,0,0,1-.06,0s0,0,0,0,.08,0,.09,0,0,0,0,0l0,0Z"/><path d="M869.83,159.22v0a.83.83,0,0,1-.15.11h0s0,0,0,0,0,0,0,0a.66.66,0,0,1,.17-.12h0Z"/><path d="M872,162.54a.07.07,0,0,1-.08,0,0,0,0,0,1,0-.07.08.08,0,0,1,.08,0S872,162.51,872,162.54Z"/><path d="M870.77,159.35a.06.06,0,0,1,0,.06h0s0,0,0,0a.12.12,0,0,1,.06-.06s0,0,0,0A0,0,0,0,1,870.77,159.35Z"/><path d="M871.29,159.81s0,0-.06,0a.06.06,0,0,1,0-.07.05.05,0,0,1,.06,0S871.3,159.77,871.29,159.81Z"/><path d="M869.52,163.09h0a1.37,1.37,0,0,1-.17-.17s0,0,0,0,0,0,0,0a1,1,0,0,1,.17.18s0,0,0,0Z"/><path d="M869.3,162.88s0,0,0,0a.73.73,0,0,1-.14-.18s0,0,0,0h0a1.84,1.84,0,0,1,.17.22Z"/><path d="M869.41,159.47h0a.48.48,0,0,1,.16-.13,0,0,0,0,1,0,0h0a.57.57,0,0,1-.16.15h0Z"/><path d="M870.08,159.12h0a.38.38,0,0,1-.15.09h0v0a0,0,0,0,0,0,0l.14-.08h0S870.09,159.11,870.08,159.12Z"/><path d="M871.68,160.19a.06.06,0,0,1,0,.07,0,0,0,0,1-.06,0,.06.06,0,0,1,0-.07A0,0,0,0,1,871.68,160.19Z"/><path d="M871.14,159.59s0,0-.06,0a0,0,0,0,1,0,0s0,0,0,0l.05,0a.05.05,0,0,1,0,0Z"/><path d="M869.61,163.13l.09.06.08.07s0,0,0,0h0a.73.73,0,0,1-.16-.14s0,0,0,0Z"/><path d="M870.46,163.53a.47.47,0,0,1-.09-.06s0,0,0,0h0a.16.16,0,0,1,.11.05s0,0,0,0h0Z"/><path d="M870.12,163.38a.57.57,0,0,1,.13.08s0,0,0,0h0a.35.35,0,0,1-.13-.08v0S870.11,163.38,870.12,163.38Z"/><path d="M868.91,160.06a1,1,0,0,1,.15-.24A.53.53,0,0,1,868.91,160.06Z"/><path d="M870.46,159.07h0a.42.42,0,0,1-.12.08h0s0,0,0,0a.27.27,0,0,1,.13-.07S870.46,159.05,870.46,159.07Z"/><path d="M870.47,159.18v0a.21.21,0,0,1,.1-.06h0a0,0,0,0,1,0,0,.18.18,0,0,1-.11.08,0,0,0,0,1,0,0Z"/><path d="M869.22,159.64s.13-.18.17-.19A.6.6,0,0,1,869.22,159.64Z"/><path d="M870.72,163.48a.09.09,0,0,1,.06,0s0,0,0,0a.09.09,0,0,1-.08,0,0,0,0,0,1,0,0h.05Z"/><path d="M871.38,163.33s0,0,0,0a.05.05,0,0,1,.07,0s0,0,0,0A.05.05,0,0,1,871.38,163.33Z"/><path d="M871,159.39s0,0,0,0h0a.07.07,0,0,1,0-.06h0a0,0,0,0,1,0,0S871,159.37,871,159.39Z"/><path d="M868.72,160.54a.91.91,0,0,1,.1-.29A2,2,0,0,1,868.72,160.54Z"/><path d="M870.77,159.16a.16.16,0,0,1-.07.07s0,0,0,0a.16.16,0,0,1,.08-.08S870.77,159.14,870.77,159.16Z"/><path d="M871.66,163.1s0,0,0,.05a.06.06,0,0,1-.07,0s0,0,0-.06A.07.07,0,0,1,871.66,163.1Z"/><path d="M870.18,159.11s0,0,0,0h0a.37.37,0,0,1,.14-.07s0,0,0,0,0,0,0,0a.55.55,0,0,1-.15.08Z"/><path d="M872,160.49a.05.05,0,0,1-.05,0s0,0,0-.06,0,0,0,0A.06.06,0,0,1,872,160.49Z"/><path d="M872.31,161.78a0,0,0,0,1,0,0s0,0,0-.05a0,0,0,0,1,0,0A0,0,0,0,1,872.31,161.78Z"/><path d="M869.88,163.32a.57.57,0,0,1,.16.11s0,0,0,0h0l0,0-.12-.08s0,0,0,0Z"/><path d="M871.19,163.46s0,0,0,0a0,0,0,0,1,0,0h0s0,0,0,0a0,0,0,0,1,0,0S871.2,163.47,871.19,163.46Z"/><path d="M869,162.43h0a1,1,0,0,1,.08.14l0,.06a.1.1,0,0,1,0,0,2,2,0,0,1-.12-.19s0,0,0,0S869,162.41,869,162.43Z"/><path d="M868.66,161.6a1.63,1.63,0,0,1,.07.3A1.09,1.09,0,0,1,868.66,161.6Z"/><path d="M872.27,161.2s0,0,0,.05,0,0,0,0,0,0,0-.05A0,0,0,0,1,872.27,161.2Z"/><path d="M870,159.06h0l-.16.09h0s0,0,0,0l.17-.08Z"/><path d="M872.26,162.25s0,0,0,0,0,0,0,0,0,0,0,0A0,0,0,0,1,872.26,162.25Z"/><path d="M869.61,159.28a.46.46,0,0,1,.18-.13A.59.59,0,0,1,869.61,159.28Z"/><path d="M871,163.57s0,0,0,0l0,0h0s0,0,0,0,0,0,0,0Z"/><path d="M871.88,163a0,0,0,0,1,0,0s0,0,.06,0,0,0,0,0A0,0,0,0,1,871.88,163Z"/><path d="M870.27,159a.75.75,0,0,1-.18.08A.25.25,0,0,1,870.27,159Z"/><path d="M870.4,163.54a.2.2,0,0,1,.09.05s0,0,0,0a0,0,0,0,1,0,0,.39.39,0,0,1-.11-.06v0h0Z"/><path d="M870.89,159.22a.1.1,0,0,1,0-.05h0s0,0,0,0a.05.05,0,0,1,0,0h0A0,0,0,0,1,870.89,159.22Z"/><path d="M870.68,163.63a.05.05,0,0,1,0,0l0,0h0l.07,0v0h0Z"/><path d="M870.6,158.94a.31.31,0,0,1-.14.07h0l0,0Z"/><path d="M870.7,159h0a.21.21,0,0,1-.1.06s0,0,0,0v0l.1-.05S870.7,159,870.7,159Z"/><path d="M870.3,163.56s0,0-.07,0l-.08,0s0,0,0,0h0Z"/><path d="M869.41,159.4l.18-.15A.65.65,0,0,1,869.41,159.4Z"/><path d="M870.73,159.07h0a.15.15,0,0,1,.09-.06s0,0,0,0a.15.15,0,0,1-.09.06Z"/><path d="M870.37,159a.44.44,0,0,1,.16-.06A.31.31,0,0,1,870.37,159Z"/><path d="M870.93,163.61s0,0,0,0,0,0,0,0h0s0,0,0,0S870.91,163.61,870.93,163.61Z"/><path d="M869.22,159.59a1,1,0,0,1-.15.2A.75.75,0,0,1,869.22,159.59Z"/><path d="M872.19,160.74s0,0,0,0,0,0,0,0,0,0,0,0S872.21,160.74,872.19,160.74Z"/><path d="M871.41,159.56s0,0,0,0l0,0a0,0,0,0,1,0-.05S871.4,159.55,871.41,159.56Z"/><path d="M869.84,159.09,870,159A.4.4,0,0,1,869.84,159.09Z"/><path d="M871.59,159.78s0,0,0,0,0,0,0,0l0,0A0,0,0,0,1,871.59,159.78Z"/><path d="M869.87,163.38l-.18-.13A1.18,1.18,0,0,1,869.87,163.38Z"/><path d="M870.89,159.07a.1.1,0,0,1,.05,0h0s0,0,0,0a.1.1,0,0,1,0,.05h0Z"/><path d="M870.24,158.93l-.17.08A.34.34,0,0,1,870.24,158.93Z"/><path d="M869.44,163.05l.18.15Z"/><path d="M871.23,159.39s0,0,0,0,0,0,0,0,0,0,0,0A0,0,0,0,1,871.23,159.39Z"/><path d="M872.19,162.72s0,0,0,0,0,0,0,0,0,0,0,0A0,0,0,0,1,872.19,162.72Z"/><path d="M870.49,158.87l-.16,0A.43.43,0,0,1,870.49,158.87Z"/><path d="M870,163.42a1,1,0,0,1,.17.1Z"/><path d="M870.7,163.69a.32.32,0,0,1-.09,0h0s0,0,0,0A.09.09,0,0,1,870.7,163.69Z"/><path d="M870.41,163.61a.43.43,0,0,1,.12,0Z"/><path d="M870.73,158.91a.21.21,0,0,1,.11,0A.21.21,0,0,1,870.73,158.91Z"/><path d="M871.17,159.23l0,0s0,0,0,0l0,0S871.17,159.22,871.17,159.23Z"/><path d="M870.65,158.88a.31.31,0,0,1,.13,0A.5.5,0,0,1,870.65,158.88Z"/><path d="M871.55,163.45s0,0,0,0,0,0,0,0,0,0,0,0S871.56,163.46,871.55,163.45Z"/><path d="M870.83,158.93a.13.13,0,0,1,.09,0A.18.18,0,0,1,870.83,158.93Z"/><path d="M870.87,163.71l0,0h0s0,0,0,0h0S870.88,163.71,870.87,163.71Z"/><path d="M871.35,163.57l0,0h0s0,0,0,0S871.36,163.57,871.35,163.57Z"/><path d="M870.47,158.84l-.13,0Z"/><path d="M871.84,160s0,0,0,0,0,0,0,0,0,0,0,0S871.83,160,871.84,160Z"/><path d="M870.24,158.89l-.13.06A.75.75,0,0,1,870.24,158.89Z"/><path d="M870.75,158.83l-.13,0h0l.13,0Z"/><path d="M869.67,159.19l.12-.09h0l-.13.08Z"/><path d="M871.21,163.63s0,0,0,0h0s0,0,0,0Z"/><path d="M871.79,163.31s0,0,0,0a0,0,0,0,1,0,0h0Z"/><path d="M870.37,163.62a.75.75,0,0,1-.13-.06Z"/><path d="M871,159a.1.1,0,0,1,0,0A.1.1,0,0,1,871,159Z"/><path d="M870.72,158.8l-.1,0h0l.11,0Z"/><path d="M871.1,159.07s0,0,0,0,0,0,0,0l0,0S871.1,159.06,871.1,159.07Z"/><path d="M871.08,163.72s0,0,0,0,0,0,0,0,0,0,0,0Z"/><path d="M870.83,163.73h0Z"/><path d="M870.47,158.82l-.07,0A.08.08,0,0,1,870.47,158.82Z"/></svg>