<svg id="Layer_1" data-name="Layer 1" xmlns="http://www.w3.org/2000/svg" viewBox="0 0 1446.35 634.24"><defs><style>.cls-1{fill:#141414;}.cls-2{opacity:0.4;}.cls-3{fill:none;stroke:#fff;stroke-miterlimit:10;stroke-width:0.75px;}.cls-4{opacity:0.7;}.cls-5{fill:#fff;}</style></defs><rect class="cls-1" width="1446.35" height="634.24"/><g class="cls-2"><g class="cls-2"><line class="cls-3" x1="-60.72" y1="42.01" x2="1466.84" y2="42.01"/><line class="cls-3" x1="-60.72" y1="91.06" x2="1466.84" y2="91.06"/><line class="cls-3" x1="-60.72" y1="140.1" x2="1466.84" y2="140.1"/><line class="cls-3" x1="-60.72" y1="189.15" x2="1466.84" y2="189.15"/><line class="cls-3" x1="-60.72" y1="238.19" x2="1466.84" y2="238.19"/><line class="cls-3" x1="-60.72" y1="287.24" x2="1466.84" y2="287.24"/><line class="cls-3" x1="-60.72" y1="336.28" x2="1466.84" y2="336.28"/><line class="cls-3" x1="-60.72" y1="385.33" x2="1466.84" y2="385.33"/><line class="cls-3" x1="-60.72" y1="434.37" x2="1466.84" y2="434.37"/></g><g class="cls-2"><line class="cls-3" x1="-60.72" y1="483.42" x2="1507.07" y2="483.42"/><line class="cls-3" x1="-60.72" y1="532.46" x2="1507.07" y2="532.46"/><line class="cls-3" x1="-60.72" y1="581.5" x2="1507.07" y2="581.5"/><line class="cls-3" x1="-60.72" y1="630.55" x2="1507.07" y2="630.55"/></g><g class="cls-2"><line class="cls-3" x1="39.84" y1="796.5" x2="39.84" y2="-160.75"/><line class="cls-3" x1="87.46" y1="796.5" x2="87.46" y2="-160.75"/><line class="cls-3" x1="135.08" y1="796.5" x2="135.08" y2="-160.75"/><line class="cls-3" x1="182.7" y1="796.5" x2="182.7" y2="-160.75"/><line class="cls-3" x1="230.32" y1="796.5" x2="230.32" y2="-160.75"/><line class="cls-3" x1="277.94" y1="796.5" x2="277.94" y2="-160.75"/><line class="cls-3" x1="325.56" y1="796.5" x2="325.56" y2="-160.75"/><line class="cls-3" x1="373.18" y1="796.5" x2="373.18" y2="-160.75"/><line class="cls-3" x1="420.8" y1="796.5" x2="420.8" y2="-160.75"/><line class="cls-3" x1="468.42" y1="796.5" x2="468.42" y2="-160.75"/><line class="cls-3" x1="512.64" y1="796.5" x2="512.64" y2="-160.75"/><line class="cls-3" x1="560.26" y1="796.5" x2="560.26" y2="-160.75"/><line class="cls-3" x1="607.88" y1="796.5" x2="607.88" y2="-160.75"/><line class="cls-3" x1="655.5" y1="796.5" x2="655.5" y2="-160.75"/><line class="cls-3" x1="703.12" y1="796.5" x2="703.12" y2="-160.75"/><line class="cls-3" x1="750.74" y1="796.5" x2="750.74" y2="-160.75"/><line class="cls-3" x1="798.36" y1="796.5" x2="798.36" y2="-160.75"/><line class="cls-3" x1="845.98" y1="796.5" x2="845.98" y2="-160.75"/><line class="cls-3" x1="893.6" y1="796.5" x2="893.6" y2="-160.75"/><line class="cls-3" x1="941.22" y1="796.5" x2="941.22" y2="-160.75"/><line class="cls-3" x1="988.84" y1="796.5" x2="988.84" y2="-160.75"/><line class="cls-3" x1="1044.39" y1="817.57" x2="1044.39" y2="-139.68"/><line class="cls-3" x1="1092.01" y1="817.57" x2="1092.01" y2="-139.68"/></g><g class="cls-2"><line class="cls-3" x1="1142.22" y1="791.49" x2="1142.22" y2="-183.34"/><line class="cls-3" x1="1189.84" y1="791.49" x2="1189.84" y2="-183.34"/><line class="cls-3" x1="1237.46" y1="791.49" x2="1237.46" y2="-183.34"/><line class="cls-3" x1="1285.08" y1="791.49" x2="1285.08" y2="-183.34"/><line class="cls-3" x1="1332.7" y1="791.49" x2="1332.7" y2="-183.34"/><line class="cls-3" x1="1380.32" y1="791.49" x2="1380.32" y2="-183.34"/><line class="cls-3" x1="1427.94" y1="791.49" x2="1427.94" y2="-183.34"/></g></g><g class="cls-4"><path class="cls-5" d="M702.12,435.78c-2-1.88-.74-3.25.09-4.54,8-12.56,15.79-25.34,24.31-37.57,9.94-14.27,20.58-28.05,30.92-42a12.85,12.85,0,0,1,8.84-5.66c-7.72-4.91-7.54-12.38-7.31-19.68.51-16.54,1.06-33.08,2-49.6.6-10.82,2.27-21.58,2.78-32.39.73-15.58.84-31.18,1.2-46.77.12-5,1.24-9.55,4.58-13.47a10.33,10.33,0,0,1,7.57-4q21.23-1.16,42.43-2.24a10.51,10.51,0,0,1,2.3.45l0,.88a27.29,27.29,0,0,1-3.63.77c-11.86.8-23.72,1.6-35.58,2.28-10.5.6-13.4,2.83-14.43,13.28-.82,8.3-.53,16.71-1,25.06-.94,16.12-2.11,32.23-3.13,48.35-.47,7.49-.87,15-1.16,22.5q-.69,17.38-1.12,34.79a54.64,54.64,0,0,0,.63,9.38c.82,5.47,4.6,8.51,10.48,8.59.06-3,2.12-3,4.37-2.76,6.63.59,13.26,1.09,19.89,1.73,2.46.24,4.87.81,4.5,4,5.35.44,10.58.9,15.82,1.3,9.29.71,18.59,1.37,27.88,2.06,5.29.39,5.45.3,8.13-5.22-4.06-.27-8-.46-12-.8-19.7-1.69-39.4-3.45-59.1-5.13-3.12-.27-6.28-.14-9.39-.47-4.28-.45-5.14-1.45-5.2-5.94-.07-4.95-.12-9.9.09-14.84q1.27-28.92,2.72-57.84,1.62-31.9,3.4-63.81c.07-1.42.3-2.84.47-4.25.7-5.7.7-5.76,6.59-5.85q21.25-.35,42.51-.53c.91,0,1.82.69,2.73,1.06-.92.5-1.83,1.43-2.76,1.44-10.27.16-20.54.13-30.81.25-4.47.06-8.93.45-13.4.48-2.13,0-2.75.81-2.83,2.84q-.79,18.53-1.78,37c-1.27,24-2.68,48-3.86,72.06-.48,9.59-.54,19.21-.77,28.81,0,2,0,3.94,0,6.26,2.69.18,5.69.34,8.69.58,22.36,1.84,44.7,4.08,67.09,5.44,23.15,1.41,46.36,1.68,69.52,3,26.11,1.47,52.18,3.52,78.26,5.36,2.78.19,4-.72,4-3.66-.11-28.21,3.68-56.14,6.11-84.16q2.93-33.68,6.08-67.32c.18-1.94-.33-2.49-2.24-2.52-14.63-.19-29.26-.47-43.9-.7-2.56,0-5.13.09-7.7.09-.85,0-1.7-.16-2.52-.24l7.36-7.56a58.39,58.39,0,0,1-5.93.65,15.25,15.25,0,0,1-3.46-.77c1-.63,2-1.75,3-1.82,7.47-.51,15-1.2,22.44-1.08,10.25.17,20.49,1.08,30.74,1.52a25,25,0,0,1,12.55,4.23c4,2.58,5.65,6.85,6,11.47a43.44,43.44,0,0,1-.45,7.09c-.85,9.08-1.75,18.15-2.6,27.23-1.71,18.36-3.49,36.72-5.07,55.09-1.38,16-2.43,32-3.81,48-.53,6.14-1.22,12.28-4.19,17.92-2,3.81-4.1,7.33-8.94,8.08,7.84,11.3,4.69,23.3,2.25,35-4.79,23-9.8,45.9-15.55,68.64-2.55,10.06-7,19.67-10.95,29.31-.79,1.93-.75,6.13-5.38,4.73-1-.31-2.61,1.7-4.08,2.08-12.94,3.32-26,5.5-39.45,4.18-21.19-2.07-42.48-3.51-63.51-6.66-23.38-3.51-46.51-8.71-69.76-13.06-18.3-3.42-36.66-6.55-54.95-10.07A81.83,81.83,0,0,1,712.35,466c-8.74-5.32-13-13.31-14.08-23.22-.23-2.11.17-4.17,3-5a7.37,7.37,0,0,1,.1,2,8.35,8.35,0,0,0,4.17,10c4.67,2.69,9.48,5.51,14.6,6.94,14.82,4.12,29.79,7.66,44.75,11.25,14.69,3.53,29.43,6.81,44.14,10.25,26,6.06,52.35,9.39,78.81,12.41a389.19,389.19,0,0,0,59.2,2.62c4.17-.16,8.32-.61,12.15-.91-5.72-7.54-11.59-15-17.12-22.63s-10.63-15.53-16-23.26-11.92-14.48-17.42-22.07c.39-.34.77-.69,1.15-1a21.61,21.61,0,0,1,2.85,2.62q10.32,13.45,20.54,27,13.82,18.31,27.56,36.68a20.14,20.14,0,0,1,1.35,2.29l4.92-.26.31,1.1c-1.55.57-3.06,1.49-4.64,1.65a331.51,331.51,0,0,1-71.46-.81c-14.06-1.64-28.19-2.92-42.16-5.16-15.19-2.44-30.28-5.55-45.31-8.83-23.49-5.12-46.94-10.41-70.3-16.07-10.3-2.49-20.58-5.42-29.64-11.38l-.65.56a53.89,53.89,0,0,0,4.41,5.82c6.88,7,15.49,11.08,24.91,13,18.23,3.78,36.57,7.05,54.86,10.56,24.64,4.73,49.21,9.85,73.93,14.12a581.12,581.12,0,0,0,74.85,7.68c2,.08,4-.2,6.22-.32a13.87,13.87,0,0,1-1.14-3,7,7,0,0,1,.57-2.37l.88,0c.46,1.56.91,3.11,1.47,5l3.88-.23c.28-1.69.52-3.2.77-4.71l.9.12a17.13,17.13,0,0,0,1.83,3.83c.3.38,1.74-.15,2.91-.3v-5.1l.93-.21,1.45,5,3-.44c-.17-1.86-.33-3.52-.49-5.19l1.09-.31c.42.91.8,1.83,1.26,2.72.34.64.78,1.24,1.17,1.86a14.93,14.93,0,0,0,1.28-2.12,6.05,6.05,0,0,1,1.09-2.33l2.21,3.29,6-2.37-3-2.73.35-.72,3.28.67c.52-.9,1.17-2,1.81-3.11-.13-.3-.25-.59-.38-.88l-7,1.85c.75-1.17,1.19-1.84,1.62-2.53,1.53-2.46,3.47-4.76,4.49-7.42,1.73-4.51,2.8-9.27,4.28-13.88,9.64-29.86,15.33-60.71,22.84-91.11.06-.28.15-.55.21-.83,1.72-9.28-3-14.3-12.45-13.1a2.83,2.83,0,0,0-1.77.8c-2,2.47-4.46,2.29-7.25,1.95-5.94-.73-11.92-1.13-17.88-1.73a6.27,6.27,0,0,1-5.35-3.2c-.51-.89-2.23-1.44-3.43-1.51-11.71-.67-23.44-1.12-35.16-1.79-21-1.21-41.95-2.43-62.92-3.84-16.69-1.13-33.36-2.56-50-3.84-1.22-.09-2.46,0-4,0-.37,3.23-2.58,3.68-5.52,3.43-6.25-.54-12.51-.83-18.77-1.3a5.94,5.94,0,0,1-1.85-.89c.45-.5.88-1,1.35-1.49,1.08-1.12,2.17-2.22,3.71-3.78l.29,3.52.65.49c.47-.71.91-1.47,1.44-2.14a14.58,14.58,0,0,1,1.5-1.44c.24.62.49,1.23.71,1.87s.41,1.34.61,2c.62-.42,1.24-.83,1.85-1.26s1.36-1,1.82-1.32c1.64.63-1.28,4.08,2.23,2.66.83-.34,1.27-1.62,2.2-2.88l1.15,3.23,3.59.26c1.1-3.68.68-4.56-2.74-5-5.66-.66-11.34-1.14-17-1.71-2.57-.26-4.24.32-4,3.47.08,1.1-.69,2.25-1.08,3.37l-.79-.13-1-2c-6.3-1-10.71,1.34-14.38,6.49-11.54,16.16-23.63,31.92-35,48.17-6.33,9-11.72,18.66-17.56,28C704.26,432.87,703.19,434.27,702.12,435.78ZM1011.05,246l.87.72c-1,1.56-1.77,3.57-3.21,4.55-2.12,1.45-2.34,3.09-2.09,5.33l3.26-2,.6.58-4.66,7.19h3.24l-3.84,7.06,3.69-.82-4.35,7.88.59.32,2.6-1.48.74.77a42.57,42.57,0,0,0-2.71,4,47.81,47.81,0,0,0-1.91,4.85l4.4-1.48L1003,293l.79.47,2.61-2,.87.54c-2.53,4-6.18,7.6-4.42,12.91l3.85-2.64c0,3.32-1.48,4.75-4.61,4.86-.15,2-.31,3.94-.49,6.29l3.7-2.68c.06,3.09-1.92,4.36-4,5.35v5.33l4.33-3.34c1.16,2.64-.92,3.25-2,4.27-1.55,1.44-3.8,2.43-2.69,5.39l4.24-2.92a5.5,5.5,0,0,1-4.62,5.44c0,3.2.05,6.44,0,9.66,0,1.94-.36,3.92,2.85,4.44-2.62,1.8-5.39,3.09-3.58,6.59l5-3.61.49.57c-2.15,4.59-6.69,6.87-9.91,10.42l-1-.66c.65-1.32,1.31-2.65,1.95-4-5-1.15-9.26-1.1-11.07.14,2.12,3.4,4.23-.78,6.74-.05l-3.77,5c3.12.42,5.61.9,8.12,1.06,5,.32,7-1.08,8.2-5.92a52.25,52.25,0,0,0,1.58-8.67c1.43-18.2,2.74-36.4,4.09-54.61,1.16-15.64,2-31.32,3.56-46.92,1.32-12.94,3.57-25.79,5.34-38.68.69-5.09.86-10.16-1.85-15.56-1.56,3.41-5,5-5.15,9.08l4.56-2.77.57.69a32.39,32.39,0,0,0-3,4.71c-.65,1.48-3.52,1.87-2.38,4.49,4-3.4,4-3.4,5.12-3.17-1.43,3.69-5.91,5.7-6.16,10.75l4.78-4.07c-.38,5.15-6.13,7.48-5.88,13.18l4.14-3.33.69.72c-1.23,1.62-2.43,3.27-3.69,4.85s-2.88,3.25-1.63,5.61l4.23-3.6.58.66c-1.31,4-6.9,5.94-5.54,11.32l2.87-1.35.62.56c-2.09,3.37-5.63,6.24-4.38,11ZM936.74,348.29c-7.41-.28-14.53-.17-21.56-.92-5.47-.58-8.13,2.72-11.48,6.22,5.35,1.65,6.46-4.67,11.11-5.1-1.53,2.16-2.74,3.85-4,5.62,2.52.83,4.24.61,5.73-1.49a14.92,14.92,0,0,1,3.87-3.3,10.76,10.76,0,0,1,2.79-.92l.54,1-5.81,4.94c2.7,1.13,4.37,1.19,6.08-1.09s3.9-4.13,6.85-4.41l.49.7-5.76,5.41.4,1c1.55-.22,3.52.07,4.55-.79C932.75,353.28,934.47,350.86,936.74,348.29Zm49.81,7.89h-9.06c-4.65,0-9.31,0-14-.1-1.54,0-2.7.44-2.78,2.11a9.3,9.3,0,0,0,.59,2.52c1-.44,2-.87,3-1.33.47-.22.91-.5,1.43-.79.43,3,.43,3,2.76,2.94.07-1.58-.34-3.71,2.66-3.41-.26,1.37-.46,2.46-.76,4.1l7.56.54c1.09-1.79,1.78-2.94,2.48-4.08l.91,4.31h4.24C985.9,360.84,986.2,358.72,986.55,356.18Zm-38.21.13c4.18,2.4,4.85-3.64,8.52-2.82L955,356.94c1.39.23,3.1.1,3.3-.52,1.09-3.32,3.43-3.4,6.15-2.87,2,.4,3.25-.36,4.11-2.54-5.42-.53-10.68-1.12-15.95-1.53-4.47-.35-8.94,2.78-10.58,7.15,2.22.63,3.56-.2,4.88-2.15s3.31-3.19,5-4.76l.94.94ZM981.79,190c2.5,1.14,4.22.34,5.77-1.63a31.81,31.81,0,0,1,3.52-3.33l.72.69L989,190.44c5.48,2,5.87-3.48,8.79-5.27-5-.66-10-.76-14.87-1.28-4.59-.48-6.92,2.15-8.9,5.87,1.8,0,3.72.05,5.2-.74s2.14-3.28,5-3.17Zm-83.46,156.6c-6.83.2-14.34-3.27-18.11,5.64,2.11,1,3.72.47,5.37-1.65,1.34-1.71,3-3.71,6.2-3.28L886.5,353c2.76-.14,5,.4,6.35-.47C894.88,351.2,896.29,348.9,898.33,346.59Zm116.87-86.06-.57-1.09c3.31-2.08,5.61-4.62,4.32-9.18-1.42,1.35-3.56,2.4-3.83,3.81-.75,3.95-.73,8-1,12.25,3.95-1.25,4.4-2.06,4.21-6.73Zm-82.3,95,.3.7c2,0,4.54.78,5.79-.17,2.31-1.78,3.86-4.57,5.71-6.91C938.29,347,936.3,352.47,932.9,355.51ZM895.63,353c5.14,1.14,7.1.09,10.9-5.64C901,346.19,901,346.19,895.63,353Zm120.83-164.22c-7.12-4.7-9.89-3.77-11.42,2.07l7.4-3c-.15,1.39-.29,2.68-.51,4.69ZM853.3,350.58c3.41.89,5.22-.31,7.76-4.92C856.21,345,856.21,345,853.3,350.58ZM872.7,352c5,1.17,6-3.7,9.59-5C878.09,345.56,876.5,346.42,872.7,352Zm94.89-167.86c-3.77-1-5.67.5-7.68,5.49C964.33,190.46,965.4,186.75,967.59,184.09Zm7.08.12c-3.72-.83-5.46.38-7.49,5.21C970.26,190,971.65,189,974.67,184.21Zm-106.11,162c-3.64-1.31-6.26.46-8.08,5C864.83,352.38,865.78,348.28,868.56,346.25Zm148-104c3.72-1.92,4.39-3.28,3.69-7.35C1016.44,236.05,1016.61,239.14,1016.57,242.23Zm-19.93-52.09c4.16,1.18,5.56-2,7.77-4.17C1000.85,184.68,1000.63,184.8,996.64,190.14Zm20.87,77.92c-4,1-4.6,2.2-3.48,6.55C1017.36,273.6,1018.05,271.17,1017.51,268.06Zm-146.72,83.7a22.56,22.56,0,0,1,1.35-3,20.44,20.44,0,0,1,2.07-2.36c-3.39-.44-5.8,1.42-6.91,5.16ZM1015.68,250c4.52-2.83,4.52-2.83,4-6.28C1016.16,244.34,1015.44,246.85,1015.68,250Zm-2.46,32.19c3.32-.77,3.8-1.65,3.25-5.81C1013.17,278.21,1013.17,278.21,1013.22,282.14Zm-1.7,24.47c3.53-1.57,3.85-2.36,2.57-5.62C1010.85,301.68,1011.57,304.19,1011.52,306.61Zm1.82-15.91c3.16-1.3,2.29-4,2.52-6.43C1012.58,285.81,1012.37,286.35,1013.34,290.7ZM1011,313.86c3.62-1.77,3.72-2,2.85-5.38C1010.69,309,1010.86,311.23,1011,313.86Zm2.74,1.57c-3.43.88-3.27,3.29-3,5.91C1013.7,320.28,1014.08,318.11,1013.75,315.43Zm6.88-87.43c-1.73,1.47-3.51,2.54-3,5.12C1020.51,232.46,1021.54,231,1020.63,228ZM1015,293.56l-1.08-.5-2.25,5.19C1014.86,297.71,1015.31,295.83,1015,293.56Zm-5.5,33.66.8.62c3-.34,3-2.37,2.72-5.46ZM976,353.12l-.25-1.27c-1.77,0-3.83-1.15-4.9,2.17Zm5.38,115.32.85.61c2-.6,3.34-1.66,2-4.64Zm31.17-137.83c-3.3,1.57-3.56,2.34-1.91,5.47C1011.43,333.8,1012,332.2,1012.54,330.61ZM978.2,483.53l-3.82,3.82C977.41,488.31,978,487.76,978.2,483.53Zm11-33.72c-2.89,1-2.92,3-2.78,5.4C989.16,454.21,988.84,452,989.18,449.81Z"/><path class="cls-5" d="M871.83,365.36c-2-2.37-4.12-4.68-6-7.14-.51-.66-.45-1.76-.65-2.66a8.9,8.9,0,0,1,2.38,1.22c2.75,2.75,5.28,5.72,8.11,8.37,1.12,1.05,2.81,1.48,4.24,2.19l.4-.69c-2.15-2.6-4.35-5.16-6.42-7.83a6.56,6.56,0,0,1-.64-2.3c.79.28,1.82.35,2.33.9,2.4,2.56,4.7,5.23,7,7.93,1.6,1.91,1.54,2,4.33,1.71-1.28-3.63-6-5.3-6.09-9.57l.86-.62c2.44,2.72,4.91,5.4,7.3,8.16,2.07,2.37,4.44,3.82,7.92,3-2-3.81-6.51-5.94-7.71-10.17l1-.81c1.3,1.31,2.66,2.56,3.88,3.94,1.94,2.19,3.49,4.84,5.75,6.6,1.52,1.18,4,1.17,6,1.69l.43-.76L900.43,362a10.86,10.86,0,0,1-1.64-2,5.82,5.82,0,0,1-.26-2c.66.17,1.55.14,2,.56,2.61,2.76,5.2,5.55,7.63,8.47,2,2.37,2.41,2.68,6.11,2.33-2.24-2.43-4.41-4.65-6.4-7-.55-.66-.52-1.79-.77-2.7a8.17,8.17,0,0,1,2.53,1.16c2.55,2.56,4.91,5.31,7.48,7.84.82.81,2.08,1.17,3.82,2.1-1.09-4.42-5.66-5.59-5.92-9.75,5.39,1.93,6.69,9,13.17,9.54-1.55-3.23-5.12-4.77-5.74-8.11l.94-.81c2.25,2.33,4.6,4.57,6.7,7,1.44,1.69,2.92,2.51,5.36,1.66a27.12,27.12,0,0,1-6.17-8.6l1.18-.82,8.8,10.24,4.27.29c-1.66-3.21-5.54-4.28-6.45-8.2,6,1.14,7.42,8.68,13.94,8-1.72-1.4-3.54-2.71-5.12-4.25-.61-.59-.69-1.71-1-2.6a7.65,7.65,0,0,1,2.42.68c2.14,1.58,4.24,3.23,6.21,5a7.76,7.76,0,0,0,7.61,1.92c-1.32-1.22-2.43-2.24-3.53-3.27a16.92,16.92,0,0,1-2.19-2.21c-.31-.43-.17-1.19-.24-1.79.61,0,1.42-.25,1.77.05,2.17,1.85,5,3.46,6.13,5.84,1.36,2.81,3.19,1.7,5.14,1.79q-2.73-2.88-5.48-5.75l.47-.79a18.05,18.05,0,0,1,2.44.58,2.66,2.66,0,0,1,1,.94c3.43,4.42,7.74,6.77,13.51,6.16,1.32-.14,2.72.51,4.09.79l.24,1c-1,.4-2.05,1.15-3.05,1.12-3.33-.09-6.64-.52-10-.73-11.56-.77-23.13-1.49-34.7-2.24-.67,0-1.33-.07-2-.15-5.38-.6-5.53-.49-6.84,5.48,5.16.67,10.3,1.4,15.45,1.89.53.06,1.3-1.23,1.76-2,.75-1.23,1.33-2.55,2-3.84l1.32.5c-.42,1.72-.84,3.44-1.33,5.48,4.91,1.8,10.49.69,15.31,3.17-9,2.22-17.74-.85-26.29-1.19-.83,2.55-1.67,5.11-2.55,7.84,4.13,1.21,8.47-.52,12.24,1.39l.15.92c-1.05.37-2.14,1.14-3.14,1-2.08-.2-2.57.77-2.89,2.52a63.83,63.83,0,0,1-1.79,7.18c-.21.67-1,1.16-1.55,1.73-.25-.72-.79-1.49-.68-2.14.51-3,1.21-6,2-9.44-4.13-.17-8.15-.44-12.16-.41-.66,0-1.42,1.27-1.93,2.07a20,20,0,0,0-1.24,2.78l6.61,5.37-.8,1.08-6.68-4.34c-.58,1.9-.95,3.53-1.58,5.06a10,10,0,0,1-1.71,2.17c-.23-.95-.86-2-.61-2.85,1.17-3.88,2.58-7.69,4-11.91-4.93-.53-9.79-1.13-14.67-1.5a3.25,3.25,0,0,0-2.47,1.4c-2.15,3.76-4.11,7.64-6.33,11.85,2.31.11,4.36.17,6.4.32,3.25.24,3.65.81,2.77,3.87s-1.85,6.33-2.88,9.84a23.89,23.89,0,0,0,2.68.54q26.6,1.92,53.2,3.8c1.89.13,3.8.22,5.69.41,2.78.29,5.73,1.16,7-2.64.11-.32.75-.46,1.73-1,0,1.21.28,2.11,0,2.68-1.37,2.37-.14,3.75,1.49,5.32,2.5,2.4,4.79,5,7.16,7.56l-.64,1a9.87,9.87,0,0,1-2.69-1.37c-2.22-2.22-4.24-4.63-6.43-6.88a4.16,4.16,0,0,0-2.3-1.38c-6.34-.5-12.69-.85-19-1.23a3.63,3.63,0,0,0-1,.28,7.12,7.12,0,0,0,.66,1.22q12.16,14,24.34,28a3.1,3.1,0,0,1,.71.89c.24.72.35,1.48.52,2.22-.77-.27-1.81-.3-2.27-.84-4.35-5-8.54-10.22-12.89-15.25-3.23-3.74-6.68-7.3-9.94-11-1.42-1.61-2.62-3.4-4.3-5.6l-22.1-2.11c7.53,10.13,14.87,20.18,22.4,30.08s15.25,19.7,22.88,29.55l-1,1a15.18,15.18,0,0,1-2.6-2.15c-8.72-11.28-17.34-22.62-26.07-33.89-5.42-7-11-13.85-16.44-20.79-.88-1.13-1.54-2.43-2.52-4l-4.23-.27c2.91,4.33,5.32,8.34,8.13,12,13,17.13,26.07,34.17,39,51.28.78,1,.94,2.51,1.4,3.77-1.1-.72-2.51-1.21-3.25-2.19C948.29,466.88,932.67,446,917.3,425a6.76,6.76,0,0,0-5.69-3.1q-33.51-2.91-67-6.08c-16.28-1.52-32.59-2.8-48.81-4.78s-32.38-4.56-48.52-7.16c-8.21-1.32-8.59-2.19-4-8.81,8-11.64,16.43-23.06,24.66-34.58a5.72,5.72,0,0,1,5.47-2.38c12.43.82,24.86,1.57,37.27,2.5,14.59,1.1,29.16,2.35,43.74,3.52.81.06,1.63,0,3.11,0-2-2.37-3.66-4.25-5.12-6.29-.49-.68-.39-1.79-.56-2.7a7,7,0,0,1,2.3,1.12,39.9,39.9,0,0,1,4.82,6c1.28,2.12,2.85,2.86,5.86,2.4-2.23-2.46-4.27-4.57-6.13-6.83a9.39,9.39,0,0,1-1-2.79c.88.34,2,.45,2.59,1.08,2.37,2.69,4.41,5.69,6.9,8.27,1,1,2.85,1.25,4.31,1.85Zm31.22,49.08,2.39-6.53c-1.9-.35-3.37-.75-4.86-.87-6.16-.48-12.33-.78-18.48-1.34-11.08-1-22.13-2.21-33.21-3.21-6.62-.6-13.27-.81-19.89-1.46-10.3-1-20.57-2.36-30.88-3.35-4.66-.45-10.45,4.47-11.43,9.5,2.34.37,4.66.84,7,1.07,17.5,1.72,35,3.37,52.51,5.09,17.31,1.71,34.61,3.52,51.92,5.2,4.16.4,4.23.2,5-4.18Zm-160-14.35a58.94,58.94,0,0,0,6.59,1.8c10.61,1.58,21.25,3.05,31.88,4.49a3.25,3.25,0,0,0,2.49-.68c1.84-2,3.89-4.05,5.08-6.46,2-4.09,5-5,9.07-4a6.22,6.22,0,0,0,2.26.22,3.83,3.83,0,0,0,2.28-.83c2.61-3.1,5.07-6.32,7.81-9.78l-21-1.69,0-1.39a15.68,15.68,0,0,1,3.22-.44c7.88.46,15.74,1,23.62,1.48,1.06.06,2.62.07,3.16-.56,2.17-2.55,4-5.36,6.28-8.45-4.51-.62-8.51-1.4-12.54-1.68-5-.35-10.06-.23-15.08-.46-.82,0-1.61-.82-2.41-1.26.76-.37,1.53-1.05,2.29-1.05,4.37,0,8.75.09,13.11.27,4.61.19,6.62-1,8.6-5.58-.57-.11-1.1-.26-1.64-.31-6-.54-11.91-1.21-17.88-1.57-9.09-.54-18.2-.92-27.31-1.19a4.87,4.87,0,0,0-3.6,1.55q-9.67,13-19,26.32C747.79,392.33,745.66,396,743.08,400.09Zm123-12.42c-6.25-.25-11.72-.51-17.19-.65a2.59,2.59,0,0,0-1.92,1c-2.4,3.59-4.67,7.26-7.37,11.52,6.11.49,11.55,1,17,1.28a3.34,3.34,0,0,0,2.2-1.51C861.15,395.7,863.35,392.06,866.08,387.67Zm18.22,2.74c-.3-.41-.4-.67-.52-.69-4.7-.61-9.4-1.25-14.11-1.75a2.39,2.39,0,0,0-1.92.93c-2.44,4-4.76,8.11-7.31,12.53l17,1.64Q880.95,396.56,884.3,390.41Zm-39.63-3.27c-4.23-.22-7.74-.27-11.22-.65-2.85-.31-5,.12-6.68,2.8s-4.06,5.09-6.42,7.95l16.72,2.37Zm35.22,16.43c5.49.25,10.4.5,15.31.67a1.74,1.74,0,0,0,1.35-.75c2-4.06,3.9-8.17,6-12.66-5-.3-9.77-.61-14.57-.82a2.07,2.07,0,0,0-1.49,1C884.38,395,882.33,398.91,879.89,403.57ZM826.44,386.1c-4.09-.4-7.54-.77-11-1a3,3,0,0,0-2.14.47c-2.95,3.11-5.78,6.34-9.2,10.14,3.72.5,6.46.68,9.1,1.28,3,.68,5.14.5,6.84-2.71C821.54,391.4,824,389.09,826.44,386.1Zm88.18-5.73L898.37,379c-.9,3-1.72,5.78-2.62,8.79,2.81.28,5.53.5,8.24.81,8.52,1,8.52,1,10.63-7.31A6.07,6.07,0,0,0,914.62,380.37Zm-86.48-6.45-6.1,9.41c5.42.37,10.23.71,15.05,1a1.83,1.83,0,0,0,1.46-.6c1.47-2.57,2.82-5.21,4.36-8.11Zm86.93,15.62c3.69.33,7.25.72,10.83,1,4.5.32,4.46.26,6.08-3.76.57-1.42,1.4-2.74,2.22-4.32-3.44-.32-6.74-.74-10.05-.93-7.47-.42-7.47-.38-9.15,7A5.79,5.79,0,0,0,915.07,389.54Zm-73.87-5.76.33,1c4.32,0,8.64.07,13-.06a3.45,3.45,0,0,0,2.58-1.23,54.6,54.6,0,0,0,2.7-6.08c-4.66-.55-8.86-1.1-13.08-1.48a2.51,2.51,0,0,0-1.76,1.2C843.6,379.32,842.43,381.57,841.2,383.78Zm35.18,2.42c5.34.46,10.07.91,14.8,1.21a2.59,2.59,0,0,0,2-1.12c1-2.2,1.82-4.52,3-7.66-5.42,0-10.16-.05-14.9.05a3.07,3.07,0,0,0-2.27,1.16C878.06,381.73,877.37,383.79,876.38,386.2Zm-4.25-17.74-14.79-1.92-3,7.63c3.2.35,6,.71,8.77.94,6.46.55,6.46.53,8.89-5.57A5.54,5.54,0,0,0,872.13,368.46Zm-16.7-2.4c-4.85,0-9.09,0-13.33,0a2.68,2.68,0,0,0-1.82,1c-1.07,1.53-2,3.19-3.16,5.19,4.68.58,9,1.18,13.28,1.59a2.62,2.62,0,0,0,1.9-1.26C853.35,370.76,854.17,368.75,855.43,366.06Zm21.46,12.46c-4.37-.22-8.24-.51-12.1-.56a3.66,3.66,0,0,0-2.82,1.19,36.84,36.84,0,0,0-2.43,5.66c4.62.27,8.76.56,12.9.7a2.56,2.56,0,0,0,1.95-1.11C875.3,382.66,876,380.79,876.89,378.52Zm-4.8-2.76c3.6.16,6.91.35,10.21.44,4.33.12,6-1.36,6.88-6.07-3.12-.29-6.22-.57-9.32-.88-5.73-.56-5.74-.56-7.45,5C872.3,374.57,872.26,374.94,872.09,375.76Zm-34.31-9.56c-4-.65-7.83-1.42-11.67-1.83s-6.25,1.8-6.77,5.87a1.78,1.78,0,0,0,.51.23c3.29.3,6.6.57,9.9.89C834.71,371.83,835.64,371.27,837.78,366.2Zm70.79,11c4.23.46,8.16.92,12.09,1.3,4.88.48,5.64-.2,6.38-5.5l-17.17-.8C909.44,373.81,909.05,375.33,908.57,377.17Zm-19.28-.43c4.52,0,8.68-.07,12.84,0,4.44.11,4.61,0,5.32-5-3.57-.39-7.12-.95-10.7-1.13C891.38,370.35,891.26,370.55,889.29,376.74Z"/><path class="cls-5" d="M894.59,210.73c-.56-1.37-2-1.4-3.42-.36-3.21,2.35-6.31,4.87-9.46,7.3a6.94,6.94,0,0,1-3,1.47c1-4.47,5.68-5.72,7.93-9.22l-1.74-1.2c-.44-1.72,5.05-5.65,7.84-5.37L890,206.84l.28.39a8.85,8.85,0,0,1,1.7-1c.74-.25,2-.68,2.26-.37,2.63,2.79,5.6.29,8.37.62.3,0,1-1.05,1.06-1.65,1.52-15.71,3-31.43.83-46.89-13.11,2.44-26.08,2.61-39.39-2.35-1.54,15.7-3.07,31.32-4.65,47.37,5.28.59,10.14,1.21,15,1.57.49,0,1.48-1.46,1.59-2.33q1.07-8.49,1.78-17c.22-2.47,1.87-2.82,3.56-2.33a4.77,4.77,0,0,1,2.49,2.63,19.58,19.58,0,0,1,.77,4.52l3.62.31-4.35,5,.54.62,5.53-3.48c-.27,4.86-5.7,5.17-6.56,9.62l7-4.18.82,1.16a36.43,36.43,0,0,1-3.52,3.08c-2.47,1.68-5.23,2.82-4.91,6.8a3.65,3.65,0,0,1-3.61,3.7c-1.17.1-2.25,1.25-3.37,1.92l-3.22,1.88c.09-3.41,4.85-4.26,2.64-7.72-1.36,1.21-2.7,2.51-4.18,3.65-.47.36-1.28.27-1.94.39a5.26,5.26,0,0,1,.61-1.95,45.62,45.62,0,0,1,3.36-3.24c-2.64-1-4.5-1.07-5.51,2-1.42,4.31-3.1,8.53-4.71,12.77-.34.91-.82,1.78-1.56,3.36-1.67-4.13-.39-7.22.75-10.21s2.63-5.83,4-8.75c-4.42-1.35-4.3-1.27-6.46,2.08a4.1,4.1,0,0,1-3.21,1.51c-4.07-.35-8.09-1.14-12.15-1.57-2.24-.24-2.8-1.25-2.65-3.38.79-10.72,5.83-18.94,14.57-24.93a7.17,7.17,0,0,0,3.51-6.05,161.55,161.55,0,0,1,7.1-38.3c2.81-9.34,7.72-17.53,13.63-25.17a3.27,3.27,0,0,1,2.64-1c-3.84,6.88-8.23,13.51-11.34,20.7s-5,15.06-7.41,22.63c11.69,3.69,22.13,5.38,39.47,2.28-.84-5.28-1.48-10.63-2.59-15.87-1-4.82-2.49-9.55-3.87-14.3a23.81,23.81,0,0,0-7.08-11.18,34.41,34.41,0,0,1-3.11-2.92c-.4-.46-.39-1.27-.56-1.93.75,0,1.75-.23,2.21.15,5.52,4.55,9.79,9.9,11.86,17a145.58,145.58,0,0,1,5.82,37.06c.13,4.85.26,9.7.61,14.53a4.19,4.19,0,0,0,1.68,3.07c6.55,3,9.81,8.29,10.69,15.1a53.35,53.35,0,0,1,.15,11.37c-.29,3.24-1.72,4.39-4.61,3.87-3.72-.68-7.83-.1-11.24-1.43-2.77-1.08-4.78-.54-7.09,0,.74,3.64,1.65,7.11,2.11,10.65a28.48,28.48,0,0,1-.16,7.08c-.38,3.08-1.39,3.79-4.38,3.41q-15.13-1.87-30.24-3.89c-.67-.09-1.24-.85-1.85-1.3.69-.33,1.41-1,2.06-.94,8.13.74,16.25,1.58,23.85,2.34l8.14-6.37c-.06-.53-.2-1.8-.41-3.59-3,2.45-5.59,4.64-8.29,6.67a10.34,10.34,0,0,1-2.91,1c.52-1,.82-2.2,1.6-2.86,2.25-1.89,4.7-3.54,7.07-5.3,2.19-1.64,2.18-1.65,1-4.15-3.56,2.93-7.12,5.91-10.76,8.79a6.91,6.91,0,0,1-2.42.68c.23-.82.18-2,.71-2.4C886.57,216.85,890.46,213.92,894.59,210.73Zm13.46-27c-.67,8.24-1.3,16.1-1.93,24,3.43.36,6.82.64,10.19,1.11,1.53.21,2.11-.23,2.09-1.74-.06-2.94.28-5.92-.13-8.8C917.37,191.94,915.38,186.19,908.05,183.7Zm-48.73,6.52-.65-.6c-1.5,1-3,2-4.51,2.89-.45.25-1.16.05-1.75.05.2-.56.24-1.31.64-1.64,1.37-1.17,2.87-2.19,4.32-3.27,2.49-1.85,2.6-2.18,1.74-5.66-7.64,5.43-12.62,12.32-13.69,21.72-.18,1.62.3,2.4,2.08,2.58,3.11.31,6.2.91,9.3,1.36,2.68.39,3.24-.44,2.12-3.2l-3.47,1.71-.72-.75,3.78-4.13-.71-.62a41.44,41.44,0,0,1-4.22,2.22,6.93,6.93,0,0,1-2.45,0,8.47,8.47,0,0,1,1.66-1.89,15.5,15.5,0,0,1,3.61-1.65c2.58-.77,2.59-2.44,2-4.82-1.73,1.24-3.13,2.37-4.67,3.26-.55.32-1.44,0-2.17,0,.25-.62.33-1.47.79-1.82,1.58-1.21,3.36-2.16,4.94-3.37A14.2,14.2,0,0,0,859.32,190.22Zm22.1-4.68c-1.56,7.93-1.69,16-1.89,24.28C882.38,208.43,883.92,188.32,881.42,185.54ZM892,227.62c1.74,1.84,3.68-4.62,5.23.62v-4.7Z"/><path class="cls-5" d="M932.61,324.94c2.3,3.08,5.17.69,8.5-.11a12,12,0,0,0-1.27,2.63,12.47,12.47,0,0,0,.1,2.58,8.08,8.08,0,0,0,2.42-.54c.89-.51,1.53-1.45,2.41-2a9.19,9.19,0,0,1,2.28-.71l.44.76-6,6.32c2.47.4,3.77-.13,5.15-1.55,1.13-1.17,2.82-1.8,4.26-2.66l.5.71-1.39,3c3,1.05,5.69,1,8.14-1.47a54.68,54.68,0,0,1,6.23-5,11.59,11.59,0,0,1,2.28-1.06l.6.83-9.11,8.53,1.75,1.64c2.17-3,4.52-5.28,8.46-5.16.85,0,1.66-1.48,2.62-2.06a33.18,33.18,0,0,1,3.52-1.64l.9,1.2-4.67,2.58c2.88,2.79,4.66,2.37,6.44.46a23.35,23.35,0,0,1,3.44-3,13.66,13.66,0,0,1,2.54-1.17l.6.82c-1.92,1.88-3.9,3.71-5.74,5.68a7,7,0,0,0-.94,2.25,7.43,7.43,0,0,0,2.18-.69c1.71-1.21,3.28-2.61,5-3.84a15,15,0,0,1,2.31-1.12l.78,1L977,341.83c2.8,1,5.21,1.65,7.47,2.67.66.3.88,1.56,1.31,2.37-.88,0-2,.36-2.58-.05a6.82,6.82,0,0,0-7-.67c-2.11.85-2.82.17-2.39-2a3.47,3.47,0,0,1,.16-.55c1.59-5.52,0-8.21-5.79-8.76a7.81,7.81,0,0,0-4.8,1.62c-1.58,1.13-2.69,2.89-4,4.33-.33-.08-.56-.07-.66-.19-.93-1-1.71-2.84-2.77-3-4-.67-7.85-3.13-12-.91-2.45,1.31-3.5.22-4.37-2.14a12.64,12.64,0,0,0-3.21-4.88c-3.31-3-7-2.48-9.74,1-.51.64-1,1.25-1.55,1.84-.4-.23-.65-.28-.71-.41-2.56-5.56-8.61-7.35-14.65-4.37-1.21.59-2.48,1-3.73,1.57l-.7-.6c.39-1.49.43-3.22,1.24-4.43,1.68-2.51.25-4.51-1-6.07a4.53,4.53,0,0,0-5.87-1.37c-.42.22-1.06,0-2,0a23.75,23.75,0,0,1,.86-3.34c2.33-5.33.62-9.79-4.81-11.91a7.93,7.93,0,0,0-3.89-.57c-7.15,1.08-13.38,3.64-16.53,10.9-1,2.38-2.31,4.64-3.47,7l-1-.11c-.42-1.28-.88-2.53-1.25-3.82-1.25-4.42-4.22-5.93-8.68-4.38L855.09,312c.73-1.89,1.06-3.08,1.61-4.15a10.14,10.14,0,0,0,.19-9.83c-.82-1.6-1.8-1.82-3.09-.57s-2.79,2.72-4.32,4.21a5.1,5.1,0,0,1-.77-1.38c-.77-4.89-4.78-6.95-9.31-4.78-6,2.86-9.43,7.51-10,14.17-.15,1.79-.26,3.6-.27,5.4,0,2.12-.65,3.08-3.08,2.78-5.66-.7-8.77,3.66-6.68,9.1.92,2.39.29,3.22-2.23,2.71-2.82-.58-5.28-.66-6.75,2.49-.28.59-1.43.77-2.4,1.25.21-6.51,2.93-10.89,7.84-11.8l-3.37,5,4,.28c-.05-.87-.08-1.58-.13-2.28-.29-4,2.91-9.81,8.25-9.22,1.66.18,2.17-.68,2.29-2.12.16-1.8.34-3.6.63-5.38,1.36-8.28,6.39-13.28,14.19-15.82a7.51,7.51,0,0,0,2.18-1.55q8.85-7.52,17.67-15l1.22,1a13.42,13.42,0,0,1-2.14,3.18c-2.19,1.82-4.69,3.26-6.89,5.06-2.77,2.28-5.37,4.78-8.27,7.38l4.42,3.28c.22.17.51.48.7.44,3.09-.76,6.41-1.08,9.17-2.5s4.83-3.95,7.28-5.92a11,11,0,0,1,2.34-1.11l.66,1c-2.58,2.42-5,5-7.79,7.21-2.5,2-3.28,4-1.34,7l14-11.86c.55,3-1.17,3.68-2.35,4.78q-6.22,5.83-12.34,11.78a4.44,4.44,0,0,0-.63,1.31c3,.82,5.11,0,7.23-2.08,9.43-9.4,19-18.64,28.57-27.91a36.37,36.37,0,0,1,2.9-2.32l.88.71a12.88,12.88,0,0,1-1.67,2.82q-13.44,13.18-27,26.24c-3.27,3.15-3.36,3.06-.84,7.22,1.58-2.13,3-4.35,4.76-6.36,2.82-3.28,6.65-5.32,9.5-8.84,4.5-5.56,10.39-10,15.69-14.91,1-1,2-2,3.12-2.93a9.16,9.16,0,0,1,2-1l.68.8a37.44,37.44,0,0,1-3,3.7c-5,4.82-10.07,9.55-15.1,14.32-.67.64-1.25,1.36-2,2.23a23.75,23.75,0,0,0,4.84-.46,10.26,10.26,0,0,0,3.64-2.17,125,125,0,0,1,10.62-9.09c-1.72,4.93-6,7.66-9.32,11.13,2.68,2.65,3,2.64,5.54.36,1.18-1.05,2.47-2,3.71-2.95l1,1-5,6.06,1.9,2.75,4.88-2.91.46.58L900.88,313l.87,1.07c1.45-.6,3.1-.95,4.3-1.87,2.27-1.72,4.24-3.82,6.42-5.66.45-.38,1.3-.29,2-.41-.09.68.07,1.62-.32,2a56.9,56.9,0,0,1-5.25,4.81c-1.79,1.44-2,2.8-.2,4.52l8.9-7.22.91.59a13.06,13.06,0,0,1-1.72,3.25,38.26,38.26,0,0,1-5,4.25c-2.25,1.66-2.85,3.83-2.45,7.43l4.8-3.89c3.55-2.85,7.08-5.72,10.67-8.52.35-.28,1-.18,2-.33-.91,3-3.53,3.73-5.18,5.34s-3.55,3.37-5.45,5.17c2.81,1.77,4.55.62,6.26-1.2,3.85-4.07,7.79-8.07,11.7-12.07a8.69,8.69,0,0,1,1.79-1.41,3.37,3.37,0,0,1,1.29-.17c0,.5.28,1.15.06,1.48a21.73,21.73,0,0,1-2.49,3.09c-4,4-8,8-12,11.86,1.52,2.65,3.12,2.73,4.77,1,1.85-2,3.56-4.14,5.33-6.21l1.47,1C933.82,322.12,933.27,323.42,932.61,324.94Z"/><path class="cls-5" d="M788.37,459c3.6,1,6.69,2.26,9.89,2.78q23.07,3.78,46.19,7.22c6.67,1,13.4,1.65,20.08,2.58,2.26.32,3.05-.52,3.74-2.66,4.09-12.74,8.39-25.42,12.68-38.1a9.48,9.48,0,0,1,1.61-2.22l.85.36a13.22,13.22,0,0,1-.39,2.77c-1.6,4.47-3.48,8.85-4.9,13.37-2.66,8.51-5.07,17.09-7.57,25.64-.1.34-.26.81-.11,1.06,1.54,2.78-.38,2.76-2.16,2.59-5.58-.53-11.18-1-16.73-1.78q-26.62-4-53.22-8.22a51.89,51.89,0,0,1-8.74-2.53c-3.42-1.18-3.94-2.46-2.25-5.83,3.94-7.91,8-15.76,12-23.62,2-4,4.24-7.86,6.18-11.88a5.24,5.24,0,0,1,6.38-3.14c22.56,4.94,45.67,5.23,68.47,8.11,1,.12,2,.39,3.2.64-.94,2.54-2.78,2.22-4.53,2-10.2-1.15-20.41-2.24-30.6-3.49-12.53-1.54-25.05-3.25-37.58-4.76a3.62,3.62,0,0,0-3,1.34C801.43,433.56,795.07,446,788.37,459Z"/><path class="cls-5" d="M956.59,329.72c-1.47-2.6-2.81-4.75-3.94-7-1.24-2.49-3.15-3.49-5.81-3-2.86.55-5.69,1.22-9.52,2.06.88-2.11,1.47-3.66,2.17-5.16,2.12-4.55,4.35-9.05,6.41-13.62a9.77,9.77,0,0,0,.74-3.6c.13-4.76-3-7.4-7.65-6.52-6.51,1.25-11.59,6.83-12.67,13.79a44.46,44.46,0,0,1-1.18,4.5l-.83.09c-.6-1.2-1.24-2.38-1.8-3.6-2.32-5-5.21-6.65-10.63-6a13.28,13.28,0,0,1-2.43-.15,9.84,9.84,0,0,1,.61-2.88c1.38-2.48,3.21-4.74,4.4-7.3,2.19-4.69,1.8-5.42-3.24-7.24,1.14-1.59,2.23-3,3.25-4.54,1.76-2.57,3.55-5.13,5.2-7.77,1-1.66.55-2.88-1.46-3.36-2.34-.56-4.67-1.17-7.21-1.8a11.06,11.06,0,0,1,.91-2.23c2.63-3.86,2.75-8.15,2.46-12.59a3.77,3.77,0,0,0-3.09-3.83c-2-.59-5-.89-5.78-2.28s.69-4.06,1.22-6.15c1-3.91-.25-5.93-4.21-6.79a7,7,0,0,1-1.93-.43,1.79,1.79,0,0,1-.65-1.35c0-.24.63-.64,1-.72,4.64-.92,9.21,2.69,8.28,7.26-1,4.82-.76,8,4.86,9.13,1.09.23,2.2,2.54,2.49,4,.86,4.48.23,7.52-2.09,13.48,2.07.86,4.14,1.75,6.23,2.58,1.9.75,2.41,2,1.54,3.84-.94,2-1.85,4-3,5.84s-2.47,3.57-3.82,5.49c3.43,2,2.92,5.09,1.76,8s-2.73,5.58-4.23,8.58c3.84,1.28,8.69.74,10.42,5,2.62-3.24,4.8-6.9,7.89-9.47a19.33,19.33,0,0,1,9-3.68c5.08-.82,8.44,2.06,8.24,7.24a39.88,39.88,0,0,1-2.61,11.5c-1.09,3.07-3.06,5.84-4.85,9.14,6.47-.89,13.17-2.94,15.38,6.56,1.49-1.76,2.43-2.89,3.39-4,5.33-6.12,10.36-6.25,15.55-.66,2.6-1.27,5-2.8,7.63-3.65,3.47-1.12,8.11,1.06,9.62,4.33.43.92,0,2.23-.06,3.36l-.8,0a25.77,25.77,0,0,0-3.18-3.83c-3.13-2.6-6.72-2.2-9.66.92-1.47,1.55-2.8,3.22-4.59,5.3-.32-1.34-.5-2-.65-2.74-1-4.56-4.93-6.49-8.74-3.9-2.27,1.54-4,3.92-5.83,6A37.45,37.45,0,0,0,956.59,329.72Z"/><path class="cls-5" d="M787.94,298c6.85-6.76,10.15-6.74,16.91.14,4.09-5.85,9.26-9.35,17.06-7.25.07-.62.16-1.31.21-2,.44-6.32,2.07-12,8.24-15.22a3.48,3.48,0,0,0,1.21-2.33,22.05,22.05,0,0,1,7.25-12.6,10,10,0,0,1,9.52-2.38c-1-3.85-2.5-7.5-2.92-11.26-.43-4,1.42-7.39,5-9.92-3.22-5.27-2.91-10.27,1.61-14.65,1.64-1.6,3.41-1.64,6-.31a8.22,8.22,0,0,1-1.76,1.3c-5.22,1.75-7.06,7.13-4,11.72,2,3,2,2.88-1.23,4.91s-3.64,5.32-3.16,8.57c.34,2.27,1.57,4.43,2.5,6.59.67,1.55,1.51,3,2.6,5.19a18.69,18.69,0,0,1-4,.38c-7.73-1.16-15.79,6.31-14.95,14.18.23,2.17-.25,3-2.35,3.61a8.93,8.93,0,0,0-4.14,3.09c-3.07,4.06-3,8.84-2.65,13.65a35.57,35.57,0,0,1-.26,4.6l-.91.16c-.41-.76-.85-1.51-1.24-2.28-1.54-3.07-3.74-4-7-3a13.77,13.77,0,0,0-9.15,8.69,27.18,27.18,0,0,1-2.46,4.21l-.78-.24a32,32,0,0,1-.45-3.2c-.1-3.31-1.86-5.72-4.87-6.51s-5.6.61-7.35,3.55a26.25,26.25,0,0,1-2.59,3.14c-4.33-5.28-5.76-5.65-11.44-3.5a5.79,5.79,0,0,1-2.27-.16c.42-.81.63-2,1.29-2.38a11.15,11.15,0,0,1,10.66.3C786.73,297.13,787.33,297.58,787.94,298Z"/><path class="cls-5" d="M988.24,376.06c-2.38,8.8-4.72,17.62-7.19,26.39a3.8,3.8,0,0,0,1.08,4.31,42.75,42.75,0,0,1,6.27,7.3c-.88-.2-2-.13-2.6-.65-2.1-1.73-4-3.67-6-5.5-2,3.56-2,3.55,1.19,6.14,2.4,1.95,4.82,3.9,5.58,7.25-4.15-1-5.82-5-8.84-7.46l-3.12,5.37-.88-.32c-1.12-3,1.35-5.53,1.45-8.23-6.92-.38-13.88-.85-20.84-1.12-2.59-.1-3.05-1.14-2.43-3.43A44.14,44.14,0,0,0,953,400c.29-2.39.39-4.79.62-7.85l12,1.53c.58-2.55,1.28-5.18,1.76-7.85.37-2,1.3-2.58,3.36-2.34,3.39.41,6.83.35,10.24.64,1.79.15,2.57-.57,3-2.24.6-2.53,1.38-5,2.17-7.83L981.38,369l1-1.09A75,75,0,0,1,996.22,380c-2.18,1.77-3.17.12-4.18-.92s-2-2.46-3-3.7Zm-5.52,10.47h-6c-6.92,0-6.92,0-8.26,6.78-.53,2.63-1.85,3.46-4.53,2.88-1.67-.35-3.35-.67-5-1s-2.84.18-3,2.25a72.32,72.32,0,0,1-1.19,7.6c-.3,1.47.08,2.18,1.61,2.24l20.08.77C978.4,401.12,980.46,394.15,982.72,386.53Z"/><path class="cls-5" d="M873.26,259.59l-4.07-1.5c.94-1.18,1.72-2.18,2.74-3.47l-3.39-.28c-.14-2.09,5.51-3.88,0-5.73l2-2.21c-3-.91-3-.91-.13-4.1l-2.53-1.46,2.39-3-1.93-1.65,4.11-6.29.84.14a18.43,18.43,0,0,1,0,3.24c-1.49,8.34.38,16.44,1.82,24.54.38,2.13,1.79,4.08,3,6.65,6.36-10.13,10.34-20.43,11.66-31.81l1.47.35c-.13,2.36-.34,4.73-.37,7.09,0,1,.46,2.08.46,3.12a3.9,3.9,0,0,1-.71,2,31.38,31.38,0,0,1-2.3,2.71l4.11.6-6.12,4.67.23.52,3.06-.16.41.77-6.16,4,.27.63h2.75l.46.74a27.37,27.37,0,0,1-2.78,1.85,28.66,28.66,0,0,1-3.16,1.22l.24.84,3.09.22.34.94c-1.4.61-2.77,1.3-4.2,1.81-4.06,1.44-5.62-1.36-6.81-4.15l-3.48.27-.25-.76Z"/><path class="cls-5" d="M952.46,490.75a21.61,21.61,0,0,1-2.84-2.54q-14.14-18.24-28.2-36.56-9.52-12.43-18.85-25c-.56-.74-.54-1.91-.79-2.88.94.46,2.19.68,2.75,1.43C912,435,919.21,445,926.7,454.83c5.87,7.69,12,15.18,18,22.77,2.3,2.9,4.62,5.79,6.8,8.78a22.8,22.8,0,0,1,1.77,3.65Z"/><path class="cls-5" d="M883.05,131.89c.14-3.19,1.29-5.79,4.23-7.24,2.75-1.35,5.27.08,7.8.95a2.18,2.18,0,0,1,1,1c2,3.72.75,7.18-1,10.49a5.62,5.62,0,0,1-6.41,3.11c-2.75-.52-4.84-3.2-5.46-6.9C883.12,132.8,883.09,132.32,883.05,131.89Zm11.08,1.22c2-3.9-.63-8-5.46-6.59C891.9,127.53,891.9,127.53,894.13,133.11Z"/><path class="cls-5" d="M866.69,229.08c.07,1.06.18,2.13.21,3.19.2,7.2-.13,14.47.71,21.6,1.07,9.09,4.63,17.53,8.64,25.74a12.74,12.74,0,0,1,1.2,5c-3.23-1.94-4.76-5-6.07-8.17-5.89-14.16-8.82-28.8-6.74-44.18a20.73,20.73,0,0,1,1-3.37Z"/><path class="cls-5" d="M934.36,425.62a10.47,10.47,0,0,1,2.81,1.82c3.55,4.46,7.2,8.86,10.36,13.58,7.71,11.55,16.8,22,25.51,32.75a5.08,5.08,0,0,1,1,3.26c-15.74-15.06-26.58-33.85-40.35-50.34Z"/><path class="cls-5" d="M878.11,285.63a17.1,17.1,0,0,1,1.2-3.4c7.69-12.43,13.05-25.7,14.75-40.3.25-2.16.18-4.36.4-6.52.07-.62.67-1.18,1-1.76.43.52,1.18,1,1.21,1.58a31.32,31.32,0,0,1,0,5.89,102.06,102.06,0,0,1-14.91,41.75,40.61,40.61,0,0,1-2.47,3.27Z"/><path class="cls-5" d="M976.33,467.6c-.89-.39-2.06-.53-2.61-1.19q-8.78-10.49-17.34-21.13c-4.23-5.24-8.35-10.57-12.48-15.89-.71-.91-1.25-1.95-1.87-2.93l.69-.73a10.05,10.05,0,0,1,2.45,1.66c3.83,4.7,7.52,9.5,11.33,14.21,4.94,6.12,9.94,12.2,14.92,18.29,1.83,2.24,3.69,4.47,5.53,6.71Z"/><path class="cls-5" d="M816.63,503.69a19.31,19.31,0,0,1-3.52,2.05,169.47,169.47,0,0,0-30.88,13.88,8,8,0,0,1-2.79.39c.59-.83,1-2,1.8-2.44,10.19-6.21,21.26-10.5,32.43-14.58a13.29,13.29,0,0,1,2.55-.37Z"/><path class="cls-5" d="M795.25,522.44a15.18,15.18,0,0,1,2.46-2.42c9.88-5.95,20.6-10,31.46-13.67,1.51-.51,3.08-.88,4.62-1.32l.51,1.13a14,14,0,0,1-3,1.82,164.33,164.33,0,0,0-33.74,14.81,6.91,6.91,0,0,1-1.54.48Z"/><path class="cls-5" d="M768.89,502.11a24,24,0,0,1-3.33,2c-7.17,2.78-14.43,5.34-21.55,8.24-3.22,1.32-6.18,3.27-9.3,4.85a6.53,6.53,0,0,1-2,.3c.22-.71.22-1.75.7-2.09a35,35,0,0,1,6.56-3.95c8.63-3.47,17.35-6.72,26-10a12.22,12.22,0,0,1,2.37-.4Z"/><path class="cls-5" d="M972.86,509.45c.85,2.39-.92,2.87-2.11,3.54-8.18,4.63-16.42,9.17-24.6,13.8-2.27,1.29-4.43,2.8-6.64,4.21l-.81-.57c.42-.75.66-1.77,1.3-2.22a98.72,98.72,0,0,1,8.56-5.64c7.35-4.17,14.79-8.19,22.2-12.25A20.58,20.58,0,0,1,972.86,509.45Z"/><path class="cls-5" d="M763.93,519.54c-.76-2.27,1-2.77,2.23-3.35q14.15-6.69,28.37-13.23c1.71-.79,3.55-1.29,5.32-1.93l.56,1a11.72,11.72,0,0,1-2.33,2q-16.33,7.69-32.73,15.27A6.94,6.94,0,0,1,763.93,519.54Z"/><path class="cls-5" d="M898.21,510.17a13.61,13.61,0,0,1-2.69,2.43c-6.87,3.4-13.83,6.64-20.71,10-2.37,1.17-4.59,2.64-6.95,3.84a11,11,0,0,1-2.74.61,26.24,26.24,0,0,1,1.57-2.54,3.93,3.93,0,0,1,1.4-.94q13.74-6.83,27.48-13.61a11.38,11.38,0,0,1,2-.57Z"/><path class="cls-5" d="M865.51,508.81a26.61,26.61,0,0,1-3.2,2q-13.66,6.07-27.37,12a9,9,0,0,1-2.58.3c.51-.76.84-1.91,1.55-2.23,9.68-4.37,19.41-8.64,29.15-12.89a7.36,7.36,0,0,1,2-.25Z"/><path class="cls-5" d="M848.47,506.17a22.55,22.55,0,0,1-3.3,2.45c-8.59,4.27-17.21,8.45-25.82,12.66-.89.43-1.75.91-2.62,1.37L816,522c.44-.74.72-1.7,1.36-2.16a33,33,0,0,1,4.88-2.93q11.14-5.42,22.37-10.68a24.25,24.25,0,0,1,3.3-1Z"/><path class="cls-5" d="M784,501.61l-34.52,15.86c-1.49-1.27-.38-2,.92-2.68,3.93-1.9,7.86-3.82,11.83-5.64,5.52-2.53,11.07-5,16.65-7.45a41.65,41.65,0,0,1,4.61-1.4Z"/><path class="cls-5" d="M817.09,306.14a11.48,11.48,0,0,1-1.63,2.69c-3.41,3.15-7,6.11-10.38,9.29s-6.75,6.65-10.11,10a21.17,21.17,0,0,1-2,2c-.35.26-1,.16-1.48.22-.06-.52-.32-1.12-.14-1.53a6.1,6.1,0,0,1,1.38-1.79q11-10.32,22-20.58a7.3,7.3,0,0,1,1.68-.9Z"/><path class="cls-5" d="M986.73,511.06A15.3,15.3,0,0,1,984,513.8c-7.07,4.24-14.21,8.37-21.33,12.55-1.14.67-2.2,1.5-3.39,2.08-.48.24-1.19,0-1.8,0a11.11,11.11,0,0,1,.62-1.9c.15-.3.58-.48.9-.67q12.75-7.51,25.5-15a7.56,7.56,0,0,1,1.52-.52Z"/><path class="cls-5" d="M926.3,512.93a20.9,20.9,0,0,1-3.21,2.22c-4.24,1.9-8.62,3.51-12.81,5.51s-8,4.27-12,6.42c-.64.34-1.29.67-1.94,1-.26-.22-.52-.44-.79-.65.71-.91,1.23-2.19,2.15-2.65,7.72-3.84,15.51-7.54,23.3-11.24,1.49-.7,3.09-1.18,4.64-1.76Z"/><path class="cls-5" d="M911.37,528.22c2.12-4.07,25.38-16.26,29.06-15.32a26.94,26.94,0,0,1-3.2,2.45q-11.62,6.25-23.33,12.39A10.52,10.52,0,0,1,911.37,528.22Z"/><path class="cls-5" d="M954.66,514a15.15,15.15,0,0,1-2.55,2.22q-11.91,6.35-23.9,12.53c-.54.28-1.32.07-2,.09A6.58,6.58,0,0,1,927,527a4.93,4.93,0,0,1,1.64-1.08q11.31-6,22.64-11.9a23,23,0,0,1,2.74-1Z"/><path class="cls-5" d="M880.17,510.91l-29.81,14.48-.63-.24c.51-.83.82-2,1.55-2.41,8.69-4.26,17.42-8.4,26.18-12.5a6.72,6.72,0,0,1,2.54,0Z"/><path class="cls-5" d="M986.77,528.38c-.11-1-.46-1.79-.2-2.11a11.64,11.64,0,0,1,2.8-2.76q10.1-6.35,20.32-12.49c.53-.32,1.44,0,2.17,0-.41.65-.67,1.54-1.26,1.91-5.44,3.45-11,6.78-16.4,10.21-1.92,1.2-3.72,2.59-5.57,3.89C988.17,527.33,987.73,527.67,986.77,528.38Z"/><path class="cls-5" d="M908.26,512.2a14,14,0,0,1-2.51,2.15q-11.44,6-23,11.78c-.52.26-1.32,0-2,0,.4-.73.6-1.82,1.21-2.14,5.92-3.18,11.9-6.25,17.88-9.31,1.77-.9,3.58-1.71,5.41-2.5a23,23,0,0,1,2.48-.76Z"/><path class="cls-5" d="M999.75,511.13c-.75,1.1-1.11,2.2-1.85,2.64-7.4,4.39-14.87,8.67-22.31,13l-.78-.43c.4-.81.58-2,1.24-2.39,7.32-4.39,14.72-8.67,22.11-12.95C998.41,510.83,998.86,511,999.75,511.13Z"/><path class="cls-5" d="M959.54,428.29a14,14,0,0,1,2.29,1.79c5.44,6.45,10.86,12.92,16.2,19.45.41.5.26,1.45.36,2.19-.78-.3-1.82-.38-2.3-.94-3.92-4.63-7.74-9.35-11.59-14-1.57-1.91-3.18-3.78-4.68-5.73a10.75,10.75,0,0,1-1-2.21Z"/><path class="cls-5" d="M802.44,325.68a10.6,10.6,0,0,1,1.45-2.68c3.08-3.1,6.26-6.09,9.43-9.09,2.48-2.35,5-4.66,7.54-7A22,22,0,0,1,823,305.4l.77.61a11.14,11.14,0,0,1-1.5,2.48c-2.44,2.39-5,4.63-7.51,7-3,2.88-6,5.85-9,8.74-.81.77-1.72,1.43-2.59,2.14Z"/><path class="cls-5" d="M749,502.37l-27.69,11.86-.54-.27c.47-.66.78-1.66,1.41-1.94q12.23-5.38,24.54-10.57a5.84,5.84,0,0,1,2,0Z"/><path class="cls-5" d="M1022.25,514.21c-.78.61-1.52,1.26-2.33,1.8-5.45,3.64-10.89,7.28-16.38,10.85a8.24,8.24,0,0,1-2.39.63c.34-.86.43-2.09,1.05-2.51,5.84-3.91,11.75-7.71,17.69-11.45.51-.33,1.4,0,2.12,0Z"/><path class="cls-5" d="M783.51,327.33c.86-1,1.66-2,2.6-2.88,4.58-4.29,9.17-8.57,13.82-12.78a7.76,7.76,0,0,1,2.35-1c-.26.88-.25,2-.82,2.59q-7.62,7.29-15.43,14.38c-.47.44-1.35.42-2,.62Z"/><path class="cls-5" d="M707.92,510.88l22.28-10c-1.14,3.27-19.55,11.79-21.94,11Z"/><path class="cls-5" d="M966.24,426.49a15.68,15.68,0,0,1,2.76,1.69c4.07,4.23,8.11,8.48,12.08,12.81.42.45.28,1.41.4,2.13-.59-.06-1.43.11-1.73-.21-4.42-4.82-8.76-9.69-13.1-14.57C966.49,428.16,966.52,427.82,966.24,426.49Z"/><path class="cls-5" d="M832.83,336.55c-.32-2.45,12.92-14.22,16.06-14.22A87.36,87.36,0,0,1,832.83,336.55Z"/><path class="cls-5" d="M896.44,326.88,883.29,340C882.91,338,894.39,326.65,896.44,326.88Z"/><path class="cls-5" d="M859.54,465.78c-2-3.06,4-15.84,8.66-18Z"/><path class="cls-5" d="M874.89,338.21c.05-.49-.17-1.56.26-2,4.62-4.46,9.34-8.84,14.08-13.18.26-.24,1,0,.88-.31Z"/><path class="cls-5" d="M866,281.66a18,18,0,0,1-1.86,2.53c-3.57,3.14-7.16,6.25-10.83,9.26-.48.4-1.46.19-2.2.27.22-.66.25-1.56.71-2,3.9-3.33,7.87-6.59,11.86-9.8C864.05,281.67,864.76,281.81,866,281.66Z"/><path class="cls-5" d="M855.84,323a10.87,10.87,0,0,1-1.6,2.64c-3.34,3.1-6.77,6.11-10.22,9.09-.33.29-1,.22-1.49.32a4.39,4.39,0,0,1-.09-1.75,4.34,4.34,0,0,1,1.28-1.5c3.24-2.79,6.49-5.58,9.76-8.33a10.7,10.7,0,0,1,1.79-1Z"/><path class="cls-5" d="M1029.11,517.18a9.2,9.2,0,0,1-1.79,2.26c-3.12,2-6.31,3.85-9.54,5.66-.49.28-1.3,0-2,0,.1-.49,0-1.28.33-1.45,4-2.33,8-4.58,12-6.82C1028.26,516.73,1028.49,516.92,1029.11,517.18Z"/><path class="cls-5" d="M865.18,324.85a14.85,14.85,0,0,1-1.82,2.54c-2.87,2.47-5.78,4.91-8.78,7.23-.48.38-1.47.11-2.22.14.16-.67.08-1.62.5-1.95,3.41-2.72,6.91-5.33,10.41-7.93C863.55,324.67,864.12,324.85,865.18,324.85Z"/><path class="cls-5" d="M874.26,327.52c-3.61,3.4-7.2,6.81-10.86,10.16-.26.25-1,.17-1.43,0a1.27,1.27,0,0,1-.19-1.2c3.63-3.66,6.88-7.82,11.82-9.78Z"/><path class="cls-5" d="M808.48,424c2-1.13,12.35.6,14.56,2.44C821,428.18,810.32,426.4,808.48,424Z"/><path class="cls-5" d="M852.67,466.42a5.43,5.43,0,0,1-.08-2.11c1.72-4.23,3.45-8.48,6.91-11.62l1,.56-6.72,13.31Z"/><path class="cls-5" d="M886.5,95.51c.37.74,1.06,1.48,1.07,2.22,0,3.3,0,6.61-.25,9.91-.05.7-1,1.34-1.48,2a8.06,8.06,0,0,1-.65-2.1c-.07-3-.06-6,0-9.07a17.34,17.34,0,0,1,.51-2.83Z"/><path class="cls-5" d="M856.46,274.86c-1.42,1.29-2.8,2.63-4.27,3.86-1.75,1.47-3.52,2.92-5.39,4.22-.46.32-1.34,0-2,0,.2-.64.19-1.54.62-1.89,3-2.4,6-4.7,9-7,.35-.26,1-.11,1.52-.15Z"/><path class="cls-5" d="M996.47,375.65c-.78,0-1.87.25-2.29-.16-2.62-2.5-6.27-4.25-6.22-8.93l8.76,8.09Z"/><path class="cls-5" d="M853.41,455.39a32.27,32.27,0,0,1-5.29,9.88c-.29.41-1,.49-1.55.72-.13-.49-.52-1.12-.34-1.43,1.88-3.3,3.86-6.54,5.81-9.8Z"/><path class="cls-5" d="M977.49,419.83c2.46,2.67,4.94,5.32,7.35,8a1.22,1.22,0,0,1-.13,1.2,1.63,1.63,0,0,1-1.28.23C981.67,428.89,976.86,422.34,977.49,419.83Z"/><path class="cls-5" d="M868.7,456.61,865,468.17C862.79,465,865.09,457.74,868.7,456.61Z"/><path class="cls-5" d="M711.69,434.29c-.94,4.2-3.94,7-6.77,10.17C703.93,442.48,708.24,435.82,711.69,434.29Z"/><path class="cls-5" d="M1002.73,209.27c-.77-4.32.6-8,.75-11.87C1006.14,198.55,1005.61,205.9,1002.73,209.27Z"/><path class="cls-5" d="M986.55,387.11c2.44,2.39,4.91,4.75,7.29,7.19.25.25.09,1-.06,1.48-.06.17-.66.3-1,.24-1.38-.26-6.75-6.77-6.89-8.28Z"/><path class="cls-5" d="M793.52,312.15c-2.77,2.91-5.12,5.39-7.46,7.87l-1-.59a6.71,6.71,0,0,1,.55-2.19C787.83,314.06,790.86,311.89,793.52,312.15Z"/><path class="cls-5" d="M902.65,333l-8,8.38c-.28-1.15-.77-2.07-.54-2.32,2.39-2.54,4.38-5.6,7.88-6.77Z"/><path class="cls-5" d="M952.36,156.23c-3.45.25-6.23.5-9,.59-.46,0-1.11-.62-1.34-1.12-.12-.26.35-1,.74-1.27C944.29,153.54,950.34,154.46,952.36,156.23Z"/><path class="cls-5" d="M945.48,133.75c-2.68,1.29-5.09,2.5-7.56,3.59-.35.16-1.07-.16-1.41-.48a1.38,1.38,0,0,1,0-1.24C937.65,133.56,943,132.27,945.48,133.75Z"/><path class="cls-5" d="M832.88,165.31c-3.23.87-6.54.56-9.83.2-.26,0-.63-.75-.6-1.13s.55-.91.82-.9c3.22.16,6.44.42,9.65.65Z"/><path class="cls-5" d="M980.79,372.38c-1,.11-2,.55-2.44.22a50.74,50.74,0,0,1-5.14-4.48c-.31-.31-.21-1.14-.12-1.7a1.46,1.46,0,0,1,1.18-.16c2,1.57,4,3.21,5.94,4.85C980.4,371.27,980.45,371.6,980.79,372.38Z"/><path class="cls-5" d="M828.88,194.66l10-3.06c-1.23,3.15-6.51,5-9.66,4.1Z"/><path class="cls-5" d="M983.83,395.2c3.1.19,8.31,3.91,8.73,5.7a1.44,1.44,0,0,1-.34,1.2,1.29,1.29,0,0,1-1.23.06C988.73,400,986.53,397.85,983.83,395.2Z"/><path class="cls-5" d="M983.39,400.93c2.09,2,4.18,4,6.23,6.09.12.12-.11.9-.28.94a2.84,2.84,0,0,1-1.81.08,10.27,10.27,0,0,1-5-6.16Z"/><path class="cls-5" d="M711,447.18c-2.15-2.11.59-7,4.26-8.09C715.17,442.57,712.21,444.25,711,447.18Z"/><path class="cls-5" d="M910.45,334.92c-2,1.92-4,3.87-6.09,5.72a1.44,1.44,0,0,1-1.45,0,1.5,1.5,0,0,1-.13-1.45C904.62,336.59,906.91,334.66,910.45,334.92Z"/><path class="cls-5" d="M919.32,217.58h-9.93C910,215.55,916.08,215.19,919.32,217.58Z"/><path class="cls-5" d="M790.11,194.43c-2.73,1.59-7.61,1.2-9.69-.65C782.31,192.38,787.88,192.67,790.11,194.43Z"/><path class="cls-5" d="M835.48,141.1c-2.23-.65-4.49-1.24-6.68-2-.51-.19-.79-1-1.18-1.56.69-.31,1.59-1.06,2.06-.85,2.16,1,4.21,2.18,6.3,3.3Z"/><path class="cls-5" d="M909.86,222.15h9C917.17,225.11,913,225.32,909.86,222.15Z"/><path class="cls-5" d="M842.54,465.73c-1.58-3.47.5-7.48,3.78-7.83Z"/><path class="cls-5" d="M987.67,337.42c-.53,2.62-2.68,3.81-4.82,5a1.24,1.24,0,0,1-1.14-.44c-.15-.44-.13-1.25.16-1.48,1.65-1.34,3.41-2.55,5.13-3.81Z"/><path class="cls-5" d="M1029.39,525c-.51-2.4,2.26-4.69,5.81-4.79C1034.54,522.72,1032.79,524.16,1029.39,525Z"/><path class="cls-5" d="M944.38,183.93c-1.9-.15-3.82-.21-5.69-.5-.38-.05-.91-1-.84-1.47a1.67,1.67,0,0,1,1.35-1c1.84.39,3.64,1,5.45,1.51Z"/><path class="cls-5" d="M816.06,429.79c-2.11-.49-4.23-1-6.32-1.52a1.27,1.27,0,0,1-.5-1.12c.09-.35.67-.88,1-.83,2.21.4,4.7.22,6.23,2.27Z"/><path class="cls-5" d="M881.41,268.83l-8,3A5.61,5.61,0,0,1,881.41,268.83Z"/><path class="cls-5" d="M920.54,116.56c-1.41-2.5,1.19-6.34,5.21-7.28Z"/><path class="cls-5" d="M986.8,380.94c2.57-.16,6.7,2.83,6.91,4.43,0,.32-.15.92-.33,1-.49.11-1.22.19-1.51-.08C990.27,384.69,988.77,383,986.8,380.94Z"/><path class="cls-5" d="M813.43,432.17c-1.68,1.38-4.34,1-6.76-.88C808.43,429.57,811.37,430,813.43,432.17Z"/><path class="cls-5" d="M786.37,199.53h-7.45A4.74,4.74,0,0,1,786.37,199.53Z"/><path class="cls-5" d="M901.43,173c-1.9.81-3.77,1.67-5.7,2.37-.3.11-1.09-.42-1.22-.79a1.48,1.48,0,0,1,.65-1.27c1.91-.61,3.88-1.08,5.82-1.6Z"/><path class="cls-5" d="M998.38,198.44c2.07,1.66,2.23,4.39.54,7.18C997,203.2,998.2,201,998.38,198.44Z"/><path class="cls-5" d="M913.06,341.38c-.68-3.37,1.56-5.56,4.43-4.86Z"/><path class="cls-5" d="M720.09,443.34c-1.29,1.71-2.28,3.06-3.38,4.31a15.36,15.36,0,0,1-1.61-1.07c1-1.32,2-2.67,3.14-3.91C718.37,442.52,719.19,443,720.09,443.34Z"/><path class="cls-5" d="M959.33,346c.58-3.92,2.32-4.85,5.59-3.39Z"/><path class="cls-5" d="M992.24,366.25c1.71-1,3.7.2,5.4,3.2C995.88,370.18,994.66,369.45,992.24,366.25Z"/><path class="cls-5" d="M881.6,272.62l-5.85,2.3a4.24,4.24,0,0,1,5.5-3.21Z"/><path class="cls-5" d="M809.83,436.53a2.47,2.47,0,0,1-.16.49c-1.67-.27-3.34-.56-5-.85.11-.51.05-1.19.36-1.49C805.94,433.8,808,434.64,809.83,436.53Z"/><path class="cls-5" d="M911.27,404.3c-1.64-1.23-3.3-2.43-4.89-3.73-.19-.16-.12-1,.11-1.23a1.28,1.28,0,0,1,1.24-.08c1.5,1.29,2.91,2.68,4.36,4Z"/><path class="cls-5" d="M895.57,170.36c1.06-2.15,3.67-3.08,6.69-1.64l-6.32,2.5Z"/><path class="cls-5" d="M916,501.59c-.8-.65-2-1.17-2.3-2s.12-2.18.23-3.29a11.38,11.38,0,0,1,2.06,2,9.53,9.53,0,0,1,.7,2.62Z"/><path class="cls-5" d="M855.07,111.54c-1.47-1.13-3-2.2-4.36-3.43-.32-.29-.17-1.11-.23-1.68.64.08,1.53-.07,1.87.29,1.2,1.31,2.21,2.79,3.3,4.2Z"/><path class="cls-5" d="M914.4,401.54c-1.34-1.14-2.73-2.24-4-3.47-.28-.27-.14-1-.19-1.49.49,0,1.22-.3,1.43-.08,1.28,1.38,2.44,2.86,3.64,4.3Z"/><path class="cls-5" d="M914.34,415.61c-1.75-1.23-3.86-2.12-4.44-4.43l.87-.85q2.25,2.19,4.48,4.4Z"/><path class="cls-5" d="M924.6,337c-1.09,1.41-2.14,2.85-3.29,4.2-.17.21-.87.14-1.21,0a1.05,1.05,0,0,1-.35-1C920.68,338.39,921.86,336.83,924.6,337Z"/><path class="cls-5" d="M982.7,202.78c-3.42-1.81-3.54-2.46-1.14-5.46Z"/><path class="cls-5" d="M723.16,444.91c.57.89.79,1.13.74,1.2-.88,1.34-1.8,2.67-2.71,4l-1.27-.94Z"/><path class="cls-5" d="M841.49,220l5.52.46C844.51,222.61,843.14,222.56,841.49,220Z"/><path class="cls-5" d="M935.29,200.08a30.15,30.15,0,0,1-3.49-1.9c-.37-.25-.33-1.09-.48-1.66.66-.09,1.6-.51,1.93-.23a28.31,28.31,0,0,1,2.68,3.08Z"/><path class="cls-5" d="M784.45,206.1c-.51.24-.94.64-1.32.59-1.31-.17-2.61-.49-3.91-.76.25-.43.44-1.19.76-1.25C781.61,204.38,783.37,204,784.45,206.1Z"/><path class="cls-5" d="M943.79,396.82c.85.07,2-.17,2.5.28a15.1,15.1,0,0,1,2.3,3l-.7.62-4.25-2.83Z"/><path class="cls-5" d="M899.81,142.59a42.49,42.49,0,0,1-3.63,2.36c-.39.2-1.09-.22-1.65-.36.14-.48.13-1.25.43-1.4,1.39-.69,2.88-1.22,4.33-1.8Z"/><path class="cls-5" d="M920.57,416.29c-1.23-1-2.5-1.88-3.64-2.94a1,1,0,0,1,1.53-1.35c1,1.1,1.92,2.33,2.86,3.51Z"/><path class="cls-5" d="M807.44,441.08c-1.19.55-1.46.8-1.65.75-1.25-.37-2.49-.79-3.73-1.2a7.93,7.93,0,0,1,.72-1.32C804.12,439.74,805.43,440.29,807.44,441.08Z"/><path class="cls-5" d="M927.74,502.08c-3.12-.79-3.54-2.13-1.73-5Z"/><path class="cls-5" d="M900.86,152.16c-1.54,1.26-2.9,3-5.32,1.43C897.17,151.74,898.84,151.14,900.86,152.16Z"/><path class="cls-5" d="M909.34,497.08l2,3.31-.31.82c-1-.52-2.21-.85-2.88-1.64-.39-.46.12-1.67.23-2.54Z"/><path class="cls-5" d="M842.86,213.07l5.8.5-.07.76C845.53,215.48,844.2,215.38,842.86,213.07Z"/><path class="cls-5" d="M933.68,416.88l-4.3-3.48C932.05,412.46,933.41,413.47,933.68,416.88Z"/><path class="cls-5" d="M804.67,446.87c-1.32-.26-2.65-.49-3.95-.86-.11,0,0-.93,0-1.43l4.21.8Z"/><path class="cls-5" d="M931.27,338.69l-2.58,3.45-.8-.18c0-.76-.4-1.79,0-2.23a12.44,12.44,0,0,1,2.73-2Z"/><path class="cls-5" d="M932.45,498.64l1,4.1-.77.55c-.64-.57-1.66-1.05-1.82-1.73a9.08,9.08,0,0,1,.32-3.1Z"/><path class="cls-5" d="M986.25,198.67a10.36,10.36,0,0,1,1.35.2c.28,1.35.54,2.7.8,4.06-.49.06-1.4.22-1.41.19C986.71,201.74,986.5,200.35,986.25,198.67Z"/><path class="cls-5" d="M940.09,400.67c2.51-1.06,4,0,5.38,3.8Z"/><path class="cls-5" d="M898.06,184.22c-1.43.62-2.82,2.33-5.1-.54l5-.63Z"/><path class="cls-5" d="M900.38,145.79c-.38,1.35-.38,1.65-.48,1.68-1.45.47-2.92.92-4.4,1.3a10.45,10.45,0,0,1-.36-1.12C896.67,147.06,898.23,146.53,900.38,145.79Z"/><path class="cls-5" d="M993.06,204.14c-.91-1-1.55-1.39-1.63-1.86a14.53,14.53,0,0,1,0-3.23c0-.11.94-.29,1-.26a17.84,17.84,0,0,1,.89,2.8A12.59,12.59,0,0,1,993.06,204.14Z"/><path class="cls-5" d="M729.52,446.94c1.08,2.81,0,3.89-1.47,4.71-.24.13-.86-.43-1.31-.66Z"/><path class="cls-5" d="M922,502.14c-3.11-1.87-3.2-2.93-.63-5.23C921.57,498.71,921.74,500.09,922,502.14Z"/><path class="cls-5" d="M936.69,498.2l2,3.75-.88.51c-1.83-.55-2.75-1.67-2.1-3.78Z"/><path class="cls-5" d="M927,417l-3.64-3C925.31,412.6,926.64,413.55,927,417Z"/><path class="cls-5" d="M930,401.4c-1.16-.93-2.35-1.82-3.45-2.81a1.28,1.28,0,0,1-.21-1.22c.13-.24,1-.45,1.12-.3,1.19,1.14,2.29,2.38,3.42,3.58Z"/><path class="cls-5" d="M899,178.14c-.08.17-.14.44-.25.47-1.34.35-2.69.66-4,1a5.3,5.3,0,0,1-.1-1.21c1.38-.42,2.79-.76,4.19-1.11Z"/><path class="cls-5" d="M736.22,449.75l-2.12,3.95c-1.79-2-1.49-2.72,1.31-4.34Z"/><path class="cls-5" d="M777.62,226.13l5.41.66C780.48,229,779.66,228.89,777.62,226.13Z"/><path class="cls-5" d="M936.66,386.75c2.69-1.38,3.37-1,4.43,2.5Z"/><path class="cls-5" d="M911.42,253.7l-4.91,1C908,252.06,908.7,251.89,911.42,253.7Z"/><path class="cls-5" d="M783.52,212.37l-4.24-.85.3-1.44,4.23.9Z"/><path class="cls-5" d="M1006.62,296.61c0,.34.27.81.12,1-.83,1.13-1.74,2.2-2.62,3.28-.25-.34-.79-.84-.71-1,.76-1.28,1.62-2.5,2.45-3.74Z"/><path class="cls-5" d="M889.08,407.32c2.54,2.49,4.79,4.66,6.95,6.91.08.07-.64,1.3-.95,1.29C893,415.41,888.85,410.14,889.08,407.32Z"/><path class="cls-5" d="M903.11,414.36c-1.45.35-5.47-1.68-5.73-2.94-.06-.3.13-.88.32-.95a1.51,1.51,0,0,1,1.24.11c1.4,1.25,2.74,2.58,4.1,3.87Z"/><path class="cls-5" d="M891.79,402.26l-6.65-5.09C888,395.65,891.67,398.34,891.79,402.26Z"/><path class="cls-5" d="M895.36,398.13c-3.78-.25-4.84-1.7-3.71-4.44Z"/><path class="cls-5" d="M926,388.57a31.18,31.18,0,0,1-3-2.09c-.32-.28-.3-1-.44-1.46.59-.06,1.44-.4,1.71-.14a29.36,29.36,0,0,1,2.47,3.05Z"/><path class="cls-5" d="M922.18,387.51c-1.9.65-4.86-.61-4.81-1.77,0-.32,1.17-1,1.42-.83A36.81,36.81,0,0,1,922.18,387.51Z"/><path class="cls-5" d="M887.49,385.73c-1.11-1.34-2.21-2.68-3.65-4.44C886.93,381.07,887.68,382,887.49,385.73Z"/><path class="cls-5" d="M881.29,386.13,878.78,383c.46-.23,1.19-.78,1.32-.66a36.75,36.75,0,0,1,2.54,2.75Z"/><path class="cls-5" d="M868.28,372.59c-1.26.25-1.63.44-1.78.33-1.16-.84-2.28-1.75-3.42-2.64.38-.34,1-1,1.11-1C865.43,370.2,866.59,371.2,868.28,372.59Z"/><path class="cls-5" d="M908.42,203.77l4.33.86c-1.83,2.06-3.32,2-4.58.24Z"/><path class="cls-5" d="M958,400.82c2.28-.1,3.25,1.24,3.08,3.89l-3.83-3.06Z"/></g></svg>