<svg id="Layer_1" data-name="Layer 1" xmlns="http://www.w3.org/2000/svg" viewBox="0 0 1431 622"><defs><style>.cls-1{fill:#141414;}.cls-2{opacity:0.4;}.cls-3{fill:none;stroke:#fff;stroke-miterlimit:10;stroke-width:0.75px;}.cls-4{opacity:0.7;}.cls-5,.cls-6{fill:#fff;}.cls-5{fill-rule:evenodd;}</style></defs><rect class="cls-1" x="-7.68" y="-6.12" width="1446.35" height="634.24"/><g class="cls-2"><g class="cls-2"><line class="cls-3" x1="-68.4" y1="35.89" x2="1459.16" y2="35.89"/><line class="cls-3" x1="-68.4" y1="84.94" x2="1459.16" y2="84.94"/><line class="cls-3" x1="-68.4" y1="133.98" x2="1459.16" y2="133.98"/><line class="cls-3" x1="-68.4" y1="183.03" x2="1459.16" y2="183.03"/><line class="cls-3" x1="-68.4" y1="232.07" x2="1459.16" y2="232.07"/><line class="cls-3" x1="-68.4" y1="281.12" x2="1459.16" y2="281.12"/><line class="cls-3" x1="-68.4" y1="330.16" x2="1459.16" y2="330.16"/><line class="cls-3" x1="-68.4" y1="379.21" x2="1459.16" y2="379.21"/><line class="cls-3" x1="-68.4" y1="428.25" x2="1459.16" y2="428.25"/></g><g class="cls-2"><line class="cls-3" x1="-68.4" y1="477.3" x2="1499.4" y2="477.3"/><line class="cls-3" x1="-68.4" y1="526.34" x2="1499.4" y2="526.34"/><line class="cls-3" x1="-68.4" y1="575.39" x2="1499.4" y2="575.39"/></g><g class="cls-2"><line class="cls-3" x1="32.16" y1="790.38" x2="32.16" y2="-166.87"/><line class="cls-3" x1="79.78" y1="790.38" x2="79.78" y2="-166.87"/><line class="cls-3" x1="127.4" y1="790.38" x2="127.4" y2="-166.87"/><line class="cls-3" x1="175.02" y1="790.38" x2="175.02" y2="-166.87"/><line class="cls-3" x1="222.64" y1="790.38" x2="222.64" y2="-166.87"/><line class="cls-3" x1="270.26" y1="790.38" x2="270.26" y2="-166.87"/><line class="cls-3" x1="317.88" y1="790.38" x2="317.88" y2="-166.87"/><line class="cls-3" x1="365.5" y1="790.38" x2="365.5" y2="-166.87"/><line class="cls-3" x1="413.12" y1="790.38" x2="413.12" y2="-166.87"/><line class="cls-3" x1="460.74" y1="790.38" x2="460.74" y2="-166.87"/><line class="cls-3" x1="504.96" y1="790.38" x2="504.96" y2="-166.87"/><line class="cls-3" x1="552.58" y1="790.38" x2="552.58" y2="-166.87"/><line class="cls-3" x1="600.2" y1="790.38" x2="600.2" y2="-166.87"/><line class="cls-3" x1="647.82" y1="790.38" x2="647.82" y2="-166.87"/><line class="cls-3" x1="695.44" y1="790.38" x2="695.44" y2="-166.87"/><line class="cls-3" x1="743.06" y1="790.38" x2="743.06" y2="-166.87"/><line class="cls-3" x1="790.68" y1="790.38" x2="790.68" y2="-166.87"/><line class="cls-3" x1="838.3" y1="790.38" x2="838.3" y2="-166.87"/><line class="cls-3" x1="885.92" y1="790.38" x2="885.92" y2="-166.87"/><line class="cls-3" x1="933.54" y1="790.38" x2="933.54" y2="-166.87"/><line class="cls-3" x1="981.16" y1="790.38" x2="981.16" y2="-166.87"/><line class="cls-3" x1="1036.72" y1="811.45" x2="1036.72" y2="-145.8"/><line class="cls-3" x1="1084.34" y1="811.45" x2="1084.34" y2="-145.8"/></g><g class="cls-2"><line class="cls-3" x1="1134.54" y1="785.38" x2="1134.54" y2="-189.45"/><line class="cls-3" x1="1182.16" y1="785.38" x2="1182.16" y2="-189.45"/><line class="cls-3" x1="1229.78" y1="785.38" x2="1229.78" y2="-189.45"/><line class="cls-3" x1="1277.4" y1="785.38" x2="1277.4" y2="-189.45"/><line class="cls-3" x1="1325.02" y1="785.38" x2="1325.02" y2="-189.45"/><line class="cls-3" x1="1372.64" y1="785.38" x2="1372.64" y2="-189.45"/><line class="cls-3" x1="1420.26" y1="785.38" x2="1420.26" y2="-189.45"/></g></g><g class="cls-4"><path class="cls-5" d="M658.44,180.8c1-.18,2-.37,3-.52a2.33,2.33,0,0,1,2.32,1.38c.42.67.88,1.32,1.25,2,1.26,2.47,2.52,4.94,3.73,7.43,1.87,3.87,3.65,7.8,5.58,11.63,3.51,7,6.86,14,10.11,21.11,2.2,4.82,4.36,9.66,6.59,14.46.95,2,2,4,3,6a8.08,8.08,0,0,1,1,2.48c.91,5.2,1.86,10.39,2.72,15.59.41,2.49-.53,3.29-2.43,2.06a24.48,24.48,0,0,1-3.45-2.82c-1.69-1.65-3.3-3.44-5-5.14a13,13,0,0,0-2-1.85,5.31,5.31,0,0,1-1.94-2.33c-1.6-3.41-3.25-6.8-4.78-10.24-3-6.73-6-13.47-8.9-20.25-2.15-5.05-4.16-10.16-6.22-15.26-.84-2.08-1.64-4.19-2.49-6.27a14.64,14.64,0,0,0-1-1.88,25.18,25.18,0,0,1-3-7.44,13.62,13.62,0,0,0-.46-1.5c-.42-1.29-.9-2.56-1.23-3.86a3,3,0,0,1,1.05-3.48A27.37,27.37,0,0,1,658.44,180.8Zm34,64.5a13.05,13.05,0,0,0-1.17-3c-1.36-2.82-2.73-5.64-4-8.5-3.22-7-6.37-14.08-9.63-21.07-2.62-5.62-5.34-11.17-8-16.74a19.44,19.44,0,0,0-1.34-2.3c-.43-.64-1-.91-1.58-.64-.43.2-.83.47-1.3.74a9.32,9.32,0,0,0,.37,1.1c1.92,3.85,3.88,7.67,5.77,11.53,5,10.15,9.67,20.43,14.29,30.77a57.05,57.05,0,0,0,4.22,8c.7.09,1.34.19,2,.25C692.14,245.56,692.26,245.42,692.47,245.3Zm-3.85,3.51a4,4,0,0,0-.45-3.66,30.62,30.62,0,0,1-1.86-3.55c-2.21-4.81-4.37-9.64-6.58-14.45q-6-13.08-12.06-26.14c-.9-1.95-1.93-3.83-2.92-5.73a3.44,3.44,0,0,0-.66-.66c-.6.37-1.25.53-1.36,1.57,1.63,3.47,3.32,7,5,10.6,3,6.33,6,12.63,8.9,19,2,4.32,3.72,8.76,5.7,13.09,1.3,2.84,2.82,5.58,4.27,8.34C687.05,248.1,687.62,248.91,688.62,248.81Zm-2.89.26a9.87,9.87,0,0,0-.51-1.23,177.87,177.87,0,0,1-7.93-17.08c-2.1-5-4.33-9.87-6.56-14.77-2.45-5.4-5-10.76-7.46-16.13l-1.56-3.33c-.72,0-1.06.37-.76,1.16.72,1.85,1.48,3.67,2.23,5.51,2.05,5,4.05,10,6.16,15,2.17,5.13,4.44,10.23,6.71,15.31,2.38,5.33,4.81,10.64,7.24,15.94a14.13,14.13,0,0,0,1,1.56Zm-.05,3.91a51.38,51.38,0,0,0,6.26,6.17l3.34-2.34a73.91,73.91,0,0,0-1.52-9c-1.09-.11-2.13-.76-3.1-.51-.13.28-.25.41-.25.56,0,.6,0,1.21,0,1.82,0,1.49-.36,1.8-1.57,1.36a4.58,4.58,0,0,1-.63-.31,1.59,1.59,0,0,0-1.82.16C685.77,251.26,685.58,251.92,685.68,253Zm-28.26-64.35a12.44,12.44,0,0,1,5.45-3.18,5.12,5.12,0,0,0,1-.68,3.15,3.15,0,0,0-5.3-2.16c-3,1-3.2,1.83-1.57,5.6A5.12,5.12,0,0,0,657.42,188.63Zm2.56,6.44a5.37,5.37,0,0,0,1.34-.47c1.82-1.32,3.88-2.19,5.57-3.66-.15-.72-.38-1.27-.92-1.07a41.08,41.08,0,0,0-4.23,1.77,4.7,4.7,0,0,0-2.32,2Zm-1.7-2.79c1.25-.84,2.32-1.67,3.47-2.32s2.5-1.19,3.73-1.76c-.23-1.06-.75-1.34-1.37-1.22a10,10,0,0,0-5.87,3.08C657.72,190.65,657.81,191.35,658.28,192.28Z"/><path class="cls-5" d="M763.42,178.43a62.4,62.4,0,0,1,12.85.24,17.7,17.7,0,0,1,4.41,1.21,5.89,5.89,0,0,1,3.67,4.88,21,21,0,0,1,.29,2.47c0,6.31,1.28,12.48,1.91,18.72.52,5.18.7,10.4,1,15.6a10.78,10.78,0,0,1-.18,2.47c-.44,2.74-1.42,3.73-4.14,4s-5.2.33-7.8.49c-3.31.21-6.64.3-9.93.64-5.3.54-10.59,1.26-15.88,1.88-5.06.59-10.11,1.2-15.18,1.72a28.44,28.44,0,0,1-5,.1c-3-.21-3.82-1.27-4.27-4.16-.74-4.67-1.59-9.33-2.52-14a221.28,221.28,0,0,1-2.95-22.19,21.56,21.56,0,0,1,.32-4.93,5.58,5.58,0,0,1,4-4.54,8.12,8.12,0,0,1,2.4-.59,67.71,67.71,0,0,0,9.82-1.51C745.92,179.22,750.4,178.88,763.42,178.43Zm-7.51,30.17c.56-.29,1-.47,1.39-.72a36.88,36.88,0,0,0,7.51-7c4.16-4.68,8.23-9.45,12.31-14.2a18.83,18.83,0,0,0,1.91-2.55,1.53,1.53,0,0,0-1-2.48,20.65,20.65,0,0,0-4.19-.66,196.07,196.07,0,0,0-34.66,1.88c-4,.61-8,1.07-11.94,1.63-.29,0-.54.31-.79.46.13.33.15.61.31.73,2.25,1.91,4.5,3.82,6.79,5.7q8.76,7.2,17.57,14.36A13.46,13.46,0,0,0,755.91,208.6ZM747,206.11a35.06,35.06,0,0,0-7.3,7.83c-3.13,4.45-6.13,9-9.16,13.51a17.93,17.93,0,0,0-1.08,2.27,8.49,8.49,0,0,0,4.06.2c6.94-.77,13.87-1.52,20.79-2.41,6.23-.79,12.44-1.6,18.72-1.8,2.12-.06,4.25-.21,6.37-.36.53,0,1.21.05,1.48-.94-.74-.88-1.55-1.88-2.4-2.84-3.29-3.72-6.56-7.46-9.91-11.13a17.74,17.74,0,0,0-4.94-4c-1.14.93-2.12,1.77-3.14,2.56-3.89,3-5.14,3-9.14.23C750,208.25,748.54,207.19,747,206.11Zm-23.66-19.53a9.55,9.55,0,0,0-.91,6.34c.5,4.71.95,9.44,1.7,14.11,1,6,2.18,11.88,3.32,17.81a7.79,7.79,0,0,0,.69,1.46c.72-1,1.31-1.67,1.84-2.43,2.1-3,4.18-6,6.27-9.06a46.3,46.3,0,0,1,8.42-9.58c.15-.12.16-.4.3-.76-.66-.58-1.35-1.21-2.06-1.82-3.51-3-7.06-6-10.54-9-2-1.71-3.82-3.55-5.78-5.27C725.77,187.63,725,186.67,723.38,186.58Zm42.1,18.17c7.4,5.16,12.16,12.68,18.64,19.09a15.33,15.33,0,0,0,.44-2.72c-.18-4.49-.25-9-.7-13.47-.68-6.71-2-13.36-2-20.14,0-.55.1-1.21-.69-1.58C776.09,192.2,770.52,198.12,765.48,204.75Z"/><path class="cls-5" d="M974.13,108.28c.42-1.64.66-3,1.12-4.36a7.47,7.47,0,0,1,7.17-5.36c2.67-.17,5.12.64,7.78,1.67a20.86,20.86,0,0,0,.48-2.08,28.1,28.1,0,0,1,6.08-13.79,16.84,16.84,0,0,1,11.11-6.4c10.73-1.57,20.19,1.52,28.37,8.38,5.75,4.82,7.82,11.38,7.58,18.75,0,1.41-.12,2.82-.17,4,.47.94,1.14.78,1.68.9a15,15,0,0,1,11.78,17.57c-1.55,4.14-4.22,8.84-10,8.32-2-.18-4,.15-6,.15q-25.57,0-51.15,0c-5.32,0-10.65.17-16-.18s-10.33-1.23-15.49-1.92c-3.72-.51-5.91-2.67-6.77-6.31a19.47,19.47,0,0,1,.3-10.52,11.5,11.5,0,0,1,8.11-7.78,25.37,25.37,0,0,1,7.36-1Zm19.5-4.6a16.24,16.24,0,0,1-5.18-1.58,14.77,14.77,0,0,0-6.27-.91,4.46,4.46,0,0,0-4.29,3.17,26.07,26.07,0,0,0-.78,4.86c-.07.57.17,1.18.09,1.74a1.18,1.18,0,0,1-1.24,1,4.33,4.33,0,0,1-1.37-.27c-4.81-1.59-9.61-1-14.32.27a8.22,8.22,0,0,0-6,6.46,18.84,18.84,0,0,0,0,8.45,5,5,0,0,0,4.55,4.3c2.93.39,5.87.82,8.77,1.38a51.59,51.59,0,0,0,10.6.7q7.65-.1,15.28-.08,27,.06,54,.14a5.81,5.81,0,0,0,5.47-3.27c2.52-4.55,1.28-11.28-2.83-14.53-2.13-1.7-4.39-3.24-7.45-2.42-1.23.33-2-.42-2.16-1.71a22.28,22.28,0,0,1,0-2.83c0-2.13.25-4.27.13-6.39a18.77,18.77,0,0,0-7.61-14.64c-7.29-5.44-15.44-8.11-24.64-6.88a14.94,14.94,0,0,0-9.5,5.06,29.83,29.83,0,0,0-4.29,6.92C993,96,992.15,99.52,993.63,103.68Z"/><path class="cls-5" d="M858.88,215.85a4.23,4.23,0,0,0,.6-.56c5.09-7.56,12.58-11.64,21-14.32a10.59,10.59,0,0,1,6.28-.5,1.39,1.39,0,0,1,1.12,2c-.56.13-1.21.32-1.88.42a40.62,40.62,0,0,0-17.78,7.6,20.89,20.89,0,0,0-5.7,6c1,.8,1.93,1.47,2.75,2.26a9.16,9.16,0,0,1,2.79,9.36,6.57,6.57,0,0,1-1.26,2.5,4.35,4.35,0,0,1-7,0,10.65,10.65,0,0,1-2.38-6.55c-.09-1.52,0-3.05,0-4.68-.48-.55-1.21-.35-1.87-.2a13.91,13.91,0,0,0-6.48,3.51,29.92,29.92,0,0,0-8.65,16,8.7,8.7,0,0,0,0,4.09c1.25,0,1.42-1,2-1.51a6.72,6.72,0,0,1,3.25-2.06c.47-.09,1,.26,1.75.46a5.47,5.47,0,0,1-.66,1.44,16.27,16.27,0,0,0-3.79,5.94,3.65,3.65,0,0,1-.54.91,1.93,1.93,0,0,1-3.07.34,31.42,31.42,0,0,1-3.34-4.13,27.83,27.83,0,0,1-2.11-4.1,1.44,1.44,0,0,1,.4-1.91c.73-.46,1.33,0,1.88.49a12.14,12.14,0,0,0,1,.76c.26-1,.51-1.89.71-2.76a32.92,32.92,0,0,1,6-12.74,21.61,21.61,0,0,1,5.36-5.13,15.09,15.09,0,0,1,7.25-2.67C857.33,216.06,858.15,215.94,858.88,215.85Zm2.26,4c-.79,2.8-.82,4.81-.09,6.72a8,8,0,0,0,1,1.83,1.48,1.48,0,0,0,2.59-.2,3.73,3.73,0,0,0,.42-1C865.91,224.05,864.61,221.5,861.14,219.81Z"/><path class="cls-5" d="M1053.61,447.65c-.45,4.75.44,9.47-.53,14.13-1.31.64-2.62.28-3.88.34s-2.59,0-3.84,0c-1.55-2.66-.06-5.62-1.47-8.2h-2.43a3.34,3.34,0,0,0-.39,1c-.08,1.41-.08,2.83-.14,4.25,0,.81-.17,1.61-.26,2.49-2.76,1-5.46.27-8.32.54a13.45,13.45,0,0,1-.51-2.49c-.07-2.95,0-5.91-.06-8.87v-3.18a14,14,0,0,1-1.63.83c-.54.18-1.24.53-1.66.34a31.76,31.76,0,0,1-4.6-2.56,1.74,1.74,0,0,1-.23-2.55,17,17,0,0,1,1.68-1.82c3-3,6.06-6,9.15-8.91,2.06-1.95,4.2-3.82,6.37-5.64,1.43-1.21,2.29-1.19,3.71,0,2.3,2,4.58,4.09,6.81,6.21,2.84,2.68,5.61,5.42,8.41,8.15a19.3,19.3,0,0,1,1.5,1.5,2.16,2.16,0,0,1-.25,3.4,11.8,11.8,0,0,1-1.81,1.1C1056.51,449.26,1056.51,449.25,1053.61,447.65Zm5.06-2.59a5,5,0,0,0-.51-1q-6.23-6.31-12.48-12.6c-.58-.59-1.14-1.2-1.76-1.74a1.66,1.66,0,0,0-2.27-.14,9.15,9.15,0,0,0-1.34,1.15q-6.72,6.81-13.41,13.66c-.11.11,0,.42,0,.81l1.78.82c2.17-.55,2.78-3,5-3,1.13,2.69.59,5.43.7,8.1s-.39,5.4.43,8.21l3.86-.62c.12-2.13.19-4,.35-5.89.13-1.43.7-1.86,2.06-1.79a25.82,25.82,0,0,0,2.78,0c1.75-.09,2.1.11,2.3,1.85.17,1.4.22,2.82.34,4.24.06.67.16,1.33.26,2.09,1.47.07,2.74.34,4-.42.06-.64.17-1.22.17-1.8,0-2.95,0-5.91,0-8.87a32.14,32.14,0,0,1,.15-3.54,2.27,2.27,0,0,1,.72-1.47c.52-.39,1,.05,1.51.48.93.89,1.93,1.71,3,2.61Z"/><path class="cls-5" d="M994.65,160.09c.07-1.43.16-2.58.19-3.74.09-4.26.12-8.53.24-12.79.06-2.15.69-3,2.65-3,5.09-.06,10.18.08,15.26.15.09,0,.19.14.54.42.76,3,.15,6.31.65,9.56s.21,6.61.92,10c2.88.8,5.77-.1,8.46.63.6,1.47,0,2.64-.7,3.76-1.67,2.72-3.26,5.51-5.13,8.1-2.35,3.27-4.86,6.42-7.44,9.51-3,3.58-4.88,3.79-8.34.67a54.71,54.71,0,0,1-6.8-7.23c-3.32-4.31-6.34-8.86-9.47-13.32a4,4,0,0,1-.45-1,1.42,1.42,0,0,1,1.11-1.88c1.65-.1,3.3-.08,5-.06C992.24,159.87,993.19,160,994.65,160.09Zm-5.44,2.43a16.2,16.2,0,0,0,1,2.42c2.62,3.65,5.16,7.37,8,10.88a60.29,60.29,0,0,0,5.71,5.82,13,13,0,0,0,2.25,1.36c.83-.81,1.64-1.48,2.31-2.27,1.31-1.53,2.63-3.06,3.8-4.69,2.53-3.57,5-7.18,7.44-10.81a5.87,5.87,0,0,0,.43-1.73l-7.1-.23c-1.24-6.68-1.29-13.3-1.72-19.81-2.75-.77-10.46-.82-13.64-.11-.05.86-.16,1.78-.16,2.7,0,3,.05,5.92.05,8.88,0,1.89,0,3.79-.15,5.67a7.51,7.51,0,0,1-.73,1.92Z"/><path class="cls-5" d="M727.09,401.23a24.67,24.67,0,0,1,12.46-8.89c-.8-1.29-2.2-1-3.16-1.54-.43-.26-.93-.92-.86-1.32a1.63,1.63,0,0,1,1.18-1.05A13.73,13.73,0,0,1,745,391a1.7,1.7,0,0,1,.57,2.22c-1,1.74-2,3.46-3.15,5.13-.19.28-.8.29-1.46.49-.21-1.32-.39-2.43-.61-3.76a22,22,0,0,0-9.87,6.53l1.73,1.71a6,6,0,0,1-2,9.72,3.71,3.71,0,0,1-5.39-2.85,11.54,11.54,0,0,1-.1-2.82c0-.8.22-1.59.37-2.67a12.48,12.48,0,0,0-1.89.1A15.41,15.41,0,0,0,717,408a32.07,32.07,0,0,0-11.61,23.52,6.92,6.92,0,0,0,.54,3.82,1.27,1.27,0,0,1-.43,1.16,1.9,1.9,0,0,1-1.6-.1,3.57,3.57,0,0,1-.91-1.83,24.28,24.28,0,0,1,.43-9.53,34,34,0,0,1,9.39-17.24c3.53-3.53,7.64-6,12.77-6.32A13.83,13.83,0,0,0,727.09,401.23Zm1.1,9c1.8-.49,2.57-1.26,2.67-2.75a2.21,2.21,0,0,0-2-2.49A5.08,5.08,0,0,0,728.19,410.19Z"/><path class="cls-5" d="M970.86,374.79c.06,1.13.12,2.06.15,3,.09,3.19.18,6.37.25,9.56a6.68,6.68,0,0,1-.14,1.41c-.38,2-1.25,2.87-3.27,3.13a8,8,0,0,1-6.36-1.49c-1-.81-2.11-1.52-3-2.42a3.78,3.78,0,0,1-1.05-3.9c.55-2,1.61-2.74,3.64-2.53a21.75,21.75,0,0,1,2.23.48c.69-2.29.19-4.43,0-6.72-1.06-.17-2-.25-2.86-.48-2.28-.6-4.12-4.19-3.14-6.3a2.5,2.5,0,0,1,1.67-1.1,34,34,0,0,1,4.94-.35c3.19,0,6.38.08,9.56.14a6.23,6.23,0,0,1,1.06.09,2.14,2.14,0,0,1,1.88,2.54,5.42,5.42,0,0,1-.26,1.39c-.67,2-.83,3.36-3.86,3.24A7.46,7.46,0,0,0,970.86,374.79Zm-2.65,14a15.47,15.47,0,0,0,.31-2.07c0-2.72,0-5.44,0-8.17,0-1.06-.09-2.13-.08-3.19,0-2.56.34-2.87,2.78-3.09l2-.17c.56-.68.94-1.25.28-2.24-3.93-.16-8.05-.36-12.17-.48-.87,0-1.5.59-1.82,1.61a2.78,2.78,0,0,0,2.86,2c1.16,0,2.32,0,3.67,0,.08,3.19.19,6.12.18,9.05a6.52,6.52,0,0,1-.63,2.38,1.89,1.89,0,0,1-2.68.93,14,14,0,0,0-1.51-.9,1.69,1.69,0,0,0-1.24.25c-.15.1-.17.72,0,1a9.68,9.68,0,0,0,4.16,3.19A5,5,0,0,0,968.21,388.76Z"/><path class="cls-5" d="M992.14,376.31l-3.78-2c-.64.64,0,.89.28,1.09.89.77,1.93,1.39,2.78,2.21a17.76,17.76,0,0,1,2.77,3.18c2,3.15,1.54,5.57-.83,8.38s-5.11,3.24-8.31,2.43a13.08,13.08,0,0,1-6.11-3.46c-1.38-1.39-1.4-2.49-.29-4.12a10.53,10.53,0,0,1,.9-1.1c1.06-1.14,1.7-1.34,3.14-.7,1.28.57,2.48,1.35,3.77,1.93.26.11.79-.24,1.1-.48.08-.06-.12-.72-.35-.86a26.18,26.18,0,0,0-2.81-1.52c-3.22-1.51-4.28-4.34-4.29-7.57a5.76,5.76,0,0,1,1.41-3.52,18.32,18.32,0,0,1,4.14-3.27,3.85,3.85,0,0,1,3.76.07,12.59,12.59,0,0,1,2.38,1.51C995.4,371.32,995.48,372.34,992.14,376.31Zm.06-2.73c0-.94.22-1.62,0-2a4.88,4.88,0,0,0-6.48-1.75c-3,1.83-3.81,4-2.55,6.81a4.51,4.51,0,0,0,2.16,2.25l4,2c.16.62.29,1.07.38,1.53a6.27,6.27,0,0,1,.13,1.06,2.58,2.58,0,0,1-2.45,2.9,3.32,3.32,0,0,1-2.69-.54,10.34,10.34,0,0,0-1.79-1.12c-1.57-.78-1.87-.59-2.53,1.61,2.48,2.07,5.15,3.56,8.63,3a4.82,4.82,0,0,0,3.77-6.6,9,9,0,0,0-3.06-3.82,38.47,38.47,0,0,1-3.25-2.73,3.26,3.26,0,0,1-1-2.91,1.76,1.76,0,0,1,2.28-1.56C989.07,372.21,990.34,372.81,992.2,373.58Z"/><path class="cls-5" d="M702.85,290.34a4.35,4.35,0,0,0,.18,4.6,42.17,42.17,0,0,0,3,4c1.4,1.67,3.11,2,5.17.84.07-1.37.14-2.74.23-4.3,1-.25,1.84-.46,2.71-.72a2.87,2.87,0,0,1,3.35,1.34,6.21,6.21,0,0,1,1.18,3.65,8.88,8.88,0,0,1-12.91,8.19,15.48,15.48,0,0,1-6.33-5,23.72,23.72,0,0,1-4.72-10.54,10,10,0,0,1,1.08-5.83,7.12,7.12,0,0,1,3.21-3.21c2.88-1.53,8.11,0,9.74,2.9a3.13,3.13,0,0,1-2.81,4.53A18.55,18.55,0,0,1,702.85,290.34Zm11.44,6.6c-.22.24-.58.47-.63.75-.14.81-.14,1.64-.23,2.45a2.41,2.41,0,0,1-2,2.18,7,7,0,0,1-7.65-2.39,28,28,0,0,1-3-4.79,6.43,6.43,0,0,1-.37-4.51,3,3,0,0,1,3.66-2.4,8.62,8.62,0,0,0,1.74.17,1.12,1.12,0,0,0,.75-.65,1.22,1.22,0,0,0-.11-1c-2-2.61-6.57-2.44-8.18.38a9,9,0,0,0-.82,7.87,20.28,20.28,0,0,0,7.39,9.73,8.89,8.89,0,0,0,6.77,1.43c2.12-.4,3.72-1.47,4.1-3.81.12-.69.3-1.38.47-2.07C716.59,298.62,715.91,297.56,714.29,296.94Z"/><path class="cls-5" d="M717.09,280.2a3.58,3.58,0,0,0,3.44,2.48,19.26,19.26,0,0,1,5.73,1.81,8.42,8.42,0,0,1,4.14,3.74c.63,1.14,1.31,2.25,1.9,3.41a3.41,3.41,0,0,1-.14,3.41,16.23,16.23,0,0,1-5.49,5.47,2.54,2.54,0,0,1-3-.14,7.43,7.43,0,0,1-1.78-1.71c-1-1.42-1.44-2.56.25-4,.9-.79,1.85-1.56,1.48-3.05-1.27-1-2.87-.85-4.37-.88a11.67,11.67,0,0,1-6.27-2.22,7.15,7.15,0,0,1-2.67-3.24,16,16,0,0,1-1.22-7.65,4.25,4.25,0,0,1,1.72-3.35,29.94,29.94,0,0,1,3.25-2.15c2.26-1.22,4.45-.36,6.44.67,1.77.92,2.26,4.4,1.09,6.07a2.33,2.33,0,0,1-2.12,1.06C718.69,279.86,717.85,279.27,717.09,280.2Zm2.84-3a3.66,3.66,0,0,0-2.2-3.31,3.23,3.23,0,0,0-3.08,0c-3,1.34-3.9,2.93-3.49,6.19a23.9,23.9,0,0,0,.82,3.44,5.93,5.93,0,0,0,3.16,3.65,10.78,10.78,0,0,0,5.12,1.26,6.72,6.72,0,0,1,3.75.89c2.12,1.4,2.59,3.35,1.2,5.48a23.05,23.05,0,0,1-1.49,1.87c1.13,1.49,1.69,1.74,2.49,1a41.62,41.62,0,0,0,3.48-3.55,2.06,2.06,0,0,0,.33-1.64c-.81-2.84-2.25-5.29-5.18-6.35a35.63,35.63,0,0,0-5.49-1.4,5.08,5.08,0,0,1-4.43-3.93,2.85,2.85,0,0,1,2.19-3.5A19.8,19.8,0,0,1,719.93,277.23Z"/><path class="cls-5" d="M731.63,268.44c-.45.85-.23,1.44.3,1.75a6.49,6.49,0,0,0,3.23,1.32c2.33,0,4.31,1.22,6.3,2.25a6.53,6.53,0,0,1,3.18,3.23,20.76,20.76,0,0,0,1.42,2.45,4.13,4.13,0,0,1-.1,5,18.49,18.49,0,0,1-4.51,4.49,3.08,3.08,0,0,1-4.46-.46,9.32,9.32,0,0,1-1.47-2,2.12,2.12,0,0,1,.35-2.62,23.32,23.32,0,0,0,1.86-2.12,1.25,1.25,0,0,0-.82-1.93,18.88,18.88,0,0,0-3.18-.36c-5.41-.1-10-3.52-10.45-10.36,0-.12,0-.23,0-.35-.25-4.22,1.69-7,5.74-8.21,2.91-.87,6.42.76,7.23,3.46a5.39,5.39,0,0,1,.09,2.43c-.33,1.6-1.35,2.24-3.13,2.17C732.64,268.53,732.09,268.48,731.63,268.44Zm2.24-2.39c.15-.63.31-.9.23-1.07-1.19-2.61-3.44-3.42-5.75-2.1s-3.66,3.26-3,6.12a26.76,26.76,0,0,0,.75,3.09,6.78,6.78,0,0,0,3.42,3.89,10.94,10.94,0,0,0,4.78,1.17,7.4,7.4,0,0,1,3.76.81c2.18,1.3,2.77,3.27,1.45,5.4a27,27,0,0,1-1.76,2.28,13.17,13.17,0,0,0,1.12,1,.89.89,0,0,0,.67.13,2,2,0,0,0,1-.42c1.34-1.33,2.63-2.69,3.89-4-.64-4.22-2.74-6.94-6.72-8a41.4,41.4,0,0,0-4.15-.9c-2.52-.41-3.87-1.57-4.37-3.91a2.82,2.82,0,0,1,2.49-3.57A13.47,13.47,0,0,1,733.87,266.05Z"/><path class="cls-5" d="M672,385.47c-2.89-5.83-5.3-11.94-10.55-16.51.58-.56,1-1,1.4-1.35a22.82,22.82,0,0,0,4.85-5.93c4.29-7.22,8.14-14.62,9.85-22.84a6.25,6.25,0,0,1,.65-1.19,21,21,0,0,1,1.8,2.23q6.46,10.65,12.86,21.34c2.79,4.68,5.52,9.4,8.28,14.11.29.51.57,1,1,1.77a8.1,8.1,0,0,1-2,.79c-2.21.21-4.43.37-6.64.4a34,34,0,0,0-19.39,6.39,12.36,12.36,0,0,1-1.27.74A3.78,3.78,0,0,1,672,385.47Z"/><path class="cls-5" d="M708.61,368.12c1.09,2.35,2.13,4.48,3.07,6.65a13.05,13.05,0,0,1,.94,3,3.14,3.14,0,0,1-1.61,3.37c-2.39,1.45-4.79,2.05-7.13.11a4.54,4.54,0,0,0-3.43-.88c-2.82.21-5.65.43-8.47.51a30.8,30.8,0,0,0-15,4.73,2.08,2.08,0,0,0-.49.53c-.06.08-.05.22-.08.34,2.61,2.79,2.61,2.79,2,7.45.46.35,1,.84,1.56,1.21a3.39,3.39,0,0,1,1.82,3.23,2.46,2.46,0,0,0,1.61,2.54c2.39,1,2.91,2.93,2.9,5.23a10.21,10.21,0,0,0,.35,3.12,3,3,0,0,1-1.41,3.7,13.67,13.67,0,0,1-1.21.83,33.82,33.82,0,0,1-12.72,3.67c-.25,0-.49,0-.74,0-2.43,0-3.36-.77-3.6-3.07-.18-1.65-.21-3.32-.25-5a23.26,23.26,0,0,0-1.82-8.65c-.6-1.38-1.41-2.68-2.16-4.09-1.52.4-2.82.73-4.11,1.09a2.77,2.77,0,0,1-3-.86,15.2,15.2,0,0,1-1.34-1.66,98.11,98.11,0,0,1-8.26-14.51,12.52,12.52,0,0,1-1.4-5.21c1.44-1.4,2.87-2.9,4.41-4.27a14.41,14.41,0,0,1,7.58-3.62,8.3,8.3,0,0,0,4.81-2.43,20,20,0,0,0,2.83-3.35,91.1,91.1,0,0,0,10.16-20.8,14.45,14.45,0,0,0,.86-6.66c-.42-2.84,3-5.12,5.75-4a14.14,14.14,0,0,1,5.28,3.69c2.22,2.48,4.33,5,6.69,7.8.46,0,1.18-.13,1.89-.12a9.23,9.23,0,0,1,7.3,3.44,17.08,17.08,0,0,1,1.63,2.33,74,74,0,0,1,6.59,14.53C711.47,365.28,711.38,365.64,708.61,368.12ZM672,385.47a3.78,3.78,0,0,0,.86-.05,12.36,12.36,0,0,0,1.27-.74,34,34,0,0,1,19.39-6.39c2.21,0,4.43-.19,6.64-.4a8.1,8.1,0,0,0,2-.79c-.42-.74-.7-1.26-1-1.77-2.76-4.71-5.49-9.43-8.28-14.11q-6.39-10.7-12.86-21.34a21,21,0,0,0-1.8-2.23,6.25,6.25,0,0,0-.65,1.19c-1.71,8.22-5.56,15.62-9.85,22.84a22.82,22.82,0,0,1-4.85,5.93c-.44.37-.82.79-1.4,1.35C666.68,373.53,669.09,379.64,672,385.47Zm-14.09,10.1c3.05-1.56,5.89-3,8.71-4.48a7.12,7.12,0,0,0,1.2-.86c1.64-1.34,2-2.21,1.12-4.06-1.73-3.63-3.53-7.24-5.53-10.73a21,21,0,0,0-3.47-4.05,4.32,4.32,0,0,0-5-.86c-3.24,1.26-5.55,3.52-7.78,6.25C649.89,383.5,653.77,389.55,657.89,395.57ZM679,397.81c-3.75-1.57-3.78-4.55-2.88-7.63-1.55-1.44-1.55-1.44-3.33-1.69-1.21,3.39-4.43,4.88-7.34,6.64a4.37,4.37,0,0,0,.26,1.15,29.27,29.27,0,0,1,4.08,16,13.91,13.91,0,0,0,.32,2.28c4.66.24,11.29-1.69,13.83-3.85-.22-2.21-.43-4.29-.65-6.53C680.89,402.75,678.68,401.11,679,397.81Zm31.12-19.21c-1-2.35-1.72-4.34-2.64-6.25a281.1,281.1,0,0,0-15-26.22,64.05,64.05,0,0,0-7.91-10.52,12.26,12.26,0,0,0-4.64-3.32,2,2,0,0,0-1.39.09c-.36.2-.56.7-.85,1.1a40,40,0,0,1,3,3.17,62.83,62.83,0,0,1,4.09,5.82Q694,357.67,703.09,373a10.89,10.89,0,0,1,1.78,5.33c0,1.53,1,2.08,2.53,1.63A19.76,19.76,0,0,0,710.08,378.6Zm-15-34.34c0,.4-.06.68,0,.85q6,10,12.08,20c0,.06.2,0,.31,0,.66-.44.44-1,.27-1.58a82,82,0,0,0-7-15.84,6.71,6.71,0,0,0-4.35-3.48A5.1,5.1,0,0,0,695.07,344.26Z"/><path class="cls-5" d="M711.37,342.28a11,11,0,0,1,1.08-2.27c2.13-2.5,4.32-5,6.51-7.42a1,1,0,0,1,.63-.35,2.44,2.44,0,0,1,1.37.13,1.84,1.84,0,0,1,.47,1.23,1.6,1.6,0,0,1-.39,1,30,30,0,0,1-8.41,7.56A5.07,5.07,0,0,1,711.37,342.28Z"/><path class="cls-5" d="M720.1,361.64c.47-.17.95-.5,1.35-.44q5.74.89,11.47,1.91c.36.07.9.67.84.94a2.43,2.43,0,0,1-.92,1.35,2.25,2.25,0,0,1-1.39.32c-3.94-.26-7.69-1.08-10.88-3.41A2.92,2.92,0,0,1,720.1,361.64Z"/><path class="cls-5" d="M701.44,336.36a25.63,25.63,0,0,1-.22-3.15,31.62,31.62,0,0,1,3.33-10.9c.32-.67.83-1.25,1.7-.6C706.11,324.71,703.74,332.24,701.44,336.36Z"/><path class="cls-5" d="M730.85,347.32a1.22,1.22,0,0,1,.08,1.91c-1.47,1.62-3.55,2.12-5.51,2.82s-3.67,1.32-5.55.73c-.35-.77.14-1,.53-1.28a46.27,46.27,0,0,1,9.41-4.17A3,3,0,0,1,730.85,347.32Z"/><path class="cls-5" d="M1001.4,444.84a18.78,18.78,0,0,1,0,8.47,12,12,0,0,1-4.09,6.91,18.46,18.46,0,0,1-14.88,4.37,19,19,0,0,1-10.08-4.26,37.3,37.3,0,0,1-5.95-6.47,57.44,57.44,0,0,1-7.61-15.15,16.79,16.79,0,0,1-.75-9.34,12.46,12.46,0,0,1,8.12-9.5,17.13,17.13,0,0,1,12.17-.27,1.92,1.92,0,0,1,.31.11C990.09,424.56,998.24,432.45,1001.4,444.84Zm-38.08-20.5A11.05,11.05,0,0,0,960.4,435a30.7,30.7,0,0,0,1.8,5.25c2.8,6.45,6.08,12.57,11.77,17,4,3.17,8.47,4.87,13.67,3.86a4.12,4.12,0,0,1,1-.13c2.3.06,4.2-1,6.08-2.15a7.93,7.93,0,0,0,3.53-4.53,18.41,18.41,0,0,0-.65-12.81c-3.46-8.94-10-14.9-18.5-18.93a20.91,20.91,0,0,0-4.38-1.31,12.18,12.18,0,0,0-6.76.5,10.25,10.25,0,0,0-1.63,1,24.15,24.15,0,0,1,9,5.83l1,.08a6.79,6.79,0,0,1,6.06,5.11c.65,2.55-.89,4.34-3.51,4a8.11,8.11,0,0,1-4.4-2c-1.52-1.34-2.19-2.95-1.33-5a6.82,6.82,0,0,0,.3-1.16A19.65,19.65,0,0,0,963.32,424.34Zm12.8,6.36a1.5,1.5,0,0,0-1,1.9,4.71,4.71,0,0,0,4.32,2.85,1,1,0,0,0,.76-.49c.47-1-.73-2.95-2.35-3.88a2.79,2.79,0,0,0-.9-.36A3.56,3.56,0,0,0,976.12,430.7Z"/><path class="cls-5" d="M982.57,455.42a3.55,3.55,0,0,1,.51-1.31c.36-.43,1.09.23,1.35,1.29.17.71.45,1.48-.34,2C983.57,457.77,982.88,457,982.57,455.42Z"/><path class="cls-5" d="M981.42,454.63a5.76,5.76,0,0,1-.19,1,.7.7,0,0,1-.47.36.67.67,0,0,1-.58-.19,4.91,4.91,0,0,1-.63-1.45c-.11-.6-.28-1.29.42-1.73.51-.32,1,.24,1.31,1.44C981.31,454.19,981.34,454.3,981.42,454.63Z"/><path class="cls-5" d="M987.37,454.5c.15.12.37.22.45.38.24.57.49,1.19-.25,1.59a.63.63,0,0,1-.56-.08c-.6-.52-.58-.91.06-1.8C987.12,454.53,987.27,454.53,987.37,454.5Z"/><path class="cls-5" d="M1000.89,347.66a23.92,23.92,0,0,1,14.25-8.77c-4.28,5.56-4.83,11.35-1.5,17.7a6.42,6.42,0,0,1-3.76-1.37A31.3,31.3,0,0,1,1000.89,347.66Z"/><path class="cls-5" d="M1031.44,339.59c4.2.73,7.83,3.9,10.75,9.31a20.28,20.28,0,0,1-6.65,7.5,7,7,0,0,1-4.69,1.47c0-1.14.77-1.91,1.19-2.81,1.51-3.18,2.41-6.48,1.55-10A46,46,0,0,0,1031.44,339.59Z"/><path class="cls-5" d="M1022.07,345.53a2.78,2.78,0,0,1,3,.64,4.32,4.32,0,0,1,1.09,1.77,2.78,2.78,0,0,1-.74,2.94,3.1,3.1,0,0,1-3.27.81,1.82,1.82,0,0,1-1.29-1.55C1020.53,348.66,1020.84,347.57,1022.07,345.53Z"/><path class="cls-5" d="M998,348.79a11,11,0,0,1,3.27-5.16,28.61,28.61,0,0,1,17.67-8.28,28.26,28.26,0,0,1,12.64,1.07,22.47,22.47,0,0,1,11.41,8.65c2.64,3.85,2.68,3.87.07,7.63a25.8,25.8,0,0,1-3.11,3.85,16.43,16.43,0,0,1-11.14,4.83,73.43,73.43,0,0,1-12.76-.69,17.79,17.79,0,0,1-8.09-3.48c-2.11-1.53-4.09-3.23-6.08-4.91C1000.65,351.25,999.47,350.1,998,348.79Zm15.44.69c.08,1.48-.2,3.29.94,4.63,2.45,2.88,5.39,5,9.43,4.86a4.92,4.92,0,0,0,3.79-1.64,15.44,15.44,0,0,0,3.83-8.26,10.36,10.36,0,0,0-3-8.74,7.05,7.05,0,0,0-9.35-1.12A11.62,11.62,0,0,0,1013.47,349.48Zm-12.58-1.82a31.3,31.3,0,0,0,9,7.56,6.42,6.42,0,0,0,3.76,1.37c-3.33-6.35-2.78-12.14,1.5-17.7A23.92,23.92,0,0,0,1000.89,347.66Zm30.55-8.07a46,46,0,0,1,2.15,5.51c.86,3.48,0,6.78-1.55,10-.42.9-1.23,1.67-1.19,2.81a7,7,0,0,0,4.69-1.47,20.28,20.28,0,0,0,6.65-7.5C1039.27,343.49,1035.64,340.32,1031.44,339.59Z"/><path class="cls-5" d="M1018.36,348.77a10.63,10.63,0,0,1,.19-1.27c.4-1.76.84-3.46,3-4a5.51,5.51,0,0,1,6.25,8.28,5.71,5.71,0,0,1-6.21,2.38C1019.39,353.56,1018.2,351.61,1018.36,348.77Zm3.71-3.24c-1.23,2-1.54,3.13-1.25,4.61a1.82,1.82,0,0,0,1.29,1.55,3.1,3.1,0,0,0,3.27-.81,2.78,2.78,0,0,0,.74-2.94,4.32,4.32,0,0,0-1.09-1.77A2.78,2.78,0,0,0,1022.07,345.53Z"/><path class="cls-5" d="M986.2,319.07l-2.52-.44c-.22.37-.52.66-.53.95,0,1.06.07,2.12.13,3.18.24,3.73-2.25,6.05-5.92,5.49a17,17,0,0,1-1.89-.5,17.25,17.25,0,0,1-.55-2.7c-.23-5.44-.45-10.88-.56-16.32a28.34,28.34,0,0,1,.51-4.93c.31-2,1.12-2.7,2.67-2.67,2,0,3.22,1,3.51,2.8.13.82.11,1.65.17,2.48,0,.47,0,.95.1,1.42.21,1.68.69,1.88,2.8,1.1.2-1.58.35-3.22.63-4.84a3.16,3.16,0,0,1,3-2.92,4,4,0,0,1,4.11,2.19,6.14,6.14,0,0,1,.56,2c.41,6.25,1.57,12.45,1.46,18.74a18.64,18.64,0,0,1-.1,2.48,2.53,2.53,0,0,1-2.42,2.19,9.38,9.38,0,0,1-1.06,0c-2.92,0-3.58-.61-3.64-3.46,0-1.78,0-3.55-.07-5.32A4.24,4.24,0,0,0,986.2,319.07Zm2.9,7c1.36.31,2.11.22,2.21-.94a9.6,9.6,0,0,0,0-1.42q-.52-8.83-1.07-17.69a5.47,5.47,0,0,0-.17-1.05,1.94,1.94,0,0,0-2-1.66c-.82,0-1.34.53-1.46,1.68s-.15,2.6-.25,3.89a2.55,2.55,0,0,1-2.13,2.49c-3.67.85-5-.56-5-3.48a26.54,26.54,0,0,0-.37-3.87c0-.29-.68-.68-1-.68a1.48,1.48,0,0,0-1.05.7,2.81,2.81,0,0,0-.18,1.37c.16,5.44.31,10.87.54,16.31a24.25,24.25,0,0,0,.6,3.85,1,1,0,0,0,.68.68,1.72,1.72,0,0,0,1.27-.33,2.91,2.91,0,0,0,.71-1.56c.15-1.29.12-2.6.2-3.89a17.47,17.47,0,0,1,.24-2.81,1.7,1.7,0,0,1,1.8-1.42,38.16,38.16,0,0,1,3.84.55,2.58,2.58,0,0,1,2.12,2.13,16.37,16.37,0,0,1,.35,2.8C989,323.09,989.05,324.49,989.1,326.05Z"/><path class="cls-5" d="M963.78,318.2c0,2.47,0,4.59,0,6.71,0,1.42,0,2.84-.14,4.25a2,2,0,0,1-1.87,1.83c-.7.11-1.41.18-2.12.22-3.21.15-4.37-.72-4.61-3.94-.39-5.18-.62-10.38-.86-15.58-.09-1.89,0-3.79,0-5.68a4.46,4.46,0,0,1,3-4.65,9.5,9.5,0,0,1,7.89-.16,13.06,13.06,0,0,1,2.2,1.13c5.18,3.19,5.38,7.76,3.08,12.61a4.85,4.85,0,0,1-3.57,2.68Zm-7.34-13.5c.07,6.27-.25,12.54.28,18.79.07.83.19,1.65.29,2.47a3,3,0,0,0,1.81,2.44c1.53.76,2.5.22,2.56-1.55,0-1.18,0-2.36,0-3.55s0-2.6,0-3.9c.07-3.21.21-3.37,3.27-3.93a7,7,0,0,0,1.39-.25,5,5,0,0,0,1.54-.84c1.79-1.63,2.21-6,.75-7.93a9.87,9.87,0,0,0-5.94-3.62C960.24,302.36,958.39,303,956.44,304.7Z"/><path class="cls-5" d="M959.61,310.55c.15-3.95,1.5-4.76,4.7-3.11a3.51,3.51,0,0,1,1.36,1.06,2.3,2.3,0,0,1,.34,1.62,5.13,5.13,0,0,1-3.51,3.64,2,2,0,0,1-2.8-1.78A13.37,13.37,0,0,1,959.61,310.55Zm3.2-1.53c-.43.3-.78.42-.9.65-.29.57.05,1.47.47,1.36a1.5,1.5,0,0,0,1-.78C963.43,310,963.05,309.53,962.81,309Z"/><path class="cls-5" d="M1004.65,316.74c.21,1.55.43,2.82.53,4.09a48.08,48.08,0,0,1,.18,4.94,2.76,2.76,0,0,1-2.36,2.73c-1.14.26-2.28.48-3.62.75a14.35,14.35,0,0,1-.93-1.83,8.7,8.7,0,0,1-.4-2.08c-.39-6.61-.84-13.21-1.1-19.81-.14-3.7,2.34-6.19,6-6.35,4.21-.18,7.22,1.94,9.4,5.3a5.16,5.16,0,0,1,.24,5.43,27.34,27.34,0,0,1-3.41,4.92c-.63.72-1.82,1-2.78,1.39A16.73,16.73,0,0,1,1004.65,316.74Zm-3.73,9.48c1.84-.26,2.15-.41,2.14-1.49,0-2-.16-4-.27-6-.15-2.77.34-3.54,2.92-4.53.22-.09.48-.08.69-.18,2.63-1.31,3.94-3.64,4.65-6.34a3.2,3.2,0,0,0-.28-1.72c-1.13-3.11-5.48-5.39-8.73-4.6-2.2.52-3,1.45-2.84,3.75.42,6.5.92,13,1.4,19.5A14.17,14.17,0,0,0,1000.92,326.22Z"/><path class="cls-5" d="M1001,306.75c0-1.95,1-2.79,3-2.43,1.32.25,2.6.66,3.07,2.07a3.64,3.64,0,0,1-1.16,3.86,5.75,5.75,0,0,1-1.75,1.16,1.88,1.88,0,0,1-2.57-1.19,9.12,9.12,0,0,1-.28-1.38C1001.2,308.14,1001.11,307.43,1001,306.75Zm3.19-.44c-.39.47-.73.69-.73.92,0,.51-.27,1.28.57,1.32.26,0,.71-.58.77-.94S1004.51,306.9,1004.21,306.31Z"/><path class="cls-1" d="M835.37,194.62c.25-.34.44-.89.76-1a74.18,74.18,0,0,1,7.53-2c7-1.27,14-2.43,21-3.53,2.33-.36,4.71-.46,7.06-.63s4.73-.28,7.08-.46a31.08,31.08,0,0,0,11-2.53c.44,1.71.41,2.1-.54,2.36-2.73.76-5.46,1.56-8.24,2.05a98.34,98.34,0,0,1-15.15,1.65c-5.78.13-11.56.74-17.33,1.32a70.19,70.19,0,0,0-7.66,1.44c-1.84.39-3.66.9-5.5,1.36Z"/><path class="cls-1" d="M826.66,197.84c-.16.14-.36.42-.5.4a6.52,6.52,0,0,1-1.19-.43s0-.21,0-.28a1.41,1.41,0,0,1,1.6,0C826.67,197.58,826.65,197.73,826.66,197.84Z"/><path class="cls-5" d="M849.2,194.26Z"/><path class="cls-5" d="M835.34,194.63l-.49-.11.52.1Z"/><path class="cls-5" d="M836.56,130.69A5.78,5.78,0,0,1,839.7,133a13.24,13.24,0,0,1-4.38,1.34C835.33,132.54,835.31,132.53,836.56,130.69Z"/><path class="cls-5" d="M832.25,128c1.23,0,1.81.73,2.58,1.65l-1.34,2.84C832.19,131,832.25,129.54,832.25,128Z"/><path class="cls-5" d="M832.84,125.52a9,9,0,0,1,4.07-.78,2.22,2.22,0,0,1-1.19,2.47Z"/><path class="cls-5" d="M838.09,127.23c.32.2.44.24.49.32.31.45.68.92.21,1.45a.64.64,0,0,1-.59.05,1,1,0,0,1-.39-1.41A3.77,3.77,0,0,1,838.09,127.23Z"/><path class="cls-5" d="M822,193.79a21.52,21.52,0,0,1-3.21.24A3,3,0,0,1,816,191.7c-1.06-3.61-.79-4.7,2-7.14.44-.38.92-.71,1.36-1.05-.2-1-.9-.56-1.38-.63s-1,0-1.41-.13c-3.66-.71-4.82-2.35-4.3-6a3.37,3.37,0,0,1,1.56-2.64c.9-.56,1.73-1.23,2.7-1.94-.06-.74-.12-1.51-.19-2.3-1.3-.33-2.45-.56-3.56-.91-2.62-.84-3.72-5.75-1.26-7.38a14.29,14.29,0,0,0,1.71-1.27,2.52,2.52,0,0,0,.67-1.16c.08-.3-.13-.68-.24-1.16a22.3,22.3,0,0,1-2.34-.51,3.57,3.57,0,0,1-2.28-5.33,28.43,28.43,0,0,1,2.65-3.57c-.07-.44-.16-1.12-.28-2a5.7,5.7,0,0,0-1.61-.58c-2.17-.07-3.08-1.47-3.75-3.23a2.74,2.74,0,0,1,.16-2.72c.94-1.33,2-2.6,3.12-4.13,0-.43-.52-.53-1.18-.44a5.81,5.81,0,0,1-1.76.06,3.2,3.2,0,0,1-1.55-.74,4.75,4.75,0,0,1,.19-6.39c.72-.62,1.52-1.13,2.23-1.77.22-.2.44-.71.34-.92a2,2,0,0,0-1-.85,8.77,8.77,0,0,0-1.39-.23,3.75,3.75,0,0,1-2.71-4.65c.58-1.91,1.37-3.52,3.43-4.31a27,27,0,0,0,0-2.84,5,5,0,0,1,2.8-5.28c.82-.46,1.66-.91,2.51-1.3a67.67,67.67,0,0,1,16-4.7c12-2.24,24-4.37,36-6.51a16.3,16.3,0,0,1,3.88-.23,5.52,5.52,0,0,1,5.3,4.47c1.89,7.58,3.64,15.19,5.59,22.74,1.65,6.41,3.52,12.77,5.28,19.15s3.62,13,5.34,19.54c.75,2.86,1.25,5.79,1.87,8.68a40.89,40.89,0,0,0,.93,4.15c1.67,5.08,1.25,10.25.83,15.45-.23,2.93-2.16,4.42-4.69,5.07a38.48,38.48,0,0,1-4.89.86c-7.28.91-14.47,2.69-21.88,2.32a11.6,11.6,0,0,0-1.77,0c-6.37.65-12.73,1.3-19.08,2-3.3.35-6.58.84-9.88,1.16a23.67,23.67,0,0,1-4.61,0c-1.7-.17-2.1-.73-2.39-2.51-.14-.81-.3-1.61-.51-2.4C822.52,195,822.28,194.49,822,193.79Zm13.31.84c1.84-.46,3.66-1,5.5-1.36a70.19,70.19,0,0,1,7.66-1.44c5.77-.58,11.55-1.19,17.33-1.32A98.34,98.34,0,0,0,881,188.86c2.78-.49,5.51-1.29,8.24-2.05.95-.26,1-.65.54-2.36a31.08,31.08,0,0,1-11,2.53c-2.35.18-4.72.28-7.08.46s-4.73.27-7.06.63c-7,1.1-14,2.26-21,3.53a74.18,74.18,0,0,0-7.53,2c-.32.09-.51.64-.77,1l-.51-.1Zm-17.19-36.4c.83-.19,1.39-.38,2-.45,3.65-.5,6.17,2.17,5.55,5.85a3.7,3.7,0,0,1-2.35,3.27,14.84,14.84,0,0,0-2.22,1.11c-.52.29-1,.68-.87,1.39a1.33,1.33,0,0,0,1.14,1.16c1.37.31,2.73.69,4.1,1,1.77.42,2.43,1.75,2.75,3.33a3.42,3.42,0,0,1-1.42,3.73c-1.17.84-2.2,1.86-3.59,3.05,1.94.36,3.45.65,4.95.91a3,3,0,0,1,2.78,2.73,4.25,4.25,0,0,1-.72,3,8.76,8.76,0,0,1-4.14,3.21,2.12,2.12,0,0,0-1.06,1.24c-.09.46.31,1,.53,1.66.64-.22,1.09-.34,1.5-.52a79.84,79.84,0,0,1,18.62-5.74c3.84-.7,7.67-1.48,11.52-2.1a119.22,119.22,0,0,1,17.29-1.89,89.11,89.11,0,0,0,9.86-1.13,10,10,0,0,0,2.39-.66c1.54-.64,2-1.33,1.78-3-.34-2.58-.82-5.14-1.22-7.72A328.14,328.14,0,0,0,880.46,139q-2.65-10.12-5.08-20.32c-1.38-5.75-2.55-11.56-4.84-17a26.3,26.3,0,0,0-1.15-2.6,2.69,2.69,0,0,0-2.6-1.54,39.2,39.2,0,0,0-4.59.46c-9.91,1.74-19.83,3.46-29.71,5.33-5,.95-10,2.09-14.88,3.38a29,29,0,0,0-8.49,3.34,5.88,5.88,0,0,0,.6,3.86,17,17,0,0,1,2.18-.16,3.38,3.38,0,0,1,1.64.48,6.93,6.93,0,0,1,3,5.75,3.93,3.93,0,0,1-1.25,2.84,2.36,2.36,0,0,1-2.6.58c-.28-.07-.62.11-1.26.23.48.35.71.66.93.65,1-.06,2.09-.28,3.14-.3a2.49,2.49,0,0,1,2,1.22c1.8,2.44,1.2,7.28-2.13,8.46a20.68,20.68,0,0,0-2.08,1,6.56,6.56,0,0,0,1.56.17c2.45-.64,4.07.87,5.65,2.28a3.9,3.9,0,0,1,1,2.19,4.79,4.79,0,0,1-3.73,5.24c-.68.14-1.37.2-2.09.29a4,4,0,0,0-.13,1.11,6.61,6.61,0,0,0,.45,1.21c3,.3,4.51.78,5.78,1.8,2.49,2,1.7,4.87-.46,5.77-1.29.54-2.49,1.31-3.72,2Zm.39,22.5c2.48-.63,4.55-1.67,5.85-3.82a2.47,2.47,0,0,0-.84-3.39,2.53,2.53,0,0,0-2.94-.37c-.59.34-1.41.27-2,.59A17.27,17.27,0,0,0,815,176a2.53,2.53,0,0,0,.87,4.07A25.84,25.84,0,0,0,818.54,180.73Zm-5.16-43.88a6.39,6.39,0,0,0-5.12,4.37,2.57,2.57,0,0,0,3.34,2.84,45.15,45.15,0,0,0,5.13-2.41,1.94,1.94,0,0,0,.76-2.74C816.8,137.38,815.47,136.71,813.38,136.85Zm2,30.18a8.54,8.54,0,0,0,1-.21c1.23-.4,2.44-.81,3.66-1.24a4.44,4.44,0,0,0,2.59-4.11,2,2,0,0,0-1.06-1.27,3.36,3.36,0,0,0-2.05-.16,14.55,14.55,0,0,0-6.46,3.36,2,2,0,0,0-.63,2.21,2,2,0,0,0,1.87,1.34C814.67,167,815,167,815.37,167Zm12.27,18.49c-3.9-1.8-5.35-1.5-9.59,2-.18,1.34-.34,2.71.63,3.85,2.92.61,5.14-.88,7.32-2.21A3.67,3.67,0,0,0,827.64,185.52ZM814,155.34a14.94,14.94,0,0,0,5.7-2,1.86,1.86,0,0,0-.06-3.22,2.86,2.86,0,0,0-1.63-.54,15.75,15.75,0,0,0-6.83,2.6,1.42,1.42,0,0,0-.4,1.9,2.6,2.6,0,0,0,1.22,1.1A7.08,7.08,0,0,0,814,155.34Zm-7.44-22.07c2.64-.89,5.31-1.75,7.94-2.7a1.91,1.91,0,0,0,.9-2.41,1.83,1.83,0,0,0-2.2-1.32,50.45,50.45,0,0,0-6.24,2.38C805.57,129.87,805.53,131.12,806.55,133.27Zm-2.2-12.48c.62,1.27,1.4,2,2.37,1.59,2.2-1,4.68-1.41,6.57-2.9.08-2.65-.36-3.17-2.54-3C807.79,116.61,805.82,118.25,804.35,120.79Zm22.31,77.05c0-.11,0-.26-.06-.33a1.41,1.41,0,0,0-1.6,0c0,.07-.06.27,0,.28a6.52,6.52,0,0,0,1.19.43C826.3,198.26,826.5,198,826.66,197.84Zm22.54-3.58Z"/><path class="cls-5" d="M833.38,147.21c-.06,0-.53.07-1,.09-3.41.14-4.44-.63-5.15-4-.24-1.15-.36-2.33-.5-3.51a107.68,107.68,0,0,0-3.25-18.49,19.35,19.35,0,0,1-.61-5.59c0-1.77.65-2.19,2.34-2.55,9.37-2,18.85-3.37,28.34-4.61,1.86-.25,3.73-.62,5.62,0a4.19,4.19,0,0,1,3,3.08c.5,1.84.66,3.69,1,5.54.55,3.14,1.31,6.24,2,9.37s1.3,6.25,1.9,9.38c.5,2.6-.29,4.13-2.69,5a30.55,30.55,0,0,1-4.44,1.18q-8.86,1.8-17.74,3.5C839.39,146.22,836.59,146.66,833.38,147.21Zm27.49-30.85a27.86,27.86,0,0,0-3.11.62,93.68,93.68,0,0,1-14.86,3.46,34.9,34.9,0,0,1-3.53.37,58.48,58.48,0,0,0-11.88,2,12.1,12.1,0,0,0-1.43.61c.49,2.38,1,4.67,1.42,7s.84,4.66,1.2,7a30.81,30.81,0,0,0,1.48,7.09,12.68,12.68,0,0,0,2.38.14c2.12-.25,4.23-.55,6.32-1,3.26-.61,6.5-1.35,9.75-2,4.18-.81,8.38-1.58,12.57-2.37a6.61,6.61,0,0,0,4-1.73C863.36,130.77,862.7,123.68,860.87,116.36ZM826,120.58c4.27-.71,8.21-1.65,12.2-2a90.83,90.83,0,0,0,16.72-3.06c1.7-.46,3.35-1.09,5.14-1.69-.12-.82-.19-1.5-.33-2.17a.85.85,0,0,0-.42-.54,6.28,6.28,0,0,0-2-.65,23.26,23.26,0,0,0-3.53.23c-3.76.48-7.51,1-11.26,1.5-1.87.26-3.75.53-5.61.85-3.38.6-6.75,1.23-10.12,1.87a21.15,21.15,0,0,0-2.06.63c.29,1.45.52,2.72.79,4A5.42,5.42,0,0,0,826,120.58Z"/><path class="cls-5" d="M873.26,166.65c-2.14-1.15-2.91-3.31-4.5-4.66a27.68,27.68,0,0,0-5.46-4.06c.29,1.26.53,2.1.65,3a1.05,1.05,0,0,1-.39.87,1,1,0,0,1-.94-.1,10.64,10.64,0,0,1-2.43-5.41,2.37,2.37,0,0,1,.73-1.85,6.87,6.87,0,0,1,5.45-1.8c-.08,1.65-1.78,1.62-2.33,2.85,1,.69,1.9,1.37,2.83,2.06a24.08,24.08,0,0,1,6.25,6.2A2.27,2.27,0,0,1,873.26,166.65Z"/><path class="cls-5" d="M876,178.47a5.21,5.21,0,1,1-.72-10.39c2.53-.21,4.9,2.16,5.16,5.16A4.55,4.55,0,0,1,876,178.47Zm2.68-5c-.16-2.09-1.81-3.87-3.46-3.73a3.21,3.21,0,0,0-2.83,3.74,3.31,3.31,0,0,0,3.64,3A2.64,2.64,0,0,0,878.7,173.5Z"/><path class="cls-5" d="M848,175.15a21,21,0,0,0-6.54,1.39,1.15,1.15,0,0,1-.68.1c-.29-.09-.69-.25-.77-.47a1,1,0,0,1,.19-.94,3.7,3.7,0,0,1,1.44-.95,31.35,31.35,0,0,1,13.92-.83c.25,0,.68.57.62.7a2.34,2.34,0,0,1-.83,1,2,2,0,0,1-1,.1C852.16,175.22,850.06,175.18,848,175.15Z"/><path class="cls-5" d="M835.31,160.85a11.14,11.14,0,0,1,2.36-1.14c4.07-.71,8.11-1.65,12.3-1.25a24.23,24.23,0,0,0,2.82-.09c.93,0,1.71.44,1.61,1-.17.88-.92,1-1.63,1a14.83,14.83,0,0,1-3.53-.09,14,14,0,0,0-7,.42C840.24,161.27,838.18,161.87,835.31,160.85Z"/><path class="cls-5" d="M853.62,152.22c.1.78-.33,1.18-.77,1.09-2.09-.44-4,.24-5.85.93a10.86,10.86,0,0,1-2.77.59q-4.41.34-8.83.55a.72.72,0,0,1-.28-1.39,7.57,7.57,0,0,1,2-.53c1.65-.17,3.31-.2,5-.37,2-.21,4-.39,6-.78A17.13,17.13,0,0,1,853.62,152.22Z"/><path class="cls-5" d="M848.13,166.63c-2.19.45-4.38,1-6.6,1.3-1.15.17-2.47,1.08-3.5-.34.54-1.35,1.87-1.24,3-1.46a31.93,31.93,0,0,1,8.43-1.1,12.86,12.86,0,0,0,2.79-.4c.35,0,.73-.26,1-.17a2.15,2.15,0,0,1,1,.75c.08.1-.25.71-.49.78a30.4,30.4,0,0,1-3.43.77,16.65,16.65,0,0,1-2.13.08A1.55,1.55,0,0,0,848.13,166.63Z"/><path class="cls-5" d="M844.53,134.15c.69-.48,1-.89,1.43-1q5.71-1,11.46-1.93a4.31,4.31,0,0,1,1.54.31.78.78,0,0,1-.55,1.18,58.69,58.69,0,0,1-12.13,2.1C845.81,134.87,845.32,134.48,844.53,134.15Z"/><path class="cls-5" d="M857.88,122.56a4,4,0,0,1-.91.28c-4,.44-8,.85-12,1.27a4.48,4.48,0,0,1-1.4.1,3.07,3.07,0,0,1-1.48-.72c-.29-.28.5-1,1.47-1.09,2.58-.3,5.16-.6,7.75-.81,1.89-.15,3.78-.19,5.67-.2C857.57,121.38,858.17,121.63,857.88,122.56Z"/><path class="cls-5" d="M844,129.15a1.19,1.19,0,0,1,1-1.5,35.91,35.91,0,0,1,13.27-1.49c.25,0,.46.43.72.69C856.41,127.86,846.87,129.33,844,129.15Z"/><path class="cls-5" d="M844.79,116.76c-.59-.58-1.18-.89-1.3-1.33-.16-.61.3-1.09,1-1.21s1.37.36,1.26.89A6.69,6.69,0,0,1,844.79,116.76Z"/><path class="cls-5" d="M854.89,114.25c-.58-.5-1.06-.72-1.17-1.06a1,1,0,0,1,.75-1.32c.32,0,1,.38,1,.6A6.23,6.23,0,0,1,854.89,114.25Z"/><path class="cls-5" d="M850.84,114.23c-.2.13-.68.61-.83.52a2.42,2.42,0,0,1-1-1.14c-.08-.22.36-.83.68-1C850.2,112.44,850.8,113.18,850.84,114.23Z"/><path class="cls-6" d="M772.47,286.79H931c.86,1.18.54,2.37.39,3.51q-1.35,10.76-2.77,21.49a29.38,29.38,0,0,1-.59,3.5c-1.24,4.95-1.78,10-2.58,15-1,6.43-2.33,12.81-3.48,19.22-.67,3.72-1.32,7.46-1.88,11.2-.59,4-.83,4.25-5,4.25q-33.76,0-67.52,0-29.15,0-58.28,0c-5.13,0-5,0-5.79-4.94s-1.72-10-2.75-15c-1.5-7.32-2.59-14.69-3.57-22.09a15.21,15.21,0,0,0-.25-1.76c-2.28-9.22-3.07-18.67-4.19-28.07C772.53,291.16,771.79,289.21,772.47,286.79Zm7.34,5.1a12.2,12.2,0,0,0-.21,6.42c.58,4,1.33,7.94,1.77,11.94,1.19,10.83,2.37,21.65,4.37,32.38a144.25,144.25,0,0,0,3.2,14.8c1.14.76,2.35.42,3.51.42,17.89-.07,35.78-.18,53.67-.23q32.16-.09,64.33-.13c3.65,0,4.77-.84,5.72-4.44.51-1.94.83-3.94,1.17-5.92,1.17-6.76,2.31-13.52,3.47-20.28.73-4.2,1.6-8.38,2.18-12.6.68-5,1.12-10.12,1.68-15.17.46-4.22.05-5.11-3.72-6.86a7.83,7.83,0,0,0-3.11-.43c-8.41,0-16.82,0-25.23,0H784.21C782.8,291.82,781.4,291.86,779.81,291.89Z"/><path class="cls-5" d="M765,448.81c-.69-.8-1.33-1.5-1.91-2.24a15,15,0,0,1-2.76-11.7c.51-2.91.7-5.88,1.21-8.8A400.57,400.57,0,0,1,771,383.44a43,43,0,0,1,5-11.88c-1.87-1.48-2.23-3.56-2.54-5.7-.82-5.86-1.69-11.72-2.57-17.58-1.3-8.79-2.69-17.57-3.93-26.37-.9-6.45-1.57-12.94-2.44-19.39-.8-6-1.83-11.95-2.59-17.94a50.3,50.3,0,0,1-.3-8.14c.1-2.65,1-3.52,3.54-4.17a9.21,9.21,0,0,1,2.45-.27c4.5.12,9,.3,13.49.46l1.42,0c16.83-.07,33.66-.18,50.49-.19q40,0,80,0c2.49,0,5,.16,7.47.14,1.64,0,3.29-.28,4.94-.32,3.44-.08,6.88-.1,10.31-.14a9.51,9.51,0,0,1,1.07,0c4.39.52,5.23,1.67,5.38,5.52a45,45,0,0,1-.81,9.89c-1.87,10-2.73,20.2-4.11,30.29-1.23,9-2.61,18.06-3.93,27.09l-2.61,17.93c-.16,1-.37,2.1-.5,3.16-.25,2.15-.68,4.21-2.5,5.67,3.36,5.47,4.94,11.44,6.48,17.38,3.39,13.07,6.24,26.28,8.4,39.62a54.28,54.28,0,0,1,1.1,8.08,15.11,15.11,0,0,1-2.65,9.4c-.7,1-1.51,1.81-2.21,2.65C935.19,449.15,772,449.28,765,448.81ZM777.35,373c-.71,1.93-1.42,3.68-2,5.48-1.12,3.62-2.24,7.24-3.21,10.9-3.09,11.69-5.48,23.53-7.78,35.38-.79,4.07-1.4,8.17-2,12.27-.34,2.35.07,2.8,2.36,2.8,4.15,0,8.29-.07,12.44-.07l158.19.07c1.3,0,2.61,0,3.91,0,1.83-.05,2.26-.53,2.05-2.44-.26-2.24-.51-4.48-1-6.69-1.83-9.29-3.65-18.59-5.62-27.85A225,225,0,0,0,928,377.44a36.13,36.13,0,0,0-1.76-4.47l-8.76.61c-1.28,3.56-3.84,4.6-7.5,4.53-9.12-.18-18.25.05-27.37.05q-45,0-89.94-.09c-2.83,0-4.76-1-6-3.5a7.22,7.22,0,0,0-.67-1Zm147.87-2.25a5.26,5.26,0,0,0,2.14-3.91c.91-9.93,3-19.66,4.49-29.5,1.35-9.14,2.85-18.26,4-27.43,1.1-8.94,2-17.9,4-26.69a27.19,27.19,0,0,0,.34-3.07c-1.27-.73-2.48-.46-3.63-.46q-76.8,0-153.6,0c-5.69,0-11.38,0-17.07,0a18.18,18.18,0,0,0-2.47.36c.24,1.51.41,2.8.64,4.07.58,3.14,1.32,6.27,1.76,9.43,1,7.27,1.81,14.57,2.83,21.84,1.3,9.27,2.65,18.53,4.15,27.76,1.3,7.95,2.75,15.88,3.58,23.89a4.64,4.64,0,0,0,.28,1.39c.58,1.38,1.4,2.43,3.14,2.4s3.79.14,5.68.13c21.92,0,43.85-.07,65.78-.07q33.6,0,67.19.07C920.79,370.93,923.15,370.79,925.22,370.72Zm15.71,71.56-177.21-.1c-.11,0-.25,0-.32.1a.89.89,0,0,0-.14.33c1.38,3.73,1.58,3.88,5.24,3.87H937a2.41,2.41,0,0,0,2.13-1.07C939.64,444.55,940.13,443.63,940.93,442.28ZM763.5,277.58H937.85c.59,0,1.18,0,1.77-.06a.57.57,0,0,0,.33-.13,2.25,2.25,0,0,0,.34-.37c0-1-.33-2-1.65-2.17a42.13,42.13,0,0,0-4.21-.31c-3.07-.08-6.15-.18-9.23-.14-5.44.07-10.89.34-16.33.34q-68.94,0-137.87-.16c-.59,0-1.18-.07-1.77,0-1.4.07-2.82.12-4.2.31S763.34,276,763.5,277.58Zm25.35,96.21a2.91,2.91,0,0,0,2.55,2.06,19.1,19.1,0,0,0,2.83.15l111.66,0c1.66,0,3.32.13,5,0a10,10,0,0,0,3-.83c.39-.17.58-.82.92-1.36a5.89,5.89,0,0,0-1.26-.35H790.15A6.28,6.28,0,0,0,788.85,373.79Z"/><path class="cls-5" d="M851.84,419.05q-30,0-60.1,0c-2,0-4-.21-6-.35a7.63,7.63,0,0,1-4.71-2.26,4.92,4.92,0,0,1-1.77-4.07,52.17,52.17,0,0,1,.76-8.46c1-4.63,1.81-9.3,2.89-13.91a56.41,56.41,0,0,1,2.2-6.37,2.71,2.71,0,0,1,2.74-1.87c1.42,0,2.84-.07,4.27-.07H911.59c1.42,0,2.84.06,4.26.07a2.7,2.7,0,0,1,2.74,1.86,57.26,57.26,0,0,1,2.2,6.38c1.06,4.49,1.86,9,2.85,13.55a42.53,42.53,0,0,1,.78,8.11,6.54,6.54,0,0,1-5.41,6.84,26,26,0,0,1-4.58.5c-3.43.1-6.87.12-10.31.12H851.84Zm-35-2.44c1.31,0,2.48.07,3.65.07h62.58a30.84,30.84,0,0,0,3.19-.17c.3,0,.58-.33.83-.49.16-1.15.28-2.2-.7-3-4.4-.3-66.94-.18-69.31.14C816.31,414.08,816.34,415.09,816.85,416.61Zm40-12c0-1.32,0-2.25,0-3.19a4.5,4.5,0,0,0-.37-1.12,42.87,42.87,0,0,0-9.34.05c-.5,2.39-.48,2.39.3,4.42,2.25,0,4.6.06,6.95,0C855.08,404.78,855.77,404.67,856.87,404.57Zm-31.15-.14a17.19,17.19,0,0,0,8.73-.26,6.42,6.42,0,0,0,.11-3.89,34.66,34.66,0,0,0-8.08,0C825.87,401.67,825.31,403,825.72,404.43Zm51.48-4.16a34.47,34.47,0,0,0-8.12,0,6.27,6.27,0,0,0,.4,4.32,28.84,28.84,0,0,0,5.32.18c1,0,2.08-.1,3.12-.16A6.33,6.33,0,0,0,877.2,400.27ZM847,391.61c1.67.71,3.34.38,4.95.36s3.26.45,4.78-.44a5,5,0,0,0-.17-3.59,58.15,58.15,0,0,0-9.6.13,16.48,16.48,0,0,0-.18,1.81A15.16,15.16,0,0,0,847,391.61Zm56.55,8.49c-2.28.16-4.69-.42-7.24.4.18,1.41.35,2.66.5,3.85a15.85,15.85,0,0,0,7.5,0A5.48,5.48,0,0,0,903.53,400.1ZM800,400.1a6.15,6.15,0,0,0-.42,4.55c2.48.11,4.88.5,7.38-.28.16-1.38.3-2.63.44-3.88a5.62,5.62,0,0,0-1.21-.38C804.16,400.08,802.16,400.1,800,400.1Zm66.35.14c-2.54-.12-4.85-.54-7.13.27a7.57,7.57,0,0,0,.19,4.08,21.62,21.62,0,0,0,7.31-.13A7.49,7.49,0,0,0,866.31,400.24Zm-21.94,4.31a6.85,6.85,0,0,0,0-4.13c-3.68-.53-4.75-.49-7.17.22a6.74,6.74,0,0,0-.21,3.85A21.53,21.53,0,0,0,844.37,404.55Zm-54.14.14a31.16,31.16,0,0,0,6.9-.14,6.34,6.34,0,0,0,.4-4.24,14.83,14.83,0,0,0-1.71-.22c-1.63,0-3.26,0-4.9,0A6.42,6.42,0,0,0,790.23,404.69Zm115.86-4.32a5.74,5.74,0,0,0,.71,4.35c2.19,0,4.47.39,6.79-.3a6.15,6.15,0,0,0-.94-4.33c-1.67,0-3.42,0-5.16,0A7.59,7.59,0,0,0,906.09,400.37ZM902.82,388a32,32,0,0,0-8.12,0,5.45,5.45,0,0,0,.69,3.9,37,37,0,0,0,7.29.06,4.54,4.54,0,0,0,.35-1.19C903,389.94,902.91,389.13,902.82,388Zm-102,3.76a7.72,7.72,0,0,0,1.43.27c2,0,4,0,6,0a12.71,12.71,0,0,0,.65-1.81,20.63,20.63,0,0,0,.14-2.36c-2.8-.06-5.44-.43-8.26.24Zm67,0a24.89,24.89,0,0,0,8.27-.14c-.13-1.23-.24-2.36-.36-3.61a23,23,0,0,0-8.27.18C867.59,389.43,867.69,390.46,867.83,391.8Zm-39.8,0a27.55,27.55,0,0,0,7.48,0,5.1,5.1,0,0,0,.45-3.89c-2.62,0-5.25-.48-8,.19C827.78,389.41,827.33,390.52,828,391.83ZM847,410.68c3.29,0,6.21,0,9.14,0,.19,0,.38-.25.75-.51,0-.89-.09-1.89-.15-3.06a47.32,47.32,0,0,0-9.74,0Zm-.1-12.79a42.13,42.13,0,0,0,9.8-.07c.27-1.32.54-2.44-.34-3.59-2.83,0-5.66,0-8.49,0-.31,0-.62.27-1,.43ZM894,400.27a16.92,16.92,0,0,0-6.75.16c.12,1.46-.06,2.86.86,4.17a18.92,18.92,0,0,0,6.28-.06A6.37,6.37,0,0,0,894,400.27Zm-84.34,0a6.42,6.42,0,0,0-.19,4.51c2.21-.24,4.4.57,6.52-.54.28-1.33.7-2.56.14-4.11A29,29,0,0,0,809.64,400.28Zm60.5,10.38a53.83,53.83,0,0,0,7.72,0c.31,0,.6-.29,1-.52-.15-1-.3-2-.45-2.94-4.23-.67-7.07-.56-9.15.35a10.41,10.41,0,0,0,.2,1.31C869.65,409.45,869.88,410,870.14,410.66ZM825.58,407a5.75,5.75,0,0,0-.43,3.58,33.43,33.43,0,0,0,8.65-.06c.23-1.18.41-2.16.62-3.32C831.28,406.58,828.4,406.91,825.58,407Zm-36.85,9.75c2.83.05,5.26.54,7.84-.39-.07-1.12-.14-2.13-.21-3.27a23.22,23.22,0,0,0-7.63.1Zm118.53-.37a15.66,15.66,0,0,0,7.53.1,4.12,4.12,0,0,0,0-3.25,15.76,15.76,0,0,0-7.55.15Zm-48.13-5.81a44.48,44.48,0,0,0,8.23.07c0-1.37.18-2.5-.66-3.66-2.18,0-4.41,0-6.64,0-.31,0-.6.3-.93.47Zm-22.39-3.49a5.79,5.79,0,0,0-.2,3.58c2.66.11,5.29.4,8.13-.29-.07-1.14-.13-2.14-.2-3.26A31.25,31.25,0,0,0,836.74,407.09ZM905.17,413a38.76,38.76,0,0,0-6.57,0c-.19,0-.36.26-.74.55.06.85.12,1.85.19,2.89a20.9,20.9,0,0,0,6.49.12c.18,0,.34-.27.63-.51Zm-106.6,3.46a16.35,16.35,0,0,0,7.1-.09v-3.23a19,19,0,0,0-7.1.08Zm78-18.65a5.16,5.16,0,0,0-.59-3.5,28.69,28.69,0,0,0-7.29,0c-.19,0-.34.29-.67.59.14.88.29,1.89.45,3A26.44,26.44,0,0,0,876.6,397.79Zm-49.73,0a21.54,21.54,0,0,0,8.47-.12c.07-1,.15-1.77.17-2.57,0-.19-.18-.39-.39-.82a26.42,26.42,0,0,0-7.91.18C827.09,395.61,827,396.6,826.87,397.78ZM904.4,388c.21,1.53.36,2.66.56,4,2.28,0,4.35.36,6.46-.22a4.63,4.63,0,0,0-.73-4c-1.18,0-2.46,0-3.75,0C906.26,387.79,905.57,387.87,904.4,388Zm-112.2,4c2.36.09,4.42.36,6.67-.23.1-1.27.18-2.39.27-3.48a12.11,12.11,0,0,0-6.54,0,6.42,6.42,0,0,0-.38,1.24C792.15,390.14,792.2,390.85,792.2,391.94Zm91.74-4.21c-2.31.26-4.39-.43-6.46.51.07.92.09,1.73.19,2.54a4.85,4.85,0,0,0,.5,1.06,15.38,15.38,0,0,0,6.25-.16,17.82,17.82,0,0,0,0-1.8C884.35,389.32,884.17,388.76,883.94,387.73Zm-84,10.14a30.55,30.55,0,0,0,7.66-.06,5,5,0,0,0,.43-3.55c-1.13-.07-2.17-.16-3.21-.17-1.4,0-2.8,0-4.13.05a5.41,5.41,0,0,0-.55,1.17C800.07,396,800.05,396.71,800,397.87Zm95.94-.18c3.83.61,5.63.54,7.87-.36-.17-1-.35-2-.53-3-2.76-.24-5.3-.56-8,.28C895.51,395.73,895.72,396.75,895.91,397.69ZM826.22,388c-1.26-.08-2.29-.19-3.31-.19s-2,.09-3,.15a5.14,5.14,0,0,0-.36,4.07c2.14-.08,4.19.38,6.4-.35C826,390.42,826.11,389.31,826.22,388Zm66.24-.09c-2.4,0-4.45-.53-6.59.41.18,1.23.35,2.35.53,3.53a16.41,16.41,0,0,0,6.62-.15C892.84,390.45,892.68,389.33,892.46,387.88ZM811,391.94a22.68,22.68,0,0,0,6.2-.13,7.2,7.2,0,0,0,.42-3.88H811.5A5.34,5.34,0,0,0,811,391.94Zm74.18,8.16c-2,0-3.78-.45-5.65.4.07,1.52,0,2.92,1.11,4.18,1.67,0,3.38.5,5.16-.45C885.56,402.85,885.38,401.6,885.15,400.1Zm-61.86,4.56a19.41,19.41,0,0,0,.71-2.11,16.11,16.11,0,0,0,.14-2.16,9.9,9.9,0,0,0-5.63,0c-.1,1.45-.82,2.76-.22,4.28Zm91,6c.78-1.2.2-2.35-.12-3.68-2.56,0-5-.59-7.53.43.22,1.13.41,2.14.62,3.25Zm-118.09,0a4.51,4.51,0,0,0,.57-3.57c-2.57-.2-5-.52-7.51.24-.08,1.11-.16,2.13-.25,3.37A30.79,30.79,0,0,0,796.2,410.66Zm2.61-3.55c-.09,1.27-.17,2.27-.24,3.24a13.73,13.73,0,0,0,7.6,0c.07-.94.14-1.94.23-3.12A24.67,24.67,0,0,0,798.81,407.11Zm106.1.05a27.41,27.41,0,0,0-7.5-.08c-.18,1.37-.29,2.49.5,3.58a28.33,28.33,0,0,0,7.19,0C905,409.43,905,408.43,904.91,407.16Zm-66.59-15.25c2.33,0,4.29.49,6.25-.39a15.52,15.52,0,0,0,.15-1.83,14.16,14.16,0,0,0-.26-1.74c-2.17,0-4.13-.53-6.14.4Zm26.7-4.06c-1.61,0-3,0-4.42,0a9.56,9.56,0,0,0-1.4.24,5.1,5.1,0,0,0,.14,3.66,22.48,22.48,0,0,0,2.36.22c1.16,0,2.31-.07,3.4-.12A4.89,4.89,0,0,0,865,387.85Zm50.39,12.52a6.33,6.33,0,0,0,1,4.32c1.54.07,3,.34,4.36-.26a5.76,5.76,0,0,0-.73-4.17A9.92,9.92,0,0,0,915.41,400.37Zm-131.83-.16a6.11,6.11,0,0,0-.51,4.52c1.54,0,3,.35,4.6-.34.23-1.34,1-2.61.47-4.18Zm128.45-6c-2.3,0-4.47-.43-6.69.22-.15,1.31-.33,2.45.79,3.61,2-.21,4.23.5,6.5-.47Zm-114.28,3.71c.88-1.16.77-2.27.58-3.69-2.32-.09-4.49-.42-6.73.21a16.26,16.26,0,0,0-.34,1.78,14.11,14.11,0,0,0,0,1.7Zm68.08-3.62c-2.29,0-4.15,0-6,0-.18,0-.37.23-.63.4v3.2a24.27,24.27,0,0,0,6.86-.07C866,396.63,865.91,395.63,865.83,394.29Zm-28,.16v3.46a17.3,17.3,0,0,0,6.7-.19v-3.36A21.58,21.58,0,0,0,837.8,394.45Zm51.47,18.6c-.32,1.37-.44,2.39.33,3.4a15.31,15.31,0,0,0,6.37-.16c-.13-1.14-.25-2.12-.37-3.24Zm-74.6.07a21.5,21.5,0,0,0-6-.09c-.2,0-.38.25-.6.4a3.15,3.15,0,0,0,.09,3.06,16.07,16.07,0,0,0,6.31-.2C814.56,415.25,814.61,414.35,814.67,413.12ZM816.49,398a4.14,4.14,0,0,0,.21-3.87c-1.24,0-2.4,0-3.57,0-.81,0-1.62.12-2.37.18a4.32,4.32,0,0,0-.65,3.58A17.56,17.56,0,0,0,816.49,398Zm70.27-3.72c-.2,1.53-.36,2.67.51,3.74a17,17,0,0,0,6.31-.14,4.25,4.25,0,0,0-.7-3.6Zm-78.37,16.14a11.44,11.44,0,0,0,6.49,0c.15-1,.31-2,.48-3.1a15.41,15.41,0,0,0-6.79,0C808.5,408.41,808.45,409.4,808.39,410.37Zm80.52.43c1.88,0,3.4,0,4.91,0a7.68,7.68,0,0,0,1.38-.28,4.14,4.14,0,0,0-.64-3.6c-2,.16-4-.42-6.26.41C888.49,408.4,888.67,409.42,888.91,410.8Zm-63.68-16.56c-2-.06-4-.49-6,.21-.31,1.22-.76,2.31-.12,3.5a11.91,11.91,0,0,0,5.57-.1A4.48,4.48,0,0,0,825.23,394.24Zm53.1.05a4.69,4.69,0,0,0,.95,3.78c1.85-.06,3.78.67,5.74-.55-.16-1.06-.32-2.08-.49-3.14A18.14,18.14,0,0,0,878.33,394.29ZM817.84,407a4.19,4.19,0,0,0-.7,3.57,13.93,13.93,0,0,0,5.58-.09A3.54,3.54,0,0,0,823,407Zm62.39.24c.22,1.27.4,2.27.57,3.26a13,13,0,0,0,5.75,0,3.82,3.82,0,0,0-.85-3.56C884.13,407,882.42,406.64,880.23,407.28ZM785.07,392c1.71,0,3.18.36,4.8-.35.16-1.12.32-2.26.5-3.51a6.46,6.46,0,0,0-4.34.05C785.73,389.36,785.45,390.49,785.07,392Zm128.83-.06c1.79.11,3.17.41,4.63-.25-.31-1.35-.39-2.64-1.25-3.73a6.71,6.71,0,0,0-4,.29C913.49,389.41,913.67,390.55,913.9,391.92Zm-124.48,2.35a24.88,24.88,0,0,0-2.54-.18c-.8,0-1.59.18-2.45.3-.21,1.15-.39,2.17-.61,3.42a9,9,0,0,0,5.1-.17C789.06,396.66,789.21,395.66,789.42,394.27Zm125.3,3.48c1.92.36,3.5.61,5.17-.18-.24-1.09-.47-2.1-.7-3.15a7.89,7.89,0,0,0-3.9-.24,3.48,3.48,0,0,0-1,.51C914.45,395.64,914.57,396.55,914.72,397.75Zm6.77,9.34c-1.84-.23-3.33-.44-5,.24.14,1.1.26,2.12.38,3.16a8.78,8.78,0,0,0,5.15,0C921.87,409.4,921.7,408.38,921.49,407.09Zm-139.12.07a6.3,6.3,0,0,0-.6,3.48,9,9,0,0,0,5.07-.22c.09-1.08.17-2.08.27-3.33A11.6,11.6,0,0,0,782.37,407.16Zm135,5.86c-.37,1.1-1,2.05-.2,3.2a3.36,3.36,0,0,0,3.26-.7c.81-.58,1.9-1,1.88-2.5-.75-.06-1.43-.15-2.1-.15C919.25,412.88,918.33,413,917.35,413Zm-136.08.1c.28,1.49,1.39,2,2.35,2.61a2.84,2.84,0,0,0,3.12.32,3.44,3.44,0,0,0-.63-3.13A18,18,0,0,0,781.27,413.12Zm70.56-27.29h0c1.42,0,2.83,0,4.25,0a1,1,0,0,0,.64-.65c0-.25-.28-.78-.45-.78q-4.41-.08-8.84,0c-.17,0-.49.53-.46.78s.38.66.61.66C849,385.86,850.41,385.83,851.83,385.83Zm41.51-1.27c.84.77,1.14,1.29,1.46,1.3,2.33.07,4.66.06,7,0,.17,0,.48-.52.47-.78s-.31-.75-.52-.76A29.52,29.52,0,0,0,893.34,384.56Zm-56.4.13a23.15,23.15,0,0,0-7.56-.36.51.51,0,0,0-.3.15c-.14.17-.36.39-.33.55s.27.78.42.78q3.47,0,6.93-.11C836.32,385.69,836.51,385.23,836.94,384.69Zm-26.81-.34a39.88,39.88,0,0,0-8.18,0c-.21,0-.52.48-.53.74s.27.77.46.79a20.87,20.87,0,0,0,7.31-.12C809.43,385.69,809.56,385.23,810.13,384.35Zm56.52.12c.5.69.65,1.16.88,1.19a18.24,18.24,0,0,0,7.77-.12c-.41-.54-.63-1.11-.93-1.16A25.42,25.42,0,0,0,866.65,384.47Zm-48.36-.18a25.45,25.45,0,0,0-5.85,0,.47.47,0,0,0-.32.13c-.15.17-.38.39-.36.56s.24.82.39.83c1.88.06,3.76.12,5.64,0C818.43,385.83,818.64,385.19,818.29,384.29Zm67.1,0c-.35.9-.13,1.52.51,1.56,1.76.13,3.53.11,5.3.08a.7.7,0,0,0,.72-.94,1.07,1.07,0,0,0-.69-.67A22.85,22.85,0,0,0,885.39,384.3Zm-9.54.1c1,.89,1.42,1.5,1.85,1.53,1.62.11,3.27.07,4.9,0,.5,0,.91-.35.72-.92a1.11,1.11,0,0,0-.65-.7A26.54,26.54,0,0,0,875.85,384.4Zm-83.19,1a9.46,9.46,0,0,0,6.52.25c.22-.08.29-.58.43-.89C796.76,383.78,794.66,383.89,792.66,385.41Zm35-1a34.25,34.25,0,0,0-6.26-.18.91.91,0,0,0-.64.23,2,2,0,0,0-.38.92c0,.15.25.49.4.49,1.86,0,3.72.05,5.58,0C826.62,385.81,826.9,385.22,827.62,384.4Zm79.92-.33c-1,.08-1.86.09-2.67.22a1,1,0,0,0-.67.62c0,.27.2.8.41.85a11.41,11.41,0,0,0,5.57,0,.65.65,0,0,0,.37-.51c-.06-.31-.22-.81-.43-.85C909.21,384.22,908.27,384.16,907.54,384.07Zm-65.86.07a20.38,20.38,0,0,0-2.29.23,1,1,0,0,0-.49.78.94.94,0,0,0,.62.66c1.52,0,3,0,4.56-.05.19,0,.5-.52.48-.77a1,1,0,0,0-.62-.66A18.21,18.21,0,0,0,841.68,384.14Zm20,1.85c.82-.05,1.65-.05,2.46-.18a.94.94,0,0,0,.61-.66c0-.26-.29-.77-.48-.78-1.52-.07-3-.09-4.56,0a.74.74,0,0,0-.13,1.43A16.06,16.06,0,0,0,861.71,386Zm51-1.37c.07.33,0,.65.17.76a3,3,0,0,0,3.47.25c.12-.06.18-.39.16-.58a.82.82,0,0,0-.3-.57A3.34,3.34,0,0,0,912.7,384.62ZM788.86,386c1.35,0,2.37-.6,2.09-1.21-.44-.94-1.35-.68-2.11-.69-1.08,0-1.9.61-1.69,1.21C787.47,386.18,788.26,385.93,788.86,386Z"/><path class="cls-5" d="M851.66,435.67H822.57a6.87,6.87,0,0,1-2.45-.25c-1.53-.6-2.63-1.48-2.07-3.51.47-1.7.65-3.48,1-5.21a19,19,0,0,1,.92-3,2.35,2.35,0,0,1,2.21-1.51c.71,0,1.42-.05,2.13-.05,8.28.1,16.56.26,24.83.28,5.09,0,10.17-.19,15.25-.24s9.94,0,14.91,0l1.77,0A2.74,2.74,0,0,1,884,424.3c.24.79.48,1.58.64,2.39.39,1.85.74,3.71,1.08,5.57a2.23,2.23,0,0,1-1.17,2.68,5.58,5.58,0,0,1-3.4.73H851.66Zm30-11.11a5.55,5.55,0,0,0-1.06-.3c-18.69-.26-37.37-.2-56.06-.06-.59,0-1.18,0-1.77.08a1,1,0,0,0-.32.13c-.1,0-.2.12-.3.18a16.7,16.7,0,0,0-.95,8.74c1,.05,2,.14,3.08.14l45.78,0c3.42,0,6.86.05,10.28,0a19.64,19.64,0,0,0,2.38-.31,19.08,19.08,0,0,0-.34-5.45A25.78,25.78,0,0,0,881.68,424.56Z"/><path class="cls-5" d="M851.84,284.38h75c1.07,0,2.13-.07,3.2-.09,2,0,2.88.55,3.34,2.44a9.26,9.26,0,0,1,.16,3.15c-1.63,13.17-3.26,26.33-5.33,39.44-1.43,9-3.35,17.93-4.85,26.92-.33,2-.54,4-.94,6a5.7,5.7,0,0,1-4.87,4.94,11.88,11.88,0,0,1-3.17.33c-4.49-.51-9-.16-13.49-.16q-51-.06-102,0c-3.19,0-6.39.15-9.58.16a17.87,17.87,0,0,1-3.17-.34,5.66,5.66,0,0,1-4.88-4.93c-1-5.13-1.7-10.29-2.71-15.4-2.65-13.49-4.64-27.08-6.41-40.71-.68-5.28-1.34-10.57-1.94-15.87a10.81,10.81,0,0,1,.11-3.5c.43-1.89,1.36-2.47,3.33-2.45,1.07,0,2.13.09,3.2.09Zm-79.37,2.41c-.68,2.42.06,4.37.29,6.34,1.12,9.4,1.91,18.85,4.19,28.07a15.21,15.21,0,0,1,.25,1.76c1,7.4,2.07,14.77,3.57,22.09,1,5,2,10,2.75,15s.66,4.94,5.79,4.94q29.13,0,58.28,0,33.75,0,67.52,0c4.14,0,4.38-.29,5-4.25.56-3.74,1.21-7.48,1.88-11.2,1.15-6.41,2.46-12.79,3.48-19.22.8-5,1.34-10.09,2.58-15a29.38,29.38,0,0,0,.59-3.5Q930,301,931.38,290.3c.15-1.14.47-2.33-.39-3.51Z"/><path class="cls-5" d="M779.81,291.89c1.59,0,3-.07,4.4-.07h108.4c8.41,0,16.82,0,25.23,0a7.83,7.83,0,0,1,3.11.43c3.77,1.75,4.18,2.64,3.72,6.86-.56,5.05-1,10.13-1.68,15.17-.58,4.22-1.45,8.4-2.18,12.6-1.16,6.76-2.3,13.52-3.47,20.28-.34,2-.66,4-1.17,5.92-.95,3.6-2.07,4.44-5.72,4.44q-32.18.08-64.33.13c-17.89.05-35.78.16-53.67.23-1.16,0-2.37.34-3.51-.42a144.25,144.25,0,0,1-3.2-14.8c-2-10.73-3.18-21.55-4.37-32.38-.44-4-1.19-8-1.77-11.94A12.2,12.2,0,0,1,779.81,291.89ZM922,300.84a6.72,6.72,0,0,0-1.41-.32q-68.62,0-137.25.11a4.8,4.8,0,0,0-1.19.4c.23,1.75.48,3.49.69,5.23.82,6.59,1.51,13.19,2.44,19.75,1.24,8.68,2.65,17.33,4,26a5.94,5.94,0,0,0,1.06,3.3c3.73.45,118,.72,121.6.29.1-.31.1-.72.31-.95,2.27-2.54,2.67-5.7,3-8.89.28-2.35.75-4.68,1.17-7,.56-3.14,1.15-6.28,1.73-9.42.35-1.87.74-3.72,1-5.59,1-6.06,2.74-12,2.39-18.27a18.19,18.19,0,0,1,.37-2.81C922,302.08,922,301.5,922,300.84Zm.55-2.89c.4-2-.23-2.85-1.82-3.58a11.73,11.73,0,0,0-5.2-.73l-103.43,0c-9.12,0-18.25,0-27.37,0-1.14,0-2.37-.33-3.64.65a16,16,0,0,0,.79,4.54h2.8c16,0,32-.13,48-.11q41.94.06,83.88.26A20.75,20.75,0,0,0,922.51,298Z"/><path class="cls-5" d="M823.84,335.28c-3.16.06-6.58.17-10,.16-3.67,0-7.33-.15-11-.22-2.13,0-4.26,0-6.39-.05a24.26,24.26,0,0,1-2.83-.06c-1.93-.24-2.65-.93-3-2.93-.44-2.8-.81-5.62-1.12-8.43-.45-4-.84-8-1.21-12a19.23,19.23,0,0,1,0-2.84,1.89,1.89,0,0,1,1.7-2,12.06,12.06,0,0,1,2.46-.29c9.47-.15,18.93-.08,28.37.62a14.87,14.87,0,0,1,2.11.29,2.61,2.61,0,0,1,2.38,2.67c.31,6.61.57,13.22.82,19.84A5.71,5.71,0,0,1,823.84,335.28ZM808.63,321.2l11.17,8c1,.68,1.93,1.36,3,2a3.59,3.59,0,0,0,1.23.23c.51-6-.09-17-1.08-20.49C820.26,312.11,811.19,318.59,808.63,321.2Zm11.7-12.11c-2.34-.09-4.68-.21-7-.26q-9.4-.18-18.81-.3c-.59,0-1.48-.34-1.7.81l14,10.46C811.27,316.16,816.15,313.28,820.33,309.09Zm1.81,24c-3-2.61-13.1-9.49-15.34-10.52-5.73,4-9.68,7.52-11.41,10.23C799.92,333.56,816.3,333.77,822.14,333.08Zm-29-1.36c1-1,1.91-1.84,2.85-2.71s1.91-1.75,2.9-2.6,2.2-1.78,3.27-2.7a12.4,12.4,0,0,0,2.72-2.43c-.07-.36-.05-.52-.12-.57q-6.63-5-13.3-10c-.29-.21-.79-.16-1.5-.28.86,6.95,1.68,13.61,2.52,20.27C792.47,331,792.79,331.28,793.09,331.72Z"/><path class="cls-5" d="M884.33,338.55c-3.77,1.61-15.67,2.29-20.09,1.2-.23-2.35-.39-4.8-.46-7.24q-.1-3.9-.09-7.8c0-2.48.07-5,.18-7.44s-.17-4.94.63-7.39a165.78,165.78,0,0,1,16.84,0c4,.24,4.35.84,4.16,4.82-.33,6.73-.61,13.46-.92,20.19C884.53,336.1,884.42,337.27,884.33,338.55Zm-2-1.15a57.91,57.91,0,0,0-8.25-10.76c-.73.92-1.45,1.83-2.14,2.76s-1.38,1.92-2.06,2.87-1.4,1.9-2,2.88-1.8,1.49-1.91,2.94c4.25,0,8.34,0,12.43,0,1,0,2.11-.09,3.16-.19C881.7,337.87,881.88,337.67,882.32,337.4Zm-15.53-25.49c.13.76.09,1.16.26,1.41q2.94,4.2,5.94,8.35a5.68,5.68,0,0,0,1,.89,73.43,73.43,0,0,0,7.41-10c.08-.14-.1-.42-.17-.66ZM882.6,334c.12-.18.34-.36.34-.55q.43-9.41.8-18.81c0-.23-.28-.48-.56-.92-1.44,2-2.78,3.8-4,5.65s-2.81,3.47-3.69,5.45C878.4,329.79,880.69,332.71,882.6,334Zm-16.9.15a44.6,44.6,0,0,0,7-10c-3.34-5.22-5.31-7.75-6.81-8.7C865.25,318.79,865.13,329.37,865.7,334.17Z"/><path class="cls-5" d="M835,349.54a13.53,13.53,0,0,1-.77-1.86,39.68,39.68,0,0,1-.73-10.2c0-1.35.68-2,2-1.93,5.41.22,10.8-.54,16.21-.15,2.34.17,2.73.49,3.16,2.92a25.38,25.38,0,0,1-.42,10.91,4.15,4.15,0,0,1-3,.67c-4.72,0-9.44-.1-14.15-.17C836.62,349.72,835.92,349.62,835,349.54Zm10.41-6.07a28.36,28.36,0,0,0,7.81,4.26c.33-3,.89-5.79-.12-8.7C850.3,340.17,847.65,341.29,845.38,343.47ZM837,337.94c2.56,1.78,4.46,3.11,6.22,4.35l8.13-4.16a.49.49,0,0,0,.21-.24c0-.1,0-.23,0-.56A93.73,93.73,0,0,0,837,337.94Zm-1.58,1c0,1.87,0,3.15,0,4.42a10,10,0,0,0,.44,3.68c3-.64,3.9-1.22,5.76-3.75A61.14,61.14,0,0,0,835.46,338.94Zm13.77,9a16.15,16.15,0,0,0-5.51-3.3c-2.38,1.68-2.38,1.68-3.31,3.3Z"/><path class="cls-5" d="M826.76,346.07c-.93.61-1.26,1-1.65,1.05a22.52,22.52,0,0,1-3.18.18q-10.12-.12-20.24-.3c-1.77,0-3.54-.12-5.31-.23a1.89,1.89,0,0,1-.94-.41c-.14-.1-.15-.39-.18-.61a.3.3,0,0,1,.15-.26,5.39,5.39,0,0,1,1.34-.34c1.78,0,3.56-.11,5.33,0,5.92.21,11.83.47,17.74.71C821.91,345.91,824,346,826.76,346.07Z"/><path class="cls-5" d="M827,341.18c-.33,1.08-1.11,1.06-1.77,1.07q-3.72,0-7.43-.08c-3.07-.08-6.13-.24-9.19-.3-4.48-.1-9-.12-13.45-.2a12.63,12.63,0,0,1-1.76-.29,12.55,12.55,0,0,1,1.2-1,1.46,1.46,0,0,1,.7-.08c8,.35,16-.52,24.06.42,2,.23,4,.14,6,.22C825.86,341,826.39,341.11,827,341.18Z"/><path class="cls-5" d="M795.16,350.53a6.38,6.38,0,0,1,1.59-.46q14.52.15,29,.35c-.06.92-.64,1.05-1.25,1.07q-7.63.15-15.27.28c-3.55.06-7.1.11-10.65.12a9.62,9.62,0,0,1-2.45-.31C795.82,351.49,795.59,351,795.16,350.53Z"/><path class="cls-5" d="M857.11,309.69c-3,.06-5.43.14-7.89.15-5.31,0-10.62,0-15.93,0a2.65,2.65,0,0,1-1-.17.71.71,0,0,1-.32-.54c0-.21.1-.56.24-.61a7.33,7.33,0,0,1,2-.53c3.06-.12,6.13-.27,9.2-.2,3.53.08,7.07.36,10.6.59A3.41,3.41,0,0,1,857.11,309.69Z"/><path class="cls-5" d="M855.22,329.1a3.14,3.14,0,0,1-2.8.7,99.79,99.79,0,0,0-14.15-.26,15.28,15.28,0,0,0-4.16.61c-.24.07-.6-.25-.91-.39.18-.38.28-.86.58-1.1a2.4,2.4,0,0,1,1.3-.48c3.41-.25,6.82-.63,10.24-.63a84.31,84.31,0,0,1,8.8.78C854.47,328.37,854.79,328.78,855.22,329.1Z"/><path class="cls-5" d="M833.38,323.65c.14-.47.15-.95.35-1.06a5.56,5.56,0,0,1,1.95-.73,50.28,50.28,0,0,1,20,1.55c.09,0,.15.15.3.31-.21.23-.42.65-.65.66a14.27,14.27,0,0,1-3.52-.06,46.51,46.51,0,0,0-16.59-.57A9.39,9.39,0,0,1,833.38,323.65Z"/><path class="cls-5" d="M856.8,315.13c-1.16.79-2.36.43-3.5.43-4.61,0-9.23-.08-13.84-.06-1.53,0-3.06.22-4.59.32a4.09,4.09,0,0,1-1.4,0c-.26-.07-.48-.46-.58-.75a.61.61,0,0,1,.28-.57,7.59,7.59,0,0,1,2-.57,108,108,0,0,1,18.77.15C855,314.14,856.06,314.12,856.8,315.13Z"/><path class="cls-5" d="M908.57,331.8c-4.57.93-13.67.36-16.54-.51,0-.11,0-.27.1-.33.25-.22.51-.55.8-.58a58.68,58.68,0,0,1,13.43.69A12.43,12.43,0,0,1,908.57,331.8Z"/><path class="cls-5" d="M889.89,311.36a9.69,9.69,0,0,1,2-.71,70.92,70.92,0,0,1,16.21.57c.14,0,.24.35.42.63a3.07,3.07,0,0,1-.91.26,76.33,76.33,0,0,0-12,.23,22,22,0,0,1-3.89,0C891.28,312.3,890.9,311.92,889.89,311.36Z"/><path class="cls-5" d="M892.9,324.68c2-1.17,4.14-.62,6.18-.71a25,25,0,0,1,10.78,1.52,5.43,5.43,0,0,1-1.29.44c-5.05-.18-10.11-.37-15.16-.6C893.27,325.32,893.14,325,892.9,324.68Z"/><path class="cls-5" d="M868,348.69c2.1.13,3.86.31,5.61.34s3.31-.11,5-.18a25.52,25.52,0,0,1,5.75-.08,25,25,0,0,1-10,1.92,53.89,53.89,0,0,1-5.9-.9C868.3,349.77,868.25,349.4,868,348.69Z"/><path class="cls-5" d="M892.13,318.28A13.13,13.13,0,0,1,894,318c4.14-.06,8.27-.14,12.41-.1a2.41,2.41,0,0,1,2.22.8c-.06.08-.11.23-.17.23-4.47.21-8.95.43-13.43.6a7.46,7.46,0,0,1-2.1-.25C892.64,319.17,892.48,318.73,892.13,318.28Z"/><path class="cls-5" d="M882.52,344.73c-3.38,1.55-12,1.65-17.16.11.43-.36.74-.83,1-.82,5.18.1,10.36.27,15.54.43A1.63,1.63,0,0,1,882.52,344.73Z"/><path class="cls-5" d="M905.85,339c-4.09.71-8.16.17-12.22-.28a1.73,1.73,0,0,1-1-.4c-.22-.2-.45-.61-.38-.83a1,1,0,0,1,.77-.49c2.8.29,5.61.57,8.39,1C902.93,338.13,904.49,337.94,905.85,339Z"/><path class="cls-5" d="M892.64,344.1c2.73-.73,3.87-.68,14,.64a7,7,0,0,1-1.57.77,15.32,15.32,0,0,1-3.17.21c-2.7-.19-5.4-.47-8.1-.78C893.41,344.89,893.1,344.46,892.64,344.1Z"/><path class="cls-5" d="M721.64,493.62c-1.3-.18-1.87.64-2.5,1.33a65.82,65.82,0,0,0-7.22,10.1c-.59,1-1,2.15-2.52,2.63-.25-.54-.74-1.08-.65-1.5a9,9,0,0,1,1.13-2.95c2-3.05,4.08-6.1,6.32-9,1.62-2.09,3.6-3.84,6.54-3.5l5.22-7.12c.18-2.67.19-5.64.6-8.56a49.16,49.16,0,0,1,5.65-16c1.1-2.09,2-4.28,3-6.4.72-1.48,1.46-3,2.32-4.38a12.35,12.35,0,0,1,4.32-4.15c2.92-1.75,5.9-2.62,8.92.07,4-1.53,7.44,0,10.61,2.27a20.16,20.16,0,0,0,5.29,3,19.5,19.5,0,0,0,2.78-4.08,43.32,43.32,0,0,1,10-11.44,19.78,19.78,0,0,1,3.54-2.35,5.33,5.33,0,0,1,7.8,3.08,12.28,12.28,0,0,1,.44,7,39.79,39.79,0,0,1-7.17,15.71c-2.18,2.95-4.38,5.88-6.5,8.88-1,1.44-1.89,3-2.77,4.54a5.48,5.48,0,0,0-.29,1.46c2.27-.12,4.1-1,6-1.46a29.27,29.27,0,0,1,4.51-.9,5.24,5.24,0,0,1,5,2.7,12.91,12.91,0,0,1,1.8,7.83,5,5,0,0,1-3,4.13,27.24,27.24,0,0,1-4.26,1.75,37.58,37.58,0,0,0-10.53,5,26.4,26.4,0,0,0-3,2.44c-2.72,2.62-5.39,5.31-8.41,8.31-.44,3.8-3,7-5.88,10.23a14.12,14.12,0,0,1,1,2.47,6.91,6.91,0,0,1-.06,2.44A15.11,15.11,0,0,1,759,520a63.36,63.36,0,0,1-7.16,13.45,11.08,11.08,0,0,1-1.39,1.6c-.53.52-1.24,1-1.86.38a1.76,1.76,0,0,1-.16-1.58,38.71,38.71,0,0,1,1.93-3.8c1.25-2.28,2.59-4.52,3.8-6.83.82-1.57,1.52-3.21,2.2-4.84A10.39,10.39,0,0,0,757,516a1.87,1.87,0,0,0-2-2.27c-4.82.32-9.08-1.38-13.18-3.59-3.65-2-7.26-4-10.87-6a29.11,29.11,0,0,1-3.28-2.12C724.78,499.75,722.13,497.4,721.64,493.62Zm29.25-48.08a4.83,4.83,0,0,0-4.5.37,9.93,9.93,0,0,0-4.3,4.11c-2.13,4.09-4.32,8.16-6.29,12.33a70.25,70.25,0,0,0-3.27,8.24,46.29,46.29,0,0,0-2,14.33,2.72,2.72,0,0,0,.53,1.61,15.44,15.44,0,0,0,2.25,2.25c2.29,1.88,4.66,3.66,6.94,5.55a40.61,40.61,0,0,0,8.81,5.28,24.06,24.06,0,0,0,8.23,2,5,5,0,0,0,3.68-.95c2.5-2,5.12-3.84,7.47-6,5.48-5,11.31-9.36,18.56-11.47a17.54,17.54,0,0,0,2.29-.95,3.25,3.25,0,0,0,2-3.08,9,9,0,0,0-.2-2.8c-1.2-3.87-2.16-5.41-7-3.78-2.77.92-5.71,1.49-8.14,3.4-1.22,1-3-.22-2.9-1.83a5.59,5.59,0,0,1,.26-1.39,22.54,22.54,0,0,1,3.26-6.66q1.52-2.19,3-4.41c2.22-3.36,4.49-6.68,6.61-10.09a29.63,29.63,0,0,0,4.38-11.17,11.48,11.48,0,0,0-.2-4.21c-.59-2.52-2.29-3.22-4.55-2.06a11,11,0,0,0-1.79,1.16,40.25,40.25,0,0,0-8.8,9.2,82.71,82.71,0,0,0-7.69,14c-.72,1.74-1.53,3.46-2.39,5.15-.52,1-1.43,1.34-2,.87s-.47-1.25-.16-1.93c1.08-2.36,2.13-4.75,3.28-7.09a5.13,5.13,0,0,0,.44-4.47c-1.39-.84-2.93-1.27-4.18.09a40.66,40.66,0,0,0-4.12,5.3,50.22,50.22,0,0,0-2.37,4.76,15.06,15.06,0,0,1-1.29,2.11,1,1,0,0,1-.92.2,1,1,0,0,1-.54-.78,4.65,4.65,0,0,1,.21-1.74,35.13,35.13,0,0,1,6.75-11.58c.35-.41,1-.66.75-1.64-.69-.34-1.51-.77-2.35-1.14a4.84,4.84,0,0,0-6.07,1.44,20.18,20.18,0,0,0-2.16,2.81c-1.28,2.13-2.45,4.32-3.66,6.5-.8,1.45-1.56,2.92-2.38,4.36a1.24,1.24,0,0,1-1.59.72c-.08-.35-.34-.82-.25-1.2C743.92,455.44,747.28,450.57,750.89,445.54Zm10.38,58.25c-.48-.06-.88-.23-1.13-.11-2,1-4.17.78-6.27.37a30,30,0,0,1-7.37-2.5c-6.64-3.18-12-8-17-13.24-.46-.47-1-.87-1.56-1.38-1,1.66-1.82,3.08-2.58,4.54-1.21,2.33-1.09,3.54.79,5.42a23.74,23.74,0,0,0,4.39,3.57q7,4.16,14.26,8a20.44,20.44,0,0,0,8.11,2.43,6.19,6.19,0,0,0,5.39-2.19A15.57,15.57,0,0,0,761.27,503.79Z"/><path class="cls-5" d="M960.48,207.52a7.28,7.28,0,0,1,1.92-6q5-5.58,10-11.1a11.14,11.14,0,0,1,2.23-1.74,1.37,1.37,0,0,1,1.91.22,1.51,1.51,0,0,1-.21,1.95c-.88,1-1.87,1.82-2.77,2.76q-4.65,4.89-9.26,9.83a16.54,16.54,0,0,0-1.18,1.67c.7.17,1.23.25,1.72.42a18,18,0,0,1,3.63,1.32,40.29,40.29,0,0,1,9.13,7.85c2,2.3,4.18,4.52,6.26,6.78a26.67,26.67,0,0,1,2.33,2.67c1.31,1.87,1.79,3.86.56,6-.23.4-.39.83-.56,1.2.48,1,1.16,1.31,2,.74a9.63,9.63,0,0,0,1.61-1.38c3.67-3.71,7.31-7.45,11-11.15a16.82,16.82,0,0,1,2.16-1.79,1.05,1.05,0,0,1,.94.15,1.19,1.19,0,0,1,.38.91,2.67,2.67,0,0,1-.45,1.3,21,21,0,0,1-2.07,2.44c-3.36,3.34-6.75,6.65-10.14,10-.25.25-.51.49-.79.72-2.49,2.1-3,2.13-5.9.38a3.63,3.63,0,0,0-.66-.21,2.76,2.76,0,0,0-2.22,2.8c-.08,1.77-.36,3.54-.43,5.31A25.37,25.37,0,0,1,975,258.33c-4.82,5.26-8.56,11.33-12.49,17.25a18.61,18.61,0,0,1-1.86,2.58,4.07,4.07,0,0,1-5.76.38,12.83,12.83,0,0,1-3.42-4.77,13.72,13.72,0,0,0-1.58,1.43c-2.33,2.85-4.56,5.76-6.92,8.58-1.83,2.18-3.71,4.32-5.72,6.33a13.8,13.8,0,0,1-3.48,2.39,3.35,3.35,0,0,1-4-.61,10,10,0,0,1-3.38-9.93,28.61,28.61,0,0,1,3.51-8.88c1.4-2.33,2.84-4.63,4.37-7.13a24.11,24.11,0,0,1-2.52-2.86,24.17,24.17,0,0,1-1.51-3.62c-2.41-1.11-4.38-3-3.71-6.41-.84-.68-1.6-1.23-2.3-1.86a5.91,5.91,0,0,1-1.54-7.1,17.78,17.78,0,0,1,2.7-4.14A135.81,135.81,0,0,1,939,226.42c3.69-3.17,7.62-6,11.52-8.9a37,37,0,0,0,4.09-3.93C956.51,211.65,958.38,209.68,960.48,207.52Zm-24.47,56,6.54-6.75a7.23,7.23,0,0,1,1.32-1.16,1,1,0,0,1,1,.12,2.36,2.36,0,0,1,.29,1.25c0,.17-.27.37-.44.53-5.55,5.15-9.3,11.63-13,18.09a30,30,0,0,0-2.61,7,6.79,6.79,0,0,0,2,6.83,2.24,2.24,0,0,0,2.89.53,8.92,8.92,0,0,0,3.42-3c3.13-4.17,6.22-8.36,9.43-12.46,2.48-3.17,5-6.29,7.71-9.29a61.85,61.85,0,0,0,5.74-6.77,15.8,15.8,0,0,1,2.39-2.59,1,1,0,0,1,1,.08,1.1,1.1,0,0,1,.37.89,2.87,2.87,0,0,1-.52,1.28c-.84,1.14-1.74,2.25-2.62,3.36-1.84,2.33-3.73,4.61-5.51,7a5.74,5.74,0,0,0,1.43,8.38,1.78,1.78,0,0,0,2.73-.62c.91-1.53,1.59-3.21,2.62-4.63,3.41-4.69,7-9.28,10.41-13.95,1.47-2,3.25-3.9,4.13-6.15a34.52,34.52,0,0,0,2.62-14.57,4.73,4.73,0,0,0-.33-2.06c-2.24-3.63-4.5-7.26-7.66-10.19-2.78-2.58-5.62-5.1-8.47-7.6-3.77-3.3-5-3.12-8.38.17a44.28,44.28,0,0,1-7.45,6,16.42,16.42,0,0,0-1.7,1.28,151.52,151.52,0,0,0-16.49,16.15,33.22,33.22,0,0,0-3.62,5.24,3.65,3.65,0,0,0-.27,2.38A2.3,2.3,0,0,0,927,250c.44-.75.94-1.52,1.36-2.34a15.07,15.07,0,0,1,5.46-5.47c.81-.55,1.57-.43,2.06.76-.38.47-.77,1-1.24,1.54-1.13,1.2-2.36,2.33-3.46,3.57a10.89,10.89,0,0,0-2.52,6.15,3,3,0,0,0,.52,2c.35.47,1.11.65,1.81,1a32.55,32.55,0,0,1,2-3.19c1.46-1.86,3-3.66,4.58-5.42a3.45,3.45,0,0,1,1.51-.81c.24-.07.63.18.87.38a.67.67,0,0,1,.14.64,24.46,24.46,0,0,1-1.82,2.58,29.08,29.08,0,0,0-4.47,6.38C932.65,260.31,933.11,261.59,936,263.53Zm44.45-30.75a11.83,11.83,0,0,0,3.93-3.56,2,2,0,0,0,.14-2.9c-.87-1.11-1.91-2.09-2.87-3.12-1.86-2-3.75-3.93-5.57-5.94a49.61,49.61,0,0,0-7.79-7.18c-3.91-2.78-4.32-1.55-6.69.44-.43.36-.79.81-1.52,1.56,3.41,1.27,5.43,3.77,7.79,5.86,1.76,1.57,3.51,3.16,5.17,4.85a35.69,35.69,0,0,1,3.45,4C977.88,228.71,979.11,230.73,980.46,232.78Z"/></g></svg>