<svg id="Layer_1" data-name="Layer 1" xmlns="http://www.w3.org/2000/svg" viewBox="0 0 1431 622"><defs><style>.cls-1{fill:#141414;}.cls-2{opacity:0.4;}.cls-3{fill:none;stroke:#fff;stroke-miterlimit:10;stroke-width:0.75px;}.cls-4{opacity:0.7;}.cls-5{fill:#fff;}</style></defs><rect class="cls-1" x="-7.68" y="-6.12" width="1446.35" height="634.24"/><g class="cls-2"><g class="cls-2"><line class="cls-3" x1="-68.4" y1="35.89" x2="1459.16" y2="35.89"/><line class="cls-3" x1="-68.4" y1="84.94" x2="1459.16" y2="84.94"/><line class="cls-3" x1="-68.4" y1="133.98" x2="1459.16" y2="133.98"/><line class="cls-3" x1="-68.4" y1="183.03" x2="1459.16" y2="183.03"/><line class="cls-3" x1="-68.4" y1="232.07" x2="1459.16" y2="232.07"/><line class="cls-3" x1="-68.4" y1="281.12" x2="1459.16" y2="281.12"/><line class="cls-3" x1="-68.4" y1="330.16" x2="1459.16" y2="330.16"/><line class="cls-3" x1="-68.4" y1="379.21" x2="1459.16" y2="379.21"/><line class="cls-3" x1="-68.4" y1="428.25" x2="1459.16" y2="428.25"/></g><g class="cls-2"><line class="cls-3" x1="-68.4" y1="477.3" x2="1499.4" y2="477.3"/><line class="cls-3" x1="-68.4" y1="526.34" x2="1499.4" y2="526.34"/><line class="cls-3" x1="-68.4" y1="575.39" x2="1499.4" y2="575.39"/></g><g class="cls-2"><line class="cls-3" x1="32.16" y1="790.38" x2="32.16" y2="-166.87"/><line class="cls-3" x1="79.78" y1="790.38" x2="79.78" y2="-166.87"/><line class="cls-3" x1="127.4" y1="790.38" x2="127.4" y2="-166.87"/><line class="cls-3" x1="175.02" y1="790.38" x2="175.02" y2="-166.87"/><line class="cls-3" x1="222.64" y1="790.38" x2="222.64" y2="-166.87"/><line class="cls-3" x1="270.26" y1="790.38" x2="270.26" y2="-166.87"/><line class="cls-3" x1="317.88" y1="790.38" x2="317.88" y2="-166.87"/><line class="cls-3" x1="365.5" y1="790.38" x2="365.5" y2="-166.87"/><line class="cls-3" x1="413.12" y1="790.38" x2="413.12" y2="-166.87"/><line class="cls-3" x1="460.74" y1="790.38" x2="460.74" y2="-166.87"/><line class="cls-3" x1="504.96" y1="790.38" x2="504.96" y2="-166.87"/><line class="cls-3" x1="552.58" y1="790.38" x2="552.58" y2="-166.87"/><line class="cls-3" x1="600.2" y1="790.38" x2="600.2" y2="-166.87"/><line class="cls-3" x1="647.82" y1="790.38" x2="647.82" y2="-166.87"/><line class="cls-3" x1="695.44" y1="790.38" x2="695.44" y2="-166.87"/><line class="cls-3" x1="743.06" y1="790.38" x2="743.06" y2="-166.87"/><line class="cls-3" x1="790.68" y1="790.38" x2="790.68" y2="-166.87"/><line class="cls-3" x1="838.3" y1="790.38" x2="838.3" y2="-166.87"/><line class="cls-3" x1="885.92" y1="790.38" x2="885.92" y2="-166.87"/><line class="cls-3" x1="933.54" y1="790.38" x2="933.54" y2="-166.87"/><line class="cls-3" x1="981.16" y1="790.38" x2="981.16" y2="-166.87"/><line class="cls-3" x1="1036.72" y1="811.45" x2="1036.72" y2="-145.8"/><line class="cls-3" x1="1084.34" y1="811.45" x2="1084.34" y2="-145.8"/></g><g class="cls-2"><line class="cls-3" x1="1134.54" y1="785.38" x2="1134.54" y2="-189.45"/><line class="cls-3" x1="1182.16" y1="785.38" x2="1182.16" y2="-189.45"/><line class="cls-3" x1="1229.78" y1="785.38" x2="1229.78" y2="-189.45"/><line class="cls-3" x1="1277.4" y1="785.38" x2="1277.4" y2="-189.45"/><line class="cls-3" x1="1325.02" y1="785.38" x2="1325.02" y2="-189.45"/><line class="cls-3" x1="1372.64" y1="785.38" x2="1372.64" y2="-189.45"/><line class="cls-3" x1="1420.26" y1="785.38" x2="1420.26" y2="-189.45"/></g></g><g class="cls-4"><path d="M728.93,204.6l.09,4.19,4.49.92a18.07,18.07,0,0,0,.81,2.81l-3.3,3.17,2.17,3.59,4.36-1.45a17.54,17.54,0,0,0,2.11,2l-1.28,4.4,3.68,2,3-3.42a17.05,17.05,0,0,0,2.84.69l1.11,4.45,4.2-.08.91-4.49a18.55,18.55,0,0,0,2.81-.81l3.18,3.3,3.59-2.18-1.45-4.34a17.51,17.51,0,0,0,2-2.11l4.41,1.27,2-3.67-3.43-3A17.57,17.57,0,0,0,768,209l4.45-1.1-.08-4.19-4.5-.92a16.77,16.77,0,0,0-.81-2.81l3.3-3.17-2.17-3.59-4.36,1.45a18.23,18.23,0,0,0-2.1-2l1.27-4.4-3.68-2-3,3.43a17.05,17.05,0,0,0-2.84-.69l-1.1-4.45-4.2.08-.92,4.49a18.55,18.55,0,0,0-2.81.81l-3.18-3.3-3.59,2.18,1.45,4.34a17.51,17.51,0,0,0-2,2.11L732.67,194l-2,3.67,3.43,3a17.59,17.59,0,0,0-.7,2.84Zm21.54-9.15a10.8,10.8,0,1,1-10.58,11A10.83,10.83,0,0,1,750.47,195.45Z"/><path class="cls-5" d="M749.05,228.48a.49.49,0,0,1-.48-.37l-1-4.14a17.94,17.94,0,0,1-2.3-.56l-2.82,3.19a.49.49,0,0,1-.6.1l-3.68-2a.47.47,0,0,1-.23-.56l1.18-4.1a17.43,17.43,0,0,1-1.7-1.63l-4,1.35a.49.49,0,0,1-.57-.21l-2.18-3.59a.5.5,0,0,1,.08-.6l3.07-3a18.55,18.55,0,0,1-.65-2.27l-4.18-.85a.49.49,0,0,1-.39-.47l-.09-4.19a.5.5,0,0,1,.37-.49l4.14-1a19.13,19.13,0,0,1,.56-2.29L730.32,198a.49.49,0,0,1-.1-.6l2-3.68a.49.49,0,0,1,.56-.23l4.11,1.18a17.43,17.43,0,0,1,1.63-1.7l-1.35-4a.47.47,0,0,1,.21-.57l3.59-2.17a.47.47,0,0,1,.6.08l3,3.06a18.55,18.55,0,0,1,2.27-.65l.85-4.17a.47.47,0,0,1,.47-.39l4.2-.09a.48.48,0,0,1,.48.37l1,4.14a17.16,17.16,0,0,1,2.3.56L759,185.9a.49.49,0,0,1,.6-.1l3.68,2a.49.49,0,0,1,.24.56l-1.19,4.1a17.43,17.43,0,0,1,1.7,1.63l4-1.35a.48.48,0,0,1,.57.21l2.18,3.59a.49.49,0,0,1-.08.6l-3.07,3a18.55,18.55,0,0,1,.65,2.27l4.18.85a.48.48,0,0,1,.39.47l.09,4.19a.5.5,0,0,1-.37.49l-4.14,1a19.13,19.13,0,0,1-.56,2.29l3.19,2.82a.49.49,0,0,1,.1.6l-2,3.68a.49.49,0,0,1-.56.23l-4.1-1.18a18.81,18.81,0,0,1-1.64,1.7l1.36,4a.49.49,0,0,1-.21.57l-3.6,2.17a.47.47,0,0,1-.6-.08l-3-3.07a17.26,17.26,0,0,1-2.26.66l-.86,4.17a.47.47,0,0,1-.46.39l-4.2.09Zm-3.95-6.12a.45.45,0,0,1,.16,0,16.6,16.6,0,0,0,2.76.67.51.51,0,0,1,.4.37l1,4.07,3.42-.07.84-4.11a.47.47,0,0,1,.38-.38,16.49,16.49,0,0,0,2.73-.79.48.48,0,0,1,.52.12l2.91,3,2.93-1.77-1.33-4A.49.49,0,0,1,762,219a16.62,16.62,0,0,0,2-2.05.49.49,0,0,1,.51-.16l4,1.17,1.65-3L767,212.21a.51.51,0,0,1-.14-.52,16.86,16.86,0,0,0,.68-2.76.48.48,0,0,1,.36-.4l4.08-1-.07-3.41-4.12-.84a.49.49,0,0,1-.38-.38,16.47,16.47,0,0,0-.78-2.73.5.5,0,0,1,.11-.53l3-2.9L768,193.81l-4,1.32a.47.47,0,0,1-.52-.14,19,19,0,0,0-2.05-2,.48.48,0,0,1-.16-.51l1.16-4-3-1.65L756.65,190a.48.48,0,0,1-.52.14,16.6,16.6,0,0,0-2.76-.67.48.48,0,0,1-.39-.37L752,185l-3.42.07-.84,4.11a.49.49,0,0,1-.38.38,16.33,16.33,0,0,0-2.74.79.48.48,0,0,1-.52-.12l-2.91-3L738.23,189l1.33,4a.47.47,0,0,1-.14.52,16.54,16.54,0,0,0-2,2.05.51.51,0,0,1-.52.16l-4-1.17-1.65,3,3.14,2.77a.51.51,0,0,1,.14.52,16.86,16.86,0,0,0-.68,2.76.48.48,0,0,1-.36.4l-4.08,1,.07,3.41,4.12.84a.49.49,0,0,1,.38.38,16.49,16.49,0,0,0,.79,2.73.5.5,0,0,1-.12.53l-3,2.9,1.77,2.92,4-1.33a.5.5,0,0,1,.52.14,17.32,17.32,0,0,0,2.05,2,.48.48,0,0,1,.16.51L739,224l3,1.65,2.78-3.13A.46.46,0,0,1,745.1,222.36Zm5.6-4.82A11.29,11.29,0,1,1,762,206a11.27,11.27,0,0,1-11.06,11.51Zm-.22-21.6a10.31,10.31,0,0,0,.22,20.62h.21a10.31,10.31,0,1,0-.43-20.62Z"/><path d="M927.71,169.21l.07,3.48,3.74.76a14,14,0,0,0,.67,2.34l-2.74,2.63,1.8,3,3.62-1.2a14.61,14.61,0,0,0,1.75,1.68l-1.06,3.66,3.06,1.68,2.53-2.85a14.27,14.27,0,0,0,2.36.58l.91,3.69,3.49-.07.76-3.73a14,14,0,0,0,2.34-.67l2.64,2.74,3-1.8-1.21-3.62a14.64,14.64,0,0,0,1.68-1.75l3.66,1.06,1.68-3.05-2.85-2.52a14.27,14.27,0,0,0,.58-2.36l3.7-.92-.07-3.48-3.74-.76a14,14,0,0,0-.67-2.34l2.74-2.63-1.81-3L956.72,161a14.61,14.61,0,0,0-1.75-1.68l1-3.66-3-1.68-2.53,2.85a14.27,14.27,0,0,0-2.36-.58l-.92-3.69-3.48.07-.77,3.73a14.15,14.15,0,0,0-2.33.67l-2.64-2.74-3,1.8,1.21,3.61a15.4,15.4,0,0,0-1.68,1.75l-3.66-1-1.69,3,2.86,2.52a14.27,14.27,0,0,0-.58,2.36Zm17.9-7.6a9,9,0,1,1-8.8,9.15A9,9,0,0,1,945.61,161.61Z"/><path class="cls-5" d="M944.42,189.13a.48.48,0,0,1-.47-.37l-.84-3.39a13.65,13.65,0,0,1-1.81-.44L939,187.54a.49.49,0,0,1-.6.1L935.33,186a.47.47,0,0,1-.23-.56l1-3.35a13.72,13.72,0,0,1-1.35-1.29l-3.31,1.11a.49.49,0,0,1-.57-.21l-1.81-3a.47.47,0,0,1,.08-.6l2.51-2.41a15.3,15.3,0,0,1-.51-1.79l-3.43-.7a.5.5,0,0,1-.39-.47l-.07-3.48a.5.5,0,0,1,.37-.49l3.39-.83a14.94,14.94,0,0,1,.44-1.81l-2.61-2.31a.49.49,0,0,1-.1-.6l1.68-3.06a.49.49,0,0,1,.56-.23l3.36,1a14.82,14.82,0,0,1,1.29-1.34l-1.11-3.31a.49.49,0,0,1,.21-.57l3-1.81a.49.49,0,0,1,.6.08l2.42,2.51a15.3,15.3,0,0,1,1.79-.51l.7-3.42a.48.48,0,0,1,.47-.39l3.48-.07a.48.48,0,0,1,.49.37l.84,3.38a16,16,0,0,1,1.81.45l2.31-2.61a.5.5,0,0,1,.6-.11l3.06,1.69a.47.47,0,0,1,.23.56l-1,3.35a13.72,13.72,0,0,1,1.35,1.29l3.31-1.11a.49.49,0,0,1,.57.21l1.81,3a.49.49,0,0,1-.08.6L960,165.5a15.3,15.3,0,0,1,.51,1.79l3.42.7a.48.48,0,0,1,.39.47l.08,3.48a.5.5,0,0,1-.37.49l-3.39.83a13.3,13.3,0,0,1-.45,1.81l2.62,2.31a.49.49,0,0,1,.1.6L961.2,181a.49.49,0,0,1-.56.23l-3.36-1a14.82,14.82,0,0,1-1.29,1.34L957.1,185a.49.49,0,0,1-.21.57l-3,1.81a.5.5,0,0,1-.6-.08l-2.42-2.51a15.3,15.3,0,0,1-1.79.51l-.7,3.42a.5.5,0,0,1-.47.39l-3.49.07Zm-3.27-5.25a.4.4,0,0,1,.15,0,14.33,14.33,0,0,0,2.28.56.48.48,0,0,1,.4.36l.82,3.32,2.71-.06.69-3.35a.49.49,0,0,1,.38-.38,13.05,13.05,0,0,0,2.26-.65.5.5,0,0,1,.52.12l2.37,2.46,2.32-1.4L955,181.65a.47.47,0,0,1,.14-.52,15.2,15.2,0,0,0,1.62-1.69.48.48,0,0,1,.51-.16l3.29.95,1.31-2.38-2.56-2.26a.48.48,0,0,1-.14-.52,14.33,14.33,0,0,0,.56-2.28.49.49,0,0,1,.36-.4l3.32-.82,0-2.7-3.36-.69a.49.49,0,0,1-.38-.38,13.2,13.2,0,0,0-.65-2.25.5.5,0,0,1,.12-.53l2.46-2.36-1.4-2.32-3.25,1.08a.49.49,0,0,1-.52-.14,13.64,13.64,0,0,0-1.69-1.62.48.48,0,0,1-.16-.51l1-3.29-2.38-1.3-2.26,2.55a.49.49,0,0,1-.52.14,14.18,14.18,0,0,0-2.29-.56.47.47,0,0,1-.39-.36l-.82-3.32-2.71.06-.69,3.34a.47.47,0,0,1-.38.38,15.09,15.09,0,0,0-2.26.65.48.48,0,0,1-.52-.11l-2.37-2.46-2.32,1.4,1.08,3.24a.47.47,0,0,1-.14.52,14.38,14.38,0,0,0-1.62,1.69.49.49,0,0,1-.52.16l-3.28-.95-1.31,2.37,2.56,2.27a.5.5,0,0,1,.14.52,13.1,13.1,0,0,0-.56,2.28.47.47,0,0,1-.37.39l-3.32.82.06,2.71,3.35.68a.49.49,0,0,1,.38.39,15,15,0,0,0,.65,2.25.5.5,0,0,1-.11.53l-2.47,2.36,1.41,2.32,3.25-1.08a.46.46,0,0,1,.51.14,14.47,14.47,0,0,0,1.7,1.62.5.5,0,0,1,.16.51l-1,3.29,2.38,1.3,2.26-2.55A.5.5,0,0,1,941.15,183.88Zm4.64-3.84a9.47,9.47,0,0,1-9.46-9.27,9.46,9.46,0,0,1,9.27-9.65h.19a9.47,9.47,0,0,1,9.47,9.27A9.46,9.46,0,0,1,946,180Zm-.17-17.95a8.49,8.49,0,0,0,.17,17H946a8.49,8.49,0,1,0-.35-17Z"/><path d="M967.33,166.46l1.81,5.19,6-.68a22.24,22.24,0,0,0,2.15,3.16l-2.82,5.3,4.17,3.58,4.82-3.57a23.28,23.28,0,0,0,3.45,1.66l.21,6,5.4,1,2.39-5.5a23.37,23.37,0,0,0,3.81-.29l3.19,5.09,5.18-1.81-.68-6a22.93,22.93,0,0,0,3.17-2.15l5.29,2.82,3.59-4.17-3.58-4.82a23.28,23.28,0,0,0,1.66-3.45l6-.21,1-5.4-5.5-2.38a23.49,23.49,0,0,0-.29-3.82l5.09-3.18-1.81-5.19-6,.69a21.79,21.79,0,0,0-2.15-3.17l2.81-5.29-4.16-3.59-4.83,3.58a22.22,22.22,0,0,0-3.44-1.66l-.21-6-5.4-1-2.39,5.51a21.51,21.51,0,0,0-3.82.29l-3.18-5.09-5.19,1.81.69,6a23.51,23.51,0,0,0-3.17,2.15L975.32,139l-3.59,4.16,3.58,4.83a23.17,23.17,0,0,0-1.66,3.44l-6,.21-1,5.4,5.5,2.39a22.3,22.3,0,0,0,.29,3.81Zm23.08-20.14a14.15,14.15,0,1,1-8.69,18A14.16,14.16,0,0,1,990.41,146.32Z"/><path class="cls-5" d="M992.49,188.61h-.09l-5.4-1a.51.51,0,0,1-.4-.46l-.2-5.69a23.19,23.19,0,0,1-2.93-1.41l-4.57,3.39a.5.5,0,0,1-.61,0l-4.16-3.58a.49.49,0,0,1-.12-.6l2.67-5a23.31,23.31,0,0,1-1.84-2.7l-5.64.65a.51.51,0,0,1-.52-.33l-1.81-5.18a.49.49,0,0,1,.2-.58l4.82-3a24,24,0,0,1-.25-3.25l-5.21-2.26a.48.48,0,0,1-.28-.54l1-5.4a.49.49,0,0,1,.46-.4l5.68-.19a24.12,24.12,0,0,1,1.42-2.94l-3.39-4.57a.47.47,0,0,1,0-.6l3.59-4.17a.49.49,0,0,1,.6-.11l5,2.66a23.24,23.24,0,0,1,2.7-1.83l-.65-5.64a.49.49,0,0,1,.32-.52l5.19-1.81a.48.48,0,0,1,.58.2l3,4.82a22.44,22.44,0,0,1,3.25-.25l2.26-5.21a.47.47,0,0,1,.54-.28l5.4,1a.49.49,0,0,1,.4.46l.19,5.68a22.73,22.73,0,0,1,2.94,1.42l4.57-3.39a.48.48,0,0,1,.61,0l4.16,3.59a.47.47,0,0,1,.11.6l-2.66,5a23.24,23.24,0,0,1,1.83,2.7l5.65-.65a.5.5,0,0,1,.52.32l1.81,5.19a.48.48,0,0,1-.2.57l-4.82,3a24,24,0,0,1,.25,3.26l5.21,2.26a.48.48,0,0,1,.28.53l-1,5.4a.48.48,0,0,1-.46.4l-5.68.2a24,24,0,0,1-1.42,2.93l3.39,4.57a.51.51,0,0,1,0,.61l-3.59,4.16a.49.49,0,0,1-.6.12l-5-2.67a22.84,22.84,0,0,1-2.7,1.83l.65,5.65a.5.5,0,0,1-.32.52l-5.19,1.81a.5.5,0,0,1-.58-.2l-3-4.82a24,24,0,0,1-3.26.25l-2.25,5.21A.49.49,0,0,1,992.49,188.61Zm-4.93-1.92,4.64.88,2.23-5.14a.47.47,0,0,1,.45-.3,21.56,21.56,0,0,0,3.74-.28.49.49,0,0,1,.49.22l3,4.76,4.46-1.56-.65-5.57a.49.49,0,0,1,.25-.48,22.25,22.25,0,0,0,3.1-2.11.49.49,0,0,1,.53-.05l5,2.63,3.07-3.57-3.34-4.51a.48.48,0,0,1,0-.54,22.21,22.21,0,0,0,1.62-3.37.49.49,0,0,1,.44-.31l5.62-.2.87-4.63-5.14-2.23a.51.51,0,0,1-.3-.46,22.47,22.47,0,0,0-.28-3.73.47.47,0,0,1,.22-.49l4.76-3-1.56-4.45-5.57.64a.46.46,0,0,1-.48-.24,22.53,22.53,0,0,0-2.11-3.1.5.5,0,0,1,0-.54l2.63-4.95-3.57-3.08L1007,140.3a.47.47,0,0,1-.53,0,23.36,23.36,0,0,0-3.38-1.63.49.49,0,0,1-.31-.44l-.19-5.61-4.64-.88-2.23,5.15a.48.48,0,0,1-.45.29h-.19a22.56,22.56,0,0,0-3.55.29.51.51,0,0,1-.49-.22l-3-4.77-4.46,1.56.64,5.58a.48.48,0,0,1-.24.48,22.47,22.47,0,0,0-3.1,2.1.47.47,0,0,1-.54.05l-5-2.63-3.08,3.58,3.35,4.51a.47.47,0,0,1,0,.53,23.36,23.36,0,0,0-1.63,3.38.49.49,0,0,1-.43.31l-5.62.19-.87,4.64,5.14,2.23a.48.48,0,0,1,.29.45,22.61,22.61,0,0,0,.29,3.74.51.51,0,0,1-.22.49l-4.76,3,1.55,4.45,5.58-.64a.49.49,0,0,1,.48.25,22.25,22.25,0,0,0,2.11,3.1.49.49,0,0,1,.05.53l-2.63,4.95,3.57,3.08,4.51-3.34a.48.48,0,0,1,.54,0,22.67,22.67,0,0,0,3.37,1.62.5.5,0,0,1,.32.44Zm7.53-12.38a14.65,14.65,0,1,1,4.82-.82A14.49,14.49,0,0,1,995.09,174.31Zm-4.52-27.53a13.65,13.65,0,0,0-8.39,17.4,13.67,13.67,0,1,0,8.39-17.4Z"/><path class="cls-5" d="M730.84,351a.45.45,0,0,1-.34-.14.49.49,0,0,1,0-.69l42.1-42.1a.49.49,0,0,1,.69.69l-42.11,42.1A.45.45,0,0,1,730.84,351Z"/><path class="cls-5" d="M740.81,323.27a.49.49,0,0,1-.34-.14.49.49,0,0,1,0-.69l33.67-33.67a.49.49,0,0,1,.69.69l-33.68,33.67A.49.49,0,0,1,740.81,323.27Z"/><path class="cls-5" d="M694,218.65a.59.59,0,0,1-.25-.07.49.49,0,0,1-.16-.67,158.23,158.23,0,0,1,103.94-72.78.48.48,0,0,1,.58.38.49.49,0,0,1-.38.57A157.27,157.27,0,0,0,694.4,218.41.49.49,0,0,1,694,218.65Z"/><path class="cls-5" d="M674.11,223a.53.53,0,0,1-.24-.06.49.49,0,0,1-.19-.66,177.34,177.34,0,0,1,36.62-46.22,181,181,0,0,1,52-32.84.48.48,0,0,1,.64.26.5.5,0,0,1-.27.64,179.26,179.26,0,0,0-88.16,78.63A.48.48,0,0,1,674.11,223Z"/><path class="cls-5" d="M780.52,141h-.07a.49.49,0,0,1-.4-.33l-2.27-7.2a.53.53,0,0,1,.08-.44.49.49,0,0,1,.42-.19l6.71.37a.49.49,0,0,1,.41.26.5.5,0,0,1,0,.49l-4.45,6.83A.49.49,0,0,1,780.52,141Zm-1.59-7.16,1.74,5.54,3.43-5.26Z"/><path class="cls-5" d="M923.79,110.81a4.7,4.7,0,1,1,4.68-5.1,4.69,4.69,0,0,1-4.28,5.09Zm-3.71-4.38a3.72,3.72,0,0,0,6.56,2.08,3.73,3.73,0,1,0-6.56-2.08Z"/><path class="cls-5" d="M962.3,112.77h0l-2.58-.12a.48.48,0,0,1-.46-.51.49.49,0,0,1,.51-.47l2.58.13a.48.48,0,0,1,.46.51A.48.48,0,0,1,962.3,112.77Z"/><path class="cls-5" d="M953.26,112.33h0l-2.59-.13a.49.49,0,0,1,.05-1l2.58.13a.49.49,0,0,1,0,1Z"/><path class="cls-5" d="M956.68,109.31h0a.49.49,0,0,1-.46-.51l.16-2.55a.49.49,0,0,1,.52-.45.48.48,0,0,1,.45.51l-.15,2.55A.49.49,0,0,1,956.68,109.31Z"/><path class="cls-5" d="M956.14,118.21h0a.5.5,0,0,1-.46-.52l.16-2.54a.48.48,0,0,1,.51-.46.49.49,0,0,1,.46.52l-.16,2.54A.48.48,0,0,1,956.14,118.21Z"/><path class="cls-5" d="M722.77,380.62a24.18,24.18,0,1,1-48.18,3.44L676.16,258a17.12,17.12,0,0,1,34.1-2.43Z"/><path class="cls-5" d="M698.79,408.25a24.68,24.68,0,0,1-24.69-24.18L675.68,258a17.6,17.6,0,0,1,35.07-2.48l12.51,125.07a24.69,24.69,0,0,1-22.61,27.61C700,408.23,699.41,408.25,698.79,408.25ZM693.3,241c-.43,0-.86,0-1.29.05A16.66,16.66,0,0,0,676.65,258l-1.58,126.08a23.7,23.7,0,1,0,47.22-3.38h0L709.78,255.6A16.61,16.61,0,0,0,693.3,241Z"/><path class="cls-5" d="M747.25,401.67a10.55,10.55,0,0,1-10.13-7.58l-4.82-16.48a7.53,7.53,0,0,0-7.22-5.41h-60.8a7.9,7.9,0,0,0-7.9,7.9v54.42H760.19V409.57a7.9,7.9,0,0,0-7.9-7.9Z"/><path class="cls-5" d="M760.19,435H656.38a.49.49,0,0,1-.49-.49V380.11a8.39,8.39,0,0,1,8.39-8.39h60.8a8,8,0,0,1,7.68,5.76L737.59,394a10.12,10.12,0,0,0,9.66,7.24h5a8.39,8.39,0,0,1,8.38,8.38v24.95A.48.48,0,0,1,760.19,435Zm-103.33-1H759.7V409.57a7.43,7.43,0,0,0-7.41-7.41h-5a11.1,11.1,0,0,1-10.6-7.94l-4.82-16.47a7.07,7.07,0,0,0-6.75-5.06h-60.8a7.43,7.43,0,0,0-7.42,7.42Z"/><path d="M756.21,401.67a10.57,10.57,0,0,1-10.13-7.58l-4.82-16.48A7.53,7.53,0,0,0,734,372.2H673.25a7.91,7.91,0,0,0-7.91,7.9v54.42H769.15V409.57a7.9,7.9,0,0,0-7.9-7.9Z"/><path class="cls-5" d="M769.15,435H665.34a.48.48,0,0,1-.48-.49V380.11a8.39,8.39,0,0,1,8.39-8.39H734a8,8,0,0,1,7.69,5.76L746.55,394a10.13,10.13,0,0,0,9.66,7.24h5a8.39,8.39,0,0,1,8.39,8.38v24.95A.49.49,0,0,1,769.15,435Zm-103.32-1H768.67V409.57a7.43,7.43,0,0,0-7.42-7.41h-5a11.08,11.08,0,0,1-10.59-7.94l-4.83-16.47a7.06,7.06,0,0,0-6.75-5.06H673.25a7.43,7.43,0,0,0-7.42,7.42Z"/><circle cx="760.93" cy="410.56" r="4.29"/><rect class="cls-5" x="646.19" y="430.03" width="133.44" height="5.95"/><path class="cls-5" d="M1040.73,399.5,802.28,366.34a12,12,0,0,1-10.48-11.89l-3.27-166.32a82.18,82.18,0,0,1,8.52-5.42,9.2,9.2,0,0,1,5.25-.86L1040,212.16a12,12,0,0,1,10.47,11.9V387.42a9.28,9.28,0,0,1-3.4,7.2C1045.21,396.18,1040.73,399.5,1040.73,399.5Z"/><path d="M1033.45,401.71,795.71,371.39a12,12,0,0,1-10.47-11.89V196.14a9.31,9.31,0,0,1,10.49-9.24l237.74,30.32A12,12,0,0,1,1044,229.11V392.47A9.32,9.32,0,0,1,1033.45,401.71Z"/><path d="M1028.4,395l-227-29a8.73,8.73,0,0,1-7.62-8.65V199.8a6.23,6.23,0,0,1,7-6.17l227,29a8.73,8.73,0,0,1,7.62,8.65V388.8A6.23,6.23,0,0,1,1028.4,395Z"/><path class="cls-5" d="M1029.18,395.51a5.92,5.92,0,0,1-.84-.05l-227-28.95a9.21,9.21,0,0,1-8-9.13V199.8a6.7,6.7,0,0,1,7.56-6.65l227,28.95a9.21,9.21,0,0,1,8,9.13V388.8a6.69,6.69,0,0,1-6.71,6.71Zm-.72-1a5.72,5.72,0,0,0,6.46-5.69V231.23a8.26,8.26,0,0,0-7.19-8.17l-227-28.95a5.75,5.75,0,0,0-6.46,5.69V357.38a8.24,8.24,0,0,0,7.19,8.16Z"/><path class="cls-5" d="M1034.63,402.27a8.61,8.61,0,0,1-1.24-.08L795.65,371.88a12.51,12.51,0,0,1-10.9-12.38V292.55a.49.49,0,0,1,.49-.49.48.48,0,0,1,.48.49V359.5a11.53,11.53,0,0,0,10,11.41l237.74,30.32a8.83,8.83,0,0,0,10-8.76V229.11a11.53,11.53,0,0,0-10-11.41L910.88,202.07a.48.48,0,1,1,.13-1l122.52,15.62a12.51,12.51,0,0,1,10.9,12.38V392.47a9.79,9.79,0,0,1-9.8,9.8Z"/><path class="cls-5" d="M785.24,238.26a.49.49,0,0,1-.49-.49V196.14a9.8,9.8,0,0,1,11-9.73l56,7.14a.49.49,0,0,1,.42.55.47.47,0,0,1-.54.42l-56-7.14a8.83,8.83,0,0,0-9.95,8.76v41.63A.48.48,0,0,1,785.24,238.26Z"/><path class="cls-5" d="M894.75,497.92l-244.5-31.53a3.37,3.37,0,0,1-3-3.45c0-1.11.1-8.89.1-8.89l129.29-73.91A36.93,36.93,0,0,1,798.92,376l241.42,31.14a4.14,4.14,0,0,1,3.28,2.48l.39.91s-.21,6.49-.13,8a3.29,3.29,0,0,1-1.71,3.12l-126,72.07A34.33,34.33,0,0,1,894.75,497.92Z"/><path d="M894.75,489.26,651.12,457.78a3.4,3.4,0,0,1-1.25-6.32l125.36-71.6a34.36,34.36,0,0,1,21.38-4.24l243.63,31.48a3.4,3.4,0,0,1,1.26,6.32L916.14,485A34.39,34.39,0,0,1,894.75,489.26Z"/><path class="cls-5" d="M899.06,490a33.63,33.63,0,0,1-4.37-.28L651.06,458.27a3.88,3.88,0,0,1-1.43-7.23L775,379.44a35,35,0,0,1,21.68-4.3l243.64,31.47a3.89,3.89,0,0,1,1.43,7.23l-125.36,71.6A35.1,35.1,0,0,1,899.06,490Zm-4.25-1.25a34,34,0,0,0,21.08-4.18L1041.26,413a2.91,2.91,0,0,0-1.08-5.41L796.55,376.11a34,34,0,0,0-21.08,4.18l-125.36,71.6a2.91,2.91,0,0,0,1.07,5.41Z"/><path d="M942.45,449.51,731.19,422a3.07,3.07,0,0,1-1.13-5.71l49.67-28.08a31,31,0,0,1,19.32-3.83l211.26,27.49a3.07,3.07,0,0,1,1.13,5.71l-49.67,28.08A31,31,0,0,1,942.45,449.51Z"/><path class="cls-5" d="M946.34,450.25a32.6,32.6,0,0,1-4-.25h0L731.13,422.51a3.56,3.56,0,0,1-1.31-6.62l49.67-28.08a31.6,31.6,0,0,1,19.62-3.89l211.26,27.49a3.55,3.55,0,0,1,1.31,6.61L962,446.11A31.78,31.78,0,0,1,946.34,450.25ZM942.52,449a30.64,30.64,0,0,0,19-3.77l49.68-28.09a2.5,2.5,0,0,0,1.25-2.74,2.53,2.53,0,0,0-2.2-2.06L799,384.88a30.78,30.78,0,0,0-19,3.77L730.3,416.74a2.58,2.58,0,0,0,1,4.8Z"/><path class="cls-5" d="M1006,244.67h-.06l-97.93-11a.48.48,0,0,1-.43-.49V228a.46.46,0,0,1,.17-.36.47.47,0,0,1,.38-.12l97.93,11a.47.47,0,0,1,.43.48l0,5.11a.5.5,0,0,1-.16.36A.47.47,0,0,1,1006,244.67Zm-97.45-12,97,10.94,0-4.12-97-10.94Z"/><path class="cls-5" d="M1028.18,255.59h-.06l-99.78-11.26a.48.48,0,0,1-.43-.48l0-5.11a.5.5,0,0,1,.16-.36.51.51,0,0,1,.38-.12l99.78,11.26a.49.49,0,0,1,.43.49l0,5.1a.48.48,0,0,1-.16.36A.47.47,0,0,1,1028.18,255.59Zm-99.29-12.17,98.8,11.14,0-4.12L928.9,239.29Z"/><path class="cls-5" d="M1016.11,262.65h-.05l-51.57-5.82a.49.49,0,0,1-.44-.48l0-5.11a.48.48,0,0,1,.54-.48l51.58,5.82a.49.49,0,0,1,.43.48l0,5.11a.48.48,0,0,1-.16.36A.5.5,0,0,1,1016.11,262.65ZM965,255.91l50.6,5.71V257.5L965,251.79Z"/><path class="cls-5" d="M1005.74,312h-.06l-97.93-11a.49.49,0,0,1-.43-.49l0-5.1a.52.52,0,0,1,.16-.37.51.51,0,0,1,.38-.12l97.93,11.05a.48.48,0,0,1,.43.49v5.1a.46.46,0,0,1-.17.36A.48.48,0,0,1,1005.74,312Zm-97.45-12,97,10.94,0-4.13-97-10.94Z"/><path class="cls-5" d="M1027.93,322.92h0L928.1,311.66a.5.5,0,0,1-.44-.49l0-5.1a.48.48,0,0,1,.54-.48L1028,316.85a.48.48,0,0,1,.44.48l0,5.11a.49.49,0,0,1-.49.48Zm-99.29-12.18,98.81,11.15v-4.13l-98.81-11.14Z"/><path class="cls-5" d="M1027.9,331.34h-.06l-63.6-7.17a.49.49,0,0,1-.43-.49l0-5.1a.45.45,0,0,1,.16-.36.44.44,0,0,1,.38-.12l63.6,7.17a.5.5,0,0,1,.44.49l0,5.1a.46.46,0,0,1-.17.36A.48.48,0,0,1,1027.9,331.34Zm-63.12-8.1,62.63,7.06,0-4.12-62.63-7.07Z"/><path class="cls-5" d="M987.07,334.8H987l-59.34-6.7a.5.5,0,0,1-.44-.49l0-5.1a.48.48,0,0,1,.54-.48l59.35,6.69a.49.49,0,0,1,.43.49l0,5.1a.52.52,0,0,1-.16.37A.55.55,0,0,1,987.07,334.8Zm-58.86-7.62,58.37,6.59,0-4.13-58.38-6.58Z"/><path class="cls-5" d="M1005.89,269.92h0l-97.93-11.05a.5.5,0,0,1-.44-.49l0-5.1a.5.5,0,0,1,.17-.37.49.49,0,0,1,.37-.12l97.94,11a.5.5,0,0,1,.43.49l0,5.1a.52.52,0,0,1-.16.37A.5.5,0,0,1,1005.89,269.92Zm-97.44-12,97,10.94v-4.13l-97-10.94Z"/><path class="cls-5" d="M1028.08,280.84h0l-99.78-11.26a.49.49,0,0,1-.43-.48l0-5.11a.48.48,0,0,1,.16-.36.47.47,0,0,1,.38-.12l99.78,11.26a.48.48,0,0,1,.43.48l0,5.11a.48.48,0,0,1-.16.36A.5.5,0,0,1,1028.08,280.84Zm-99.29-12.18,98.81,11.15v-4.12l-98.8-11.15Z"/><path class="cls-5" d="M1004,295h-.05l-39.55-4.47a.48.48,0,0,1-.43-.48l0-5.11a.5.5,0,0,1,.16-.36.53.53,0,0,1,.38-.12l39.54,4.46a.5.5,0,0,1,.44.49l0,5.1a.5.5,0,0,1-.17.37A.47.47,0,0,1,1004,295Zm-39.05-5.38,38.56,4.35,0-4.13-38.57-4.35Z"/><path class="cls-5" d="M1015.75,304.7h0l-39.55-4.46a.5.5,0,0,1-.43-.49l0-5.1a.48.48,0,0,1,.16-.36.45.45,0,0,1,.38-.12l39.54,4.46a.48.48,0,0,1,.44.48l0,5.11a.48.48,0,0,1-.16.36A.5.5,0,0,1,1015.75,304.7Zm-39-5.38,38.57,4.35v-4.12l-38.57-4.36Z"/><path class="cls-5" d="M1028.05,289.26h0l-63.61-7.17a.5.5,0,0,1-.43-.49l0-5.1a.48.48,0,0,1,.16-.36.45.45,0,0,1,.38-.12l63.61,7.17a.5.5,0,0,1,.43.49l0,5.1a.48.48,0,0,1-.16.36A.51.51,0,0,1,1028.05,289.26Zm-63.11-8.1,62.63,7.07V284.1L965,277Z"/><path class="cls-5" d="M1005.62,345.66h-.06l-97.93-11.05a.48.48,0,0,1-.43-.49V329a.46.46,0,0,1,.17-.36.47.47,0,0,1,.38-.12l97.93,11a.47.47,0,0,1,.43.48l0,5.11a.5.5,0,0,1-.16.36A.49.49,0,0,1,1005.62,345.66Zm-97.45-12,97,10.94,0-4.13-97-10.93Z"/><path class="cls-5" d="M1024.6,356.22h-.06L928,345.32a.47.47,0,0,1-.43-.48l0-5.11a.48.48,0,0,1,.16-.36.47.47,0,0,1,.38-.12l96.57,10.9a.47.47,0,0,1,.43.48v5.11a.51.51,0,0,1-.17.36A.47.47,0,0,1,1024.6,356.22ZM928.51,344.4l95.6,10.79,0-4.12-95.6-10.79Z"/><path class="cls-5" d="M1027.78,365h-.06l-63.6-7.18a.5.5,0,0,1-.44-.49l0-5.1a.48.48,0,0,1,.54-.48l63.61,7.17a.49.49,0,0,1,.43.49l0,5.1a.52.52,0,0,1-.16.37A.47.47,0,0,1,1027.78,365Zm-63.12-8.1,62.63,7.07,0-4.13-62.64-7.06Z"/><path class="cls-5" d="M1005.52,370.91h0l-97.94-11.05a.5.5,0,0,1-.43-.49l0-5.1a.48.48,0,0,1,.54-.49l97.94,11.05a.5.5,0,0,1,.43.49l0,5.1a.52.52,0,0,1-.16.37A.55.55,0,0,1,1005.52,370.91Zm-97.44-12,97,10.94v-4.13l-97-10.94Z"/><path class="cls-5" d="M1027.71,381.83h0l-99.78-11.26a.49.49,0,0,1-.43-.49l0-5.1a.48.48,0,0,1,.16-.36.47.47,0,0,1,.38-.12l99.78,11.26a.48.48,0,0,1,.43.48l0,5.11a.48.48,0,0,1-.49.48Zm-99.29-12.18,98.81,11.15v-4.13l-98.8-11.14Z"/><path class="cls-5" d="M899.68,291.51h0l-9.54-1.08a.47.47,0,0,1-.43-.48l0-4.91a.5.5,0,0,1,.16-.36.51.51,0,0,1,.38-.12l9.54,1.08a.49.49,0,0,1,.43.48l0,4.91a.48.48,0,0,1-.16.36A.5.5,0,0,1,899.68,291.51Zm-9-2,8.57,1v-3.92l-8.56-1Z"/><path class="cls-5" d="M900.26,232.74h-.06l-9.94-1.12a.49.49,0,0,1-.43-.49l0-5.1a.48.48,0,0,1,.16-.36.47.47,0,0,1,.38-.12l9.94,1.12a.49.49,0,0,1,.43.48l0,5.11a.48.48,0,0,1-.16.36A.47.47,0,0,1,900.26,232.74Zm-9.46-2,9,1,0-4.12-9-1Z"/><path class="cls-5" d="M900.29,225h-.06l-9.94-1.13a.47.47,0,0,1-.43-.48v-5.11a.5.5,0,0,1,.55-.48l9.94,1.12a.49.49,0,0,1,.43.49l0,5.1a.52.52,0,0,1-.16.37A.47.47,0,0,1,900.29,225Zm-9.46-2,9,1,0-4.13-9-1Z"/><path class="cls-5" d="M900.15,241.15h0L890.23,240a.47.47,0,0,1-.43-.48l0-5.1a.51.51,0,0,1,.16-.37.51.51,0,0,1,.38-.12l9.86,1.12a.48.48,0,0,1,.44.48l0,5.11a.49.49,0,0,1-.49.48Zm-9.38-2,8.9,1V236l-8.89-1Z"/><path class="cls-5" d="M899.79,249.53h-.06l-9.36-1.06a.5.5,0,0,1-.44-.49l0-5.1a.46.46,0,0,1,.17-.36.45.45,0,0,1,.37-.12l9.37,1a.49.49,0,0,1,.43.49l0,5.1a.52.52,0,0,1-.16.37A.49.49,0,0,1,899.79,249.53Zm-8.88-2,8.39.95,0-4.13-8.4-.94Z"/><path class="cls-5" d="M899.8,258h0l-9.53-1.08a.47.47,0,0,1-.43-.48v-5.11a.46.46,0,0,1,.17-.36.51.51,0,0,1,.38-.12l9.53,1.08a.47.47,0,0,1,.43.48l0,5.11a.48.48,0,0,1-.49.48Zm-9-2,8.56,1,0-4.13-8.56-1Z"/><path class="cls-5" d="M899.72,266.36h-.05l-9.53-1.08a.49.49,0,0,1-.44-.48l0-5.11a.46.46,0,0,1,.17-.36.45.45,0,0,1,.37-.12l9.54,1.08a.48.48,0,0,1,.43.48l0,5.11a.48.48,0,0,1-.49.48Zm-9-2,8.56,1V261.2l-8.56-1Z"/><path class="cls-5" d="M899.9,282.88h0l-9.45-1.07a.48.48,0,0,1-.43-.48l0-5.11a.48.48,0,0,1,.16-.36.51.51,0,0,1,.38-.12l9.45,1.07a.48.48,0,0,1,.43.48l0,5.11a.48.48,0,0,1-.49.48Zm-9-2,8.48,1v-4.12l-8.47-1Z"/><path class="cls-5" d="M899.69,274.44h-.05l-9-1a.49.49,0,0,1-.43-.49l0-5.1a.52.52,0,0,1,.16-.37.51.51,0,0,1,.38-.12l9,1a.5.5,0,0,1,.43.49l0,5.1a.52.52,0,0,1-.16.37A.5.5,0,0,1,899.69,274.44Zm-8.54-1.94,8.06.91v-4.13l-8.05-.91Z"/><path class="cls-5" d="M899.59,317.08h-.05L890,316a.5.5,0,0,1-.44-.49l0-4.9a.48.48,0,0,1,.16-.36.45.45,0,0,1,.38-.12l9.54,1.07a.5.5,0,0,1,.44.49l0,4.9a.46.46,0,0,1-.17.36A.48.48,0,0,1,899.59,317.08Zm-9.05-2,8.57,1v-3.92l-8.57-1Z"/><path class="cls-5" d="M899.81,308.44h-.06l-9.44-1.06a.5.5,0,0,1-.44-.49l0-5.1a.5.5,0,0,1,.17-.37.5.5,0,0,1,.37-.12l9.45,1.07a.49.49,0,0,1,.43.49l0,5.1a.48.48,0,0,1-.16.36A.47.47,0,0,1,899.81,308.44Zm-9-2,8.47,1,0-4.12-8.48-1Z"/><path class="cls-5" d="M899.6,300h-.05l-9-1a.5.5,0,0,1-.43-.49l0-5.1a.48.48,0,0,1,.54-.48l9,1a.48.48,0,0,1,.44.48l0,5.11a.46.46,0,0,1-.17.36A.47.47,0,0,1,899.6,300Zm-8.54-1.94,8.05.91,0-4.12-8.06-.91Z"/><path class="cls-5" d="M899.41,366.86h-.06l-9.54-1.07a.5.5,0,0,1-.43-.49l0-4.9a.48.48,0,0,1,.54-.48l9.54,1.07a.49.49,0,0,1,.43.49v4.9a.49.49,0,0,1-.17.36A.48.48,0,0,1,899.41,366.86Zm-9-2,8.56,1,0-3.93-8.57-1Z"/><path class="cls-5" d="M899.51,324.87h-.06l-9.36-1.06a.47.47,0,0,1-.43-.48l0-5.11a.5.5,0,0,1,.16-.36.51.51,0,0,1,.38-.12l9.36,1.06a.48.48,0,0,1,.43.48v5.11a.46.46,0,0,1-.17.36A.47.47,0,0,1,899.51,324.87Zm-8.88-2,8.39.94,0-4.12-8.39-1Z"/><path class="cls-5" d="M899.53,333.3h-.06l-9.53-1.07a.49.49,0,0,1-.43-.49l0-5.1a.48.48,0,0,1,.16-.36.44.44,0,0,1,.38-.12l9.53,1.07a.48.48,0,0,1,.43.49v5.1a.46.46,0,0,1-.17.36A.48.48,0,0,1,899.53,333.3Zm-9-2,8.56,1,0-4.12-8.56-1Z"/><path class="cls-5" d="M899.45,341.71h-.06l-9.53-1.07a.49.49,0,0,1-.43-.49l0-5.1a.48.48,0,0,1,.16-.36.44.44,0,0,1,.38-.12l9.53,1.07a.49.49,0,0,1,.43.49l0,5.1a.49.49,0,0,1-.48.49Zm-9.05-2,8.56,1,0-4.12-8.56-1Z"/><path class="cls-5" d="M899.63,358.23h-.06l-9.45-1.06a.5.5,0,0,1-.43-.49l0-5.1a.48.48,0,0,1,.16-.36.45.45,0,0,1,.38-.12l9.45,1.06a.49.49,0,0,1,.43.49l0,5.1a.48.48,0,0,1-.16.36A.5.5,0,0,1,899.63,358.23Zm-9-2,8.47.95,0-4.12-8.48-1Z"/><path class="cls-5" d="M899.42,349.78h-.06l-9-1a.49.49,0,0,1-.43-.48l0-5.11a.48.48,0,0,1,.54-.48l9,1a.49.49,0,0,1,.43.48l0,5.11a.48.48,0,0,1-.16.36A.47.47,0,0,1,899.42,349.78Zm-8.54-1.94,8,.91,0-4.12-8.06-.91Z"/><path class="cls-5" d="M848.58,218.06h-.06l-47.14-5.32a.47.47,0,0,1-.43-.48l0-4.91a.5.5,0,0,1,.16-.36.51.51,0,0,1,.38-.12l47.14,5.32a.49.49,0,0,1,.43.49v4.9a.49.49,0,0,1-.17.36A.48.48,0,0,1,848.58,218.06Zm-46.66-6.24,46.17,5.2,0-3.92-46.17-5.21Z"/><path class="cls-5" d="M857.93,227.63h0L808.19,222a.49.49,0,0,1-.44-.48l0-5.11a.48.48,0,0,1,.16-.36.5.5,0,0,1,.38-.12l49.7,5.61a.48.48,0,0,1,.43.48l0,5.11a.48.48,0,0,1-.49.48Zm-49.2-6.53,48.72,5.5v-4.13L808.74,217Z"/><path class="cls-5" d="M872,237.63h-.06L814,231.1a.49.49,0,0,1-.43-.49l0-5.1a.48.48,0,0,1,.16-.36.47.47,0,0,1,.38-.12l57.89,6.53a.48.48,0,0,1,.43.49v5.1a.46.46,0,0,1-.17.36A.47.47,0,0,1,872,237.63Zm-57.41-7.45,56.92,6.42,0-4.12-56.92-6.42Z"/><path class="cls-5" d="M880.46,247h-.06l-48.31-5.45a.5.5,0,0,1-.43-.49l0-5.1a.48.48,0,0,1,.54-.49l48.31,5.46a.48.48,0,0,1,.44.48l0,5.11a.49.49,0,0,1-.49.48Zm-47.82-6.37L880,246l0-4.13-47.34-5.34Z"/><path class="cls-5" d="M839.37,284.37h0l-38.19-4.31a.5.5,0,0,1-.43-.49l0-4.9a.48.48,0,0,1,.54-.48l38.19,4.31a.48.48,0,0,1,.43.48l0,4.91a.48.48,0,0,1-.49.48Zm-37.69-5.23,37.21,4.2v-3.92l-37.21-4.2Z"/><path class="cls-5" d="M841,293.08H841l-27.92-3.15a.49.49,0,0,1-.43-.49l0-5.1a.52.52,0,0,1,.16-.37.51.51,0,0,1,.38-.12L841.11,287a.49.49,0,0,1,.43.49v5.1a.53.53,0,0,1-.17.37A.47.47,0,0,1,841,293.08ZM813.6,289l26.95,3,0-4.13-27-3Z"/><path class="cls-5" d="M852.09,302.75H852l-26.73-3a.49.49,0,0,1-.43-.49l0-5.1a.52.52,0,0,1,.16-.37.51.51,0,0,1,.38-.12l26.73,3a.5.5,0,0,1,.43.49l0,5.1a.48.48,0,0,1-.16.36A.51.51,0,0,1,852.09,302.75Zm-26.24-3.94,25.76,2.9v-4.12l-25.75-2.91Z"/><path class="cls-5" d="M870.85,313.28h-.06L837,309.46a.48.48,0,0,1-.43-.48v-5.11a.46.46,0,0,1,.17-.36.47.47,0,0,1,.38-.12l33.82,3.82a.46.46,0,0,1,.43.48v5.11a.49.49,0,0,1-.49.48Zm-33.34-4.74,32.85,3.71,0-4.13-32.85-3.7Z"/><path class="cls-5" d="M836.06,250.42h0l-34.14-3.85a.49.49,0,0,1-.43-.49l0-5.1a.52.52,0,0,1,.16-.37.51.51,0,0,1,.38-.12l34.14,3.86a.48.48,0,0,1,.43.48l0,5.11a.48.48,0,0,1-.49.48Zm-33.65-4.77,33.17,3.74v-4.13l-33.16-3.74Z"/><path class="cls-5" d="M879.55,263.75h0l-52.76-5.95a.49.49,0,0,1-.43-.48l0-5.11a.48.48,0,0,1,.54-.48l52.76,6a.5.5,0,0,1,.43.49l0,5.1a.48.48,0,0,1-.16.36A.51.51,0,0,1,879.55,263.75Zm-52.26-6.88,51.78,5.85v-4.13l-51.78-5.84Z"/><path class="cls-5" d="M836.43,267.29h-.06l-34.14-3.85a.49.49,0,0,1-.43-.48l0-5.11a.48.48,0,0,1,.54-.48l34.14,3.85a.5.5,0,0,1,.44.49l0,5.1a.46.46,0,0,1-.17.36A.48.48,0,0,1,836.43,267.29Zm-33.65-4.78,33.16,3.75,0-4.13-33.17-3.74Z"/><path class="cls-5" d="M879.92,280.61h-.06l-52.75-5.95a.49.49,0,0,1-.43-.49l0-5.1a.48.48,0,0,1,.16-.36.44.44,0,0,1,.38-.12l52.75,6a.49.49,0,0,1,.43.48l0,5.11a.48.48,0,0,1-.16.36A.47.47,0,0,1,879.92,280.61Zm-52.27-6.87,51.78,5.84,0-4.12-51.78-5.85Z"/><path class="cls-5" d="M843.52,318.52h-.06L801,313.72a.47.47,0,0,1-.43-.48l0-4.91a.5.5,0,0,1,.16-.36.51.51,0,0,1,.38-.12l42.45,4.79a.5.5,0,0,1,.43.49l0,4.9a.48.48,0,0,1-.16.36A.5.5,0,0,1,843.52,318.52Zm-42-5.72L843,317.48v-3.92l-41.47-4.68Z"/><path class="cls-5" d="M872.07,330.26H872l-69.32-7.82a.49.49,0,0,1-.43-.48l0-5.11a.48.48,0,0,1,.16-.36.53.53,0,0,1,.38-.12l69.32,7.82a.49.49,0,0,1,.43.49l0,5.1a.49.49,0,0,1-.48.49Zm-68.83-8.75,68.34,7.71,0-4.12-68.35-7.71Z"/><path class="cls-5" d="M872.89,338.77h-.06L833,334.28a.5.5,0,0,1-.44-.49l0-5.1a.5.5,0,0,1,.17-.37.51.51,0,0,1,.38-.12L873,332.69a.48.48,0,0,1,.43.49v5.1a.5.5,0,0,1-.17.37A.53.53,0,0,1,872.89,338.77Zm-39.31-5.41,38.82,4.38,0-4.13-38.82-4.38Z"/><path class="cls-5" d="M858.31,354h0l-45.84-5.17a.48.48,0,0,1-.43-.49v-5.1a.49.49,0,0,1,.17-.36.44.44,0,0,1,.38-.12l45.84,5.17a.48.48,0,0,1,.43.48l0,5.11a.48.48,0,0,1-.16.36A.5.5,0,0,1,858.31,354ZM813,347.87l44.87,5.06v-4.12L813,343.74Z"/><path class="cls-5" d="M881.82,347.53h-.06l-38.17-4.31a.5.5,0,0,1-.43-.49l0-5.1a.48.48,0,0,1,.54-.48l38.17,4.3a.48.48,0,0,1,.43.49V347a.5.5,0,0,1-.17.37A.47.47,0,0,1,881.82,347.53Zm-37.68-5.23,37.19,4.2,0-4.13-37.2-4.19Z"/><path class="cls-5" d="M867.24,363.39h-.06l-36.11-4.08a.49.49,0,0,1-.43-.48l0-5.11a.48.48,0,0,1,.16-.36.47.47,0,0,1,.38-.12l36.11,4.07a.48.48,0,0,1,.43.49v5.1a.5.5,0,0,1-.17.37A.47.47,0,0,1,867.24,363.39Zm-35.63-5,35.14,4,0-4.13-35.14-4Z"/><path d="M804.86,258.28c5.59,1.16,9.37,5.89,8.58,10.76s-6,8.21-11.68,7.48L694.31,262.68c-8.34-1.08-14.49-7.69-13.88-14.93a12.42,12.42,0,0,1,6-9.43,17,17,0,0,1,12.34-2Z"/><path class="cls-5" d="M803.37,277.11a13.8,13.8,0,0,1-1.68-.11L694.25,263.16c-8.67-1.11-15-7.9-14.3-15.45a12.88,12.88,0,0,1,6.25-9.81,17.5,17.5,0,0,1,12.69-2.09L805,257.8c5.85,1.22,9.79,6.18,9,11.31C813.15,273.82,808.67,277.11,803.37,277.11ZM695.15,236.4a16,16,0,0,0-8.43,2.33,11.93,11.93,0,0,0-5.8,9.06c-.6,7,5.31,13.36,13.45,14.41L801.82,276c5.48.71,10.38-2.4,11.14-7.07s-2.86-9.1-8.2-10.21l-106.06-22A17.82,17.82,0,0,0,695.15,236.4Z"/><path d="M724.79,373.82a24.19,24.19,0,1,1-48.19,3.44l1-125.7a17.12,17.12,0,0,1,34.1-2.43Z"/><path class="cls-5" d="M700.8,401.45a24.68,24.68,0,0,1-24.68-24.18l1-125.72a17.6,17.6,0,0,1,35.07-2.48l13.09,124.7a24.69,24.69,0,0,1-22.6,27.61C702.05,401.43,701.43,401.45,700.8,401.45Zm-6.06-166.87c-.43,0-.86,0-1.3,0a16.65,16.65,0,0,0-15.35,16.92l-1,125.71a23.7,23.7,0,1,0,47.22-3.38h0l-13.1-124.69A16.6,16.6,0,0,0,694.74,234.58Z"/><circle class="cls-5" cx="699.95" cy="375.39" r="14.55" transform="matrix(0.22, -0.98, 0.98, 0.22, 181.23, 976.87)"/><circle class="cls-5" cx="694.86" cy="250.89" r="9.75" transform="translate(295.64 872.49) rotate(-77.14)"/><path class="cls-5" d="M700.48,395.89a19.66,19.66,0,0,1-4.29-.48,19.93,19.93,0,0,1-4.45-1.56.49.49,0,0,1-.22-.66.48.48,0,0,1,.65-.22,18.4,18.4,0,0,0,4.24,1.49A18.83,18.83,0,0,0,717.08,385a.48.48,0,0,1,.66-.2.5.5,0,0,1,.2.66A19.84,19.84,0,0,1,700.48,395.89Z"/><path class="cls-5" d="M719.27,380.61h-.07a.48.48,0,0,1-.41-.55,18.8,18.8,0,0,0-1.34-9.77.49.49,0,0,1,.26-.64.48.48,0,0,1,.64.26,19.68,19.68,0,0,1,1.4,10.28A.49.49,0,0,1,719.27,380.61Z"/><path class="cls-5" d="M701,262.73a.49.49,0,0,1-.43-.26.5.5,0,0,1,.2-.66,12.38,12.38,0,0,0,5.65-6.35.49.49,0,0,1,.91.36,13.42,13.42,0,0,1-6.1,6.85A.46.46,0,0,1,701,262.73Z"/><path class="cls-5" d="M707.13,247.4a.49.49,0,0,1-.47-.34,12.41,12.41,0,0,0-18.83-6.4.49.49,0,1,1-.55-.8,13.37,13.37,0,0,1,20.31,6.9.49.49,0,0,1-.31.61Z"/><polygon class="cls-5" points="823.92 331.65 843.67 321.05 849.22 326.75 856.85 340.98 858.66 348.99 838.92 359.59 823.92 331.65"/><path class="cls-5" d="M838.92,360.08l-.14,0a.49.49,0,0,1-.29-.24l-15-27.94a.49.49,0,0,1,.19-.66l19.75-10.6a.47.47,0,0,1,.57.09l5.56,5.7a.44.44,0,0,1,.08.11l7.63,14.23a.61.61,0,0,1,.05.12l1.81,8a.47.47,0,0,1-.25.53L839.15,360A.46.46,0,0,1,838.92,360.08Zm-14.34-28.23,14.54,27.08,19-10.19-1.72-7.59L848.82,327l-5.25-5.39Z"/><path class="cls-5" d="M914.8,236A57.05,57.05,0,1,0,992,259.31,57.07,57.07,0,0,0,914.8,236Zm72.74,25.69a52,52,0,1,1-70.33-21.2A52,52,0,0,1,987.54,261.72Z"/><path class="cls-5" d="M823.42,356.73a5.39,5.39,0,0,1-7.3-2.2l-.58-1.08a5.39,5.39,0,0,1,2.2-7.3L886,309.48l5.68,10.59Z"/><path d="M852.18,332.31a.46.46,0,0,1-.43-.26.49.49,0,0,1,.2-.66l5.71-3.06a.49.49,0,0,1,.66.19.5.5,0,0,1-.2.66l-5.71,3.07A.53.53,0,0,1,852.18,332.31Z"/><rect class="cls-5" x="870.47" y="313.26" width="10.24" height="18.01" rx="2.99" transform="translate(-48.31 452.34) rotate(-28.22)"/><path d="M876.56,332.05a3.5,3.5,0,0,1-3.06-1.83h0l-5.69-10.61a3.47,3.47,0,0,1,1.41-4.7l3.76-2a3.45,3.45,0,0,1,2.65-.26,3.39,3.39,0,0,1,2,1.68l5.7,10.6a3.49,3.49,0,0,1-1.42,4.71l-3.76,2A3.5,3.5,0,0,1,876.56,332.05Zm-2.2-2.29a2.45,2.45,0,0,0,1.48,1.21,2.51,2.51,0,0,0,1.9-.19l3.76-2a2.51,2.51,0,0,0,1-3.39l-5.69-10.6a2.51,2.51,0,0,0-3.39-1l-3.75,2a2.51,2.51,0,0,0-1,3.39Z"/><path class="cls-5" d="M982.27,265a.49.49,0,0,1-.43-.26,45.46,45.46,0,0,0-8.2-10.95.49.49,0,0,1,.68-.7,46.73,46.73,0,0,1,8.38,11.19.48.48,0,0,1-.2.66A.46.46,0,0,1,982.27,265Z"/><path class="cls-5" d="M920.32,327.41a.48.48,0,0,1-.23-.05,46.48,46.48,0,1,1,50.46-77.62.49.49,0,1,1-.61.76,45.51,45.51,0,1,0-49.39,76,.48.48,0,0,1-.23.91Z"/><path class="cls-5" d="M793.33,268.48a10.32,10.32,0,0,1,4.36-14.35,11.41,11.41,0,0,1,15.56,5.57l31.45,70.66-12.58,6.3Z"/><path class="cls-5" d="M832.12,337.14a.5.5,0,0,1-.42-.24l-38.79-68.18a10.83,10.83,0,0,1,4.56-15,11.92,11.92,0,0,1,16.22,5.81l31.45,70.66a.47.47,0,0,1-.23.63l-12.57,6.3A.42.42,0,0,1,832.12,337.14Zm-38.37-68.9L832.32,336l11.74-5.88L812.8,259.9a10.94,10.94,0,0,0-14.9-5.34,9.86,9.86,0,0,0-4.15,13.68Z"/><path d="M792.86,269.9a10.34,10.34,0,0,1,4.35-14.36,11.43,11.43,0,0,1,15.57,5.58l31.44,70.66-12.57,6.29Z"/><path class="cls-5" d="M831.65,338.56a.48.48,0,0,1-.42-.25l-38.79-68.17a10.82,10.82,0,0,1,4.56-15,11.9,11.9,0,0,1,16.22,5.81l31.45,70.66a.47.47,0,0,1-.23.63l-12.57,6.3A.54.54,0,0,1,831.65,338.56Zm-38.37-68.9,38.57,67.77,11.74-5.88-31.26-70.23a10.94,10.94,0,0,0-14.9-5.34,9.86,9.86,0,0,0-4.15,13.68Z"/><polygon points="823.83 330.97 843.86 320.94 845.08 328.71 852.08 342.7 858.06 349.3 838.03 359.33 832.57 353.78 824.85 338.35 823.83 330.97"/><path class="cls-5" d="M838,359.82a.47.47,0,0,1-.35-.15l-5.46-5.55a.83.83,0,0,1-.08-.12l-7.73-15.43a.88.88,0,0,1,0-.15l-1-7.38a.47.47,0,0,1,.26-.5l20-10a.49.49,0,0,1,.44,0,.47.47,0,0,1,.26.35l1.21,7.7,6.94,13.86,5.93,6.55a.49.49,0,0,1,.12.42.48.48,0,0,1-.26.34l-20,10A.54.54,0,0,1,838,359.82ZM833,353.49l5.15,5.25,19.15-9.59L851.72,343l-.07-.11-7-14a.57.57,0,0,1,0-.14l-1.12-7.12-19.12,9.58,1,6.95Z"/><circle class="cls-5" cx="803.01" cy="265.71" r="4.18" transform="translate(-0.38 1.16) rotate(-0.08)"/><path class="cls-5" d="M848.69,347.63l-9.06,4.54Z"/><path class="cls-5" d="M839.63,352.65a.49.49,0,0,1-.22-.92l9.06-4.54a.49.49,0,0,1,.43.87l-9.06,4.54A.41.41,0,0,1,839.63,352.65Z"/><path class="cls-5" d="M840.13,331.14l-9.06,4.54Z"/><path class="cls-5" d="M831.07,336.17a.48.48,0,0,1-.43-.27.5.5,0,0,1,.22-.66l9.06-4.54a.48.48,0,0,1,.65.22.5.5,0,0,1-.22.66l-9.06,4.53A.43.43,0,0,1,831.07,336.17Z"/><path class="cls-5" d="M803,273a7.23,7.23,0,0,1-2.29-.38,7.36,7.36,0,0,1-1.53-.71.49.49,0,1,1,.51-.83,6.36,6.36,0,0,0,1.32.62,6.2,6.2,0,0,0,4.1-.05.49.49,0,1,1,.33.92A7.34,7.34,0,0,1,803,273Z"/><path class="cls-5" d="M796.34,267.3a.48.48,0,0,1-.48-.41,7.25,7.25,0,0,1,6.44-8.4.48.48,0,0,1,.53.44.48.48,0,0,1-.43.53,6.29,6.29,0,0,0-5.58,7.27.49.49,0,0,1-.4.56Z"/><path d="M873,232.57c-1.43-4.73-1.19-7.71.11-10.82l2.19-4.35-6.58-2.64-2,5A14.13,14.13,0,0,1,863.9,224l-1.09,1.15Z"/><path class="cls-5" d="M873,233.06a.46.46,0,0,1-.29-.1l-10.15-7.39a.48.48,0,0,1-.07-.72l1.09-1.16a13.4,13.4,0,0,0,2.67-4.16l2-4.95a.48.48,0,0,1,.63-.27l6.58,2.64a.44.44,0,0,1,.27.28.48.48,0,0,1,0,.39L873.52,222c-1.13,2.69-1.58,5.52-.08,10.46a.49.49,0,0,1-.19.54A.47.47,0,0,1,873,233.06Zm-9.42-7.95,8.57,6.24a14.29,14.29,0,0,1,.51-9.78l2-3.91L869,215.39l-1.84,4.51a14.36,14.36,0,0,1-2.86,4.46Z"/><path class="cls-5" d="M865.79,222.76a.72.72,0,0,0-1.21-.24,32.59,32.59,0,0,1-4.24,3.91,3.09,3.09,0,0,0-1,4,120.33,120.33,0,0,0,12.79,18.77,2.18,2.18,0,0,0,2.66.43c4.53-2,.23-11.24-2.23-20.82a1,1,0,0,0-.78-.74l-1.37-.25C867.92,227.31,866.86,226.12,865.79,222.76Z"/><path d="M860.65,226.22l-.31.21a3.09,3.09,0,0,0-1,4,120.33,120.33,0,0,0,12.79,18.77,2.18,2.18,0,0,0,2.66.43,6.33,6.33,0,0,0,1-.7l-.37-.47a174.18,174.18,0,0,1-14.28-21.22Z"/><path class="cls-5" d="M873.72,250.36a2.54,2.54,0,0,1-1.92-.85A120.33,120.33,0,0,1,859,230.65a3.58,3.58,0,0,1,1.11-4.62l.31-.21a.5.5,0,0,1,.39-.07.48.48,0,0,1,.31.23l.57,1a174.47,174.47,0,0,0,14.24,21.17l.37.47a.49.49,0,0,1-.07.68,6.16,6.16,0,0,1-1.15.76A3.21,3.21,0,0,1,873.72,250.36Zm-13.23-23.43a2.59,2.59,0,0,0-.68,3.26,118.77,118.77,0,0,0,12.73,18.69,1.69,1.69,0,0,0,2.09.29,3.33,3.33,0,0,0,.55-.33l-.06-.09a174,174,0,0,1-14.32-21.28Z"/><path d="M874.48,236.45h-.08l-4.54-.76a.48.48,0,0,1-.4-.56.49.49,0,0,1,.56-.4l4.54.76a.5.5,0,0,1,.4.56A.49.49,0,0,1,874.48,236.45Z"/><path d="M875.21,239h-.07l-3.71-.55a.49.49,0,0,1,.15-1l3.7.55a.49.49,0,0,1,.41.56A.48.48,0,0,1,875.21,239Z"/><path d="M835.9,164s45.66-10,59.58-2.09a9.78,9.78,0,0,1,4.52,6.07c1.34,7.23-2.68,23-24.68,52.56a1.17,1.17,0,0,1-1.35.4l-7-2.65a1.17,1.17,0,0,1-.71-1.41l9.32-32.61a1.23,1.23,0,0,0-1.34-1.56L830.75,188Z"/><path class="cls-5" d="M874.38,221.45a1.46,1.46,0,0,1-.58-.11l-7-2.64a1.67,1.67,0,0,1-1-2l9.32-32.61a.75.75,0,0,0-.81-1l-43.51,5.35a.48.48,0,0,1-.42-.16.48.48,0,0,1-.12-.43l5.16-24.05a.47.47,0,0,1,.37-.37c1.87-.42,46-10,59.92-2a10.27,10.27,0,0,1,4.76,6.41c1.09,5.86-.69,20.54-24.77,52.93A1.66,1.66,0,0,1,874.38,221.45Zm0-39.29a1.74,1.74,0,0,1,1.3.6,1.71,1.71,0,0,1,.35,1.59L866.75,217a.7.7,0,0,0,.41.82l7,2.64a.67.67,0,0,0,.79-.23c23.86-32.1,25.65-46.47,24.59-52.18a9.21,9.21,0,0,0-4.28-5.73c-13-7.41-54.92,1.22-58.93,2.07l-4.94,23.08,42.83-5.26Z"/><path d="M849.39,249.93l.89,4.26a9.36,9.36,0,0,1-3.32,9.35l13.37,1.63s-2.92-1.78-2.33-10.37l.77-7.19Z"/><path class="cls-5" d="M860.33,265.65h-.06L846.9,264a.49.49,0,0,1-.42-.36.49.49,0,0,1,.2-.52,8.8,8.8,0,0,0,3.12-8.86l-.89-4.25a.5.5,0,0,1,.36-.57l9.38-2.33a.5.5,0,0,1,.44.11.47.47,0,0,1,.16.42l-.76,7.19c-.56,8.08,2.07,9.89,2.1,9.91a.48.48,0,0,1,.19.57A.47.47,0,0,1,860.33,265.65Zm-12.25-2.46,11,1.34c-.87-1.33-2-4.16-1.58-9.77l.69-6.51-8.25,2,.8,3.8A10,10,0,0,1,848.08,263.19Z"/><path class="cls-5" d="M849.11,257.82a62.93,62.93,0,0,0-4.63,6c-1,1.44-.39,3.11.64,4.5,2.11,2.83,5,5,8.39,7.25a75.29,75.29,0,0,0,10.27,5.84c1.08.5,3.52,1.17,5.15.36,4.93-2.46-3.29-10.16-9.75-19a1.11,1.11,0,0,0-1.11-.44l-1.51.3a3.78,3.78,0,0,1-3.91-1.61l-2-3A.94.94,0,0,0,849.11,257.82Z"/><path d="M845.27,262.7s-.72,1-.79,1.08A3.25,3.25,0,0,0,844,265a4.5,4.5,0,0,0,1.21,3.85c.24.25.56.56.94.92a61.33,61.33,0,0,0,12.94,9.4c2.38,1.31,7.67,4,9.83,2.57A4,4,0,0,0,870,280s-1.26.76-5.07-1.13c-6.42-3.19-10.78-6.78-16.08-11.06a16.67,16.67,0,0,1-2.51-2.54A5.12,5.12,0,0,1,845.27,262.7Z"/><path class="cls-5" d="M867.32,282.61c-1.94,0-4.77-1-8.46-3a61.8,61.8,0,0,1-13-9.48c-.38-.36-.71-.68-1-.94a4.91,4.91,0,0,1-1.33-4.26,3.44,3.44,0,0,1,.53-1.4c.08-.12.69-.94.81-1.1a.49.49,0,0,1,.52-.18.48.48,0,0,1,.35.41,4.54,4.54,0,0,0,1,2.28,15,15,0,0,0,2.44,2.47l.51.41c5,4,9.31,7.53,15.48,10.59,3.41,1.7,4.61,1.15,4.62,1.14a.51.51,0,0,1,.54.07.49.49,0,0,1,.16.51,4.35,4.35,0,0,1-1.28,2A3.47,3.47,0,0,1,867.32,282.61ZM845,263.83l-.16.22a2.84,2.84,0,0,0-.39,1,4,4,0,0,0,1.09,3.42c.23.24.54.55.91.9a61.25,61.25,0,0,0,12.84,9.34c6.3,3.44,8.56,3.09,9.34,2.58a2,2,0,0,0,.55-.72,10,10,0,0,1-4.49-1.33c-6.27-3.12-10.62-6.64-15.67-10.71l-.51-.42a16.29,16.29,0,0,1-2.58-2.6A5.48,5.48,0,0,1,845,263.83Z"/><path d="M858,269.36a.49.49,0,0,1-.1-1l5-1.08a.5.5,0,0,1,.58.37.49.49,0,0,1-.38.58l-5,1.08Z"/><path d="M860.73,271.6a.48.48,0,0,1-.47-.37.49.49,0,0,1,.36-.59l4-.95a.47.47,0,0,1,.58.36.48.48,0,0,1-.36.58l-4,1Z"/><path d="M865.45,177c-13.31-11.37-56.12-11.73-56.12-11.73s-5.34,6.38-2.79,19.2c.84,4.23,3.83,8,8.56,8l26.26.23a3.41,3.41,0,0,1,3.38,3.54c-.49,12.69-.92,38.94,2.71,56.82a1.93,1.93,0,0,0,1.4,1.5,32.49,32.49,0,0,0,8.53,1.14,2.25,2.25,0,0,0,2.19-1.95l8.71-65a19.78,19.78,0,0,0-.06-5.9A9.77,9.77,0,0,0,865.45,177Z"/><path class="cls-5" d="M857.05,256.21a33,33,0,0,1-8.32-1.16,2.42,2.42,0,0,1-1.76-1.87c-3.59-17.68-3.24-43.26-2.72-56.94a2.88,2.88,0,0,0-.8-2.13,2.92,2.92,0,0,0-2.09-.91L815.09,193c-5.42,0-8.25-4.53-9-8.41-2.57-12.91,2.68-19.35,2.9-19.61a.57.57,0,0,1,.38-.18c1.75,0,43.14.49,56.42,11.85,1.48,1.27,2.47,3.33,2.94,6.12a20.31,20.31,0,0,1,.06,6l-8.71,65a2.75,2.75,0,0,1-2.66,2.38Zm-47.48-90.45c-.79,1.11-4.79,7.35-2.55,18.61.7,3.53,3.24,7.64,8.08,7.64l26.27.22a3.91,3.91,0,0,1,3.86,4.05c-.53,13.63-.88,39.13,2.69,56.71a1.47,1.47,0,0,0,1.06,1.12,32.18,32.18,0,0,0,8.39,1.13,1.78,1.78,0,0,0,1.72-1.54l8.71-65a19.1,19.1,0,0,0-.06-5.76,9.08,9.08,0,0,0-2.61-5.54C852.63,166.68,813.07,165.81,809.57,165.76Z"/><path d="M856.39,135.22l3.52,6.76c3.42,6.15,8.92,10.22,15,13.75l2.47,1.43a8.17,8.17,0,0,0,5.23,1l.28,0a11.41,11.41,0,0,1,7.89,1.85l-6.13,2.35a15.2,15.2,0,0,1-11.57-.24c-3.52-1.54-11.43-3.43-15.17-7.78-7.82-9.11-7.52-11.13-7.52-11.13Z"/><path class="cls-5" d="M879.12,163.89a15.56,15.56,0,0,1-6.24-1.31c-.82-.36-1.87-.74-3.09-1.17-3.93-1.41-9.31-3.33-12.25-6.74-7.58-8.84-7.68-11.15-7.63-11.53a.6.6,0,0,1,.09-.22l6-8a.48.48,0,0,1,.43-.19.47.47,0,0,1,.39.26l3.52,6.75c3.59,6.46,9.51,10.48,14.82,13.56l2.46,1.43a7.81,7.81,0,0,0,4.93,1l.28,0a11.84,11.84,0,0,1,8.22,1.94.47.47,0,0,1,.21.46.5.5,0,0,1-.3.4l-6.14,2.35A15.93,15.93,0,0,1,879.12,163.89Zm-28.23-20.52c.08.47.8,3,7.39,10.66,2.77,3.22,8,5.09,11.84,6.46,1.23.44,2.3.82,3.15,1.2a14.63,14.63,0,0,0,11.2.23l5.22-2a10.93,10.93,0,0,0-6.73-1.27l-.28,0a8.78,8.78,0,0,1-5.54-1.11l-2.47-1.43c-5.43-3.14-11.47-7.26-15.19-13.94l-3.16-6.08Z"/><path class="cls-5" d="M838.55,167.84s.45.91-11.43,2.63a82.43,82.43,0,0,1-20,.29,2,2,0,0,1-1.72-2.45,119,119,0,0,1,5.38-17.21c2.57-6.79-1.34-19.18,6.66-26.54,13.49-12.42,32.1,3.43,32.1,3.43l5.85,8.59a87.82,87.82,0,0,0-15.56,26.54Z"/><path d="M833.55,144.18a.48.48,0,0,1-.48-.44l-1-9.35a.5.5,0,0,1,.44-.54.49.49,0,0,1,.53.44l1,9.35a.47.47,0,0,1-.43.53Z"/><path d="M821.18,149.32a.49.49,0,0,1-.43-.26c-2.19-4.18-5-15.1-5-17.44a.5.5,0,0,1,.48-.5.48.48,0,0,1,.5.47c0,2.22,2.81,13,4.89,17a.49.49,0,0,1-.43.72Z"/><path class="cls-5" d="M896.79,160.88l-31.7,2.41,17.42-31.49a4,4,0,0,1,3.25-2.07l25.73-2a2,2,0,0,1,2,3Z"/><ellipse cx="890.57" cy="146.17" rx="2.78" ry="1.49" transform="translate(94.37 571.08) rotate(-37.41)"/><path class="cls-5" d="M895.25,162.92l-49.74,3.79a1.87,1.87,0,0,1-2-1.72l-.08-.28,53.46-4.08.08.28A1.87,1.87,0,0,1,895.25,162.92Z"/><path d="M869.87,157.18l-6.47-2.24a2.93,2.93,0,0,0-2.82.51l-3,2.49a2.93,2.93,0,0,1-2.05.66c-3.24-.22-18.33-4.34-19.48-7.08a47.49,47.49,0,0,1-1.74-5.07l-11.7,4.09s.19,3.62,4.95,8.47c4.05,4.13,14.49,5.52,28.86,4.65a9.29,9.29,0,0,0,5.52-3.34c1.61-1.92,5.53-.93,7.85-1.5A.86.86,0,0,0,869.87,157.18Z"/><path class="cls-5" d="M848.81,164.39c-10.94,0-18.34-1.71-21.6-5-4.83-4.93-5.08-8.63-5.09-8.78a.49.49,0,0,1,.33-.49l11.7-4.09a.53.53,0,0,1,.39,0,.45.45,0,0,1,.24.3,50.7,50.7,0,0,0,1.71,5c1,2.35,15.68,6.56,19.07,6.78a2.37,2.37,0,0,0,1.71-.55l3-2.48a3.46,3.46,0,0,1,3.29-.6l6.47,2.24a1.34,1.34,0,0,1-.12,2.57,13.73,13.73,0,0,1-3,.23c-1.83,0-3.72,0-4.62,1.11a9.77,9.77,0,0,1-5.84,3.52Q852.4,164.39,848.81,164.39Zm-25.66-13.52c.19,1,1,4,4.75,7.8s13.63,5.4,28.49,4.51a9,9,0,0,0,5.18-3.17c1.19-1.43,3.31-1.44,5.37-1.46a12.61,12.61,0,0,0,2.74-.21.36.36,0,0,0,0-.7l-6.47-2.24a2.46,2.46,0,0,0-2.35.43l-3,2.48a3.35,3.35,0,0,1-2.39.77c-3-.2-18.59-4.25-19.9-7.37a44.21,44.21,0,0,1-1.61-4.63Z"/><path class="cls-5" d="M847.92,127.13c8,4.28,11.23,10.57,15.42,16.18-3,2.66-6.47,6.28-8.76,8.85-2.15-1.66-4.87-3.33-6.85-5.71Z"/><path d="M838,111.57l0,8.75a2.81,2.81,0,0,0,1.89,2.51l1.67.71c.42.19-1.12,2.52-8,1.47a17.38,17.38,0,0,1-7.34-3l-1.6-1.11c1.11-.17,4.15-1,4.43-2.07l2.53-11.39Z"/><path class="cls-5" d="M836.74,125.76a21.51,21.51,0,0,1-3.27-.27,18,18,0,0,1-7.54-3l-1.6-1.11a.49.49,0,0,1-.2-.51.48.48,0,0,1,.4-.37c1.48-.22,3.88-1.07,4-1.71l2.53-11.38a.46.46,0,0,1,.28-.34.51.51,0,0,1,.45,0l6.41,4.09a.49.49,0,0,1,.23.41l0,8.75a2.3,2.3,0,0,0,1.56,2.05l1.7.73a.62.62,0,0,1,.33.77C841.79,124.72,840.15,125.76,836.74,125.76Zm-10.94-4.58.69.48a17.11,17.11,0,0,0,7.13,2.87c4.69.72,6.71-.21,7.3-.71l-1.26-.55a3.22,3.22,0,0,1-2.18-2.93v-8.51l-5.59-3.56L829.52,119C829.22,120.13,827.13,120.84,825.8,121.18Z"/><path class="cls-5" d="M849.65,101.7c-1.9-1.43-.78,2.25-6.65-4.74-2.34-2.78-3.14,1.59-3.75.87-2.25-2.66-2.17-2.57-3.77-3.12-1.06-.36-2.75.91-3.41,2.26-.87,1.79.19,3.11-.92,7.36-.79,3-2,4.33-1.24,5.33s2.35.18,3.25,1.23c1.16,1.35-.78,3.64-.07,5.59.44,1.23,2.28,2.89,6.62,3.48a1.48,1.48,0,0,0,1.61-1c.29-.86.65-2,.9-3,1.22-5.13.37-7,1.62-7.74,1.9-1.09,4.35,1.9,5.76.9S852.25,103.66,849.65,101.7Z"/><path d="M838.87,103l-.14,1.43a15.19,15.19,0,0,1-.34,2c-.29,1.23-.79,3.36-1,4.57-.28,1.78,5.17,3,5.17,3l.82-.66.64.13a.78.78,0,0,0,.37,0,.69.69,0,0,0,.49-.67,25.43,25.43,0,0,1,1-7.77A7.62,7.62,0,0,0,838.87,103Z"/><path class="cls-5" d="M842.59,114.46h-.11c-1-.23-5.87-1.44-5.54-3.56.19-1.24.69-3.42,1-4.61a16,16,0,0,0,.33-1.94l.14-1.43a.49.49,0,0,1,.38-.43,8.06,8.06,0,0,1,7.53,2.17.49.49,0,0,1,.09.49,25.17,25.17,0,0,0-1,7.61,1.19,1.19,0,0,1-.82,1.13,1.12,1.12,0,0,1-.63,0l-.41-.08-.65.52A.46.46,0,0,1,842.59,114.46Zm-3.27-11.09-.1,1.07a15.82,15.82,0,0,1-.35,2.06c-.28,1.18-.79,3.33-1,4.54-.13.83,2.5,1.9,4.57,2.4l.63-.51a.5.5,0,0,1,.41-.1l.64.13a.24.24,0,0,0,.12,0,.22.22,0,0,0,.15-.21,26.28,26.28,0,0,1,1-7.64A7.11,7.11,0,0,0,839.32,103.37Z"/><path d="M837.21,107.17s.34-3.44-1.26-3.25S834.08,107.9,837.21,107.17Z"/><path class="cls-5" d="M958.94,278.77a11.73,11.73,0,0,1,8.84.9c2.38,2.16,1.53,4.54-.36,4.37a8.5,8.5,0,0,0-8.75-1.2Z"/><path class="cls-5" d="M958.58,300a11.78,11.78,0,0,1,8.84.91c2.39,2.16,1.53,4.54-.36,4.37a8.5,8.5,0,0,0-8.75-1.2Z"/><path class="cls-5" d="M927.15,272.47a11.7,11.7,0,0,0-8.37-3c-3.08.92-3.33,3.44-1.55,4.09a8.51,8.51,0,0,1,8.41,2.68Z"/><path class="cls-5" d="M918.35,291.78a11.72,11.72,0,0,0-8.37-3c-3.08.93-3.33,3.45-1.55,4.1a8.51,8.51,0,0,1,8.41,2.68Z"/><path class="cls-5" d="M959.66,294.91c-4.37,19.35-16.76,33-27.68,30.57s-16.21-20.15-11.84-39.5,16.27-26.5,27.18-24S964,275.56,959.66,294.91Z"/><path class="cls-5" d="M959.66,294.91c-4.37,19.35-16.76,33-27.68,30.57s-16.21-20.15-11.84-39.5,16.27-26.5,27.18-24S964,275.56,959.66,294.91Z"/><path d="M927.47,270.43a30.25,30.25,0,0,1,20.2-.58c-7.3,19.29-11.25,45.59-23.83,53.89a1.41,1.41,0,0,1-2.17-.87C918,304.34,918.39,286.57,927.47,270.43Z"/><path class="cls-5" d="M923,324.47A1.88,1.88,0,0,1,921.2,323c-4.24-21.38-2.38-38.15,5.84-52.77a.51.51,0,0,1,.26-.22,31,31,0,0,1,20.52-.59.5.5,0,0,1,.29.26.46.46,0,0,1,0,.38c-2,5.39-3.85,11.44-5.61,17.29-4.53,15.12-9.21,30.77-18.41,36.84A2,2,0,0,1,923,324.47Zm4.76-53.64c-8,14.36-9.82,30.88-5.65,51.95a.86.86,0,0,0,.53.64.94.94,0,0,0,.89-.09c8.91-5.87,13.54-21.34,18-36.3,1.71-5.69,3.47-11.58,5.45-16.88A29.64,29.64,0,0,0,927.8,270.83Z"/><path d="M958.32,276.58A30.28,30.28,0,0,0,940,268.15c-.82,20.61-7.46,46.36.87,58.92a1.41,1.41,0,0,0,2.34,0C953.77,311.49,960.37,295,958.32,276.58Z"/><path class="cls-5" d="M942,328.2h0a1.89,1.89,0,0,1-1.59-.86c-6.1-9.19-4.3-25.42-2.56-41.11.68-6.07,1.37-12.34,1.6-18.1a.51.51,0,0,1,.17-.35.48.48,0,0,1,.36-.12,30.94,30.94,0,0,1,18.66,8.57.44.44,0,0,1,.15.3c1.86,16.66-3,32.82-15.24,50.86A1.86,1.86,0,0,1,942,328.2Zm-1.61-59.52c-.25,5.65-.92,11.75-1.58,17.66-1.72,15.52-3.5,31.57,2.4,40.46a.94.94,0,0,0,.78.43h0a.85.85,0,0,0,.73-.39c12.07-17.77,16.88-33.67,15.1-50A29.53,29.53,0,0,0,940.41,268.68Z"/><path d="M960.25,276.41a31.51,31.51,0,0,0-14-4.89,30.52,30.52,0,0,0-18.41-2.36c-11.89,14.19-15.54,31.58-15.35,50.48a1.4,1.4,0,0,0,2,1.25c11.28-4.74,19.15-22.17,27.46-38,1.56,18,1.94,37.52,10.61,46.38a1.4,1.4,0,0,0,2.3-.39C962.32,311.55,965.7,294.1,960.25,276.41Z"/><path class="cls-5" d="M953.54,330.21a1.93,1.93,0,0,1-1.38-.59c-7.71-7.88-9-24.16-10.2-39.9-.13-1.71-.27-3.42-.41-5.11-.67,1.3-1.35,2.6-2,3.91-7.24,14-14.73,28.55-24.9,32.82a1.92,1.92,0,0,1-1.8-.16,1.87,1.87,0,0,1-.84-1.54c-.22-21.8,4.7-37.94,15.47-50.79a.51.51,0,0,1,.3-.17A31.2,31.2,0,0,1,946.37,271a32,32,0,0,1,14.14,5,.45.45,0,0,1,.2.27c4.94,16,3.21,32.8-5.45,52.81a1.86,1.86,0,0,1-1.37,1.09A2.21,2.21,0,0,1,953.54,330.21Zm-11.64-47.8H942a.49.49,0,0,1,.39.44c.2,2.24.37,4.51.55,6.78,1.21,15.57,2.46,31.67,9.93,39.3a1,1,0,0,0,.85.28.89.89,0,0,0,.65-.52c8.54-19.71,10.28-36.23,5.48-52A31.07,31.07,0,0,0,946.2,272,.55.55,0,0,1,946,272a29.72,29.72,0,0,0-17.94-2.34c-10.53,12.63-15.34,28.53-15.13,50a.88.88,0,0,0,.4.73.93.93,0,0,0,.9.08c9.83-4.13,17.24-18.49,24.4-32.37l2.8-5.4A.51.51,0,0,1,941.9,282.41Z"/><path class="cls-5" d="M960.8,278.13c-1.27-9.11-6.25-14.55-13.48-16.18-7.38-1.67-15.21,1.07-20.86,9C936.74,267.47,953.65,273.27,960.8,278.13Z"/><path class="cls-5" d="M944,262.25a.54.54,0,0,1-.21-.05.48.48,0,0,1-.23-.65,16,16,0,0,0,.61-11.89,7.93,7.93,0,0,0-4.56-4.7,6.26,6.26,0,0,0-6.85,1.49,3.7,3.7,0,0,0-.71,3.3,2.25,2.25,0,0,0,1.64,1.55.49.49,0,1,1-.26.94,3.23,3.23,0,0,1-2.31-2.19,4.66,4.66,0,0,1,.9-4.22,7.16,7.16,0,0,1,8-1.78,9,9,0,0,1,5.11,5.25,17.05,17.05,0,0,1-.64,12.67A.48.48,0,0,1,944,262.25Z"/><path class="cls-5" d="M950.05,267.59h-.11a.49.49,0,0,1-.36-.59,44.79,44.79,0,0,1,3.74-10.57c3-6,6.53-8.38,10.78-7.3A5,5,0,0,1,968,252.8a5.84,5.84,0,0,1-1.75,5.61,4.76,4.76,0,0,1-5,.9.49.49,0,1,1,.33-.92,3.81,3.81,0,0,0,4-.7,4.93,4.93,0,0,0,1.46-4.66,4.1,4.1,0,0,0-3.21-3c-3.74-.95-6.9,1.27-9.67,6.78a44.24,44.24,0,0,0-3.67,10.36A.48.48,0,0,1,950.05,267.59Z"/></g></svg>