<svg id="Layer_1" data-name="Layer 1" xmlns="http://www.w3.org/2000/svg" xmlns:xlink="http://www.w3.org/1999/xlink" viewBox="0 0 511.41 511.41"><defs><style>.cls-1{fill:#fff;}.cls-2,.cls-5{fill:#2b3036;}.cls-3{fill:url(#linear-gradient);}.cls-4{fill:#e73e60;}.cls-5{font-size:2.1px;font-family:Arial-BoldMT, Arial;font-weight:700;}.cls-6{letter-spacing:-0.07em;}.cls-7{letter-spacing:0em;}.cls-8{letter-spacing:-0.02em;}.cls-9{fill:url(#linear-gradient-2);}</style><linearGradient id="linear-gradient" x1="13.92" y1="279.45" x2="13.85" y2="270.33" gradientTransform="translate(344.71)" gradientUnits="userSpaceOnUse"><stop offset="0" stop-color="#e14074"/><stop offset="1" stop-color="#e94f55"/></linearGradient><linearGradient id="linear-gradient-2" x1="455.39" y1="310.9" x2="455.22" y2="290.36" gradientTransform="translate(-286.86)" xlink:href="#linear-gradient"/></defs><path d="M367.08,375.36c3.35,2.62,6.7,5.23,9.23,7.19-.66-5-1.57-11.91-2.49-18.85H323.4c3.66,2.75,6.7,4.86,9.51,7.24a41.93,41.93,0,0,1,4.22,4.76c-2.75-.65-5.77-.81-8.2-2.09-4.44-2.33-8.49-5.41-12.81-8a10.71,10.71,0,0,0-4.91-1.77c-10.1-.17-20.21-.09-30.31-.1h-3.2l-.18.71,21.19,16.27-.66,1.34c-1.6-.23-3.48,0-4.75-.78-5.95-3.59-12.08-7-17.49-11.34-5.91-4.72-11-10.44-18.64-12.64-1-.28-1.79-1.41-2.5-2.29-2.78-3.5-5.49-7.06-8.23-10.6l-2.13-2.78-.65.36,4.41,40.74-1.5.62c-1-1.18-2.3-2.22-2.8-3.58a30.84,30.84,0,0,1-2-8q-2.61-28.95-4.88-57.94a49.81,49.81,0,0,1,.56-11c.2-1.4,1.76-2.6,2.7-3.89.75,1.37,2.06,2.7,2.15,4.12.34,5.26.45,10.56.33,15.83a23.67,23.67,0,0,0,4.73,15.36c3.66,4.91,7.07,10,10.46,14.86,2.66-3.22,5-6,7.22-8.81a5.63,5.63,0,0,0,.8-2.55c4.19-28.37,8.27-56.77,12.59-85.12,1.49-9.75,3.52-19.41,5.43-29.09.39-2,.86-4.27,4.32-4.71-2.21,23.31-6.54,46.31-9.66,69.47s-6.61,46.44-10,69.89H372.57l-5.95-29.11L362.67,331c-.38-1.37-1.17-2.77-1.07-4.1.41-5.49.95-11,1.74-16.43a6.44,6.44,0,0,1,5.75-5.94,40.34,40.34,0,0,1,5.48-.53c9.05,0,18.11-.08,27.16.13,1.67,0,3.31,1.24,5,1.91l-.22,1.8c-10.09,2.1-20.57.59-30.88,2.16.19.86.34,1.63.53,2.38,5.6,22.71,11.33,45.39,16.73,68.14,1.32,5.59,1.54,11.44,2.29,17.32h36.59c-4.42-15.3-9-30.33-13.09-45.48-3.86-14.15-7.38-28.41-10.8-42.68-.5-2.07.26-6.39.63-6.41,3.33-.21,3.12,3.09,3.72,5.1,4.6,15.5,9,31.07,13.42,46.61.29,1.05.63,2.09.78,2.57,1.7,0,2.91,0,4.12,0,10.41.46,20.83.91,31.25,1.44,2.44.13,3.49-.82,3.81-3.23.61-4.66,1.46-9.29,2.19-13.94,4.59-29.24,9-58.52,13.87-87.7,1.84-10.94,4.92-21.66,7.43-32.48l-.12.13c3-.4,4,1.1,3.68,3.82-.13,1.25-.27,2.51-.47,3.75q-6.78,41.26-13.6,82.5c-2.41,14.49-4.88,29-7.58,43.4-1.28,6.87-3.89,8.85-10.85,9.08-4.59.16-9.19.22-13.77.06-6.61-.24-13.23-.65-19.46-4.66l6.46,24c1-.12,1.8-.18,2.57-.32,3.19-.57,6.26-.62,8.39,2.37s1.66,6.14.34,9.19c-.43,1-1.65,1.64-2.52,2.45-.71-1-1.83-2-2-3.15a31.84,31.84,0,0,1-.1-5.81l-5.12.25v9.42a17.21,17.21,0,0,0,2.36.28q26.16.4,52.31.76c1.49,0,3.1-.25,4.44.22a26.77,26.77,0,0,1,4.7,2.72c-1.57.86-3.1,2.37-4.71,2.46-9.28.51-18.57,1-27.86.91-21.92-.09-43.84-.7-65.76-.67-64.75.08-129.5.59-194.25.5-48.21-.07-96.42-.78-144.63-1.3-6.77-.08-13.53-.61-20.28-1.16-1.83-.14-3.59-1.1-5.39-1.69.05-.43.09-.86.14-1.29A21.87,21.87,0,0,1,40,398.7a92.63,92.63,0,0,1,9.27-.44c16.3.08,32.6.23,48.9.36h2.86l.54-.82C92.25,395.59,91,388,89.35,380.64a69.2,69.2,0,0,1-1.07-27.55c-4.63-3-5.07-3.79-4.12-9.17,2.76-15.73,6.38-31.24,12.52-46.06.37-.9.62-1.85.95-2.84-11.26-1.12-16,1.67-18.45,12.14a109.56,109.56,0,0,0-2.67,20.75c-.83,21,1.28,41.72,5.06,62.34.2,1.07-.39,2.28-.62,3.43-1.13-.6-2.78-.9-3.29-1.84a25.69,25.69,0,0,1-2.64-7,237,237,0,0,1-4.51-58.89c.38-8.39,1.21-16.71,4.36-24.63C77.79,294,83.16,290,91,289.13a38.56,38.56,0,0,1,6.86-.38c2.17.18,2.87-.85,3.77-2.55,4-7.5,7.69-15.17,12.36-22.21a27.66,27.66,0,0,1,10.23-9.3c10.37-5.08,21.16-9.33,31.87-13.67,4.41-1.79,9.08-2.94,13.57-4.37-.4-3.41-1.43-6.59-1-9.54.87-5.57-2.13-8.64-5.64-12.09-6.9-6.78-12.12-14.69-13.8-24.48a24.39,24.39,0,0,1,0-4.19l1.1-.34c.82,1.5,1.59,3.05,2.48,4.51,3.32,5.47,6.33,11.18,10.13,16.29,3.12,4.2,7.26,7.64,10.83,11.52a60.17,60.17,0,0,1,3.89,5.36H172.8a50.48,50.48,0,0,0,.76,5.4c1.71,6.84.83,12.44-7.11,15.18,6.91,6.89,14.64,12,24.15,14,4.37.9,7.43-.91,9-5.07a42.36,42.36,0,0,0,1.41-6.54c-8.06-3.28-5.87-10.33-7-15.61l-4.79-3.41.41-1a18.91,18.91,0,0,1,3.52-.7c2.63,0,5.28.11,7.91.23,10.13.45,17.89-3.64,22.83-12.46a64.31,64.31,0,0,0,5.47-12.57c3.91-12.84,4-26,2.49-39.24-.73-6.49-1.4-13-1.75-19.52-.08-1.52,1.26-3.12,2-4.69.94,1.41,2.24,2.7,2.75,4.25a57,57,0,0,1,1.43,7.57,27.19,27.19,0,0,0,5-16.72,32.89,32.89,0,0,1,.58-7.15c.48-2.16,1.95-2.48,3.39-.62a6.39,6.39,0,0,1,1.33,2.76c1.5,10.38-.41,19.82-7.76,27.78a5.45,5.45,0,0,0-1.24,3.46c.16,8.37,1,16.75.64,25.1-.49,12.77-3.32,25-11,35.63a28,28,0,0,1-20.46,11.93,78.64,78.64,0,0,1-7.87,0c.6,3.38,1.12,6.23,1.63,9.11,13.07-1.73,24.21,1.84,33.88,9.71,13.4,10.92,24.05,24.24,32.8,39.1a15,15,0,0,1,1.95,5.1c.15,1-.72,2.3-1.51,3.07-.29.28-2-.35-2.54-1a35.9,35.9,0,0,1-3.4-4.75,177.3,177.3,0,0,0-26.29-32.64c-5.5-5.33-11.65-9.73-19.2-11.67-3-.78-6.17-1-9.26-1.55-.39,2.63-.56,4.58-1,6.47-2.05,9.1-8.93,13.61-18,11.34a38,38,0,0,1-11.39-4.64c-5.89-3.84-11.28-8.43-18.05-13.61-9.81,4.37-20.88,9.31-32,14.22a17,17,0,0,0-7.65,7.12c-12.2,19.85-20.26,41.35-25.83,63.87-1.22,4.94-2.24,9.94-3.4,15.1l43.12,7.36c3.24-13.69,6.5-27.53,9.8-41.35a43.34,43.34,0,0,1,1.77-5.92c.28-.69,1.32-1.08,2-1.61.58.76,1.58,1.49,1.66,2.3a18.59,18.59,0,0,1-.27,5.47c-3,14.48-6,29-9.4,43.37-.37,1.61-2.85,2.76-4.44,4-.8.65-2.34.9-2.57,1.64A50.44,50.44,0,0,0,130,368c4.65,1,8.9,1.87,13.13,2.83,12.8,2.93,25.11,8.46,38.69,7.25.33,0,.69.19,1,.14a10.46,10.46,0,0,0,3.37-.65c7.88-4.21,15.47-9.11,24.42-10.85,5.59-1.09,11.2-1,15.63,3.06,6.43,5.95,12.54,12.24,19,18.62,12.53-5.36,26.64-4.4,40.57-4s28-.62,41.81,2.73c1.6-5.23,5.05-8.76,9.42-11.51C345,368.39,358,368.27,367.08,375.36ZM124.19,367c.57-2.63,1.13-5.28,1.85-8.6l-32-5.14c-1.57,6.51-1.19,12.45-.29,18.3.86,5.54,2.3,11,3.41,16.49.6,3,2.37,4.5,5.36,4.87,6.94.86,13.86,1.9,20.81,2.71a234.2,234.2,0,0,0,47.43.27c3.54-.31,6.73-1.07,8.76-4.53.54-.92,2.15-1.23,3.27-1.82.27,1.22.58,2.42.78,3.65a4.74,4.74,0,0,1-.28,1.42c4.65,0,8.82-.8,12.37-3.75a40.68,40.68,0,0,0,3.21-2.58c3.62-3.68,7.42-3.87,11.79-1.26,3.22,1.92,6.72,3.38,10.1,5l.71-.71-9.78-13.2c4.42-.67,7.06,1.56,10,3.12,4.45,2.4,9,4.62,13.51,6.91l.67-1.13c-4.7-4.44-9-9.52-14.28-13.07-2.67-1.79-7.36-1.57-10.86-.89a35.62,35.62,0,0,0-12,4.87c-6.84,4.36-14.29,5.86-22.09,5.68a79.73,79.73,0,0,1-16.29-2c-11.71-2.76-23.31-6-34.92-9.19a46.6,46.6,0,0,1-6.31-2.73l.33-1.35Zm137.75,31.8,78.39-1.71c.24-3.5,0-7.86,4.81-9.21,3.69-1,7.51-1.63,11.41-2.45-1.39-1.24-2.82-2.37-4-3.7a2.69,2.69,0,0,1-.36-2.12c.05-.27,1.29-.6,1.77-.4,3,1.29,6,2.72,9,4.11a32.26,32.26,0,0,0,6.15,2.39c-3.55-8.09-15.44-12.41-23.74-9.13a25.76,25.76,0,0,0-12.19,9.73c-2,3-1.56,4,2,5.21a8.87,8.87,0,0,1,1.69,1c-2.25,3.06-6.19,3.13-8.19-.12-1.16-1.87-2.37-2-4.13-2-18.24-.2-36.48-.47-54.72-.69-2.16,0-4.33.19-6.47.3C262.8,393,262.39,395.79,261.94,398.77ZM377.13,391c-8.86.45-17.91.82-26.94,1.41-4.4.29-4.46.56-4.22,5.49h44.84c-2.15-10-4.26-20-6.5-30-4.15-18.57-8.39-37.12-12.54-55.69-.48-2.16-1.38-3-3.8-1.76,2.8,13.27,5.93,26.54,8.36,39.94,2.39,13.18,4.14,26.48,6,39.75.23,1.65-.49,3.44-.76,5.16l-1.38.16ZM229.3,398.28l4.45-5.31-6.31-2.41c-.54,1.92-.51,4.62-1.72,5.39a8.44,8.44,0,0,1-6.42.8,76.38,76.38,0,0,1-11.77-5.35c-1.79-.95-2.94-1.15-4.44.44-2,2.07-4.19,3.86-7,6.44Zm26.8.67c.65,0,1.29-.58,1.93-.89-.54-.45-1.39-.81-1.56-1.37-.59-1.85-.93-3.77-1.45-6.06L236,398.33l.06.67C242.72,399,249.41,399,256.1,399Z"/><path d="M41.32,417.39c2.36.68,4.68,1.71,7.08,2a127.53,127.53,0,0,0,13.4.7c75.43.21,150.85,1.14,226.28-.43,41-.85,82-.08,123,.21A476.13,476.13,0,0,0,482.43,415a5.39,5.39,0,0,0,1.68-.32c1.6-.81,4.55-1.91,4.47-2.56-.38-2.76-3-2.74-5.19-2.56-8.12.67-16.21,1.8-24.34,2.16-16.51.74-33,1.44-49.55,1.55q-101.43.66-202.86.89c-34.44.07-68.89-.46-103.33-.59q-24.45-.09-48.9.35c-4.35.08-8.69,1.09-13,1.67C41.35,416.21,41.34,416.8,41.32,417.39Z"/><path d="M488.94,221.79c1.24-1.52,1-2.77-.89-3.34a20.4,20.4,0,0,0-5-1c-20.64-.73-41.28-1.64-61.93-2-40.27-.68-80.54-1-120.81-1.51-2.41,0-4.88-.54-7.2-.14-1.66.28-3.12,1.72-4.66,2.64,1.32,1,2.56,2.71,4,2.9a130.92,130.92,0,0,0,16.76,1.39c33.74.23,67.47.14,101.2.43,24.21.2,48.42.86,72.62,1.24a40.65,40.65,0,0,0,6.08-.79Z"/><path d="M273.93,347.54a6,6,0,0,0,0,1.83c.49,1.14,1.1,2.23,1.66,3.35.78-.88,2-1.64,2.27-2.64,2.05-8.58,4.43-17.12,5.73-25.83,4.3-28.58,8.22-57.22,12.18-85.85a113,113,0,0,0,.87-13.39c0-1.06-1.15-2.14-1.78-3.21-.87.78-2.34,1.44-2.51,2.35-.92,4.71-1.52,9.49-2.22,14.24q-7.47,50.39-14.93,100.76C274.79,342.1,274.32,345,273.93,347.54Z"/><path d="M162.92,113.57c1.83-1.64,3.61-3.34,5.51-4.9,5.11-4.21,10-8.69,15.49-12.42a23.83,23.83,0,0,1,15.41-3.92c3.86.27,7.27,1.5,9.22,5.07s4.74,4.61,8.54,4.49a45.18,45.18,0,0,1,9.59.46c6.18,1.13,9.36,6.52,7.83,12.61-1.44,5.74-5.58,9.06-10.55,11.53-2.67,1.32-5.5,2.31-8.14,3.67-.75.38-1.09,1.54-1.62,2.34a7.91,7.91,0,0,0,2.29,1.14c12.48,1.51,25.83-12.92,23.3-25.09-1.26-6-5.07-9.62-10.79-11.31a17.46,17.46,0,0,0-5.74-.89c-5.29.32-9.36-.47-13.14-5.31-4.21-5.4-11.3-5.2-17.63-4-12.82,2.51-22.55,9.81-29.67,20.61-.92,1.41-1,3.34-1.54,5Z"/><path d="M129.87,135.13c1.09,6,2.06,11.92,3.35,17.83.26,1.2,1.67,2.15,2.56,3.21.67-1.41,2-2.85,1.91-4.22-.28-5-1.53-10-1.45-15a49.32,49.32,0,0,1,2.29-14.4c1.93-5.82,6.14-7.71,12.26-6.77a39.36,39.36,0,0,0,5.06.93c1.16,0,2.33-.72,3.5-1.12-.62-1.09-1-2.57-1.88-3.2-7.46-5.07-18.34-2.88-22.94,4.87a36.37,36.37,0,0,0-3.57,9.92c-.63,2.51-.47,5.23-.67,7.85Z"/><path d="M130.12,170.73c.43,8.4,3.53,14.57,10.53,18.41a6.78,6.78,0,0,0,3.22,1,11,11,0,0,0,3.29-1.11c-.6-1-1-2.35-1.84-2.87-5-3-8.92-6.81-10.35-12.68-.71-2.91-.81-5.78,1.66-8a8.53,8.53,0,0,1,9-1.71c1.39.5,2.68,1.33,4.09,1.77a8.17,8.17,0,0,0,2.56,0c-.15-.92,0-2.07-.49-2.72a11.09,11.09,0,0,0-11.26-4.4c-4.52.77-8.14,3.17-9.61,7.83A29.3,29.3,0,0,0,130.12,170.73Z"/><path d="M177.75,134.63c3.57-1.45,7.41-2.45,10.64-4.44,6.31-3.89,10.68-9.64,13.59-16.46a6.63,6.63,0,0,0,.8-3,12.86,12.86,0,0,0-1.25-3.27c-.92.54-2.13.87-2.71,1.66-1.89,2.59-3.44,5.42-5.31,8-4.77,6.61-10.66,11.32-19.32,11.57-1,0-2,1.46-3,2.24a11.52,11.52,0,0,0,2.58,2.38,13.79,13.79,0,0,0,3.69.68Z"/><path d="M199.89,187a9.82,9.82,0,0,0,11.83-.67c2.63-2.46,2.75-5.34.27-9.34s-5.15-8.09-7.72-12.15c-.47-.75-.9-1.53-1.43-2.45-3,4.14.21,13.62,6.18,20.21Z"/><path d="M193.91,130.77c1.67.14,3.49.79,5,.34,8.24-2.49,14.53-7.46,18.23-15.4a2.53,2.53,0,0,0,.41-1.28c-.17-1.05-.5-2.06-.77-3.09a9.44,9.44,0,0,0-2.6,1.22c-3.82,3.59-7.37,7.48-11.35,10.87-2.73,2.31-6,4-9.06,5.92Z"/><path d="M207.67,201.46c-4.73,1.93-8.59-.32-12.25-2.79-1.78-1.2-3.1-3-4.76-4.43a7.23,7.23,0,0,0-2.42-.85,7.19,7.19,0,0,0-.42,2.4C189,202,198,208.48,204.11,207.71,207.37,207.29,208.49,205.32,207.67,201.46Z"/><path d="M165.39,125.41c3.79,3.09,8.59,2.63,14.24-1.42,4.46-3.2,6.43-7.08,5.25-10.23Z"/><path d="M188.22,145a11.54,11.54,0,0,0-9.44,4.7c-.61.82-.2,2.41-.26,3.64a19.93,19.93,0,0,0,3.38-.47,5.58,5.58,0,0,0,1.93-1.39c1.69-1.56,3.35-1.6,5.24-.28s4.23,2.41,5.63-.16-.94-3.95-2.88-4.95A16.55,16.55,0,0,0,188.22,145Z"/><path d="M219.63,144.82c-5,.61-7.67,2.79-9.64,5.91-.37.59-.59,1.85-.28,2.15a3.2,3.2,0,0,0,2.4.66,6.45,6.45,0,0,0,2.73-1.33,5,5,0,0,1,6.56-.27c.84.56,2.41,0,3.64-.06-.06-1.35.41-3.29-.3-3.94A25.78,25.78,0,0,0,219.63,144.82Z"/><path d="M166.53,137.39c-2,.2-3.21,0-3.88.45-4,3-8,6-11.69,9.27-.81.71-.51,2.67-.71,4,1.26-.45,2.79-.59,3.75-1.41,3.38-2.9,6.59-6,9.82-9.1A41.87,41.87,0,0,0,166.53,137.39Z"/><path d="M155.54,131.6c-6.08-.29-12.85,7.88-11.44,13.46C147.81,144.55,154.79,136.45,155.54,131.6Z"/><path d="M146.37,180v-3.2c1.46-1.09,3.62-2,3.58-2.79-.12-3-2.27-4.93-5.07-5.81-2.12-.68-4.3-.84-5.75,2.12l3.89,1.86a37.23,37.23,0,0,0,.14,6.53C143.27,179.24,145.09,179.48,146.37,180Z"/><path d="M185.05,166.53c.29,2.24,1,4.57,3.77,4.72s3.57-2,3.66-4.37c.12-3-1.63-5.35-3.78-5.09C186.06,162.09,185.23,164,185.05,166.53Z"/><path d="M215.59,166.09c.39,2.33.76,4.75,3.6,4.75,3.22,0,3.19-2.72,3.38-5s-.39-4.45-3-4.46C216.65,161.4,216,163.86,215.59,166.09Z"/><path d="M165.9,147.21a11.83,11.83,0,0,0-9.46,9.37C160,156.85,164.6,152.42,165.9,147.21Z"/><path class="cls-1" d="M70.38,362.76c.23,3.28-.43,6.67-.41,10.07,0,3.86-.45,8.07.82,11.64,1.35,3.81,1.17,7.65,1.77,11.54A6,6,0,0,0,75,399.52c7.29,4.91,15.46,5,23.74,3.49a21.9,21.9,0,0,0,5.82-1.88c3.2-1.58,5.41-3.88,5.85-7.9.53-4.87,1.8-9.54,2.52-14.22.32-2.06.07-4.21.19-6.29.27-5.46.59-10.81.9-16.05,0-.31.06-.77.27-.88,2.75-1.37,2.4-4,2.39-6.27a21.38,21.38,0,0,0-1.19-8c-1.13-2.7-4.26-3.81-7-4.85-5.74-2.15-11.73-2.36-17.73-2.4h-2c-.72-3-1.63-5.82-2.06-8.71-.31-2.1-1.35-2.15-3.3-1.53.8,3.55,1.56,7,2.32,10.39a73,73,0,0,0-8.59,2.33c-2.12.86-4,2.41-5.92,3.67-.07,0-.17.09-.17.14-.55,3.28-4.76,6.27-2.79,9.52C70.74,354.11,70.08,358.43,70.38,362.76Z"/><path d="M70.38,362.76c.23,3.28-.43,6.67-.41,10.07,0,3.86-.45,8.07.82,11.64,1.35,3.81,1.17,7.65,1.77,11.54A6,6,0,0,0,75,399.52c7.29,4.91,15.46,5,23.74,3.49a21.9,21.9,0,0,0,5.82-1.88c3.2-1.58,5.41-3.88,5.85-7.9.53-4.87,1.8-9.54,2.52-14.22.32-2.06.07-4.21.19-6.29.27-5.46.59-10.81.9-16.05,0-.31.06-.77.27-.88,2.75-1.37,2.4-4,2.39-6.27a21.38,21.38,0,0,0-1.19-8c-1.13-2.7-4.26-3.81-7-4.85-5.74-2.15-11.73-2.36-17.73-2.4h-2c-.72-3-1.63-5.82-2.06-8.71-.31-2.1-1.35-2.15-3.3-1.53.8,3.55,1.56,7,2.32,10.39a73,73,0,0,0-8.59,2.33c-2.12.86-4,2.41-5.92,3.67-.07,0-.17.09-.17.14-.55,3.28-4.76,6.27-2.79,9.52C70.74,354.11,70.08,358.43,70.38,362.76Zm19.7-17.34C89,344.93,85,330,84.35,324.25,85.91,324.7,90.41,341.62,90.08,345.42Zm14.79.78c-9.28,1.47-18.4,1.45-27-2.18a75.08,75.08,0,0,1,8.89.41c.66.07,1.23.79,1.83,1.2l-.27.55,5,.09-2-1.11c0-.14.09-.27.13-.41Zm-9.27-1.69c-4.67-.41-4.68-.37-5.57-5,7.06.58,13.87,1.19,20.23,4.54-1.74,1.79-2.29,1.91-4.86,1.59C102.13,345.22,98.87,344.8,95.6,344.51Zm-18.83-1.3c-.59,0-1.1-.84-1.65-1.28.55-.43,1-1.12,1.65-1.22,3.34-.51,6.69-.88,10.08-1.3.37,1.49.66,2.69,1,4.16C83.9,343.46,80.33,343.42,76.77,343.21Zm36.52,3.58a27.29,27.29,0,0,1-7.57,2.51,64.15,64.15,0,0,1-22.28-.57,39.78,39.78,0,0,1-9.87-3.35c-3.22-1.61-3.09-4.2.16-5.78a110.3,110.3,0,0,1,10.3-4c1.61-.6,2.44-.06,2.31,1.32-3.61,1-7,1.68-10.26,2.88-2.31.86-2.43,2.58-.46,3.94a15.29,15.29,0,0,0,4.45,2.1,57.81,57.81,0,0,0,22.75,1.83,23.42,23.42,0,0,0,6.41-1.75,3.38,3.38,0,0,0,1.88-2.51c0-.84-1.14-1.93-2.06-2.47a14.91,14.91,0,0,0-4.63-1.84c-5-.94-9.94-1.67-15-2.5,0-.2-.06-.79-.11-1.58a65.41,65.41,0,0,1,17.89,2.61,24,24,0,0,1,6.4,3C116.28,342.46,116.17,345.4,113.29,346.79ZM73.2,387.41c3.77,3.25,8.21,3,12.45,3.57,1.88.25,4,0,5.6.89,3.45,1.86,6.65,4.29,10,6.52-3.43,1-5.43-2.51-9.19-2.94l8.43,5.38c-3.81,1.07-6.38-1.92-9.77-2.19l6.64,3.61c-2.7.18-4.74.49-6.77.42-4.92-.19-9.82-.77-14.09-3.41-1.19-.73-2.63-1.93-2.86-3.16C73.12,393.42,73.31,390.62,73.2,387.41Zm25.17,8-5.46-3.48c2.69-1.1,4.62-.26,6.45,1.63Zm-27.74-29.5c14,4.85,27.53,4.56,41.35,1.71A44.68,44.68,0,0,1,110.26,386c-.37,1.14-1.4,2.7-2.35,2.84a134.68,134.68,0,0,1-14.48,1.43,43.45,43.45,0,0,1-18.94-3.05c-1.95-.84-3.27-2.13-3.34-4.37C71,377.12,70.81,371.48,70.63,365.89Zm0-12.45c11.57,6.15,23.74,7.42,36.41,4.3.1.31.2.64.29.95-.65.29-1.31.56-1.84.78.18.56.45,1.39.85,2.65l-3-1.24c.79,1,1.37,1.79,1.94,2.55l-.6.35-3.14-1.89c.11,1.88,3.89,1.83,2.08,4.4l-3.23-1.74-.31.41,4.31,2.94c-.1.19-.19.38-.29.56l-4.62-2.12-.17.28,1.82,1.61a84.83,84.83,0,0,1-15.27.15A87.46,87.46,0,0,1,73.67,366a3.15,3.15,0,0,1-2.1-2C71.08,360.52,70.91,357.07,70.61,353.44Zm-.86-8.11c.48.78.69,1.62,1.25,1.93,3.73,2,7.36,4.68,11.48,5.74a45.79,45.79,0,0,0,14,.9c6.84-.42,13.79-1,19.67-5.41-.7,2.78-2.86,3.89-5,4.62-7.88,2.69-16.1,4-24.57,2.53-5.44-.94-10.61-2.55-15-5.63C69.91,348.9,68.76,347.58,69.75,345.33Z"/><path d="M105.26,371.55l-1.16,14.69.75.06q.62-7.47,1.21-14.69Z"/><path d="M81.29,372.21l-.66,11.6.76,0,.8-11.64Z"/><path d="M100,385.72q0-6.83.09-13.44l-.7,0q-.1,6.62-.2,13.43Z"/><path d="M94.07,372.9c-.21,4.72-.43,9.52-.67,14.69C95.51,382.51,94.57,377.59,94.07,372.9Z"/><path d="M87.5,372.82l-.88,12.36.69.05q.52-6.25,1-12.35Z"/><path d="M75.49,371l-.79,12.11.77,0,.62-12.2Z"/><path class="cls-2" d="M405.81,279.36l.1-.34c.87-2.81,1.74-5.66,2.63-8.55a.66.66,0,0,0,.06-.22c0-.07-.06-.16-.12-.17-.29,0-.59,0-.93,0l-1.27,4.17-4.93,0,1.21-4.16h-1.08l-2.68,9.3h1.08l1.18-4,4.9,0-1.22,4Z"/><path class="cls-2" d="M413.89,270.14l-2.95,9.23h5.52l.34-1-4.45,0,1-3.17,3.88,0,.36-1.06-3.9,0,1-2.95,4.51,0,.35-1Z"/><path class="cls-2" d="M385.26,271l4.74,0,.27-1.05-5.88-.05-2.31,9.42h5.76l.26-1h-4.65l.8-3.25,4,0,.28-1.08-4.06,0Z"/><path class="cls-2" d="M397.39,277.3c-2.49,1.75-4.56,1.23-5.52,0s-.57-3.51,1.14-5a5.4,5.4,0,0,1,2.92-1.34,3.07,3.07,0,0,1,2.92,1.19l.87-.83c-1.29-1.95-4.61-2-7.05,0-2.66,2.11-3.31,5.27-1.51,7.06,1.64,1.62,4.61,1.4,6.62-.25Z"/><path class="cls-2" d="M369.28,275.11l4.14,0,.24-1.08-4.14,0,.67-3.21,4.8,0,.23-1.07-6-.05-2,9.53h1.14Z"/><path class="cls-2" d="M383,269.87l-7-.06-.24,1.08,2.94,0-1.93,8.38h1.13l2-8.38,2.92,0Z"/><path class="cls-2" d="M365.88,269.72,364,279.26h1.11l1.91-9.53Z"/><path class="cls-2" d="M408.87,279.38l2.91-9.25h-1l-2.89,9.25Z"/><path class="cls-1" d="M371.26,282.26h-8.13l-.09.47h8.11Z"/><path class="cls-1" d="M422.91,282.28h-1.09l-.16.47h1.09Z"/><path class="cls-3" d="M353.75,273.27c.07-.16.13-.33.2-.49a5.37,5.37,0,0,1,4.19-3.09,4.86,4.86,0,0,1,3.31.62l.11.05c.9-.95,2-1.24,2.83-.71l-1,.69a5.11,5.11,0,0,0-.88-.36.84.84,0,0,0-.49.16c-.31.19-.32.34-.11.56a3.31,3.31,0,0,1,.51,4,5.43,5.43,0,0,1-7.17,2.24.77.77,0,0,0-.5-.05,1.84,1.84,0,0,0-1.48,1.38,1.18,1.18,0,0,0,1,1.35,3.59,3.59,0,0,0,2.49-.35c.75-.33,1.48-.7,2.22-1a3,3,0,0,1,2-.25,1.76,1.76,0,0,1,1.17,2.35,3.7,3.7,0,0,1-3.06,2.59,2.1,2.1,0,0,1-2.25-.91l.19.18a2.72,2.72,0,0,0,4.11-.84,1.64,1.64,0,0,0,.14-1.34,1.24,1.24,0,0,0-1.65-.69c-.59.16-1.16.45-1.74.67a19.48,19.48,0,0,1-2.18.77,3.63,3.63,0,0,1-1.43,0,1.61,1.61,0,0,1-1.46-1.58c0-.1,0-.2,0-.3l.09-.56s.06-.05.07-.08a2.52,2.52,0,0,1,1.67-1.5,1.86,1.86,0,0,0,.2-.1c-.85-.94-1-1.26-1.13-2,0-.24-.05-.49-.07-.74Zm7.43.38a5.66,5.66,0,0,0,0-2.17,2,2,0,0,0-2-1.67,3.18,3.18,0,0,0-2.94,1.52,5.77,5.77,0,0,0-.81,2,4.63,4.63,0,0,0,.12,2.79,2.12,2.12,0,0,0,2.18,1.25,3.06,3.06,0,0,0,2.59-1.45A6.36,6.36,0,0,0,361.18,273.65Z"/><path class="cls-2" d="M424.86,277.23a7.94,7.94,0,0,1-.75,1,4.55,4.55,0,0,1-2.81,1.29,2.87,2.87,0,0,1-2.94-1,4.38,4.38,0,0,1-.28-.65l1-.58a4.89,4.89,0,0,0,.26.51,2.65,2.65,0,0,0,3.24.44c1.22-.56,1.69-1.62.94-2.27a8.17,8.17,0,0,0-1.39-.81,12.11,12.11,0,0,1-1.33-.72c-1.31-.94-.33-2.75.93-3.57,1.66-1.08,3.81-.95,4.42.29a4.37,4.37,0,0,1,.2.67l-1,.54a1.44,1.44,0,0,0-1.64-1.18,2.78,2.78,0,0,0-1.74.67c-.66.55-.84,1.25-.39,1.67a4.12,4.12,0,0,0,1,.59c.43.23.9.42,1.33.65a1.8,1.8,0,0,1,1.13,2Z"/><path class="cls-2" d="M405.81,279.36h-1.07l1.22-4-4.9,0-1.18,4H398.8l2.68-9.3h1.08l-1.21,4.16,4.93,0,1.27-4.17c.34,0,.64,0,.93,0,.06,0,.11.1.12.17a.66.66,0,0,1-.06.22c-.89,2.89-1.76,5.74-2.63,8.55Z"/><path class="cls-2" d="M413.89,270.14l5.65.05-.35,1-4.51,0-1,2.95,3.9,0-.36,1.06-3.88,0-1,3.17,4.45,0-.34,1h-5.52Z"/><path class="cls-2" d="M385.26,271l-.75,3,4.06,0-.28,1.08-4,0-.8,3.25h4.65l-.26,1h-5.76l2.31-9.42,5.88.05L390,271Z"/><path class="cls-2" d="M397.39,277.3l.39.81c-2,1.65-5,1.87-6.62.25-1.8-1.79-1.15-4.95,1.51-7.06,2.44-1.93,5.76-1.92,7.05,0l-.87.83a3.07,3.07,0,0,0-2.92-1.19,5.4,5.4,0,0,0-2.92,1.34c-1.71,1.47-2.19,3.61-1.14,5S394.9,279.05,397.39,277.3Z"/><path class="cls-2" d="M369.28,275.11l-.88,4.17h-1.14l2-9.53,6,.05-.23,1.07-4.8,0-.67,3.21,4.14,0-.24,1.08Z"/><path class="cls-2" d="M383,269.87l-.25,1.06-2.92,0-2,8.38H376.7l1.93-8.38-2.94,0,.24-1.08Z"/><path class="cls-2" d="M365.88,269.72H367l-1.91,9.53H364Z"/><path class="cls-2" d="M408.87,279.38h-1l2.89-9.25h1Z"/><path class="cls-4" d="M371.26,282.26l-.11.47H363l.09-.47Z"/><path class="cls-4" d="M422.91,282.28l-.16.46h-1.09l.16-.47Z"/><text class="cls-5" transform="translate(369.81 283.25)">WHERE INNO<tspan class="cls-6" x="13.63" y="0">VA</tspan><tspan class="cls-7" x="16.23" y="0">TION MEETS THE REA</tspan><tspan class="cls-8" x="38.83" y="0">L</tspan><tspan x="40.07" y="0" xml:space="preserve"> WORLD</tspan></text><path class="cls-2" d="M393.82,275.06a.28.28,0,0,1-.26.17.15.15,0,0,1-.12-.08.25.25,0,0,1,.05-.27.27.27,0,0,1,.18-.11.15.15,0,0,1,.16.1A.21.21,0,0,1,393.82,275.06Z"/><path class="cls-2" d="M393.48,275.54a.21.21,0,0,1,.1.32.2.2,0,1,1-.31-.25A.2.2,0,0,1,393.48,275.54Z"/><path class="cls-2" d="M393.35,275.43l0,.05a.19.19,0,0,1-.26,0,.26.26,0,0,1,0-.35.18.18,0,0,1,.27,0A.25.25,0,0,1,393.35,275.43Z"/><path class="cls-2" d="M393.62,274.66l-.06.07c-.11.11-.27.09-.3,0a.29.29,0,0,1,.1-.28.23.23,0,0,1,.19-.07.13.13,0,0,1,.11.12A.28.28,0,0,1,393.62,274.66Z"/><path class="cls-2" d="M393.14,275a.23.23,0,0,1-.07.08.14.14,0,0,1-.21,0,.3.3,0,0,1,.06-.36c.1-.09.24-.07.27,0A.28.28,0,0,1,393.14,275Z"/><path class="cls-2" d="M393.68,275.35c.08-.14.25-.18.33-.08a.21.21,0,0,1,0,.25c-.08.12-.25.15-.32.06A.19.19,0,0,1,393.68,275.35Z"/><path class="cls-2" d="M393.2,274.09a.25.25,0,0,1,.17-.14c.09,0,.15,0,.17.06a.35.35,0,0,1-.16.33c-.12.07-.22,0-.23-.07A.28.28,0,0,1,393.2,274.09Z"/><path class="cls-2" d="M393,275.74c-.07.12-.19.15-.26.08a.26.26,0,0,1,0-.28.2.2,0,0,1,.13-.12.13.13,0,0,1,.15.05A.26.26,0,0,1,393,275.74Z"/><path class="cls-2" d="M394.19,274.47a.17.17,0,0,1,.1.22.28.28,0,0,1-.22.19.14.14,0,0,1-.14-.05.24.24,0,0,1,.14-.34A.25.25,0,0,1,394.19,274.47Z"/><path class="cls-2" d="M393,276.26a.23.23,0,0,1-.08-.35.17.17,0,0,1,.16-.07.22.22,0,0,1,.12.34A.18.18,0,0,1,393,276.26Z"/><path class="cls-2" d="M392.63,276.07a.13.13,0,0,1-.2.06.28.28,0,0,1-.07-.35.12.12,0,0,1,.18-.07.16.16,0,0,1,.08.08A.34.34,0,0,1,392.63,276.07Z"/><path class="cls-2" d="M393.76,274.21a.27.27,0,0,1,.25-.15.11.11,0,0,1,.11.08.28.28,0,0,1-.1.26.2.2,0,0,1-.2.06.12.12,0,0,1-.09-.14A.26.26,0,0,1,393.76,274.21Z"/><path class="cls-2" d="M392.75,275.32v0c-.07.11-.18.13-.25,0a.28.28,0,0,1,.05-.33c.06-.08.14-.1.2,0a.16.16,0,0,1,.05.09A.34.34,0,0,1,392.75,275.32Z"/><path class="cls-2" d="M394.16,275a.27.27,0,0,1,.2-.12.14.14,0,0,1,.15.14.19.19,0,0,1-.06.17.25.25,0,0,1-.21.08.14.14,0,0,1-.12-.12A.19.19,0,0,1,394.16,275Z"/><path class="cls-2" d="M392.76,274.39a.26.26,0,0,1,.1-.11c.08-.06.16,0,.2,0a.32.32,0,0,1,0,.25.33.33,0,0,1-.13.13c-.07,0-.13,0-.16,0a.24.24,0,0,1,0-.22S392.75,274.41,392.76,274.39Z"/><path class="cls-2" d="M394.27,275.9a.23.23,0,0,1-.24.12.16.16,0,0,1-.09-.25.22.22,0,0,1,.24-.12A.16.16,0,0,1,394.27,275.9Z"/><path class="cls-2" d="M393.74,276a.19.19,0,0,1,.11.25.21.21,0,0,1-.23.12.18.18,0,0,1-.12-.24A.2.2,0,0,1,393.74,276Z"/><path class="cls-2" d="M394,273.9a.32.32,0,0,1-.16.14c-.1,0-.17,0-.19-.07a.35.35,0,0,1,.22-.31c.09,0,.16,0,.17.08A.25.25,0,0,1,394,273.9Z"/><path class="cls-2" d="M394.48,275.68a.16.16,0,0,1-.08-.24.24.24,0,0,1,.25-.12.16.16,0,0,1,.08.24A.24.24,0,0,1,394.48,275.68Z"/><path class="cls-2" d="M392.62,274.86a.31.31,0,0,1-.09.11c-.06,0-.11,0-.14,0l0,0a.33.33,0,0,1,.09-.32s0,0,0,0,.12-.05.16,0a.12.12,0,0,1,0,.09A.39.39,0,0,1,392.62,274.86Z"/><path class="cls-2" d="M393.13,273.74a.49.49,0,0,1,.17-.18.14.14,0,0,1,.15,0,.1.1,0,0,1,0,.09.43.43,0,0,1-.2.3c-.11.06-.2,0-.19-.09A.24.24,0,0,1,393.13,273.74Z"/><path class="cls-2" d="M393,274.08a.38.38,0,0,1-.15.16c-.07,0-.14,0-.15-.05a.33.33,0,0,1,.07-.23.35.35,0,0,1,.1-.11c.09-.06.17,0,.18,0A.25.25,0,0,1,393,274.08Z"/><path class="cls-2" d="M394.74,274.4a.23.23,0,0,1-.3.1c-.06,0-.06-.15,0-.24a.23.23,0,0,1,.25-.09C394.77,274.2,394.79,274.3,394.74,274.4Z"/><path class="cls-2" d="M392.58,276.2a.13.13,0,0,1,.15-.07.21.21,0,0,1,.15.22.28.28,0,0,1,0,.09.14.14,0,0,1-.16.08A.23.23,0,0,1,392.58,276.2Z"/><path class="cls-2" d="M393.46,276.53a.19.19,0,0,1-.2.07.18.18,0,0,1-.12-.24.16.16,0,0,1,.18-.11.2.2,0,0,1,.15.26Z"/><path class="cls-2" d="M395,274.8a.23.23,0,0,1-.25.12.15.15,0,0,1-.07-.23.27.27,0,0,1,.25-.12A.15.15,0,0,1,395,274.8Z"/><path class="cls-2" d="M392.2,275.37a.1.1,0,0,1,0-.05.1.1,0,0,1,.12,0,.16.16,0,0,1,.06.08.35.35,0,0,1,0,.28c0,.09-.13.11-.19,0A.3.3,0,0,1,392.2,275.37Z"/><path class="cls-2" d="M394.56,274a.23.23,0,0,1-.11.11c-.07,0-.13,0-.18,0a.15.15,0,0,1,0-.17.31.31,0,0,1,.13-.15c.12-.08.24,0,.23.09A.17.17,0,0,1,394.56,274Z"/><path class="cls-2" d="M392.36,276.36a.09.09,0,0,1-.12.05.26.26,0,0,1-.13-.18.38.38,0,0,1,0-.15s0,0,0-.05a.1.1,0,0,1,.14,0,.13.13,0,0,1,.07.06.36.36,0,0,1,.05.21A.13.13,0,0,1,392.36,276.36Z"/><path class="cls-2" d="M393.6,273.45a.46.46,0,0,1,.19-.17c.09,0,.17,0,.15.09a.4.4,0,0,1-.21.27c-.11,0-.18,0-.16-.1A.19.19,0,0,1,393.6,273.45Z"/><path class="cls-2" d="M392.35,274.26a.85.85,0,0,1,.11-.14c.07-.05.13,0,.15,0a.24.24,0,0,1,0,.12.42.42,0,0,1-.13.23c-.07.08-.15.07-.17,0A.33.33,0,0,1,392.35,274.26Z"/><path class="cls-2" d="M392.1,274.92l0-.07a.09.09,0,0,1,.12,0l0,0a.39.39,0,0,1-.05.31.12.12,0,0,1-.11.08c-.05,0-.07,0-.08-.07A.41.41,0,0,1,392.1,274.92Z"/><path class="cls-2" d="M395.21,275.2a.2.2,0,0,1-.23.11.13.13,0,0,1-.08-.21.23.23,0,0,1,.24-.12A.14.14,0,0,1,395.21,275.2Z"/><path class="cls-2" d="M394.3,276.37a.14.14,0,0,1-.08-.21.21.21,0,0,1,.23-.1.14.14,0,0,1,.09.21A.21.21,0,0,1,394.3,276.37Z"/><path class="cls-2" d="M393.47,273.33a.62.62,0,0,1-.18.18l-.06,0c-.07,0-.11,0-.11-.07a.28.28,0,0,1,.07-.16.67.67,0,0,1,.15-.14l.06,0c.07,0,.11,0,.11.07A.76.76,0,0,1,393.47,273.33Z"/><path class="cls-2" d="M394.43,273.59a.32.32,0,0,1-.19.15c-.07,0-.12,0-.13-.07s.11-.28.25-.29a.08.08,0,0,1,.1.06A.21.21,0,0,1,394.43,273.59Z"/><path class="cls-2" d="M394,276.36a.14.14,0,0,1,.11.17.18.18,0,0,1-.17.14.16.16,0,0,1-.18-.16A.18.18,0,0,1,394,276.36Z"/><path class="cls-2" d="M395,276a.21.21,0,0,1-.23.1.14.14,0,0,1-.07-.21.2.2,0,0,1,.24-.1A.14.14,0,0,1,395,276Z"/><path class="cls-2" d="M393,273.62a.54.54,0,0,1-.14.16s-.09.06-.13,0-.05-.06,0-.11a.46.46,0,0,1,.18-.26s.09-.06.13,0,0,.06,0,.11Z"/><path class="cls-2" d="M393.14,276.8a.13.13,0,0,1-.16.06.22.22,0,0,1-.14-.21.1.1,0,0,1,0-.07.13.13,0,0,1,.15-.06.23.23,0,0,1,.15.23S393.15,276.79,393.14,276.8Z"/><path class="cls-2" d="M395.2,274.07a.23.23,0,0,1-.07.07.18.18,0,0,1-.17,0,.11.11,0,0,1-.06-.13.23.23,0,0,1,.27-.18C395.24,273.89,395.25,274,395.2,274.07Z"/><path class="cls-2" d="M392.5,276.77a.26.26,0,0,1-.15-.3.09.09,0,0,1,.13-.07.25.25,0,0,1,.14.2.14.14,0,0,1,0,.11A.09.09,0,0,1,392.5,276.77Z"/><path class="cls-2" d="M393.64,276.64a.15.15,0,0,1-.08.29.16.16,0,0,1-.13-.15.12.12,0,0,1,.05-.12A.18.18,0,0,1,393.64,276.64Z"/><path class="cls-2" d="M395.15,274.36c.05-.08.15-.14.22-.11a.13.13,0,0,1,.07.19.23.23,0,0,1-.23.12A.13.13,0,0,1,395.15,274.36Z"/><path class="cls-2" d="M394.08,273.18a.36.36,0,0,1,.2-.16c.08,0,.13,0,.12.09a.34.34,0,0,1-.22.23c-.09,0-.14,0-.13-.09A.36.36,0,0,1,394.08,273.18Z"/><path class="cls-2" d="M394.74,273.61a.29.29,0,0,1,.16-.13c.07,0,.13,0,.15.06a.22.22,0,0,1-.13.23c-.06,0-.12,0-.16,0s-.05-.08,0-.14Z"/><path class="cls-2" d="M392.2,274.71a1,1,0,0,1-.08.11s-.07,0-.09,0a.08.08,0,0,1,0-.07.51.51,0,0,1,.1-.3s.05-.07.09-.07.05,0,.06.07A.53.53,0,0,1,392.2,274.71Z"/><path class="cls-2" d="M392.13,276c0,.06-.08.07-.12,0l0-.05a.39.39,0,0,1,0-.3c0-.07.09-.09.13,0a.29.29,0,0,1,.07.22A.28.28,0,0,1,392.13,276Z"/><path class="cls-2" d="M395.19,275.49a.23.23,0,0,1,.22-.1.13.13,0,0,1,.06.2.21.21,0,0,1-.23.1C395.17,275.67,395.14,275.58,395.19,275.49Z"/><path class="cls-2" d="M393.92,273.05a.44.44,0,0,1-.16.17c-.06,0-.13,0-.16,0s0-.08,0-.13a.46.46,0,0,1,.17-.17l0,0s.09,0,.12,0,0,.07,0,.11S393.93,273.05,393.92,273.05Z"/><path class="cls-2" d="M392.59,273.92a.93.93,0,0,1-.13.15c-.07.05-.12,0-.12,0a.17.17,0,0,1,0-.1.69.69,0,0,1,.16-.23s.06-.06.1,0,0,.05,0,.08A1.15,1.15,0,0,1,392.59,273.92Z"/><path class="cls-2" d="M393.57,272.9a.63.63,0,0,1-.21.22l0,0s-.07,0-.09,0a.05.05,0,0,1,0-.08.57.57,0,0,1,.27-.28s.07,0,.1,0,0,.05,0,.08A.05.05,0,0,1,393.57,272.9Z"/><path class="cls-2" d="M395.68,274.84a.21.21,0,0,1-.21.1.14.14,0,0,1-.06-.2.22.22,0,0,1,.22-.1C395.71,274.67,395.73,274.75,395.68,274.84Z"/><path class="cls-2" d="M394.62,273.25a.39.39,0,0,1,.17-.14c.08,0,.13,0,.13.08a.27.27,0,0,1-.16.22.12.12,0,0,1-.13,0s0-.07,0-.12Z"/><path class="cls-2" d="M393.13,273.15a.61.61,0,0,1-.17.19.18.18,0,0,1-.07.05c-.06,0-.1,0-.09-.06a.67.67,0,0,1,.06-.12A.91.91,0,0,1,393,273l.05,0c.06,0,.09,0,.08.05S393.14,273.12,393.13,273.15Z"/><path class="cls-2" d="M392,275.53l0,0a0,0,0,0,1-.08,0s0,0,0-.07a.49.49,0,0,1,0-.29h0a.07.07,0,0,1,.07-.06s0,0,.05,0A.44.44,0,0,1,392,275.53Z"/><path class="cls-2" d="M394.81,276.61a.19.19,0,0,1-.14.09.14.14,0,0,1-.14-.05.12.12,0,0,1,0-.18.18.18,0,0,1,.23,0A.1.1,0,0,1,394.81,276.61Z"/><path class="cls-2" d="M393.27,277.16a.2.2,0,0,1-.13-.15.1.1,0,0,1,0-.11.12.12,0,0,1,.13,0,.19.19,0,0,1,.13.13v.06A.12.12,0,0,1,393.27,277.16Z"/><path class="cls-2" d="M392.77,276.78a.25.25,0,0,1,.14.22.08.08,0,0,1-.05.08.1.1,0,0,1-.09,0,.22.22,0,0,1-.14-.17.09.09,0,0,1,0-.05C392.62,276.79,392.68,276.75,392.77,276.78Z"/><path class="cls-2" d="M395.26,276.29a.19.19,0,0,1-.21.1.11.11,0,0,1-.07-.17.19.19,0,0,1,.22-.09A.1.1,0,0,1,395.26,276.29Z"/><path class="cls-2" d="M394.19,277a.11.11,0,0,1-.09-.09c0-.08,0-.16.15-.17a.15.15,0,0,1,.14.07.12.12,0,0,1,0,.15A.16.16,0,0,1,394.19,277Z"/><path class="cls-2" d="M394.38,272.8a.42.42,0,0,1-.2.17.09.09,0,0,1-.1,0s0-.06,0-.1a.39.39,0,0,1,.21-.19h.06s.06,0,.06.05A.13.13,0,0,1,394.38,272.8Z"/><path class="cls-2" d="M392.12,274.09a.38.38,0,0,1,.09-.13l.06,0s0,0,0,.05a.5.5,0,0,1,0,.12.59.59,0,0,1-.13.23s0,.06-.08.05,0,0,0-.07A.65.65,0,0,1,392.12,274.09Z"/><path class="cls-2" d="M395.9,275.05c.07,0,.09.09.05.16a.18.18,0,0,1-.2.09c-.07,0-.09-.09-.05-.16A.17.17,0,0,1,395.9,275.05Z"/><path class="cls-2" d="M394.83,272.91a.36.36,0,0,1-.16.14c-.09,0-.15,0-.12-.1a.3.3,0,0,1,.2-.18c.07,0,.11,0,.1.07A.14.14,0,0,1,394.83,272.91Z"/><path class="cls-2" d="M392.36,277l0,0a.32.32,0,0,1-.13-.24.06.06,0,0,1,0-.08s.06,0,.09,0a.41.41,0,0,1,.13.24v0A.07.07,0,0,1,392.36,277Z"/><path class="cls-2" d="M393.92,277c.07,0,.11.06.11.12s0,.11-.12.12a.15.15,0,0,1-.17-.11.11.11,0,0,1,.05-.11A.12.12,0,0,1,393.92,277Z"/><path class="cls-2" d="M392,276.28s0,0,.07,0l.05.05a.39.39,0,0,1,.09.26s0,.06,0,.07-.06,0-.08,0a.43.43,0,0,1-.1-.29A.06.06,0,0,1,392,276.28Z"/><path class="cls-2" d="M393.69,272.77a.57.57,0,0,1,.26-.2c.07,0,.11,0,.08.07a.51.51,0,0,1-.25.23.12.12,0,0,1-.1,0S393.68,272.81,393.69,272.77Z"/><path class="cls-2" d="M395.41,273.65c0-.09.17-.13.23-.08a.12.12,0,0,1,0,.16.17.17,0,0,1-.16.09C395.4,273.82,395.36,273.74,395.41,273.65Z"/><path class="cls-2" d="M392.72,273.41a.55.55,0,0,1-.14.19l-.06,0a.07.07,0,0,1-.06,0s0,0,0-.05a.43.43,0,0,1,.11-.21l.13-.13s0,0,.06,0,0,0,0,.06A.23.23,0,0,1,392.72,273.41Z"/><path class="cls-2" d="M395.64,274a.21.21,0,0,1,.19-.1.11.11,0,0,1,.05.18.17.17,0,0,1-.18.09A.11.11,0,0,1,395.64,274Z"/><path class="cls-2" d="M395.73,276a.2.2,0,0,1-.2.08c-.06,0-.08-.09,0-.16a.18.18,0,0,1,.2-.08C395.75,275.82,395.77,275.89,395.73,276Z"/><path class="cls-2" d="M391.91,275.06l-.05.06s0,0-.05,0a.07.07,0,0,1,0-.06.66.66,0,0,1,.07-.33s0-.06.07-.06,0,0,0,.06A.65.65,0,0,1,391.91,275.06Z"/><path class="cls-2" d="M395.23,273.3a.18.18,0,0,1,.14-.11c.06,0,.1,0,.11.07a.19.19,0,0,1-.1.18.14.14,0,0,1-.14,0s0-.07,0-.11Z"/><path class="cls-2" d="M391.87,275.85l0,0a.43.43,0,0,1,.07.29s0,0,0,.06,0,0-.06,0a.2.2,0,0,1-.06-.07.45.45,0,0,1,0-.23.17.17,0,0,1,0-.07A0,0,0,0,1,391.87,275.85Z"/><path class="cls-2" d="M393.06,277.12a.2.2,0,0,1,.14.15v0a.09.09,0,0,1-.1.07.22.22,0,0,1-.17-.19C392.93,277.13,393,277.09,393.06,277.12Z"/><path class="cls-2" d="M392.18,273.8a1.58,1.58,0,0,1,.15-.24l.07-.06s0,0,0,0a.07.07,0,0,1,0,.06,1.09,1.09,0,0,1-.18.31l0,0a.1.1,0,0,1-.07,0s0,0,0-.06,0,0,0-.08Z"/><path class="cls-2" d="M393,272.92a.81.81,0,0,1,.27-.25.09.09,0,0,1,.08,0s0,.05,0,.07a.87.87,0,0,1-.27.27s-.06,0-.09,0S393,273,393,272.92Z"/><path class="cls-2" d="M395.92,274.39a.18.18,0,0,1,.17-.09.11.11,0,0,1,.05.17.17.17,0,0,1-.18.08C395.9,274.53,395.88,274.46,395.92,274.39Z"/><path class="cls-2" d="M393.57,277.43a.16.16,0,0,1-.11-.1.08.08,0,0,1,0-.1.11.11,0,0,1,.11,0,.15.15,0,0,1,.12.1.08.08,0,0,1,0,.1A.11.11,0,0,1,393.57,277.43Z"/><path class="cls-2" d="M395.1,273a.27.27,0,0,1,.11-.1c.09,0,.15,0,.14.07a.22.22,0,0,1-.09.14.15.15,0,0,1-.15,0S395.07,273,395.1,273Z"/><path class="cls-2" d="M392.57,277a.28.28,0,0,1,.16.23,0,0,0,0,1,0,0s0,0-.06,0a.3.3,0,0,1-.17-.22s0,0,0-.05A.09.09,0,0,1,392.57,277Z"/><path class="cls-2" d="M395,276.78a.1.1,0,0,1,.07.1.15.15,0,0,1-.09.1.13.13,0,0,1-.15,0,.08.08,0,0,1,0-.13A.18.18,0,0,1,395,276.78Z"/><path class="cls-2" d="M394.47,272.44a.55.55,0,0,1-.22.18h0s-.08,0,0-.07a.16.16,0,0,1,0-.07.52.52,0,0,1,.19-.12l0,0c.05,0,.07,0,.05.06Z"/><path class="cls-2" d="M393.41,272.68a.6.6,0,0,1,.27-.22h.07a0,0,0,0,1,0,.05.62.62,0,0,1-.28.25s0,0-.07,0S393.39,272.71,393.41,272.68Z"/><path class="cls-2" d="M394.83,272.55a.34.34,0,0,1-.18.15s-.07,0-.09,0,0-.05,0-.08a.35.35,0,0,1,.17-.15s.08,0,.11,0S394.85,272.52,394.83,272.55Z"/><path class="cls-2" d="M394.47,277.25a.11.11,0,0,1-.08-.1.15.15,0,0,1,.07-.09.16.16,0,0,1,.15,0h0a.08.08,0,0,1,0,.12.15.15,0,0,1-.15.06Z"/><path class="cls-2" d="M396.22,275.58a.17.17,0,0,1-.18.09c-.06,0-.07-.08,0-.15a.15.15,0,0,1,.17-.08C396.24,275.46,396.25,275.52,396.22,275.58Z"/><path class="cls-2" d="M395.46,276.49c.06,0,.09.07.06.12a.18.18,0,0,1-.19.09.09.09,0,0,1-.05-.13A.17.17,0,0,1,395.46,276.49Z"/><path class="cls-2" d="M391.72,275.45l0,0s0,0,0,0l0,0a.69.69,0,0,1,0,.32s0,.06,0,.07,0,0,0-.05a.61.61,0,0,1,0-.33A0,0,0,0,1,391.72,275.45Z"/><path class="cls-2" d="M392.65,273.17a.82.82,0,0,1,.23-.26s.05-.05.08,0,0,.05,0,.07a1,1,0,0,1-.23.27l0,0a0,0,0,0,1-.05,0s0,0,0,0Z"/><path class="cls-2" d="M394.17,272.32a.62.62,0,0,1-.27.2s0,0-.06,0a.09.09,0,0,1,0-.07.83.83,0,0,1,.26-.19h0Q394.22,272.25,394.17,272.32Z"/><path class="cls-2" d="M391.92,274.58l-.05.07s0,0,0,0,0,0,0,0a.11.11,0,0,1,0-.08,1,1,0,0,1,.12-.32l0,0s0,0,0,0v.07A.94.94,0,0,1,391.92,274.58Z"/><path class="cls-2" d="M396.41,274.84a.16.16,0,0,1-.16.07.1.1,0,0,1,0-.14.16.16,0,0,1,.17-.08C396.43,274.71,396.45,274.77,396.41,274.84Z"/><path class="cls-2" d="M394.21,277.29a.11.11,0,0,1,.09.08.12.12,0,0,1-.09.11.14.14,0,0,1-.16-.08s0-.11.1-.12Z"/><path class="cls-2" d="M395,272.65a.24.24,0,0,1,.17-.12c.05,0,.08,0,.07.05a.23.23,0,0,1-.15.18s-.07,0-.09,0S395,272.69,395,272.65Z"/><path class="cls-2" d="M392.17,276.86l0,0a.51.51,0,0,1,.16.25s0,0,0,.06a0,0,0,0,1-.05,0,.5.5,0,0,1-.17-.26v0S392.15,276.86,392.17,276.86Z"/><path class="cls-2" d="M393.38,277.62a.19.19,0,0,1-.12-.11s0-.05,0-.08a.1.1,0,0,1,.09,0,.18.18,0,0,1,.13.11s0,.05,0,.08A.1.1,0,0,1,393.38,277.62Z"/><path class="cls-2" d="M392.05,276.86l0,0a.66.66,0,0,1-.12-.27s0-.05,0-.06,0,0,.06,0a.51.51,0,0,1,.12.3s0,0,0,0Z"/><path class="cls-2" d="M395.78,276.25a.15.15,0,0,1,.17-.08c.06,0,.07.06,0,.12a.18.18,0,0,1-.18.08A.08.08,0,0,1,395.78,276.25Z"/><path class="cls-2" d="M395.87,273.33a.16.16,0,0,1,.15-.08.09.09,0,0,1,.05.14.16.16,0,0,1-.15.08A.09.09,0,0,1,395.87,273.33Z"/><path class="cls-2" d="M393,277.55a.26.26,0,0,1-.15-.17s0,0,0-.05a0,0,0,0,1,.06,0,.26.26,0,0,1,.17.18.06.06,0,0,1,0,.05Z"/><path class="cls-2" d="M395.68,273c0-.07.12-.11.17-.08a.09.09,0,0,1,0,.14.17.17,0,0,1-.15.07S395.65,273.06,395.68,273Z"/><path class="cls-2" d="M396.12,273.67a.12.12,0,0,1,.14-.06c.05,0,.07.08,0,.14a.13.13,0,0,1-.15.06A.09.09,0,0,1,396.12,273.67Z"/><path class="cls-2" d="M394.65,272.31a.35.35,0,0,1,.22-.15c.05,0,.07,0,0,0a.39.39,0,0,1-.21.17.06.06,0,0,1-.07,0S394.63,272.33,394.65,272.31Z"/><path class="cls-2" d="M394.32,272.25a.22.22,0,0,1,.1-.09.56.56,0,0,1,.17-.09h0s0,0,0,0a.5.5,0,0,1-.27.18h0S394.3,272.27,394.32,272.25Z"/><path class="cls-2" d="M391.71,275.39s0,0,0,0,0,0,0,0a.13.13,0,0,1,0-.06.93.93,0,0,1,0-.32v0l0,0s0,0,0,0v0a.87.87,0,0,1,0,.32S391.72,275.38,391.71,275.39Z"/><path class="cls-2" d="M393.87,277.67c-.05,0-.08,0-.09-.08s0-.1.09-.1.11,0,.12.09,0,.1-.09.09Z"/><path class="cls-2" d="M392.13,273.91a1.83,1.83,0,0,1-.14.28l0,0,0,0s0,0,0,0a1.42,1.42,0,0,1,.05-.16,1.49,1.49,0,0,1,.14-.24h0s0-.05,0-.05,0,0,0,.05A.17.17,0,0,1,392.13,273.91Z"/><path class="cls-2" d="M391.77,276.36a.72.72,0,0,1,0-.19s0-.05,0-.06,0,0,0,0a.61.61,0,0,1,.08.3s0,0,0,.05,0,0,0,0l0,0h0A.11.11,0,0,1,391.77,276.36Z"/><path class="cls-2" d="M395.25,272.32a.3.3,0,0,1-.15.12s-.06,0-.07,0,0,0,0-.06a.28.28,0,0,1,.15-.13s.06,0,.08,0S395.26,272.29,395.25,272.32Z"/><path class="cls-2" d="M395.72,272.71s0,0,0,0a.12.12,0,0,1-.14.05s0-.06,0-.12l.05-.05s.08,0,.11,0,0,0,0,.08Z"/><path class="cls-2" d="M393.24,272.59l.06-.07a1.56,1.56,0,0,1,.2-.16l.05,0s0,0,0,0,0,0,0,0a.81.81,0,0,1-.19.18l-.12.07s0,0,0,0S393.23,272.6,393.24,272.59Z"/><path class="cls-2" d="M392.6,277.46l-.07,0a.31.31,0,0,1-.11-.16s0,0,0,0h.05a.38.38,0,0,1,.17.22,0,0,0,0,1,0,0A0,0,0,0,1,392.6,277.46Z"/><path class="cls-2" d="M396.43,274.16c-.05,0-.07-.07,0-.13a.11.11,0,0,1,.13-.06.09.09,0,0,1,0,.13A.11.11,0,0,1,396.43,274.16Z"/><path class="cls-2" d="M393.64,272.37l.05-.05a.72.72,0,0,1,.2-.14l.05,0s0,0,.05,0l0,0a1,1,0,0,1-.28.2h-.06A0,0,0,0,1,393.64,272.37Z"/><path class="cls-2" d="M392.37,273.43a1.14,1.14,0,0,1,.21-.28s0,0,.05,0,0,0,0,.05a1.41,1.41,0,0,1-.24.32s0,0,0,0,0,0,0,0Z"/><path class="cls-2" d="M396.69,275.19a.13.13,0,0,1-.14.07.08.08,0,0,1,0-.12.13.13,0,0,1,.14-.06A.07.07,0,0,1,396.69,275.19Z"/><path class="cls-2" d="M394.41,272h0a.79.79,0,0,1-.29.18h0s0,0,0-.05a.81.81,0,0,1,.28-.17h0S394.41,272,394.41,272Z"/><path class="cls-2" d="M395.13,277.25s-.05-.05,0-.1a.14.14,0,0,1,.16,0s.06,0,0,.09A.14.14,0,0,1,395.13,277.25Z"/><path class="cls-2" d="M394.74,277.49a.06.06,0,0,1-.05-.09.13.13,0,0,1,.13-.06.07.07,0,0,1,.06,0s0,.09,0,.12A.12.12,0,0,1,394.74,277.49Z"/><path class="cls-2" d="M396.45,275.83s.05.06,0,.11a.16.16,0,0,1-.14.06c-.05,0-.06-.06,0-.11A.15.15,0,0,1,396.45,275.83Z"/><path class="cls-2" d="M393.21,277.6a.24.24,0,0,1,.13.13.06.06,0,0,1,0,0s0,0,0,0a.23.23,0,0,1-.17-.13s0,0,0,0,0,0,.05,0Z"/><path class="cls-2" d="M395.59,277s0,0,0-.09a.15.15,0,0,1,.15-.06s.05.05,0,.09A.13.13,0,0,1,395.59,277Z"/><path class="cls-2" d="M395.49,272.38a.15.15,0,0,1,.09-.08c.06,0,.09,0,.08.06a.18.18,0,0,1-.09.1.08.08,0,0,1-.09,0S395.45,272.43,395.49,272.38Z"/><path class="cls-2" d="M393.21,272.57a1.07,1.07,0,0,1-.18.19l-.11.09h0s0,0,0,0l.11-.12a.9.9,0,0,1,.19-.15l0,0S393.23,272.55,393.21,272.57Z"/><path class="cls-2" d="M393.67,277.83a.2.2,0,0,1-.1-.08s0,0,0-.06a0,0,0,0,1,.06,0,.14.14,0,0,1,.13.08s0,0,0,.06a.06.06,0,0,1-.07,0Z"/><path class="cls-2" d="M394.39,277.69a.07.07,0,0,1-.05,0s0-.08.06-.09a.14.14,0,0,1,.11,0,.05.05,0,0,1,0,.08.09.09,0,0,1-.09.05Z"/><path class="cls-2" d="M395.05,272a.57.57,0,0,1-.24.14h0s0,0,0,0a.5.5,0,0,1,.19-.13h0S395.07,271.91,395.05,272Z"/><path class="cls-2" d="M392.79,277.51a.29.29,0,0,1,.17.17s0,0,0,0h0a.35.35,0,0,1-.19-.17s0,0,0,0S392.77,277.5,392.79,277.51Z"/><path class="cls-2" d="M395.11,272.09a.29.29,0,0,1,.18-.12s0,0,0,0a.38.38,0,0,1-.19.14Q395.06,272.17,395.11,272.09Z"/><path class="cls-2" d="M391.71,276.1h0s0,0,0,0a1.27,1.27,0,0,1,0-.34,0,0,0,0,1,0,0s0,0,0,0a1.34,1.34,0,0,1,0,.35Z"/><path class="cls-2" d="M396.82,274.35s.05.06,0,.11a.11.11,0,0,1-.11,0s-.05-.06,0-.11A.1.1,0,0,1,396.82,274.35Z"/><path class="cls-2" d="M394.54,272a0,0,0,0,1,0,0,.5.5,0,0,1,.25-.13s0,0,0,0a.05.05,0,0,1,0,0,.72.72,0,0,1-.26.14S394.52,272,394.54,272Z"/><path class="cls-2" d="M391.69,275a1.48,1.48,0,0,1,.11-.45h0a1.26,1.26,0,0,1-.12.45Z"/><path class="cls-2" d="M396.42,273.08a.1.1,0,0,1-.1,0s-.05-.06,0-.11a.07.07,0,0,1,.1,0S396.45,273,396.42,273.08Z"/><path class="cls-2" d="M394.13,277.86s-.05,0-.06-.05,0-.06.05-.07a.11.11,0,0,1,.12.05,0,0,0,0,1,0,0,.09.09,0,0,1-.07,0Z"/><path class="cls-2" d="M394.28,271.91l0,0a1.28,1.28,0,0,1-.25.15h0s0,0,0,0,0,0,0,0a1.22,1.22,0,0,1,.29-.17h0Z"/><path class="cls-2" d="M396.21,276.6a.14.14,0,0,1-.13.06.06.06,0,0,1,0-.1.12.12,0,0,1,.12,0S396.23,276.56,396.21,276.6Z"/><path class="cls-2" d="M395.63,272.1a.2.2,0,0,1-.11.09h-.06a.07.07,0,0,1,0-.06.22.22,0,0,1,.1-.09.09.09,0,0,1,.07,0S395.64,272.07,395.63,272.1Z"/><path class="cls-2" d="M396.22,272.76a.09.09,0,0,1-.1,0s-.05-.06,0-.1a.08.08,0,0,1,.09-.05S396.24,272.71,396.22,272.76Z"/><path class="cls-2" d="M392.34,277.36h0a.61.61,0,0,1-.19-.24s0,0,0,0h0a.84.84,0,0,1,.18.24s0,0,0,0Z"/><path class="cls-2" d="M392.1,277.06s0,0-.05,0a.82.82,0,0,1-.14-.26s0,0,0,0,0,0,0,0a1.08,1.08,0,0,1,.16.3S392.11,277.05,392.1,277.06Z"/><path class="cls-2" d="M393.56,272.26l0,0a1.21,1.21,0,0,1,.28-.18h0s0,0,0,0a1.21,1.21,0,0,1-.3.2,0,0,0,0,1,0,0Z"/><path class="cls-2" d="M394.69,271.76l0,0a1.19,1.19,0,0,1-.25.13h-.05a0,0,0,0,1,0,0s0,0,0,0a1,1,0,0,1,.23-.12h0S394.7,271.75,394.69,271.76Z"/><path class="cls-2" d="M396.64,273.3s.05.06,0,.1-.05.05-.09,0a.07.07,0,0,1,0-.1A.08.08,0,0,1,396.64,273.3Z"/><path class="cls-2" d="M396.07,272.44a.09.09,0,0,1-.1.06s0,0,0-.08l0,0s.06,0,.08,0a0,0,0,0,1,0,.06A0,0,0,0,1,396.07,272.44Z"/><path class="cls-2" d="M392.46,277.4a.33.33,0,0,1,.11.09l.09.1s0,0,0,0,0,0,0,0a.58.58,0,0,1-.19-.19,0,0,0,0,1,0,0Z"/><path class="cls-2" d="M393.56,278a.23.23,0,0,1-.11-.08s0,0,0,0h0a.18.18,0,0,1,.13.09s0,0,0,0a0,0,0,0,1,0,0Z"/><path class="cls-2" d="M393.12,277.76a.33.33,0,0,1,.15.11s0,0,0,0h0a.38.38,0,0,1-.16-.11s0,0,0,0Z"/><path class="cls-2" d="M392.6,273.09a1.41,1.41,0,0,1,.31-.34A1.21,1.21,0,0,1,392.6,273.09Z"/><path class="cls-2" d="M395.27,271.7h0a.53.53,0,0,1-.21.11s0,0,0,0,0,0,0,0a.65.65,0,0,1,.22-.11S395.28,271.67,395.27,271.7Z"/><path class="cls-2" d="M395.24,271.85l0,0a.51.51,0,0,1,.16-.09s0,0,0,0l0,0a.4.4,0,0,1-.18.1h0S395.23,271.87,395.24,271.85Z"/><path class="cls-2" d="M393.21,272.49a.93.93,0,0,1,.33-.26A1.27,1.27,0,0,1,393.21,272.49Z"/><path class="cls-2" d="M394,277.9a.13.13,0,0,1,.07.05s0,.06,0,.06a.16.16,0,0,1-.1-.05,0,0,0,0,1,0,0s0,0,.05,0Z"/><path class="cls-2" d="M395,277.7a0,0,0,0,1,0-.07.1.1,0,0,1,.12,0,0,0,0,0,1,0,0A.11.11,0,0,1,395,277.7Z"/><path class="cls-2" d="M396,272.16a.12.12,0,0,1-.08.06s0,0,0,0a.08.08,0,0,1,0-.08h0a.09.09,0,0,1,.09,0S396,272.12,396,272.16Z"/><path class="cls-2" d="M392.12,273.78a1.69,1.69,0,0,1,.26-.41A2.57,2.57,0,0,1,392.12,273.78Z"/><path class="cls-2" d="M395.69,271.84a.3.3,0,0,1-.13.09s-.05,0,0,0a.33.33,0,0,1,.15-.11S395.71,271.8,395.69,271.84Z"/><path class="cls-2" d="M395.47,277.38s0,0,0,.07a.15.15,0,0,1-.11,0s0-.06,0-.08A.1.1,0,0,1,395.47,277.38Z"/><path class="cls-2" d="M394.83,271.76s0,0,0,0l0,0a.87.87,0,0,1,.24-.1h0l0,0a.8.8,0,0,1-.25.11Z"/><path class="cls-2" d="M396.94,273.73a.09.09,0,0,1-.08,0,.06.06,0,0,1,0-.09.05.05,0,0,1,.07,0A.05.05,0,0,1,396.94,273.73Z"/><path class="cls-2" d="M396.94,275.55a.09.09,0,0,1-.09,0,0,0,0,0,1,0-.07.08.08,0,0,1,.1,0S397,275.51,396.94,275.55Z"/><path class="cls-2" d="M392.79,277.67a.7.7,0,0,1,.19.15s0,0,0,0h0l0,0a.53.53,0,0,1-.14-.12s0,0,0,0Z"/><path class="cls-2" d="M394.64,277.88s-.05,0,0-.05a.06.06,0,0,1,.06,0h0a.06.06,0,0,1,.07,0,0,0,0,0,1,0,.05A.09.09,0,0,1,394.64,277.88Z"/><path class="cls-2" d="M391.79,276.43h0a1.59,1.59,0,0,0,.07.2s0,.05,0,.09l0-.08a1.69,1.69,0,0,1-.1-.27v0S391.78,276.41,391.79,276.43Z"/><path class="cls-2" d="M391.64,275.26a2,2,0,0,1,0,.42A1.49,1.49,0,0,1,391.64,275.26Z"/><path class="cls-2" d="M397.1,274.73s0,0,0,.07a.06.06,0,0,1-.08,0s0,0,0-.07A.05.05,0,0,1,397.1,274.73Z"/><path class="cls-2" d="M394.63,271.67v0l-.28.13h0l0,0a1.08,1.08,0,0,1,.29-.13Z"/><path class="cls-2" d="M396.68,276.2s0,0,0,.06a.08.08,0,0,1-.09,0s0,0,0-.06A.08.08,0,0,1,396.68,276.2Z"/><path class="cls-2" d="M393.93,272a.73.73,0,0,1,.32-.18A2,2,0,0,1,393.93,272Z"/><path class="cls-2" d="M394.38,278s-.06,0-.05-.06a.09.09,0,0,1,.09,0h0a0,0,0,0,1,0,.05.06.06,0,0,1-.06,0Z"/><path class="cls-2" d="M395.83,277.21s0,0,0,0,.07-.06.1-.05,0,0,0,.05A.1.1,0,0,1,395.83,277.21Z"/><path class="cls-2" d="M395,271.56a1.25,1.25,0,0,1-.3.12A.68.68,0,0,1,395,271.56Z"/><path class="cls-2" d="M393.46,278a.28.28,0,0,1,.11.08s0,0,0,0h0a.27.27,0,0,1-.13-.07s0,0,0,0,0,0,0,0Z"/><path class="cls-2" d="M395.86,271.91a.11.11,0,0,1,.07-.06s0,0,0,0,0,0,0,0a.13.13,0,0,1-.06.07h0S395.85,271.93,395.86,271.91Z"/><path class="cls-2" d="M393.84,278.11l-.07,0s0,0,0,0h0a.13.13,0,0,1,.09,0s0,0,0,0,0,0,0,0Z"/><path class="cls-2" d="M395.54,271.51a1.22,1.22,0,0,1-.24.1h0l.09,0Z"/><path class="cls-2" d="M395.66,271.56v0l-.17.08s0,0,0,0l0,0,.17-.08S395.67,271.55,395.66,271.56Z"/><path class="cls-2" d="M393.3,278a.14.14,0,0,1-.09,0l-.1-.07s0,0,0,0h0A.47.47,0,0,1,393.3,278Z"/><path class="cls-2" d="M393.58,272.16a2.3,2.3,0,0,1,.33-.21A1.85,1.85,0,0,1,393.58,272.16Z"/><path class="cls-2" d="M395.67,271.7s0,0,0,0a.28.28,0,0,1,.15-.08s0,0,0,0a.3.3,0,0,1-.15.09Z"/><path class="cls-2" d="M395.18,271.55a.62.62,0,0,1,.26-.09A1.14,1.14,0,0,1,395.18,271.55Z"/><path class="cls-2" d="M394.21,278.07s.05,0,0,.06h-.08s0,0,0,0S394.19,278.07,394.21,278.07Z"/><path class="cls-2" d="M393.23,272.43a2.61,2.61,0,0,1-.3.27A2.52,2.52,0,0,1,393.23,272.43Z"/><path class="cls-2" d="M397.17,274.09a0,0,0,0,1,0-.06,0,0,0,0,1,0,0s0,0,0,.05Z"/><path class="cls-2" d="M396.49,272.4a0,0,0,0,1,0,.06.05.05,0,0,1-.05,0,0,0,0,0,1,0-.07Z"/><path class="cls-2" d="M394.34,271.72a1.48,1.48,0,0,1,.29-.12A.93.93,0,0,1,394.34,271.72Z"/><path class="cls-2" d="M396.66,272.72s0,0,0,0,0,0,0,.05,0,0,0,0A0,0,0,0,1,396.66,272.72Z"/><path class="cls-2" d="M392.75,277.75a.91.91,0,0,1-.21-.18A.91.91,0,0,1,392.75,277.75Z"/><path class="cls-2" d="M395.91,271.7a.18.18,0,0,1,.09-.06h0s0,0,0,0a.12.12,0,0,1-.08.06h0S395.91,271.71,395.91,271.7Z"/><path class="cls-2" d="M395,271.5l-.28.1A.85.85,0,0,1,395,271.5Z"/><path class="cls-2" d="M392.25,277.29c.07.06.13.14.2.21A.8.8,0,0,1,392.25,277.29Z"/><path class="cls-2" d="M396.29,272.16s0,0,0,0,0,0,0,.06a0,0,0,0,1-.05,0S396.28,272.18,396.29,272.16Z"/><path class="cls-2" d="M396.39,276.85s0,0,0,0,0,0-.07,0,0,0,0,0A.05.05,0,0,1,396.39,276.85Z"/><path class="cls-2" d="M395.39,271.41a.72.72,0,0,1-.25.07A1.17,1.17,0,0,1,395.39,271.41Z"/><path class="cls-2" d="M392.87,277.82a.74.74,0,0,1,.21.13A1.07,1.07,0,0,1,392.87,277.82Z"/><path class="cls-2" d="M393.85,278.18a.17.17,0,0,1-.12,0h0A.16.16,0,0,1,393.85,278.18Z"/><path class="cls-2" d="M393.45,278.08a.24.24,0,0,1,.16.07Z"/><path class="cls-2" d="M395.73,271.47a.7.7,0,0,1,.19-.06A.42.42,0,0,1,395.73,271.47Z"/><path class="cls-2" d="M396.25,271.93s0,0,0,0,0,0,0,0,0,0,.05,0S396.26,271.92,396.25,271.93Z"/><path class="cls-2" d="M395.63,271.43a.8.8,0,0,1,.21-.05A.54.54,0,0,1,395.63,271.43Z"/><path class="cls-2" d="M395.17,277.87s0,0,0,0,0,0,.06,0,0,0,0,0S395.19,277.87,395.17,277.87Z"/><path class="cls-2" d="M395.87,271.51a.34.34,0,0,1,.15-.07A.41.41,0,0,1,395.87,271.51Z"/><path class="cls-2" d="M394.09,278.21a.05.05,0,0,1,0,0h.07l0,0S394.1,278.21,394.09,278.21Z"/><path class="cls-2" d="M394.84,278s0,0,0,0,0,0,.05,0,0,0,0,0S394.86,278,394.84,278Z"/><path class="cls-2" d="M395.38,271.37l-.21.05A.8.8,0,0,1,395.38,271.37Z"/><path class="cls-2" d="M397,273s0,0,0,0,0,0,0,0a0,0,0,0,1,0-.05Z"/><path class="cls-2" d="M395,271.44l-.21.08A.9.9,0,0,1,395,271.44Z"/><path class="cls-2" d="M395.79,271.35l-.19,0h0l.19,0Z"/><path class="cls-2" d="M394.05,271.85l.22-.12h0l-.22.12Z"/><path class="cls-2" d="M394.61,278.11s0,0,0,0,0,0-.05,0,0,0,0,0S394.59,278.11,394.61,278.11Z"/><path class="cls-2" d="M395.58,277.66s0,0,0,0,0,0,.05,0,0,0,0,0S395.59,277.67,395.58,277.66Z"/><path class="cls-2" d="M393.4,278.08a.44.44,0,0,1-.17-.07Z"/><path class="cls-2" d="M396,271.53a.14.14,0,0,1,.1,0Z"/><path class="cls-2" d="M395.77,271.32l-.17,0h0l.16,0Z"/><path class="cls-2" d="M396.22,271.7s0,0,0,0,0,0,0,0a.05.05,0,0,1,0,0S396.23,271.7,396.22,271.7Z"/><path class="cls-2" d="M394.39,278.23s0,0,0,0h0s0,0,0,0S394.4,278.23,394.39,278.23Z"/><path class="cls-2" d="M394,278.24a.12.12,0,0,1,.08,0Z"/><path class="cls-2" d="M395.38,271.34l-.1,0Z"/><path class="cls-9" d="M158.16,296.89l.24-1.09a9,9,0,0,1,7.49-6.79,10.36,10.36,0,0,1,7,1.28,1.75,1.75,0,0,0,.24.11c1.47-2.08,3.69-2.74,5.55-1.61l-1.77,1.52a13.35,13.35,0,0,0-2-.76,1.36,1.36,0,0,0-.95.35c-.56.42-.53.76,0,1.24a8.36,8.36,0,0,1,2.62,8.89c-.9,3.42-3.34,5.38-6.73,6.12a10.33,10.33,0,0,1-7.34-1,1.55,1.55,0,0,0-1.06-.11,3.29,3.29,0,0,0-2.59,3.13,3.24,3.24,0,0,0,2.57,3.06,6.52,6.52,0,0,0,5.1-.81c1.44-.75,2.82-1.61,4.27-2.37a5.48,5.48,0,0,1,4.1-.56,4.87,4.87,0,0,1,3.42,5.36,6.45,6.45,0,0,1-5.44,6,5.07,5.07,0,0,1-5.13-2.12l.47.43c2.29,2.1,7.1,2.12,8.38-2a4.14,4.14,0,0,0-.25-3.09,3,3,0,0,0-3.76-1.57,34.44,34.44,0,0,0-3.4,1.54,36.06,36.06,0,0,1-4.28,1.77,6.94,6.94,0,0,1-3,0,4.34,4.34,0,0,1-3.63-3.59c-.05-.23-.12-.45-.18-.67v-1.27a1.74,1.74,0,0,0,.11-.18,4.37,4.37,0,0,1,2.94-3.4,2.06,2.06,0,0,0,.39-.24c-2.1-2.08-2.59-2.79-3.06-4.44-.15-.53-.26-1.08-.38-1.62Zm15.48.75a14.4,14.4,0,0,0-.82-4.79,5.15,5.15,0,0,0-4.84-3.61,5.38,5.38,0,0,0-5.46,3.37,11.38,11.38,0,0,0-.94,4.45,11.53,11.53,0,0,0,1.25,6.21,5.26,5.26,0,0,0,5,2.78,5.15,5.15,0,0,0,4.87-3.28A13.67,13.67,0,0,0,173.64,297.64Z"/></svg>