<svg id="Layer_1" data-name="Layer 1" xmlns="http://www.w3.org/2000/svg" viewBox="0 0 1080 1080"><defs><style>.cls-1{fill:#020202;}.cls-2{fill:#060606;}.cls-3{font-size:74.78px;fill:#fff;font-family:GamerockPersonalUse, Gamerock Personal Use;}</style></defs><path class="cls-1" d="M381.47,714q-69,0-138,.08c-3.35,0-4.12-.87-4.12-4.14q.1-82.35-.05-164.7c0-5,2.84-7.64,8.45-7.65q41.58,0,83.15,0l183.39-.08c.93,0,1.86,0,2.79,0,4.65.23,7.07,2.63,7.07,7.29q0,82.74,0,165.49c0,3.45-1.37,3.72-4.16,3.72q-69.22-.11-138.45-.05Z"/><path class="cls-2" d="M381.73,768H223.8c-16.51,0-31.27-10.58-35.6-25.48a34.51,34.51,0,0,1-1.08-11c.11-3.12,1.83-4.89,5-5,2.78-.11,5.57-.14,8.35-.15q66.24-.12,132.48-.27c2.72,0,4.86.62,6.68,2.68,2.79,3.16,6.25,4.41,10.59,4.37,21.08-.14,42.17-.09,63.25,0,4,0,7.46-1,9.88-4.08,2.13-2.69,4.77-3,7.76-3q62.25,0,124.52,0c4.9,0,9.81,0,14.71,0,4.48.06,6.23,1.85,6.31,6.29.33,19.41-16,35.46-36.19,35.47q-79.37.06-158.73,0ZM200.48,738.89a18.42,18.42,0,0,0,6,9.81,25.9,25.9,0,0,0,17.76,6.7q101.21-.1,202.41-.06,56.46,0,112.93,0c9.65,0,17.08-4.16,22-12.49,2.12-3.56,1.86-4-2.1-4q-62.62,0-125.26,0c-1.48,0-2.8,0-4,1.22-4.36,4.24-9.82,5.47-15.7,5.48q-33.6.06-67.21.17a20.2,20.2,0,0,1-13.25-4.58,10.37,10.37,0,0,0-7.27-2.32q-57.47.06-114.92,0Z"/><path class="cls-2" d="M381.56,513.13q66.42,0,132.85,0c16.15,0,29.61,10.42,33.2,25.58a29.54,29.54,0,0,1,.75,6.7q0,81.14-.05,162.28c0,3-1,5.15-3.75,6.35a6.2,6.2,0,0,1-8.85-5.41c-.2-3.57-.1-7.16-.1-10.74q0-74.77,0-149.55c0-14.86-7.67-22.36-22.56-22.36l-258.54,0c-2.25,0-4.51,0-6.76,0-11.94.29-20.09,8.51-20.12,20.51q-.09,37.39,0,74.78,0,43.15.15,86.31c0,4.63-2.28,7.2-6.47,7.14s-6.51-2.67-6.51-7.27q0-54.29.06-108.58,0-25.86,0-51.71c0-19.53,14.34-33.92,33.87-33.93q66.42,0,132.85,0Z"/><text class="cls-3" transform="translate(306.64 664.75)">^</text><text class="cls-3" transform="translate(365.53 680.57)">-</text><text class="cls-3" transform="translate(416.67 664.75)">^</text><path class="cls-2" d="M504.25,476.48c15.49-12.59,30-24.27,44.37-36.17a13.85,13.85,0,0,1,9.48-3.52q103.2.09,206.4,0A16.85,16.85,0,0,1,768,437c4.28.93,6.84,3.66,6.77,8s-2.89,6.59-6.86,7.43a25,25,0,0,1-5,.14q-99,0-197.91,0a14.72,14.72,0,0,0-9.94,3.51c-17.32,14.07-34.8,27.95-52.2,41.92-3,2.43-5.85,5.13-10.21,2.87s-4.54-6-4.49-10.23c.12-11.33-.09-22.66.13-34,.07-3.34-1-4.12-4.18-4.1-19.65.12-39.31.06-59,0-37.18-.07-66.15-26.79-69.66-64.2-3.3-35.25,22.08-68.71,57.14-75.17,10.06-1.86,20.27-1.07,30.42-1.05a7.85,7.85,0,0,1,8.06,8.35c-.27,4.17-3.78,7.2-8.54,7.32-8.48.21-17-.72-25.44.68-27.5,4.54-47.74,30-45.66,57.46,2.2,29.18,24.52,50.45,53.58,50.73,23.15.22,46.31.09,69.47.11,7.88,0,9.72,1.82,9.73,9.63C504.27,456,504.25,465.63,504.25,476.48Z"/><path class="cls-2" d="M653.65,327.86H485.18a43.66,43.66,0,0,1-5-.08,7.69,7.69,0,0,1-6.92-7.84c.12-4.19,2.32-6.88,6.56-7.52a37.05,37.05,0,0,1,5.48-.23q169.21-.07,338.43-.11c37.49,0,68.9,31.89,69.18,69.93.28,38.49-29.54,69.74-67.49,70.63-6.16.15-12.33.08-18.5,0-6-.05-9.54-3-9.58-7.82s3.76-7.94,9.93-8.06c9-.17,18,.85,26.92-1a54.24,54.24,0,0,0,42.69-58.63c-2.74-27.56-25.95-49.2-53.28-49.25Q738.64,327.72,653.65,327.86Z"/><path class="cls-2" d="M409.53,380.58c0-5,.17-10-.06-14.95-.18-3.83,1.18-5.56,5.12-5.4,4.82.19,9.65-.07,14.45.19,5.89.32,8.27,3,8.23,8.82,0,2.49-.06,5,0,7.47s-1.16,4.83-3.49,5.53c-4.15,1.26-2.92,3.17-1.3,5.58s3.19,5.05,4.66,7.65c.85,1.51,2.43,3.27,0,4.68a3.83,3.83,0,0,1-5.31-1.24c-1.92-2.69-3.55-5.6-5.3-8.42-1-1.69-2.13-3.36-3.08-5.1-1.32-2.42-3.49-1.47-5.33-1.33-2.28.18-1.58,2.15-1.61,3.5-.06,3,0,6,.05,9,0,2.37-1.07,3.89-3.52,3.89s-3.5-1.54-3.49-3.9Q409.54,388.55,409.53,380.58Zm13.11-1.92c7.77.06,7.42,0,8-7.29.41-5.39-2.18-6.39-6.44-5.66-3.12.54-8.39-2.91-8,4.68C416.66,378.58,416.25,378.61,422.64,378.66Z"/><path class="cls-2" d="M526,380.82c0,5.32-.07,10.64,0,16,0,2.52-1.24,4.26-3.48,3.64-4.51-1.24-8.78.57-13.19.28-6-.4-7.94-2.09-8-8.24q-.09-6.48,0-13c.09-5.61,1.84-7.44,7.37-7.91.66-.06,1.33,0,2-.09,2.76-.28,6.32,1.64,8-.21,1.36-1.47.51-5,.52-7.67,0-2.22,1-3.52,3.22-3.59,2.51-.08,3.53,1.5,3.54,3.83C526,369.52,526,375.17,526,380.82Zm-6.83,5h0c0-2.16,0-4.32,0-6.48,0-1.12.12-2.16-1.43-2.73-6-2.21-9.82.27-9.82,6.48a68.89,68.89,0,0,1-.05,7.47c-.44,4,1.29,5.16,5.09,5.32,4.58.19,7-1,6.22-6.08A26.41,26.41,0,0,1,519.18,385.82Z"/><path class="cls-2" d="M813,383.77c3.09-3.39,6.16-6.79,9.27-10.16,1.71-1.85,3.9-3.29,6-1.09,2.28,2.41-.56,3.8-2,5.18-6.81,6.8-6.84,6.77-1,14.12.82,1,1.68,2.06,2.49,3.12,1.12,1.45,2.65,3.09.77,4.76s-4.08,1.27-5.7-.68a74.41,74.41,0,0,1-6.08-7.9c-2.21-3.53-3.48-1.6-4.77.53-1.13,1.84-.31,3.91-.43,5.88s-1.11,3-3.18,3c-1.91-.07-3.23-.77-3.22-2.92,0-11.48,0-23,.16-34.44a3,3,0,0,1,3.56-3.22c2.3.22,2.88,1.87,2.87,3.93,0,6.32,0,12.64,0,19Z"/><path class="cls-2" d="M782.28,387.74c0,1.5.08,3,0,4.49-.14,2.31.81,4.93-.59,6.84-1.74,2.38-4.34,0-6.34.35-3.27.53-6.46,1.44-9.83,1.22-3.64-.25-6.7-1.29-6.88-5.61s-1.07-8.94,4.51-10.85a24.57,24.57,0,0,1,9.33-1.37c2.31.12,3.26-.51,3.14-3-.12-2.31-.84-3.47-3.22-3.18-2.64.32-5.57-1-7.65,2.21a3,3,0,0,1-4.81,0c-1.29-1.48-.29-3.22.76-4.51a7.2,7.2,0,0,1,5.32-2.41,76.87,76.87,0,0,1,9-.2c4.95.23,7.06,2.49,7.26,7.58.12,2.83,0,5.66,0,8.49Zm-11.09,0c-1.74.72-6.46-1.45-6.19,4.54.2,4.3,3.15,3.21,5.64,3.46,4.42.43,5-2,5-5.67C775.6,387.18,774.3,387.14,771.19,387.71Z"/><path class="cls-2" d="M630,385.68c-.23-14.34-.23-14.33,14.13-14.18,3,0,6.52-.33,7.86,3,1.66,4.05,1.31,8.49.21,12.71-.38,1.42-2.18,1.31-3.49,1.35-3,.1-6,.17-9,.12-2.18,0-3.8,0-3.63,3.05.15,2.71,1,4.06,3.75,3.93s6,.43,8.48-1.92a2.65,2.65,0,0,1,4.32.42c1,1.5.16,2.87-.89,4-3,3.33-17.24,3.36-20.26.11a5.74,5.74,0,0,1-1.51-4.09C630,391.33,630,388.51,630,385.68Zm11.17-2c2.17-.17,5.41,1.25,5.26-3.93-.14-5-3.37-3.29-5.73-3.59-3-.37-4.69.31-4.72,4.15C636,384.52,638.31,383.83,641.2,383.72Z"/><path class="cls-2" d="M495.21,387.92c0,3.48.84,7.25-.19,10.39-1.61,4.89-6.19-.05-9.17,1.73-1.17.7-2.91.54-4.39.59-7.24.2-9.23-1.12-9.73-6.31-.7-7.25,1.2-9.88,8.21-11.1a38.19,38.19,0,0,1,6-.42c1.8,0,3.29-.05,3-2.6-.19-2-.18-3.76-2.88-3.57-2.87.21-6-.89-8.26,2.13a3,3,0,0,1-4.46.43c-1.8-1.55-.79-3.36.27-4.91a6.12,6.12,0,0,1,3.7-2.37,8.21,8.21,0,0,1,1.48-.19C495.69,370.85,495.89,372.14,495.21,387.92Zm-11.07-.13c-1.81.45-5.83-1.25-5.91,4-.06,3.87,2.17,4.08,5.17,4.06,3.63,0,5.75-.64,5.66-5.19C489,387.07,487.3,387.44,484.14,387.79Z"/><path class="cls-2" d="M455.8,371.71c2.42.29,5.48-.79,7.89,1.16,4.42,3.58,2.74,8.66,2.36,13.06-.31,3.69-4,2.48-6.52,2.68a56.93,56.93,0,0,1-6,.09c-2.1,0-4-.21-3.75,3,.16,2.65,1,4.14,3.79,3.95s6.05.65,8.38-2.08a2.31,2.31,0,0,1,3.54-.25c1.34,1.19,1.18,2.73.34,4.09a5.84,5.84,0,0,1-3.52,2.63,11.46,11.46,0,0,1-2.43.47c-17.23.65-16.84-1.25-16.48-15,0-.66,0-1.33,0-2C443.53,372.37,444.21,371.69,455.8,371.71Zm-1.46,12.06c2.1-.8,5.84,1.69,5.72-3.53-.12-5.4-3.93-3-6.33-3.47-3.36-.69-4.13,1.13-4.21,4.18C449.4,385.26,452.45,383.25,454.34,383.77Z"/><path class="cls-2" d="M543.62,392.27c2.34-6.31,4.43-11.71,6.35-17.18,1-2.75,2.49-4.5,5.5-3.31s1,3.56.46,5.08c-3.78,10.27-7.78,20.45-11.72,30.66A6,6,0,0,1,541.6,411a3.93,3.93,0,0,1-4.24-.16c-1.63-1.08-.87-2.49-.2-3.49,3.86-5.77,2.09-11.12-.63-16.71-2.17-4.45-3.66-9.23-5.42-13.89-.71-1.88-1.62-3.9,1.27-4.85,2.58-.85,3.69.9,4.46,2.81C539.05,380.27,541.14,385.84,543.62,392.27Z"/><path class="cls-2" d="M702.4,400.52c-2.65,0-5.33.27-7.9-.67-2.06-.75-3.39-2.08-3.48-4.36,0-1.13-.33-2.52,1.28-2.81,1.93-.35,3.45-.41,5.21,1.51,2.59,2.85,6.46,1.53,9.77.88,1.28-.25.72-2,.79-3.12.09-1.65-1-2.41-2.37-2.71-2.93-.6-5.88-1.12-8.81-1.71-5.82-1.18-5-5.73-4.93-9.85s2.57-5.92,6.42-6c3.5-.1,7,0,10.48,0a5.36,5.36,0,0,1,5,2.81c.84,1.67,1.92,4-.44,5.28a3.68,3.68,0,0,1-5.17-1.33c-2.45-3.7-6.18-1.68-9.35-1.56-1.3,0-.84,1.92-.88,3a2.62,2.62,0,0,0,2.31,2.79c2.91.71,5.8,1.44,8.72,2.09,5.39,1.19,5.84,5,5.43,9.57-.44,4.79-3.56,6-7.55,6.19C705.4,400.59,703.9,400.52,702.4,400.52Z"/><path class="cls-2" d="M740,382.59c0-2.49,0-5,0-7.47,0-2.66.72-5.67-.29-7.89-1.3-2.85-4.73-.92-7.19-1.33-1.79-.3-2.83-1.14-2.9-2.8a2.62,2.62,0,0,1,2.82-2.84c7.64-.07,15.28-.09,22.91,0a2.76,2.76,0,0,1,2.95,3.24c-.15,2-1.58,2.21-3.17,2.41-2.6.34-6.41-1.21-7.54.63-1.35,2.21-.59,5.76-.61,8.73,0,6.81-.07,13.62,0,20.44,0,2.7-.54,4.71-3.64,4.72-3.34,0-3.4-2.38-3.36-4.88.06-4.32,0-8.64,0-13Z"/><path class="cls-2" d="M603.06,379.72c0-5.16.06-10.32,0-15.48,0-2.25.41-4.15,3-4.26,2.84-.13,3.52,1.8,3.53,4.3,0,8.66.35,17.32.08,26-.12,3.91,1.17,4.9,4.79,4.56,3.13-.29,6.32.05,9.48-.05,2-.06,2.72.89,2.67,2.67,0,1.58-.4,3.15-2.39,3.15-5.82,0-11.65,0-17.46-.35-2.79-.17-3.69-2.32-3.64-5,.09-5.15,0-10.31,0-15.47Z"/><path class="cls-2" d="M660.24,386.68c0-2.49-.14-5,0-7.47.22-3.12-4-1.63-4.31-4.64-.34-3.72,4.22-1.33,4.38-4.13.15-2.59-1.25-6.45,3-6.73,4.79-.31,3.3,3.89,3.7,6.59.36,2.42,2.26,1.32,3.53,1.51,1.93.29,4.34-.13,4.29,2.86s-2.55,2.58-4.41,2.42c-2.82-.24-3.88.72-3.58,3.61a45,45,0,0,1,.13,8c-.33,4.63.22,8.13,6.28,6.54,1.57-.42,2.1.53,2.16,1.88.08,1.77-.9,2.66-2.52,3.19-7.88,2.56-12.67-.87-12.64-9.11C660.25,389.66,660.24,388.17,660.24,386.68Z"/><path class="cls-2" d="M583.74,370.17c1.19,4.91-1.23,8-5.65,10.12-2.28,1.1-4.31,2.52-4,5.64.2,2.13-1.07,2.85-3.11,2.87-2.19,0-2.79-1.05-2.94-3.05-.33-4.53,1.64-7.62,5.44-9.84,1.5-.88,3.8-1.44,3.47-3.73s2-5.91-1.91-6.7c-3.31-.67-7.66-2-8.7,3.55-.44,2.34-2.26,2.22-3.83,2.22-2.15,0-2-1.82-2.11-3.29-.44-4.27,1.81-6.61,5.66-7.51a30.43,30.43,0,0,1,11.91-.27C583.46,361.09,584.49,365.13,583.74,370.17Z"/><path class="cls-2" d="M788.61,379.29c0-4.15-.12-8.3,0-12.44.11-2.7-1.48-6.93,3.27-6.79,4.58.14,3.05,4.33,3.1,7q.24,11.94.09,23.89c0,2.92.44,4.91,4,4.59,1.31-.12,2.9.05,3,1.83s-1.18,2.59-2.75,3c-6.7,1.93-10.61-.85-10.73-7.73C788.54,388.25,788.6,383.77,788.61,379.29Z"/><path class="cls-2" d="M679.73,365.74c0-1,0-2,0-3,.12-2.07,1.11-3.56,3.28-3.6s3.32,1.27,3.32,3.45-.06,4.28-.1,6.43-.75,4-3.33,4c-2.39,0-2.81-1.86-2.86-3.83,0-1.15-.1-2.31-.15-3.46Z"/><path class="cls-2" d="M574.78,396.78c-.28,2.12-1.46,3.47-3.51,3.55a3,3,0,0,1-3.41-3.32,3.19,3.19,0,0,1,3.4-3.42C573.51,393.49,574.53,394.74,574.78,396.78Z"/></svg>