<svg id="Layer_1" data-name="Layer 1" xmlns="http://www.w3.org/2000/svg" xmlns:xlink="http://www.w3.org/1999/xlink" viewBox="0 0 197.29 154.04"><defs><style>.cls-1,.cls-5{fill:#999;}.cls-2{fill:#ccc;}.cls-3{fill:url(#linear-gradient);}.cls-4{fill:#e73e60;}.cls-5{font-size:0.86px;font-family:Arial-BoldMT, Arial;font-weight:700;}.cls-6{letter-spacing:-0.07em;}.cls-7{letter-spacing:-0.02em;}.cls-8{fill:url(#linear-gradient-2);}</style><linearGradient id="linear-gradient" x1="-206.64" y1="84.82" x2="-206.67" y2="81.08" gradientTransform="translate(344.71)" gradientUnits="userSpaceOnUse"><stop offset="0" stop-color="#e14074"/><stop offset="1" stop-color="#e94f55"/></linearGradient><linearGradient id="linear-gradient-2" x1="346.84" y1="97.74" x2="346.77" y2="89.3" gradientTransform="translate(-286.86)" xlink:href="#linear-gradient"/></defs><path class="cls-1" d="M141.55,124.23l3.79,3c-.27-2-.65-4.89-1-7.74H123.6c1.5,1.13,2.75,2,3.91,3a17.18,17.18,0,0,1,1.73,2,14.74,14.74,0,0,1-3.37-.86c-1.82-1-3.49-2.23-5.26-3.29a4.31,4.31,0,0,0-2-.73c-4.15-.07-8.3,0-12.45,0h-1.32l-.07.29q4.35,3.35,8.71,6.68l-.28.55a5.54,5.54,0,0,1-2-.31,67.34,67.34,0,0,1-7.18-4.66c-2.43-1.94-4.53-4.29-7.66-5.2-.4-.11-.73-.58-1-.94-1.15-1.44-2.26-2.9-3.39-4.35l-.87-1.15-.27.15q.9,8.37,1.81,16.74l-.61.25A6.06,6.06,0,0,1,90.88,126a13.06,13.06,0,0,1-.83-3.28Q89,110.87,88,99a21.26,21.26,0,0,1,.23-4.51c.09-.58.73-1.07,1.11-1.6.31.56.85,1.11.88,1.69q.21,3.25.14,6.51a9.74,9.74,0,0,0,1.94,6.31c1.51,2,2.91,4.11,4.3,6.1,1.09-1.32,2.06-2.45,3-3.62a2.36,2.36,0,0,0,.33-1c1.72-11.66,3.39-23.33,5.17-35,.61-4,1.45-8,2.23-11.95.16-.82.35-1.75,1.78-1.93-.91,9.58-2.69,19-4,28.54s-2.72,19.08-4.1,28.71H143.8l-2.44-12-1.62.78a5.16,5.16,0,0,1-.44-1.69c.16-2.26.39-4.51.71-6.75a2.65,2.65,0,0,1,2.36-2.44,17.14,17.14,0,0,1,2.25-.22c3.72,0,7.44,0,11.16.06a6.49,6.49,0,0,1,2,.78l-.09.74c-4.15.86-8.45.24-12.69.89.08.35.14.67.22,1,2.3,9.33,4.66,18.64,6.87,28a65.28,65.28,0,0,1,.94,7.12h15c-1.82-6.29-3.69-12.47-5.38-18.69-1.59-5.81-3-11.67-4.44-17.53a5.26,5.26,0,0,1,.26-2.64c1.37-.08,1.28,1.27,1.53,2.1,1.89,6.37,3.68,12.76,5.51,19.15.12.43.26.86.32,1,.7,0,1.2,0,1.69,0,4.28.19,8.56.37,12.84.59,1,0,1.44-.34,1.57-1.33.25-1.91.6-3.81.9-5.72,1.88-12,3.68-24,5.7-36,.75-4.49,2-8.89,3-13.34l0,.06c1.22-.17,1.63.45,1.51,1.56-.05.52-.11,1-.19,1.55-1.86,11.29-3.7,22.6-5.59,33.89-1,6-2,11.9-3.11,17.83-.53,2.82-1.6,3.63-4.46,3.73-1.88.06-3.77.09-5.66,0-2.71-.09-5.43-.26-8-1.91l2.65,9.86c.42,0,.74-.07,1.06-.13,1.31-.23,2.57-.25,3.45,1a3.63,3.63,0,0,1,.13,3.77c-.17.41-.68.68-1,1-.29-.43-.75-.83-.84-1.3a13.35,13.35,0,0,1,0-2.38l-2.1.1v3.87a8.51,8.51,0,0,0,1,.12l21.49.31a5.5,5.5,0,0,1,1.82.09,10.75,10.75,0,0,1,1.93,1.12c-.64.35-1.27,1-1.93,1-3.82.2-7.63.38-11.45.37-9,0-18-.29-27-.28-26.6,0-53.2.25-79.8.21-19.81,0-39.61-.32-59.42-.54-2.78,0-5.56-.25-8.33-.47a9.6,9.6,0,0,1-2.21-.7l0-.53a8.64,8.64,0,0,1,1.68-.48c1.27-.12,2.54-.19,3.81-.19q10,.06,20.09.15h1.18l.22-.34c-3.85-.9-4.36-4-5-7A28.44,28.44,0,0,1,27,115.08c-1.91-1.23-2.09-1.56-1.7-3.77a89.35,89.35,0,0,1,5.14-18.92c.16-.37.26-.76.39-1.17-4.62-.46-6.55.68-7.57,5a44.37,44.37,0,0,0-1.1,8.52,116.48,116.48,0,0,0,2.08,25.61,4,4,0,0,1-.26,1.41c-.46-.24-1.14-.37-1.35-.75a10.4,10.4,0,0,1-1.08-2.89,97.69,97.69,0,0,1-1.86-24.19A30.65,30.65,0,0,1,21.5,93.8a7.46,7.46,0,0,1,6.6-5,14.87,14.87,0,0,1,2.82-.15c.89.07,1.18-.35,1.55-1.05a101.31,101.31,0,0,1,5.08-9.13,11.4,11.4,0,0,1,4.2-3.82C46,72.57,50.44,70.82,54.85,69c1.81-.73,3.72-1.2,5.57-1.79a15.31,15.31,0,0,1-.4-3.92c.36-2.29-.87-3.55-2.32-5A18.41,18.41,0,0,1,52,48.3a11.09,11.09,0,0,1,0-1.73l.45-.14c.34.62.65,1.26,1,1.86,1.36,2.25,2.6,4.59,4.16,6.69a60,60,0,0,0,4.45,4.73,26.85,26.85,0,0,1,1.6,2.2h-2A19.77,19.77,0,0,0,62,64.13c.7,2.81.34,5.11-2.92,6.24A19.52,19.52,0,0,0,69,76.11,3,3,0,0,0,72.73,74a17,17,0,0,0,.58-2.68C70,70,70.9,67.09,70.43,64.92l-2-1.4.17-.43a8.1,8.1,0,0,1,1.45-.29c1.08,0,2.16.05,3.25.1a9.56,9.56,0,0,0,9.38-5.12A26.33,26.33,0,0,0,85,52.61a39.48,39.48,0,0,0,1-16.12c-.3-2.66-.58-5.34-.72-8,0-.62.51-1.28.8-1.92a8.08,8.08,0,0,1,1.13,1.74,25.47,25.47,0,0,1,.59,3.11,11.16,11.16,0,0,0,2.06-6.87,13.64,13.64,0,0,1,.24-2.93c.2-.89.8-1,1.39-.26A2.59,2.59,0,0,1,92,22.47c.61,4.27-.17,8.15-3.19,11.42a2.19,2.19,0,0,0-.51,1.42c.07,3.44.4,6.88.27,10.31-.21,5.25-1.37,10.27-4.55,14.64a11.49,11.49,0,0,1-8.4,4.9,31.27,31.27,0,0,1-3.23,0c.24,1.39.46,2.56.67,3.74a17.47,17.47,0,0,1,13.91,4A59,59,0,0,1,100.47,89a6,6,0,0,1,.8,2.1,1.79,1.79,0,0,1-.62,1.26c-.12.12-.81-.14-1-.41a14.39,14.39,0,0,1-1.4-2,73,73,0,0,0-10.8-13.41,17.7,17.7,0,0,0-7.89-4.79c-1.24-.32-2.53-.43-3.8-.64-.16,1.08-.23,1.88-.41,2.66-.84,3.74-3.67,5.59-7.38,4.66a15.54,15.54,0,0,1-4.69-1.91C60.83,75,58.61,73.08,55.83,71c-4,1.79-8.58,3.83-13.14,5.84a7,7,0,0,0-3.14,2.93A91.56,91.56,0,0,0,28.94,106c-.5,2-.92,4.08-1.4,6.2l17.72,3c1.33-5.62,2.67-11.3,4-17A17.09,17.09,0,0,1,50,95.76c.12-.28.54-.44.83-.66.24.32.65.61.68,1a7.72,7.72,0,0,1-.11,2.25c-1.25,5.94-2.48,11.89-3.86,17.81-.16.66-1.18,1.14-1.83,1.66-.33.26-1,.37-1,.67a20,20,0,0,0-.51,2.77c1.91.41,3.66.76,5.39,1.16,5.26,1.2,10.32,3.48,15.9,3,.13,0,.28.08.41.06a4.46,4.46,0,0,0,1.39-.27c3.24-1.73,6.35-3.74,10-4.46,2.3-.45,4.6-.42,6.42,1.26,2.64,2.44,5.15,5,7.81,7.65,5.15-2.21,10.95-1.81,16.67-1.63s11.5-.26,17.18,1.12a8.43,8.43,0,0,1,3.87-4.73C132.49,121.36,137.81,121.31,141.55,124.23Zm-99.79-3.45c.23-1.08.46-2.17.76-3.53l-13.16-2.11a18.69,18.69,0,0,0-.12,7.51c.35,2.28,1,4.52,1.4,6.78a2.29,2.29,0,0,0,2.2,2c2.85.35,5.7.78,8.55,1.11a95.45,95.45,0,0,0,19.49.11,4.08,4.08,0,0,0,3.6-1.86c.22-.38.88-.5,1.34-.74.11.49.24,1,.32,1.49a1.91,1.91,0,0,1-.11.59,7.53,7.53,0,0,0,5.08-1.54c.43-.36.93-.67,1.32-1.07a3.54,3.54,0,0,1,4.84-.51c1.33.79,2.76,1.39,4.15,2.07l.29-.29-4-5.43c1.82-.27,2.9.65,4.1,1.29,1.83,1,3.69,1.89,5.55,2.84l.27-.47c-1.93-1.83-3.69-3.91-5.86-5.37-1.1-.73-3-.64-4.47-.36a14.37,14.37,0,0,0-4.94,2,15.75,15.75,0,0,1-9.07,2.33,32.82,32.82,0,0,1-6.7-.81c-4.81-1.13-9.57-2.47-14.35-3.77a21,21,0,0,1-2.59-1.13l.14-.55Zm56.59,13.06,32.21-.7c.09-1.44,0-3.23,2-3.78,1.52-.43,3.09-.67,4.69-1a22,22,0,0,1-1.66-1.52,1.13,1.13,0,0,1-.15-.87c0-.11.53-.25.73-.16,1.24.53,2.46,1.11,3.69,1.69a14,14,0,0,0,2.52,1c-1.45-3.33-6.34-5.1-9.75-3.75a10.57,10.57,0,0,0-5,4c-.83,1.25-.64,1.65.81,2.14a4.47,4.47,0,0,1,.69.41,1.94,1.94,0,0,1-3.36,0,1.64,1.64,0,0,0-1.7-.82c-7.49-.08-15-.2-22.48-.28-.89,0-1.78.08-2.66.12C98.71,131.48,98.53,132.62,98.35,133.84Zm47.33-3.21c-3.65.19-7.36.34-11.07.58-1.81.12-1.84.23-1.74,2.26H151.3c-.89-4.1-1.76-8.23-2.68-12.35-1.7-7.62-3.44-15.25-5.15-22.87-.19-.89-.56-1.25-1.56-.73,1.15,5.45,2.44,10.91,3.44,16.41s1.7,10.88,2.47,16.33a7.56,7.56,0,0,1-.31,2.12l-.57.07Zm-60.74,3,1.83-2.18-2.59-1c-.23.79-.21,1.9-.71,2.22a3.46,3.46,0,0,1-2.64.32,30.39,30.39,0,0,1-4.83-2.2c-.74-.38-1.21-.46-1.83.19-.8.85-1.72,1.58-2.89,2.64Zm11,.28c.27,0,.53-.24.79-.37-.22-.18-.56-.33-.64-.56-.24-.76-.38-1.55-.59-2.49l-7.83,3.16,0,.28C90.45,133.94,93.2,134,96,133.92Z"/><path class="cls-1" d="M7.71,141.49a18.05,18.05,0,0,0,2.91.82c1.83.19,3.67.28,5.51.29,31,.08,62,.46,93-.18,16.83-.35,33.68,0,50.52.08a195.78,195.78,0,0,0,29.33-2,2.22,2.22,0,0,0,.69-.13c.65-.33,1.87-.78,1.83-1-.15-1.13-1.24-1.12-2.13-1.05-3.34.27-6.66.74-10,.89-6.78.3-13.57.59-20.36.63q-41.67.27-83.34.37c-14.15,0-28.3-.19-42.45-.24q-10,0-20.09.14a46.78,46.78,0,0,0-5.36.69Z"/><path class="cls-1" d="M191.61,61.14c.51-.63.43-1.14-.37-1.38a8.14,8.14,0,0,0-2.07-.39c-8.48-.3-16.95-.68-25.44-.82-16.54-.28-33.09-.42-49.63-.62a17.3,17.3,0,0,0-3-.06A6.65,6.65,0,0,0,109.22,59c.55.41,1.06,1.11,1.64,1.19a53.2,53.2,0,0,0,6.89.57c13.86.09,27.72.06,41.58.18,9.94.08,19.89.35,29.83.51a16.47,16.47,0,0,0,2.5-.33Z"/><path class="cls-1" d="M103.28,112.8a2.46,2.46,0,0,0,0,.75c.2.47.45.92.68,1.37.32-.35.84-.67.94-1.08.84-3.52,1.81-7,2.35-10.61,1.76-11.74,3.38-23.51,5-35.27a48.21,48.21,0,0,0,.36-5.5c0-.44-.47-.88-.73-1.32-.36.32-1,.59-1,1-.38,1.94-.63,3.9-.92,5.86q-3.06,20.69-6.13,41.39C103.63,110.56,103.44,111.77,103.28,112.8Z"/><path class="cls-1" d="M57.67,16.67c.75-.67,1.48-1.37,2.26-2,2.1-1.73,4.13-3.57,6.37-5.1A9.72,9.72,0,0,1,72.63,8,4.28,4.28,0,0,1,76.42,10a3.43,3.43,0,0,0,3.5,1.84,18.47,18.47,0,0,1,3.94.2,4,4,0,0,1,3.22,5.18C86.49,19.6,84.79,21,82.75,22c-1.1.54-2.26.95-3.35,1.51-.3.16-.45.63-.66,1a3.19,3.19,0,0,0,.94.47c5.13.62,10.61-5.31,9.57-10.31A5.85,5.85,0,0,0,84.82,10a6.85,6.85,0,0,0-2.36-.37c-2.18.13-3.85-.19-5.4-2.18-1.73-2.22-4.64-2.14-7.24-1.63a18.53,18.53,0,0,0-12.19,8.47A7.5,7.5,0,0,0,57,16.32Z"/><path class="cls-1" d="M44.09,25.53c.45,2.45.85,4.9,1.38,7.33.1.49.69.88,1.05,1.32.28-.58.82-1.18.79-1.74-.12-2.06-.64-4.11-.6-6.17a20.34,20.34,0,0,1,.94-5.91c.79-2.39,2.52-3.17,5-2.78a15,15,0,0,0,2.07.38,4.73,4.73,0,0,0,1.44-.46c-.25-.45-.39-1.06-.77-1.31a6.74,6.74,0,0,0-9.43,2,15,15,0,0,0-1.46,4.07,18.13,18.13,0,0,0-.27,3.23Z"/><path class="cls-1" d="M44.19,40.16c.18,3.45,1.46,6,4.33,7.56a2.94,2.94,0,0,0,1.32.43,4.75,4.75,0,0,0,1.36-.46c-.25-.4-.4-1-.76-1.18a8.26,8.26,0,0,1-4.25-5.21A3,3,0,0,1,46.87,38a3.52,3.52,0,0,1,3.69-.7c.58.21,1.1.55,1.68.73a3.43,3.43,0,0,0,1.06,0c-.07-.38,0-.85-.21-1.12a4.56,4.56,0,0,0-4.62-1.81,4.65,4.65,0,0,0-3.95,3.22A12.62,12.62,0,0,0,44.19,40.16Z"/><path class="cls-1" d="M63.76,25.32a27.72,27.72,0,0,0,4.37-1.82,14.21,14.21,0,0,0,5.59-6.76,2.89,2.89,0,0,0,.33-1.21,5.39,5.39,0,0,0-.52-1.34c-.38.22-.87.35-1.11.67-.78,1.07-1.41,2.23-2.18,3.3-2,2.72-4.38,4.65-7.94,4.75-.42,0-.82.6-1.23.93a4.6,4.6,0,0,0,1.06,1,5.32,5.32,0,0,0,1.51.28Z"/><path class="cls-1" d="M72.86,46.85a4,4,0,0,0,4.86-.28c1.08-1,1.13-2.19.11-3.83s-2.12-3.33-3.17-5c-.2-.31-.37-.63-.59-1-1.22,1.7.09,5.6,2.54,8.3Z"/><path class="cls-1" d="M70.4,23.74a5.81,5.81,0,0,0,2,.14,11.52,11.52,0,0,0,7.49-6.32,1,1,0,0,0,.17-.53c-.07-.43-.21-.85-.32-1.27a3.76,3.76,0,0,0-1.07.5c-1.56,1.47-3,3.07-4.66,4.46a33.57,33.57,0,0,1-3.72,2.44Z"/><path class="cls-1" d="M76.05,52.78c-1.94.8-3.52-.13-5-1.15a23.76,23.76,0,0,1-2-1.82,3.11,3.11,0,0,0-1-.34,2.93,2.93,0,0,0-.17,1c.48,2.54,4.17,5.22,6.69,4.9C75.93,55.18,76.39,54.37,76.05,52.78Z"/><path class="cls-1" d="M58.69,21.54c1.55,1.27,3.52,1.08,5.84-.59,1.84-1.31,2.65-2.9,2.16-4.2Z"/><path class="cls-1" d="M68.07,29.57a4.74,4.74,0,0,0-3.88,1.93c-.26.34-.09,1-.11,1.5a8.17,8.17,0,0,0,1.39-.2,2.37,2.37,0,0,0,.79-.57,1.52,1.52,0,0,1,2.15-.11c.77.53,1.74,1,2.31-.07s-.38-1.62-1.18-2A6.33,6.33,0,0,0,68.07,29.57Z"/><path class="cls-1" d="M81,29.51a5,5,0,0,0-4,2.43c-.15.24-.25.76-.12.88a1.29,1.29,0,0,0,1,.27A2.59,2.59,0,0,0,79,32.55a2,2,0,0,1,2.7-.11c.34.23,1,0,1.49,0,0-.55.17-1.35-.12-1.61A10.56,10.56,0,0,0,81,29.51Z"/><path class="cls-1" d="M59.15,26.46c-.82.08-1.32,0-1.59.18-1.64,1.22-3.28,2.46-4.81,3.81-.32.3-.2,1.1-.29,1.67A4.88,4.88,0,0,0,54,31.54c1.39-1.19,2.71-2.47,4-3.74A16.23,16.23,0,0,0,59.15,26.46Z"/><path class="cls-1" d="M54.64,24.08c-2.5-.12-5.28,3.24-4.7,5.53C51.46,29.4,54.33,26.07,54.64,24.08Z"/><path class="cls-1" d="M50.87,44V42.63c.6-.44,1.49-.81,1.47-1.14a2.64,2.64,0,0,0-2.08-2.39A1.69,1.69,0,0,0,47.9,40l1.59.77a15.46,15.46,0,0,0,.06,2.68C49.6,43.65,50.35,43.75,50.87,44Z"/><path class="cls-1" d="M66.76,38.43c.12.92.42,1.88,1.55,1.94s1.47-.83,1.5-1.8c0-1.22-.67-2.19-1.55-2.09C67.18,36.61,66.83,37.39,66.76,38.43Z"/><path class="cls-1" d="M79.31,38.25c.16,1,.31,2,1.48,2s1.31-1.12,1.38-2-.15-1.83-1.24-1.83S79.49,37.33,79.31,38.25Z"/><path class="cls-1" d="M58.9,30.49A4.87,4.87,0,0,0,55,34.34C56.48,34.45,58.36,32.64,58.9,30.49Z"/><path class="cls-2" d="M19.65,119.05c.09,1.35-.18,2.74-.17,4.14a14.91,14.91,0,0,0,.34,4.78,25.52,25.52,0,0,1,.73,4.74,2.44,2.44,0,0,0,1,1.44c3,2,6.36,2,9.76,1.43a8.68,8.68,0,0,0,2.39-.77,3.87,3.87,0,0,0,2.4-3.24c.22-2,.74-3.92,1-5.84a24.81,24.81,0,0,0,.07-2.59q.18-3.36.38-6.59c0-.13,0-.32.11-.36,1.13-.57,1-1.66,1-2.58a8.65,8.65,0,0,0-.49-3.29c-.46-1.11-1.75-1.57-2.88-2a20.73,20.73,0,0,0-7.29-1h-.82c-.3-1.21-.67-2.39-.85-3.57-.13-.87-.56-.89-1.35-.63.32,1.46.64,2.87.95,4.26a32.84,32.84,0,0,0-3.53,1A15.53,15.53,0,0,0,20,109.86s-.07,0-.07.06c-.23,1.34-2,2.57-1.15,3.91C19.8,115.5,19.53,117.27,19.65,119.05Z"/><path class="cls-1" d="M19.65,119.05c.09,1.35-.18,2.74-.17,4.14a14.91,14.91,0,0,0,.34,4.78,25.52,25.52,0,0,1,.73,4.74,2.44,2.44,0,0,0,1,1.44c3,2,6.36,2,9.76,1.43a8.68,8.68,0,0,0,2.39-.77,3.87,3.87,0,0,0,2.4-3.24c.22-2,.74-3.92,1-5.84a24.81,24.81,0,0,0,.07-2.59q.18-3.36.38-6.59c0-.13,0-.32.11-.36,1.13-.57,1-1.66,1-2.58a8.65,8.65,0,0,0-.49-3.29c-.46-1.11-1.75-1.57-2.88-2a20.73,20.73,0,0,0-7.29-1h-.82c-.3-1.21-.67-2.39-.85-3.57-.13-.87-.56-.89-1.35-.63.32,1.46.64,2.87.95,4.26a32.84,32.84,0,0,0-3.53,1A15.53,15.53,0,0,0,20,109.86s-.07,0-.07.06c-.23,1.34-2,2.57-1.15,3.91C19.8,115.5,19.53,117.27,19.65,119.05Zm8.1-7.12c-.45-.21-2.11-6.33-2.36-8.7C26,103.41,27.88,110.37,27.75,111.93Zm6.07.32a20.08,20.08,0,0,1-11.11-.9,31.53,31.53,0,0,1,3.65.17c.27,0,.51.32.76.49a2.4,2.4,0,0,0-.11.23l2,0-.83-.46.06-.17Zm-3.81-.7c-1.92-.17-1.92-.15-2.28-2.06,2.89.24,5.69.49,8.31,1.87a1.77,1.77,0,0,1-2,.65C32.7,111.84,31.35,111.67,30,111.55ZM22.27,111c-.24,0-.45-.35-.67-.53.22-.17.43-.46.68-.5,1.37-.21,2.75-.36,4.14-.53l.42,1.71C25.21,111.12,23.74,111.1,22.27,111Zm15,1.47a11.49,11.49,0,0,1-3.11,1,26.54,26.54,0,0,1-9.15-.23A16.63,16.63,0,0,1,21,111.91c-1.32-.66-1.27-1.73.07-2.38s2.82-1.12,4.23-1.65c.66-.24,1,0,.95.54-1.49.41-2.89.69-4.22,1.19-.95.35-1,1.06-.19,1.62a6.27,6.27,0,0,0,1.83.86,23.78,23.78,0,0,0,9.35.75,9.17,9.17,0,0,0,2.63-.72,1.38,1.38,0,0,0,.77-1c0-.34-.47-.79-.84-1a6.36,6.36,0,0,0-1.9-.76c-2-.39-4.09-.68-6.19-1,0-.08,0-.32,0-.64a26.5,26.5,0,0,1,7.35,1.07,10,10,0,0,1,2.63,1.22A1.37,1.37,0,0,1,37.28,112.49ZM20.81,129.18c1.55,1.33,3.37,1.23,5.12,1.46a7,7,0,0,1,2.29.37c1.42.76,2.74,1.76,4.11,2.68-1.41.42-2.24-1-3.78-1.21L32,134.69c-1.56.44-2.62-.79-4-.9l2.73,1.48c-1.11.08-1.95.21-2.79.18a11.58,11.58,0,0,1-5.78-1.4,2.54,2.54,0,0,1-1.18-1.3A25,25,0,0,1,20.81,129.18Zm10.34,3.27L28.91,131a2.17,2.17,0,0,1,2.65.67ZM19.76,120.34c5.72,2,11.3,1.87,17,.7a18.4,18.4,0,0,1-.7,7.58c-.16.46-.58,1.1-1,1.16a56.27,56.27,0,0,1-5.95.59,18,18,0,0,1-7.78-1.25,2,2,0,0,1-1.37-1.8C19.89,125,19.83,122.63,19.76,120.34Zm0-5.12a20.43,20.43,0,0,0,15,1.77c0,.13.07.26.11.39l-.75.32c.07.23.18.57.35,1.09l-1.22-.51.79,1-.24.15-1.29-.78c0,.78,1.59.76.85,1.81L32,119.78l-.13.17,1.77,1.21-.12.23-1.9-.87-.07.11.75.67a35.67,35.67,0,0,1-6.28.06,37.29,37.29,0,0,1-5-1,1.33,1.33,0,0,1-.86-.82C19.94,118.13,19.87,116.71,19.75,115.22Zm-.36-3.33c.2.32.29.66.52.79A21.19,21.19,0,0,0,24.62,115a18.77,18.77,0,0,0,5.76.37c2.81-.17,5.66-.41,8.07-2.22a2.75,2.75,0,0,1-2.06,1.9,20.45,20.45,0,0,1-10.1,1,15.19,15.19,0,0,1-6.18-2.32C19.46,113.36,19,112.81,19.39,111.89Z"/><path class="cls-1" d="M34,122.66l-.48,6,.31,0,.5-6Z"/><path class="cls-1" d="M24.13,122.93l-.27,4.77h.32l.32-4.78Z"/><path class="cls-1" d="M31.81,128.48l0-5.52h-.29l-.08,5.52Z"/><path class="cls-1" d="M29.39,123.22l-.28,6C30,127.16,29.59,125.14,29.39,123.22Z"/><path class="cls-1" d="M26.68,123.18l-.36,5.08.29,0,.42-5.07Z"/><path class="cls-1" d="M21.75,122.43l-.32,5h.31l.26-5Z"/><path class="cls-1" d="M157.46,84.79l0-.14c.35-1.16.71-2.33,1.08-3.52,0,0,0-.06,0-.09s0-.06,0-.06h-.38l-.52,1.71h-2l.49-1.71h-.44l-1.1,3.82H155l.49-1.66h2l-.5,1.66Z"/><path class="cls-1" d="M160.78,81l-1.22,3.79h2.27l.14-.41h-1.83l.43-1.3h1.59l.15-.43h-1.6l.39-1.21H163l.14-.42Z"/><path class="cls-1" d="M149,81.33l2,0,.12-.43-2.42,0-.95,3.86h2.36l.11-.42h-1.91L148.6,83h1.66l.11-.44h-1.66Z"/><path class="cls-1" d="M154,83.94c-1,.72-1.87.5-2.27,0a1.54,1.54,0,0,1,.47-2,2.2,2.2,0,0,1,1.2-.55,1.26,1.26,0,0,1,1.2.49l.36-.34c-.53-.8-1.9-.81-2.9,0s-1.36,2.16-.62,2.9a2.1,2.1,0,0,0,2.72-.11Z"/><path class="cls-1" d="M142.45,83h1.7l.1-.44h-1.7l.28-1.32h2l.09-.43-2.46,0-.81,3.92h.47Z"/><path class="cls-1" d="M148.07,80.89l-2.89,0-.1.45h1.21l-.79,3.44H146l.81-3.45H148Z"/><path class="cls-1" d="M141.05,80.83l-.77,3.92h.45l.79-3.92Z"/><path class="cls-1" d="M158.71,84.79l1.2-3.8h-.43l-1.18,3.8Z"/><path class="cls-2" d="M143.26,86h-3.34l0,.19h3.34Z"/><path class="cls-2" d="M164.48,86H164l-.07.19h.45Z"/><path class="cls-3" d="M136.07,82.28c0-.06.05-.13.08-.2a2.19,2.19,0,0,1,1.72-1.26,2,2,0,0,1,1.36.25l.05,0a.92.92,0,0,1,1.16-.29l-.4.28a2.61,2.61,0,0,0-.37-.15.35.35,0,0,0-.2.07c-.12.08-.13.14,0,.23a1.34,1.34,0,0,1,.2,1.66A2,2,0,0,1,138.1,84a2,2,0,0,1-1.41-.19.3.3,0,0,0-.21,0,.77.77,0,0,0-.61.56.5.5,0,0,0,.42.56,1.47,1.47,0,0,0,1-.14l.91-.43a1.28,1.28,0,0,1,.83-.1.72.72,0,0,1,.48,1,1.52,1.52,0,0,1-1.26,1.06.87.87,0,0,1-.92-.37l.07.07a1.12,1.12,0,0,0,1.69-.35.64.64,0,0,0,.06-.55c-.08-.25-.34-.37-.68-.28s-.47.19-.71.28a7.36,7.36,0,0,1-.9.31,1.42,1.42,0,0,1-.58,0,.67.67,0,0,1-.61-.65s0-.08,0-.12l0-.23s0,0,0,0a1,1,0,0,1,.69-.62l.08,0c-.34-.39-.42-.52-.46-.82,0-.1,0-.21,0-.31Zm3.05.16a2.22,2.22,0,0,0,0-.89.83.83,0,0,0-.84-.69,1.32,1.32,0,0,0-1.21.63,2.26,2.26,0,0,0-.33.83,1.87,1.87,0,0,0,.05,1.15.86.86,0,0,0,.89.51,1.27,1.27,0,0,0,1.07-.59A2.63,2.63,0,0,0,139.12,82.44Z"/><path class="cls-1" d="M165.28,83.91a3.08,3.08,0,0,1-.3.41,1.87,1.87,0,0,1-1.16.52,1.19,1.19,0,0,1-1.21-.42,2.18,2.18,0,0,1-.11-.27l.42-.24a1.39,1.39,0,0,0,.11.21,1.09,1.09,0,0,0,1.33.18c.5-.23.69-.66.39-.93a2.92,2.92,0,0,0-.57-.33,4.1,4.1,0,0,1-.55-.3c-.54-.39-.14-1.13.38-1.47.68-.44,1.57-.39,1.82.12a1.87,1.87,0,0,1,.08.28l-.42.22a.58.58,0,0,0-.67-.48,1.11,1.11,0,0,0-.71.27c-.28.23-.35.52-.16.69a1.7,1.7,0,0,0,.39.24c.18.09.37.17.55.27a.72.72,0,0,1,.46.83Z"/><path class="cls-1" d="M157.46,84.79H157l.5-1.66h-2L155,84.78h-.44l1.1-3.82h.44l-.49,1.71h2l.52-1.71h.38s0,0,0,.06,0,.06,0,.09c-.37,1.19-.73,2.36-1.08,3.52Z"/><path class="cls-1" d="M160.78,81l2.32,0-.14.42H161.1l-.39,1.21h1.6l-.15.43h-1.59l-.43,1.3H162l-.14.41h-2.27Z"/><path class="cls-1" d="M149,81.33l-.3,1.24h1.66l-.11.44H148.6l-.33,1.34h1.91l-.11.42h-2.36l.95-3.86,2.42,0-.12.43Z"/><path class="cls-1" d="M154,83.94l.16.33a2.1,2.1,0,0,1-2.72.11c-.74-.74-.47-2,.62-2.9s2.37-.79,2.9,0l-.36.34a1.26,1.26,0,0,0-1.2-.49,2.2,2.2,0,0,0-1.2.55,1.54,1.54,0,0,0-.47,2C152.13,84.44,153,84.66,154,83.94Z"/><path class="cls-1" d="M142.45,83l-.36,1.71h-.47l.81-3.92,2.46,0-.09.43h-2l-.28,1.32h1.7l-.1.44Z"/><path class="cls-1" d="M148.07,80.89l-.1.43h-1.2L146,84.76h-.46l.79-3.44h-1.21l.1-.45Z"/><path class="cls-1" d="M141.05,80.83h.47l-.79,3.92h-.45Z"/><path class="cls-1" d="M158.71,84.79h-.41l1.18-3.8h.43Z"/><path class="cls-4" d="M143.26,86l0,.19h-3.34l0-.19Z"/><path class="cls-4" d="M164.48,86l-.06.19H164L164,86Z"/><text class="cls-5" transform="translate(143.67 86.38)">WHERE INNO<tspan class="cls-6" x="5.6" y="0">VA</tspan><tspan x="6.67" y="0">TION MEETS THE REA</tspan><tspan class="cls-7" x="15.95" y="0">L</tspan><tspan x="16.46" y="0" xml:space="preserve"> WORLD</tspan></text><path class="cls-1" d="M152.53,83a.13.13,0,0,1-.1.07s-.05,0-.05,0a.11.11,0,0,1,0-.11.1.1,0,0,1,.08,0,.07.07,0,0,1,.07,0A.11.11,0,0,1,152.53,83Z"/><path class="cls-1" d="M152.39,83.22a.09.09,0,0,1-.06.17.08.08,0,0,1,0-.14A.07.07,0,0,1,152.39,83.22Z"/><path class="cls-1" d="M152.34,83.17a0,0,0,0,1,0,0,.07.07,0,0,1-.1,0s0-.1,0-.14.09,0,.12,0A.13.13,0,0,1,152.34,83.17Z"/><path class="cls-1" d="M152.45,82.85l0,0c-.05.05-.12,0-.13,0a.12.12,0,0,1,0-.11s0,0,.08,0,0,0,.05,0A.19.19,0,0,1,152.45,82.85Z"/><path class="cls-1" d="M152.25,83s0,0,0,0-.06,0-.08,0a.11.11,0,0,1,0-.14s.1,0,.11,0A.1.1,0,0,1,152.25,83Z"/><path class="cls-1" d="M152.47,83.14c0-.06.11-.07.14,0a.09.09,0,0,1,0,.1.08.08,0,0,1-.13,0S152.46,83.17,152.47,83.14Z"/><path class="cls-1" d="M152.28,82.62a.11.11,0,0,1,.07-.06.05.05,0,0,1,.07,0,.14.14,0,0,1-.07.13s-.09,0-.09,0S152.26,82.65,152.28,82.62Z"/><path class="cls-1" d="M152.18,83.3s-.08.06-.11,0a.11.11,0,0,1,0-.11.06.06,0,0,1,.06,0,0,0,0,0,1,.06,0A.09.09,0,0,1,152.18,83.3Z"/><path class="cls-1" d="M152.68,82.78a.06.06,0,0,1,0,.09.12.12,0,0,1-.09.08l0,0c0-.05,0-.12.06-.15Z"/><path class="cls-1" d="M152.19,83.51a.09.09,0,0,1,0-.14.09.09,0,0,1,.07,0,.09.09,0,0,1,.05.14A.07.07,0,0,1,152.19,83.51Z"/><path class="cls-1" d="M152,83.43s0,0-.08,0a.12.12,0,0,1,0-.14s0,0,.08,0,0,0,0,0A.11.11,0,0,1,152,83.43Z"/><path class="cls-1" d="M152.51,82.67a.11.11,0,0,1,.1-.06s0,0,0,0a.11.11,0,0,1,0,.11.08.08,0,0,1-.08,0s0,0,0,0S152.5,82.69,152.51,82.67Z"/><path class="cls-1" d="M152.09,83.13h0s-.08,0-.1,0,0-.09,0-.14a.06.06,0,0,1,.09,0,.05.05,0,0,1,0,0A.15.15,0,0,1,152.09,83.13Z"/><path class="cls-1" d="M152.67,83a.1.1,0,0,1,.08,0,.07.07,0,0,1,.07.06.11.11,0,0,1,0,.07s0,0-.08,0-.05,0-.05,0A.07.07,0,0,1,152.67,83Z"/><path class="cls-1" d="M152.1,82.75a.1.1,0,0,1,0,0,.05.05,0,0,1,.08,0,.18.18,0,0,1,0,.1s0,0-.06,0-.05,0-.06,0a.07.07,0,0,1,0-.09Z"/><path class="cls-1" d="M152.72,83.37a.1.1,0,0,1-.1,0,.07.07,0,0,1,0-.1.09.09,0,0,1,.1,0A.08.08,0,0,1,152.72,83.37Z"/><path class="cls-1" d="M152.5,83.39a.07.07,0,0,1,0,.1.07.07,0,0,1-.09.05.08.08,0,0,1,0-.1A.08.08,0,0,1,152.5,83.39Z"/><path class="cls-1" d="M152.59,82.54a.11.11,0,0,1-.07.06s-.07,0-.07,0a.11.11,0,0,1,.09-.12,0,0,0,0,1,.07,0A.14.14,0,0,1,152.59,82.54Z"/><path class="cls-1" d="M152.8,83.27s-.05,0,0-.1a.1.1,0,0,1,.1,0,.07.07,0,0,1,0,.1A.12.12,0,0,1,152.8,83.27Z"/><path class="cls-1" d="M152,82.94s0,0,0,0,0,0-.06,0,0,0,0,0a.14.14,0,0,1,0-.13h0a0,0,0,0,1,.07,0s0,0,0,0A.29.29,0,0,1,152,82.94Z"/><path class="cls-1" d="M152.25,82.48a.19.19,0,0,1,.07-.08.06.06,0,0,1,.06,0s0,0,0,0a.14.14,0,0,1-.08.12s-.08,0-.07,0S152.24,82.49,152.25,82.48Z"/><path class="cls-1" d="M152.18,82.62a.12.12,0,0,1-.06.06s-.05,0-.06,0,0-.06,0-.09a.1.1,0,0,1,0,0s.07,0,.07,0A.08.08,0,0,1,152.18,82.62Z"/><path class="cls-1" d="M152.91,82.75s-.09.07-.12,0,0-.06,0-.1a.11.11,0,0,1,.1,0A.08.08,0,0,1,152.91,82.75Z"/><path class="cls-1" d="M152,83.49s0,0,.07,0a.11.11,0,0,1,.06.09.08.08,0,0,1,0,0s0,0-.06,0A.1.1,0,0,1,152,83.49Z"/><path class="cls-1" d="M152.38,83.62s0,0-.08,0a.08.08,0,0,1-.05-.1.06.06,0,0,1,.08,0,.08.08,0,0,1,.06.11Z"/><path class="cls-1" d="M153,82.91a.09.09,0,0,1-.1,0s-.05,0,0-.09a.09.09,0,0,1,.1-.05S153,82.87,153,82.91Z"/><path class="cls-1" d="M151.87,83.15a0,0,0,0,1,0,0,0,0,0,0,1,.05,0s0,0,0,0a.14.14,0,0,1,0,.11s-.06,0-.08,0A.1.1,0,0,1,151.87,83.15Z"/><path class="cls-1" d="M152.84,82.58s0,0-.05,0a.08.08,0,0,1-.07,0,0,0,0,0,1,0-.06.18.18,0,0,1,.05-.07c.05,0,.1,0,.1,0S152.84,82.57,152.84,82.58Z"/><path class="cls-1" d="M151.93,83.55s0,0-.05,0,0,0,0-.07,0,0,0-.06v0a0,0,0,0,1,0,0l0,0a.19.19,0,0,1,0,.08S151.94,83.54,151.93,83.55Z"/><path class="cls-1" d="M152.44,82.36a.19.19,0,0,1,.08-.07s.07,0,.06,0a.14.14,0,0,1-.09.11s-.07,0-.06,0S152.43,82.37,152.44,82.36Z"/><path class="cls-1" d="M151.93,82.69l0-.06s.06,0,.06,0a.09.09,0,0,1,0,0,.27.27,0,0,1-.06.1s-.06,0-.07,0S151.92,82.72,151.93,82.69Z"/><path class="cls-1" d="M151.82,83l0,0a0,0,0,0,1,0,0l0,0a.2.2,0,0,1,0,.13.07.07,0,0,1,0,0,0,0,0,0,1,0,0A.2.2,0,0,1,151.82,83Z"/><path class="cls-1" d="M153.1,83.08a.09.09,0,0,1-.09,0,.05.05,0,0,1,0-.09.09.09,0,0,1,.09,0S153.12,83,153.1,83.08Z"/><path class="cls-1" d="M152.73,83.56s0,0,0-.09a.08.08,0,0,1,.09,0,.06.06,0,0,1,0,.09A.1.1,0,0,1,152.73,83.56Z"/><path class="cls-1" d="M152.39,82.31a.19.19,0,0,1-.08.07s0,0,0,0,0,0,0,0a.15.15,0,0,1,0-.07l.07-.06h0s0,0,0,0S152.39,82.29,152.39,82.31Z"/><path class="cls-1" d="M152.78,82.42a.13.13,0,0,1-.08.06.05.05,0,0,1,0,0,.12.12,0,0,1,.1-.12.05.05,0,0,1,.05,0A.1.1,0,0,1,152.78,82.42Z"/><path class="cls-1" d="M152.61,83.55a.06.06,0,0,1,0,.08.08.08,0,0,1-.07.05s-.08,0-.07-.06A.07.07,0,0,1,152.61,83.55Z"/><path class="cls-1" d="M153,83.38a.08.08,0,0,1-.09.05.06.06,0,0,1,0-.09.1.1,0,0,1,.1,0A.05.05,0,0,1,153,83.38Z"/><path class="cls-1" d="M152.19,82.43l-.05.07a.07.07,0,0,1-.06,0,0,0,0,0,1,0,0,.18.18,0,0,1,.08-.11,0,0,0,0,1,0,0s0,0,0,0S152.2,82.41,152.19,82.43Z"/><path class="cls-1" d="M152.25,83.73a0,0,0,0,1-.06,0,.1.1,0,0,1-.06-.09,0,0,0,0,1,0,0,0,0,0,0,1,.06,0,.08.08,0,0,1,.06.09S152.26,83.73,152.25,83.73Z"/><path class="cls-1" d="M153.1,82.61l0,0a.06.06,0,0,1-.07,0,0,0,0,0,1,0-.05.08.08,0,0,1,.11-.07S153.12,82.57,153.1,82.61Z"/><path class="cls-1" d="M152,83.72a.1.1,0,0,1-.06-.12,0,0,0,0,1,0,0,.12.12,0,0,1,.06.08v0A0,0,0,0,1,152,83.72Z"/><path class="cls-1" d="M152.46,83.67a.07.07,0,0,1,0,.06.06.06,0,0,1-.07.06s-.06,0-.06-.06,0,0,0,0A.06.06,0,0,1,152.46,83.67Z"/><path class="cls-1" d="M153.08,82.73a.09.09,0,0,1,.09,0s0,0,0,.08a.1.1,0,0,1-.1,0S153.06,82.77,153.08,82.73Z"/><path class="cls-1" d="M152.64,82.25a.14.14,0,0,1,.08-.07s.06,0,.05,0-.05.08-.09.1-.06,0-.05,0A0,0,0,0,1,152.64,82.25Z"/><path class="cls-1" d="M152.91,82.42l.06,0a.05.05,0,0,1,.07,0,.11.11,0,0,1-.06.09s0,0-.06,0,0,0,0-.06Z"/><path class="cls-1" d="M151.87,82.88l0,0s0,0,0,0a0,0,0,0,1,0,0,.22.22,0,0,1,0-.13.05.05,0,0,1,0,0,0,0,0,0,1,0,0A.25.25,0,0,1,151.87,82.88Z"/><path class="cls-1" d="M151.84,83.39s0,0-.05,0l0,0a.17.17,0,0,1,0-.12s0,0,0,0,0,.06,0,.09A.13.13,0,0,1,151.84,83.39Z"/><path class="cls-1" d="M153.1,83.2a.08.08,0,0,1,.09,0s0,0,0,.08a.09.09,0,0,1-.09,0S153.08,83.23,153.1,83.2Z"/><path class="cls-1" d="M152.57,82.2a.12.12,0,0,1-.06.06.06.06,0,0,1-.07,0s0,0,0,0a.16.16,0,0,1,.07-.07h0a0,0,0,0,1,.05,0,0,0,0,0,1,0,0Z"/><path class="cls-1" d="M152,82.55s0,0-.06.06-.05,0-.05,0a.06.06,0,0,1,0,0,.18.18,0,0,1,.06-.09,0,0,0,0,1,0,0s0,0,0,0A.14.14,0,0,1,152,82.55Z"/><path class="cls-1" d="M152.43,82.13a.2.2,0,0,1-.09.09h-.05a0,0,0,0,1,0,0,.28.28,0,0,1,.12-.12s0,0,0,0,0,0,0,0Z"/><path class="cls-1" d="M153.3,82.93a.09.09,0,0,1-.09,0,.05.05,0,0,1,0-.08.07.07,0,0,1,.08,0S153.32,82.89,153.3,82.93Z"/><path class="cls-1" d="M152.86,82.27a.18.18,0,0,1,.07,0s0,0,0,0a.11.11,0,0,1-.06.09h-.06a0,0,0,0,1,0,0Z"/><path class="cls-1" d="M152.25,82.23a.27.27,0,0,1-.07.08l0,0s0,0,0,0l0,0a.23.23,0,0,1,.07-.07h0s0,0,0,0S152.25,82.22,152.25,82.23Z"/><path class="cls-1" d="M151.77,83.21h0s0,0,0,0a0,0,0,0,1,0,0,.17.17,0,0,1,0-.12h0s0,0,0,0,0,0,0,0A.16.16,0,0,1,151.77,83.21Z"/><path class="cls-1" d="M152.94,83.66a.09.09,0,0,1-.06,0s0,0-.06,0,0,0,0-.07a.07.07,0,0,1,.09,0S153,83.63,152.94,83.66Z"/><path class="cls-1" d="M152.3,83.88a.1.1,0,0,1-.05-.06,0,0,0,0,1,0,0s0,0,0,0a.09.09,0,0,1,.06.06v0S152.34,83.89,152.3,83.88Z"/><path class="cls-1" d="M152.1,83.73s.05,0,.06.09,0,0,0,0,0,0,0,0a.11.11,0,0,1-.06-.07v0S152.06,83.71,152.1,83.73Z"/><path class="cls-1" d="M153.12,83.53s-.05,0-.08,0,0,0,0-.07a.07.07,0,0,1,.09,0A0,0,0,0,1,153.12,83.53Z"/><path class="cls-1" d="M152.68,83.8s0,0,0,0a.07.07,0,0,1,.07-.07.05.05,0,0,1,0,0s0,0,0,.06A.06.06,0,0,1,152.68,83.8Z"/><path class="cls-1" d="M152.76,82.09a.14.14,0,0,1-.08.07s0,0,0,0,0,0,0,0a.24.24,0,0,1,.09-.08h0a0,0,0,0,1,0,0A0,0,0,0,1,152.76,82.09Z"/><path class="cls-1" d="M151.83,82.62a.1.1,0,0,1,0-.05h0s0,0,0,0a.43.43,0,0,0,0,0,.41.41,0,0,1-.05.09.05.05,0,0,1,0,0s0,0,0,0A.32.32,0,0,1,151.83,82.62Z"/><path class="cls-1" d="M153.39,83a.06.06,0,0,1,0,.07.07.07,0,0,1-.08,0,.05.05,0,0,1,0-.07A.11.11,0,0,1,153.39,83Z"/><path class="cls-1" d="M153,82.14a.18.18,0,0,1-.07,0s-.06,0,0,0a.14.14,0,0,1,.08-.07s.05,0,.05,0A0,0,0,0,0,153,82.14Z"/><path class="cls-1" d="M151.93,83.81h0a.15.15,0,0,1-.06-.09,0,0,0,0,1,0,0s0,0,0,0a.13.13,0,0,1,.06.09v0S152,83.82,151.93,83.81Z"/><path class="cls-1" d="M152.57,83.81s.05,0,.05,0,0,0-.05,0-.07,0-.07,0a0,0,0,0,1,0,0S152.55,83.8,152.57,83.81Z"/><path class="cls-1" d="M151.78,83.52h0l0,0a.17.17,0,0,1,0,.1s0,0,0,0h0a.17.17,0,0,1,0-.12S151.77,83.53,151.78,83.52Z"/><path class="cls-1" d="M152.48,82.08a.18.18,0,0,1,.11-.08s0,0,0,0a.22.22,0,0,1-.1.09h0A0,0,0,0,1,152.48,82.08Z"/><path class="cls-1" d="M153.19,82.44a.06.06,0,0,1,.09,0s0,0,0,.06a.06.06,0,0,1-.06,0S153.17,82.48,153.19,82.44Z"/><path class="cls-1" d="M152.08,82.34a.24.24,0,0,1-.06.08s0,0,0,0h0v0a.12.12,0,0,1,0-.08s0,0,.06,0,0,0,0,0,0,0,0,0A.05.05,0,0,1,152.08,82.34Z"/><path class="cls-1" d="M153.28,82.59a.09.09,0,0,1,.08,0,0,0,0,0,1,0,.07.07.07,0,0,1-.08,0A0,0,0,0,1,153.28,82.59Z"/><path class="cls-1" d="M153.32,83.39a.07.07,0,0,1-.08,0s0,0,0-.06a.07.07,0,0,1,.08,0S153.33,83.36,153.32,83.39Z"/><path class="cls-1" d="M151.75,83s0,0,0,0h0s0,0,0,0a.28.28,0,0,1,0-.13s0,0,0,0,0,0,0,0A.23.23,0,0,1,151.75,83Z"/><path class="cls-1" d="M153.11,82.29a.09.09,0,0,1,.06,0,.05.05,0,0,1,.05,0,.09.09,0,0,1-.05.07s0,0,0,0,0,0,0,0Z"/><path class="cls-1" d="M151.73,83.34s0,0,0,0a.16.16,0,0,1,0,.12v0s0,0,0,0l0,0a.15.15,0,0,1,0-.09,0,0,0,0,1,0,0A0,0,0,0,1,151.73,83.34Z"/><path class="cls-1" d="M152.22,83.86a.11.11,0,0,1,.06.07h0s0,0,0,0a.08.08,0,0,1-.07-.08A0,0,0,0,1,152.22,83.86Z"/><path class="cls-1" d="M151.86,82.5l.06-.1,0,0s0,0,0,0v0a.33.33,0,0,1-.07.13h0l0,0a.05.05,0,0,1,0-.06Z"/><path class="cls-1" d="M152.19,82.14a.27.27,0,0,1,.11-.1s0,0,0,0,0,0,0,0a.38.38,0,0,1-.11.11s0,0,0,0S152.18,82.16,152.19,82.14Z"/><path class="cls-1" d="M153.39,82.74s.05,0,.07,0a.05.05,0,0,1,0,.07.08.08,0,0,1-.08,0A.06.06,0,0,1,153.39,82.74Z"/><path class="cls-1" d="M152.43,84a.07.07,0,0,1-.05,0,.06.06,0,0,1,0,0h.05a.1.1,0,0,1,.05,0s0,0,0,0A0,0,0,0,1,152.43,84Z"/><path class="cls-1" d="M153.06,82.16a.08.08,0,0,1,0,0s.06,0,.06,0a.07.07,0,0,1,0,0,0,0,0,0,1-.06,0A0,0,0,0,1,153.06,82.16Z"/><path class="cls-1" d="M152,83.82a.13.13,0,0,1,.07.09s0,0,0,0h0a.11.11,0,0,1-.07-.09s0,0,0,0Z"/><path class="cls-1" d="M153,83.73s0,0,0,0,0,0,0,0,0,0-.06,0,0,0,0,0A.06.06,0,0,1,153,83.73Z"/><path class="cls-1" d="M152.8,81.94a.24.24,0,0,1-.09.08h0s0,0,0,0l0,0a.2.2,0,0,1,.07-.06h0s0,0,0,0Z"/><path class="cls-1" d="M152.36,82a.48.48,0,0,1,.11-.09h0s0,0,0,0,0,0,0,0a.29.29,0,0,1-.12.1s0,0,0,0S152.36,82.05,152.36,82Z"/><path class="cls-1" d="M153,82a.12.12,0,0,1-.08.06s0,0,0,0,0,0,0,0a.22.22,0,0,1,.07-.06,0,0,0,0,1,0,0S153,82,153,82Z"/><path class="cls-1" d="M152.8,83.92s0,0,0,0a.05.05,0,0,1,0,0,.08.08,0,0,1,.07,0h0a0,0,0,0,1,0,.06s0,0-.06,0Z"/><path class="cls-1" d="M153.52,83.24s-.05,0-.07,0,0,0,0-.06a.05.05,0,0,1,.07,0S153.53,83.21,153.52,83.24Z"/><path class="cls-1" d="M153.21,83.61s0,0,0,0a.08.08,0,0,1-.08,0s0,0,0,0A.08.08,0,0,1,153.21,83.61Z"/><path class="cls-1" d="M151.67,83.18s0,0,0,0a0,0,0,0,1,0,0h0a.33.33,0,0,1,0,.14s0,0,0,0,0,0,0,0a.19.19,0,0,1,0-.13Z"/><path class="cls-1" d="M152.05,82.24a.43.43,0,0,1,.09-.1l0,0s0,0,0,0a.31.31,0,0,1-.09.11h0v0Z"/><path class="cls-1" d="M152.68,81.9a.36.36,0,0,1-.12.08h0s0,0,0,0a.2.2,0,0,1,.1-.08h0S152.69,81.87,152.68,81.9Z"/><path class="cls-1" d="M151.75,82.82l0,0s0,0,0,0,0,0,0,0v0a.31.31,0,0,1,.06-.13h0s0,0,0,0v0A.36.36,0,0,1,151.75,82.82Z"/><path class="cls-1" d="M153.6,82.93a.11.11,0,0,1-.07,0,0,0,0,0,1,0-.06.06.06,0,0,1,.07,0S153.61,82.9,153.6,82.93Z"/><path class="cls-1" d="M152.69,83.93s0,0,0,0a0,0,0,0,1,0,0s-.06,0-.06,0,0,0,0,0Z"/><path class="cls-1" d="M153,82a.18.18,0,0,1,.07,0s0,0,0,0a.08.08,0,0,1-.07.07,0,0,0,0,1,0,0S153,82.05,153,82Z"/><path class="cls-1" d="M151.86,83.76h0a.21.21,0,0,1,.06.1s0,0,0,0a0,0,0,0,1,0,0,.16.16,0,0,1-.07-.11h0Z"/><path class="cls-1" d="M152.35,84.07a.1.1,0,0,1,0,0s0,0,0,0h0s0,0,0,.05a0,0,0,0,1,0,0S152.36,84.07,152.35,84.07Z"/><path class="cls-1" d="M151.8,83.76v0a.28.28,0,0,1,0-.11v0s0,0,0,0a.17.17,0,0,1,0,.12v0Z"/><path class="cls-1" d="M153.34,83.51a.05.05,0,0,1,.07,0s0,0,0,0a.08.08,0,0,1-.07,0S153.32,83.53,153.34,83.51Z"/><path class="cls-1" d="M153.38,82.31s0,0,.06,0,0,0,0,0a.06.06,0,0,1-.06,0A0,0,0,0,1,153.38,82.31Z"/><path class="cls-1" d="M152.17,84a.09.09,0,0,1-.06-.07,0,0,0,0,1,0,0s0,0,0,0a.1.1,0,0,1,.07.07s0,0,0,0Z"/><path class="cls-1" d="M153.3,82.17a.05.05,0,0,1,.07,0,.06.06,0,0,1,0,.06.09.09,0,0,1-.06,0S153.28,82.2,153.3,82.17Z"/><path class="cls-1" d="M153.48,82.45a.05.05,0,0,1,.05,0,0,0,0,0,1,0,.06.07.07,0,0,1-.06,0A0,0,0,0,1,153.48,82.45Z"/><path class="cls-1" d="M152.87,81.89a.15.15,0,0,1,.09-.06s0,0,0,0a.16.16,0,0,1-.09.07h0S152.87,81.9,152.87,81.89Z"/><path class="cls-1" d="M152.74,81.86l0,0,.07,0h0s0,0,0,0a.23.23,0,0,1-.11.08h0Z"/><path class="cls-1" d="M151.67,83.15a0,0,0,0,0,0,0,0,0,0,0,1,0,0v0a.59.59,0,0,1,0-.13h0v0a.69.69,0,0,1,0,.13Z"/><path class="cls-1" d="M152.55,84.09s0,0,0,0a0,0,0,0,1,0,0s0,0,0,0,0,0,0,0Z"/><path class="cls-1" d="M151.84,82.55l-.06.11h0s0,0,0,0l0-.06a.31.31,0,0,1,.05-.1h0s0,0,0,0S151.84,82.53,151.84,82.55Z"/><path class="cls-1" d="M151.69,83.55a.19.19,0,0,1,0-.07,0,0,0,0,1,0,0,0,0,0,0,1,0,0,.24.24,0,0,1,0,.12v0h0Z"/><path class="cls-1" d="M153.12,81.89a.13.13,0,0,1-.06,0s0,0,0,0a0,0,0,0,1,0,0,.1.1,0,0,1,.06,0s0,0,0,0A0,0,0,0,1,153.12,81.89Z"/><path class="cls-1" d="M153.31,82.06h0s0,0-.05,0,0,0,0,0l0,0s0,0,0,0,0,0,0,0Z"/><path class="cls-1" d="M152.29,82l0,0a.27.27,0,0,1,.08-.07h0l-.07.08-.05,0h0Z"/><path class="cls-1" d="M152,84l0,0a.16.16,0,0,1,0-.07,0,0,0,0,1,0,0h0a.13.13,0,0,1,.07.09s0,0,0,0Z"/><path class="cls-1" d="M153.6,82.65s0,0,0-.05a.05.05,0,0,1,0,0,0,0,0,1,1,0,.08Z"/><path class="cls-1" d="M152.46,81.91l0,0,.08,0h0s0,0,0,0a0,0,0,0,1,0,0,.31.31,0,0,1-.11.09h0S152.46,81.92,152.46,81.91Z"/><path class="cls-1" d="M151.93,82.35l.09-.12h0s0,0,0,0a.64.64,0,0,1-.1.13s0,0,0,0v0Z"/><path class="cls-1" d="M153.71,83.07a0,0,0,0,1-.06,0s0,0,0,0a0,0,0,0,1,.06,0S153.72,83.05,153.71,83.07Z"/><path class="cls-1" d="M152.77,81.77h0a.24.24,0,0,1-.12.07h0a.32.32,0,0,1,.12-.08,0,0,0,0,1,0,0Z"/><path class="cls-1" d="M153.07,83.92s0,0,0,0a0,0,0,0,1,.06,0s0,0,0,0A.06.06,0,0,1,153.07,83.92Z"/><path class="cls-1" d="M152.91,84s0,0,0,0a.05.05,0,0,1,.05,0h0a0,0,0,0,1,0,.05Z"/><path class="cls-1" d="M153.61,83.34s0,0,0,0a.07.07,0,0,1-.06,0s0,0,0,0A0,0,0,0,1,153.61,83.34Z"/><path class="cls-1" d="M152.28,84.07a.06.06,0,0,1,.05.05s0,0,0,0h0a.09.09,0,0,1-.06-.06s0,0,0,0h0Z"/><path class="cls-1" d="M153.26,83.81s0,0,0,0a.07.07,0,0,1,.06,0s0,0,0,0A.07.07,0,0,1,153.26,83.81Z"/><path class="cls-1" d="M153.22,81.92s0,0,0,0,0,0,0,0a.08.08,0,0,1,0,0s0,0,0,0S153.2,81.94,153.22,81.92Z"/><path class="cls-1" d="M152.28,82l-.07.08-.05,0h0s0,0,0,0,0,0,0,0,0,0,.07-.06h0Z"/><path class="cls-1" d="M152.47,84.16a.08.08,0,0,1,0,0v0h0a.1.1,0,0,1,0,0s0,0,0,0h0Z"/><path class="cls-1" d="M152.77,84.1h0s0,0,0,0h0s0,0,0,0,0,0,0,0Z"/><path class="cls-1" d="M153,81.74a.21.21,0,0,1-.1.06h0a0,0,0,0,1,0,0l.08,0h0S153.05,81.72,153,81.74Z"/><path class="cls-1" d="M152.11,84a.11.11,0,0,1,.07.06v0h0a.16.16,0,0,1-.07-.07s0,0,0,0S152.1,84,152.11,84Z"/><path class="cls-1" d="M153.06,81.8a.16.16,0,0,1,.08,0s0,0,0,0a.11.11,0,0,1-.08,0S153.05,81.82,153.06,81.8Z"/><path class="cls-1" d="M151.67,83.45h0a.34.34,0,0,1,0-.14v0a0,0,0,0,1,0,0,.77.77,0,0,1,0,.15Z"/><path class="cls-1" d="M153.76,82.73s0,0,0,0,0,0,0,0,0,0,0,0S153.74,82.72,153.76,82.73Z"/><path class="cls-1" d="M152.83,81.75h0l.1,0h0s0,0,0,0a.33.33,0,0,1-.1.06S152.82,81.77,152.83,81.75Z"/><path class="cls-1" d="M151.65,83a1.8,1.8,0,0,1,0-.19h0a.59.59,0,0,1-.05.19Z"/><path class="cls-1" d="M153.6,82.2s0,0,0,0,0,0,0,0,0,0,0,0S153.61,82.18,153.6,82.2Z"/><path class="cls-1" d="M152.66,84.17l0,0a0,0,0,0,1,0,0s0,0,0,0,0,0,0,0,0,0,0,0Z"/><path class="cls-1" d="M152.72,81.72h0a.41.41,0,0,1-.11.07h0a.37.37,0,0,1,.12-.07Z"/><path class="cls-1" d="M153.51,83.65a.05.05,0,0,1,0,0s0,0,0-.05h0A0,0,0,0,1,153.51,83.65Z"/><path class="cls-1" d="M153.28,81.8a.1.1,0,0,1-.05,0h0s0,0,0,0a.08.08,0,0,1,0,0,0,0,0,0,1,0,0S153.28,81.79,153.28,81.8Z"/><path class="cls-1" d="M153.52,82.07s0,0,0,0,0,0,0,0,0,0,0,0S153.53,82.05,153.52,82.07Z"/><path class="cls-1" d="M151.92,84h0a.23.23,0,0,1-.07-.1s0,0,0,0h0a.61.61,0,0,1,.07.1s0,0,0,0Z"/><path class="cls-1" d="M151.82,83.84s0,0,0,0a.21.21,0,0,1-.06-.1s0,0,0,0h0a.75.75,0,0,1,.07.12S151.83,83.84,151.82,83.84Z"/><path class="cls-1" d="M152.42,81.87h0l.12-.07a0,0,0,0,1,0,0h0a.38.38,0,0,1-.13.09h0Z"/><path class="cls-1" d="M152.89,81.66h0l-.1.06h0l.09,0Z"/><path class="cls-1" d="M153.69,82.3s0,0,0,0,0,0,0,0,0,0,0,0S153.67,82.29,153.69,82.3Z"/><path class="cls-1" d="M153.46,81.94a.05.05,0,0,1-.05,0s0,0,0,0,0,0,0,0,0,0,0,0,0,0,0,0Z"/><path class="cls-1" d="M152,84a.1.1,0,0,1,.05,0l0,0h0A.3.3,0,0,1,152,84h0Z"/><path class="cls-1" d="M152.43,84.21l-.05,0v0h0a.09.09,0,0,1,0,0s0,0,0,0,0,0,0,0Z"/><path class="cls-1" d="M152.24,84.13a.12.12,0,0,1,.07.05h0s0,0-.06,0,0,0,0,0Z"/><path class="cls-1" d="M152,82.21a.57.57,0,0,1,.13-.14A.43.43,0,0,1,152,82.21Z"/><path class="cls-1" d="M153.13,81.64h0l-.09,0s0,0,0,0,0,0,0,0a.19.19,0,0,1,.09,0A0,0,0,0,1,153.13,81.64Z"/><path class="cls-1" d="M153.12,81.7h0s0,0,.06,0h0a0,0,0,0,1,0,0,.18.18,0,0,1-.07,0h0Z"/><path class="cls-1" d="M152.28,82a.36.36,0,0,1,.14-.1A.5.5,0,0,1,152.28,82Z"/><path class="cls-1" d="M152.59,84.19l0,0a0,0,0,0,1,0,0,.05.05,0,0,1,0,0s0,0,0,0h0Z"/><path class="cls-1" d="M153,84.1s0,0,0,0,0,0,0,0,0,0,0,0A0,0,0,0,1,153,84.1Z"/><path class="cls-1" d="M153.42,81.83l0,0h0s0,0,0,0h0s0,0,0,0S153.43,81.81,153.42,81.83Z"/><path class="cls-1" d="M151.83,82.49a1,1,0,0,1,.11-.17A.62.62,0,0,1,151.83,82.49Z"/><path class="cls-1" d="M153.3,81.7a.09.09,0,0,1-.05,0s0,0,0,0a.1.1,0,0,1,.07,0S153.31,81.68,153.3,81.7Z"/><path class="cls-1" d="M153.21,84a0,0,0,0,1,0,0s0,0,0,0,0,0,0,0Z"/><path class="cls-1" d="M153,81.66s0,0,0,0h0a.21.21,0,0,1,.1,0s0,0,0,0h0l-.1,0Z"/><path class="cls-1" d="M153.81,82.47s0,0,0,0,0,0,0,0h0S153.82,82.46,153.81,82.47Z"/><path class="cls-1" d="M153.81,83.22s0,0,0,0,0,0,0,0,0,0,0,0S153.82,83.21,153.81,83.22Z"/><path class="cls-1" d="M152.11,84.09l.08.06h0l-.06-.05s0,0,0,0Z"/><path class="cls-1" d="M152.87,84.18s0,0,0,0l0,0h0v0Z"/><path class="cls-1" d="M151.7,83.58h0l0,.08s0,0,0,0,0,0,0,0a.36.36,0,0,1,0-.11h0Z"/><path class="cls-1" d="M151.64,83.1a1.09,1.09,0,0,1,0,.18A1.09,1.09,0,0,1,151.64,83.1Z"/><path class="cls-1" d="M153.88,82.88s0,0,0,0l0,0s0,0,0,0S153.87,82.88,153.88,82.88Z"/><path class="cls-1" d="M152.86,81.63h0l-.11.06h0l.12-.05Z"/><path class="cls-1" d="M153.71,83.49s0,0,0,0l0,0a0,0,0,0,1,0,0S153.69,83.48,153.71,83.49Z"/><path class="cls-1" d="M152.58,81.76a.29.29,0,0,1,.13-.08Z"/><path class="cls-1" d="M152.76,84.24l0,0s0,0,0,0h0s0,0,0,0h0Z"/><path class="cls-1" d="M153.36,83.9s0,0,0,0,0,0,0,0,0,0,0,0S153.37,83.91,153.36,83.9Z"/><path class="cls-1" d="M153,81.58l-.13,0A.29.29,0,0,1,153,81.58Z"/><path class="cls-1" d="M152.38,84.22a.05.05,0,0,1,.05,0h0l0,0h0Z"/><path class="cls-1" d="M153.37,81.73s0,0,0,0h0s0,0,0,0,0,0,0,0,0,0,0,0S153.37,81.73,153.37,81.73Z"/><path class="cls-1" d="M152.54,84.27l0,0s0,0,0,0h0a.05.05,0,0,1,0,0s0,0,0,0,0,0,0,0Z"/><path class="cls-1" d="M153.24,81.56l-.1,0h0l0,0Z"/><path class="cls-1" d="M153.29,81.58h0l-.07,0h0l.07,0Z"/><path class="cls-1" d="M152.32,84.23h0l0,0h0Z"/><path class="cls-1" d="M152.43,81.83l.14-.09Z"/><path class="cls-1" d="M153.29,81.64h0l.06,0h0l-.07,0Z"/><path class="cls-1" d="M153.09,81.58a.21.21,0,0,1,.11,0Z"/><path class="cls-1" d="M152.69,84.26a0,0,0,0,1,0,0,0,0,0,0,1,0,0h0s0,0,0,0S152.68,84.26,152.69,84.26Z"/><path class="cls-1" d="M152.29,81.94l-.12.11A.63.63,0,0,1,152.29,81.94Z"/><path class="cls-1" d="M153.91,82.62s0,0,0,0h0s0,0,0,0S153.92,82.62,153.91,82.62Z"/><path class="cls-1" d="M153.63,81.93s0,0,0,0h0s0,0,0,0Z"/><path class="cls-1" d="M152.75,81.65l.11-.05Z"/><path class="cls-1" d="M153.7,82.06s0,0,0,0,0,0,0,0a0,0,0,0,1,0,0S153.69,82.07,153.7,82.06Z"/><path class="cls-1" d="M152.09,84.12a.27.27,0,0,1-.08-.07Z"/><path class="cls-1" d="M153.39,81.64l0,0h0l0,0h0Z"/><path class="cls-1" d="M153,81.56l-.12,0A.25.25,0,0,1,153,81.56Z"/><path class="cls-1" d="M151.88,83.94A.34.34,0,0,1,152,84Z"/><path class="cls-1" d="M153.55,81.83s0,0,0,0,0,0,0,0h0S153.54,81.84,153.55,81.83Z"/><path class="cls-1" d="M153.59,83.75v0s0,0,0,0,0,0,0,0Z"/><path class="cls-1" d="M153.18,81.52a.45.45,0,0,1-.11,0Z"/><path class="cls-1" d="M152.14,84.15l.09.06Z"/><path class="cls-1" d="M152.55,84.3h-.05Z"/><path class="cls-1" d="M152.38,84.26a.09.09,0,0,1,.07,0Z"/><path class="cls-1" d="M153.32,81.55a.11.11,0,0,1,.07,0Z"/><path class="cls-1" d="M153.53,81.73a0,0,0,0,1,0,0v0s0,0,0,0S153.53,81.73,153.53,81.73Z"/><path class="cls-1" d="M153.28,81.53l.08,0Z"/><path class="cls-1" d="M153.09,84.17s0,0,0,0h0S153.1,84.17,153.09,84.17Z"/><path class="cls-1" d="M153.37,81.56l.07,0A.09.09,0,0,1,153.37,81.56Z"/><path class="cls-1" d="M152.64,84.32l0,0h0a0,0,0,0,0,0,0Z"/><path class="cls-1" d="M153,84.24h0s0,0,0,0Z"/><path class="cls-1" d="M153.17,81.5l-.08,0S153.14,81.51,153.17,81.5Z"/><path class="cls-1" d="M153.82,82.18h0s0,0,0,0Z"/><path class="cls-1" d="M153,81.53a.11.11,0,0,1-.08,0Z"/><path class="cls-1" d="M153.34,81.5h-.08l.08,0Z"/><path class="cls-1" d="M152.63,81.7l.09,0h0l-.09,0Z"/><path class="cls-1" d="M152.86,84.27h0s0,0,0,0S152.85,84.27,152.86,84.27Z"/><path class="cls-1" d="M153.25,84.09h0s0,0,0,0S153.26,84.09,153.25,84.09Z"/><path class="cls-1" d="M152.36,84.26a.09.09,0,0,1-.07,0Z"/><path class="cls-1" d="M153.44,81.57l0,0A.05.05,0,0,1,153.44,81.57Z"/><path class="cls-1" d="M153.33,81.48l-.07,0h.07Z"/><path class="cls-1" d="M153.52,81.64s0,0,0,0h0S153.52,81.64,153.52,81.64Z"/><path class="cls-1" d="M152.77,84.32h0Z"/><path class="cls-1" d="M152.62,84.33h0S152.62,84.33,152.62,84.33Z"/><path class="cls-1" d="M153.17,81.49h0Z"/><path class="cls-8" d="M55.71,92c0-.15.07-.3.1-.45a3.72,3.72,0,0,1,3.08-2.79,4.25,4.25,0,0,1,2.88.53l.1,0a1.67,1.67,0,0,1,2.28-.66l-.72.62a6.55,6.55,0,0,0-.81-.31.54.54,0,0,0-.39.15c-.23.17-.21.31,0,.5a3.43,3.43,0,0,1,1.08,3.66,3.37,3.37,0,0,1-2.77,2.51,4.22,4.22,0,0,1-3-.42.66.66,0,0,0-.44-.05A1.35,1.35,0,0,0,56,96.61a1.34,1.34,0,0,0,1.06,1.26,2.73,2.73,0,0,0,2.09-.33c.59-.32,1.16-.67,1.75-1a2.27,2.27,0,0,1,1.69-.23A2,2,0,0,1,64,98.53,2.67,2.67,0,0,1,61.79,101a2.1,2.1,0,0,1-2.11-.87l.2.17a2.1,2.1,0,0,0,3.44-.8,1.69,1.69,0,0,0-.1-1.27,1.22,1.22,0,0,0-1.55-.64,12.35,12.35,0,0,0-1.39.63,15.5,15.5,0,0,1-1.76.72,2.88,2.88,0,0,1-1.24,0,1.78,1.78,0,0,1-1.49-1.48,2.76,2.76,0,0,0-.08-.27v-.52a.35.35,0,0,0,0-.08A1.79,1.79,0,0,1,57,95.22c.05,0,.1-.07.16-.1a3.66,3.66,0,0,1-1.26-1.82c-.06-.22-.1-.45-.16-.67Zm6.36.31a5.82,5.82,0,0,0-.33-2,2.1,2.1,0,0,0-2-1.48,2.19,2.19,0,0,0-2.24,1.38,4.63,4.63,0,0,0-.39,1.83,4.8,4.8,0,0,0,.51,2.55,2.16,2.16,0,0,0,2,1.14,2.11,2.11,0,0,0,2-1.34A5.6,5.6,0,0,0,62.07,92.3Z"/></svg>