<svg id="Layer_1" data-name="Layer 1" xmlns="http://www.w3.org/2000/svg" xmlns:xlink="http://www.w3.org/1999/xlink" viewBox="0 0 1080 1080"><defs><style>.cls-1{fill:url(#linear-gradient);}.cls-2{fill:url(#linear-gradient-2);}.cls-3{fill:url(#linear-gradient-3);}.cls-4{fill:url(#linear-gradient-4);}.cls-5{fill:#fbfbfb;}.cls-15,.cls-17,.cls-18,.cls-6,.cls-8,.cls-9{fill:none;}.cls-6,.cls-7,.cls-8{stroke:#020202;}.cls-10,.cls-15,.cls-16,.cls-17,.cls-18,.cls-6,.cls-7,.cls-8,.cls-9{stroke-miterlimit:10;}.cls-15,.cls-16,.cls-17,.cls-6,.cls-7,.cls-8{stroke-width:5px;}.cls-11,.cls-14,.cls-16,.cls-7{fill:#fff;}.cls-17,.cls-8{stroke-linecap:round;}.cls-10,.cls-15,.cls-16,.cls-17,.cls-18,.cls-9{stroke:#000;}.cls-10,.cls-9{stroke-width:7px;}.cls-10{fill:url(#linear-gradient-5);}.cls-11,.cls-14{font-size:39.45px;}.cls-11{font-family:ComicSansMS-Italic, Comic Sans MS;font-style:italic;}.cls-12,.cls-13{font-family:ComicSansMS-BoldItalic, Comic Sans MS;}.cls-12,.cls-13,.cls-14{font-weight:700;}.cls-13{letter-spacing:0em;}.cls-14{font-family:ComicSansMS-Bold, Comic Sans MS;}.cls-18{stroke-width:2px;}</style><linearGradient id="linear-gradient" x1="568.29" y1="888.06" x2="639.82" y2="888.06" gradientUnits="userSpaceOnUse"><stop offset="0" stop-color="#d92662"/><stop offset="1" stop-color="#e62332"/></linearGradient><linearGradient id="linear-gradient-2" x1="743.82" y1="888.29" x2="814.88" y2="888.29" xlink:href="#linear-gradient"/><linearGradient id="linear-gradient-3" x1="393.94" y1="649.14" x2="955.82" y2="649.14" xlink:href="#linear-gradient"/><linearGradient id="linear-gradient-4" x1="660.2" y1="363.34" x2="848.05" y2="363.34" xlink:href="#linear-gradient"/><linearGradient id="linear-gradient-5" x1="101.59" y1="366.56" x2="573.54" y2="366.56" xlink:href="#linear-gradient"/></defs><polygon class="cls-1" points="576.29 874.65 568.29 897.24 578.65 900.53 602.18 901.47 629.47 901.47 639.82 898.65 632.76 886.88 614.88 876.06 582.41 875.12 576.29 874.65"/><polygon class="cls-2" points="751.82 877.47 743.82 896.76 754.65 899.59 787.59 901.94 814.88 901 811.12 888.29 801.24 881.24 782.88 874.65 751.82 877.47"/><path class="cls-3" d="M953,603.59l-8.47-20.47-18.35-8.47L885.24,569l-53,2.82-34.58,2.83-24,11.29L758.88,605l-35.29-.71-5.65-8.47-12-14.11-20.47-6.36L603.59,569l-50.12,7.76-17.65,17-52.23-5-43.06-2.11-14.12,2.11-22.59,9.18-9.88,28.94,9.18,12.71,9.88-4.24,4.24-6.35,5.64-16.94L437,602.88l17.65,1.41,47.29,3.53,25.41,2.12,1.41,14.12,2.83,10.59s-11.3,31.76,5.65,67.76,66.35,25.41,66.35,25.41,57.17-2.82,69.88-4.23,34.59-28.24,39.53-31.06,14.12-43.06,16.24-50.12,21.17-5.65,21.17-5.65S755.52,634,761,662.18s37.41,53.64,37.41,53.64l20.47,9.89,43.06,1.41,45.18-1.41,26.12-12,18.35-25.42,4.23-55ZM648.38,699c-10.58.08-21.17,0-31.75,0v.65H583.86c-11.44,0-20.16-7-22-18.16a225.82,225.82,0,0,1-1.18-60.73c1.18-10.87,4.91-15,15.65-17.36a106.93,106.93,0,0,1,19.74-2.56c26.47-.69,52.92-.42,79.18,3.56,12.27,1.86,18.9,7.49,21,19.75,4,23.5-2.54,44.38-18.14,62.11C670.5,694.94,660.05,698.89,648.38,699Zm219.71-1.8v.53c-10.41,0-20.82.11-31.23,0-14.79-.19-27-6-35.35-18.28-11.37-16.8-17.06-35.31-13.17-55.74,2.3-12,9.63-18.45,21.92-20.35a427.53,427.53,0,0,1,88.79-4.07,52.18,52.18,0,0,1,6.57.92c13.64,2.51,18.4,6.88,18.7,20.61.39,18.2.1,36.47-1.13,54.63-1,14.87-9.61,21.74-24.39,21.77C888.56,697.19,878.32,697.17,868.09,697.17Z"/><path d="M898.41,744.27a67.24,67.24,0,0,1,3.43-8.06c.2-.37.42-.72.63-1.08,0-1.25,1-3.46,2-4a18,18,0,0,1,3.22-1.43,19.24,19.24,0,0,1,5.84-2.16c2.91-.65,5.86-1.24,8.72-2.14a32.11,32.11,0,0,0,5.37-2.26c14.37-8,24.58-19.92,28.16-36.33,6.55-30,6.87-60.31-1.62-90.2-3.93-13.82-13.25-22.43-27.15-25.82-6-1.46-12.07-2.27-18.12-3.28-3.41-.56-5.13-1.8-5.3-5.88-.54-13-6.18-24-15.61-32.9A67.88,67.88,0,0,0,848.42,510c-3.53-.41-5.31-1.63-6-5.3a34.56,34.56,0,0,0-3.64-9.5c-10.39-19.45-33.15-28.47-56.38-22.11-4.11,1.12-6.79.42-10.1-2.12-23.09-17.7-48.67-22.73-76.19-12.7-11.4,4.16-22,10.45-33,15.78-.39.7-1.23.13-2.07-.44-14.74-10.11-30.49-11.44-46.63-4.31-4.49,2-7.11,1.46-10.76-1.31-11.1-8.46-23.78-11.84-37.61-9.56A70.1,70.1,0,0,0,526.27,479c-1.82,1.86-4.68,2.91-7.26,3.79-7.38,2.52-15.36,3.79-22.21,7.31C480.92,498.29,470,510.52,469,529.52c-.1,1.78-1.81,3.89-3.35,5.12-11.49,9.13-21.41,19.94-24.85,34.21-2.49,10.33-7.13,13.76-17.24,15.79-20.83,4.16-34.63,23.34-33.74,43.63.42,9.75,3.87,14,12.82,15.68,7.31,1.39,12.91-1.83,16.47-9.83,1.8-4,3-8.35,4.82-12.39a45.54,45.54,0,0,1,5-8.83c2.91-3.85,6.66-5.09,11.27-4.54-13.76,23.28-14.08,46.41,1,69.63-.15.15-.29.31-.43.46,1.07-1.13,13.66,11.39,14.28,13,1.7,4.43-.61,8-.66,12.32,0,3.42,1.49,7.44,2.62,10.63a54.08,54.08,0,0,0,11,18.53,54.7,54.7,0,0,0,37.14,17.32c1.61.09,3.69,1.67,4.59,3.15,10.16,16.72,25.07,25.22,44.46,25.35,7.43.06,14.86-1.38,22.46-2.16a.85.85,0,0,1,.29.54q.08,38.42.06,76.82c0,1-.61,2.68-1.31,2.91-3.58,1.18-3.41,4-3.16,6.72.73,7.64-1,14.57-4.15,21.59-2.5,5.48-3.29,11.76-4.66,17.73-.82,3.52.86,5.31,4.4,6a241.62,241.62,0,0,0,69.31,3.13c5.81-.53,8.22-4.55,6.69-10.18a29.16,29.16,0,0,0-1.79-4.77c-6.5-13.79-18.48-20.56-32.32-24.6-3.81-1.12-5.2-2.64-4.94-6.63.18-2.67-.09-6.61-1.76-7.86-2.43-1.84-2.59-3.6-2.59-6q0-33.28,0-66.58c0-1.3.17-2.61.28-4.25,1.48.4,2.61.68,3.72,1,27,8.15,51.21,3.82,72.26-15.65,1.38-1.28,3.81-1.74,5.83-2,6.41-.76,12.93-.83,19.26-2,4.64-.83,9.54-4.87,13.44-3.9,4.11,1,6.75,6.94,10.79,9.54,8.38,5.4,17.26,10,26.86,15.48,0,22.32,0,46.21-.06,70.1,0,1-.53,2.78-1.2,3-3.83,1.25-3.5,4.33-3.33,7.16a38.68,38.68,0,0,1-3.95,20.63c-2.27,4.48-3.38,9.65-4.39,14.64-1.61,7.89-.85,8.84,7,10.27,20.27,3.71,40.73,4.23,61.23,3.1,12.53-.69,15.16-5.72,9.3-17-.47-.91-1-1.78-1.55-2.65-6.83-10.91-17.22-16.94-29.2-20.16-4.88-1.32-6.16-3.55-5.85-8.16.15-2.31-.85-4.77-1.63-7.06-.67-2-2.53-3.83-2.56-5.75-.2-18.43-.12-36.87-.12-55.31V783.68c11.92-1.71,22.68-5.22,32.25-11.95.76-.54,2.54-.11,3.62.37,21.53,9.49,42.64,7.42,63.22-2.69,10.26-5,17.42-13.32,22.68-24.37A.57.57,0,0,1,898.41,744.27Zm22.87-166.82c14.74,2.48,23.31,11.12,26.64,25.39a183.84,183.84,0,0,1,.57,80.75c-4.91,23.18-24.94,38.67-48.81,39.17-10.58.22-21.16,0-31.75,0V723c-12.45,0-25,1-37.35-.2C800.5,720,780.2,703,769.16,675.53c-4.32-10.72-5.76-22.67-7.89-34.18-.72-3.92-2.08-6-5.75-7.31-9.77-3.47-19.24-2.2-28.37,1.84-1.7.76-3.13,3.89-3.31,6-1.64,20.21-7.51,38.85-20.18,54.9C690,714.12,672,723.76,650,724.5s-44,.91-66.05.76c-22.77-.16-43.15-16.36-47.67-38.49-5.51-27-5.73-54.2.82-81.25,3.53-14.58,12.48-22.85,27.15-25.59a302.35,302.35,0,0,1,76.47-4.49c17.3,1.19,34.56,3.69,51.69,6.5,12.69,2.09,21.46,10,26.08,22.1,1.29,3.36,3.12,5.1,6.69,5,12.09-.26,24.2-.39,36.28-.88a5.71,5.71,0,0,0,4.11-3.07c5.87-15.31,17.55-22.73,33.08-25.62C839.4,571.89,880.25,570.56,921.28,577.45ZM768.42,478.07c-3.49,2.91-6.84,5.93-10.48,8.54-.88.63-2.85.27-4.09-.22a42.43,42.43,0,0,0-23.6-2.4c-2.73.5-5.47,1.78-4.25,4.92.56,1.43,3.76,2.88,5.51,2.63,17.31-2.45,29.56,5.38,39.39,18.59,1.87,2.51,3.16,7.45,7.49,4.53,4.5-3,.64-6.58-1.32-9.13-3.7-4.83-8-9.19-12.43-14.15.89-.8,2-2,3.31-3,18.83-14.71,47.83-12,60.93,6.23,3.35,4.65,5.3,10.64,6.63,16.32,1.1,4.67,2.54,6.51,7.62,6.5,20.82-.05,43.46,14.92,50.15,33.09,1.73,4.67,2.21,9.81,3.41,15.45-2.43,0-3.72,0-5,0-32.66-1.42-65.14-.5-97.26,6.52-15.46,3.38-27.22,11.22-34.33,25.63-.56,1.13-2.16,2.49-3.2,2.43s-2.14-1.79-2.59-3c-5.15-14.19-12.16-27-24.83-36.1a4.83,4.83,0,0,1-1.51-3.85c3.77-30.09-20.39-49.52-46.73-50.3a2.84,2.84,0,0,1-1-.17c-3.52-9.19-6.67-17.39-9.94-25.91C691.73,462.22,734.37,449.16,768.42,478.07ZM469.57,541.68c4.32,5.55,7.75,11.62,12.69,16,10.42,9.19,22.63,10.49,35.38,5,12.05-5.18,21.44-12.79,22.91-26.95a17.18,17.18,0,0,0-.5-7.58c-.59-1.55-3-2.41-4.56-3.58-1,1.55-2.9,3.11-2.88,4.65.18,13.17-4.11,20.06-16.58,25.76-11,5-21.84,3.56-29.95-4.05a28.81,28.81,0,0,1-7.42-31c7.32-20,36.34-34.43,56.67-28,2.92.92,5.86,1.67,6.52-1.9.27-1.52-2.34-3.76-4-5.33-.87-.85-2.43-1-4.23-1.64,7.81-8.17,17.14-12.79,27.41-15.67,16.17-4.53,30.41-.61,42.61,10.64,3.26,3,5.71,3,9.39.69,24.21-15,52.53-2.19,57.5,25.78a21,21,0,0,1,.67,4.55c-.24,5.35,2.55,6.1,7.34,6.45,6.85.5,14,1.41,20.29,4,16.2,6.85,23.57,20.59,21.1,37.94-.73,5.16.47,8.08,5.09,10.72,9.07,5.18,18.83,20.54,21.77,33.37-6.48,0-12.6.13-18.7-.12a4.85,4.85,0,0,1-3.28-2.47c-7.05-14.43-18.65-22.63-34.26-25.54-44.08-8.21-88.16-8.91-132.22.1-8.87,1.81-15.93,6.57-21.66,13.6a7.25,7.25,0,0,1-5.46,2.15c-21.57-2-43.11-4.36-64.68-6.41-6.92-.66-13.91-.7-21.28-1C448,564.53,457,551.7,469.57,541.68Zm-52.86,76.68c-1.69,4.46-3.4,8.91-5.19,13.33-1.46,3.61-4,5.25-8.07,4.52S398,632.9,397.68,629c-1.33-16.61,9.81-32.19,27-36.93A63.17,63.17,0,0,1,439.84,590c30.13-.73,59.9,3.37,89.68,7.2a6.66,6.66,0,0,1,1.4.49c-1.32,7.65-1.31,7.5-8.25,7q-39-2.62-78.1-5.05C430.62,598.83,421.57,605.52,416.71,618.36Zm154,283.9L638,905C631.89,909.42,575.86,907.09,570.68,902.26Zm52.16-18.89,13.22,12.82c-.25.61-.49,1.22-.74,1.82l-17.82.82C619.32,893.55,620.81,889.26,622.84,883.37Zm-20.73-6.75a9.16,9.16,0,0,1,3,.66c.62,3.85.43,9.05,1.68,9.42,5,1.5,3-5,6.57-6.76l3.85,1.48-5.86,17.74-41.11-3.55c3-6.7,5.38-12.05,7.92-17.32.31-.64,1.63-1.07,2.51-1.1C587.84,876.92,595,876.7,602.11,876.62Zm-7.24-25.26c0,1.48-.19,3-.31,4.66H583.08v-5.73c0-23.88,0-47.76.08-71.64,0-1.93,1.19-3.85,1.82-5.77,1.8.61,3.64,1.13,5.4,1.84,3.88,1.58,4.61,4.6,4.57,8.58C594.78,806,594.88,828.67,594.87,851.36Zm1.36,10.78c3.14,0,3.37,2,3.34,4.41s.09,4.9-3.36,5-6.77.33-10.15.26c-8-.17-8.14-.41-7.14-9.66C584.8,862.15,590.51,862.17,596.23,862.14Zm150,40.14,68.2,2.66C791.66,908,768.88,907.62,746.27,902.28Zm52.63-18.95,13.26,12.95-1.09,1.79H793.84C795.37,893.61,796.84,889.32,798.9,883.33Zm-19.63-6.57a17.77,17.77,0,0,1,3.38.75c-.54,2-1.38,3.69-1.38,5.41,0,1.42,1,2.83,1.57,4.25,1.24-.83,2.78-1.44,3.64-2.56,1-1.28,1.38-3,2.2-5l4.74,1.72c-1.93,5.72-3.76,11.14-6,17.77l-41-3.54c3-6.59,5.23-11.81,7.68-17a3.18,3.18,0,0,1,2.34-1.49C764,876.92,771.65,876.82,779.27,876.76Zm-6.92-14.39c1.18.08,2.84,2.28,3.17,3.76.47,2.14.83,5.17-2.8,5.29-5.07.17-10.2.53-15.21-.07-5.67-.69-1.94-5.3-3.39-9.16C760.9,862.19,766.65,862,772.35,862.37ZM759.65,856V783.12l11.06.81V856Zm115.57-95.5c-19.94,11.43-40.67,14-61.93,2.83-1.73-.92-5.25-.69-6.73.5-25.1,20.17-67.37,14.36-84.69-12-2.17-3.32-4.55-3.4-7.81-1.8-10.95,5.36-22.41,7.88-34.72,6.52-2.13-.24-5,1.59-6.74,3.31-19,19.26-48.83,24.12-72.75,11.61-1.51-.79-3.26-1.46-4.33-2.68-4.88-5.58-10-4.6-16.33-2.26-13.86,5.09-28.21,7.21-42.41,1-9.48-4.16-17.14-10.54-21.37-20.3-1.39-3.21-3.43-4.55-7-4.77-30.78-1.87-48.85-23-46.74-54,.13-2-1.31-5.12-3-6.09-25-14.5-25.82-50.57-11.53-69.64,3.05-4.08,6.1-5.76,11.28-5.29,22.27,2,44.57,3.61,66.85,5.38a8.83,8.83,0,0,1,1.8.65c-.41,3.65-.85,7.32-1.23,11a219.09,219.09,0,0,0,2.13,61.2c4.74,26.71,28.25,46.93,55.43,47.14,22.19.17,44.43.6,66.57-.56,35.3-1.86,59.16-21,72.58-52.92,4.29-10.22,6-21.59,8.24-32.57.74-3.62,1.82-5.56,5.39-6,1-.13,2-.37,3-.51,12.24-1.77,13.59-.71,15.18,11.27a99.51,99.51,0,0,0,15.73,42.89c16,23.84,38.37,36.29,67.2,36.49,16.9.11,33.81-.23,50.71-.35,2,0,4,0,6.42,0C892.47,743.92,886.24,754.23,875.22,760.54Z"/><path class="cls-4" d="M848.05,348.36c-.32,2.32.06,5.07-1.08,6.89-17.68,28.36-35.6,56.57-53.33,84.91-2,3.17-4.44,4.63-8,4.3-15.42-1.46-31-2-46.22-4.72a245.59,245.59,0,0,1-68.81-22.62c-4.93-2.49-7.21-5.44-7.35-11.33-.69-28.46-1.92-56.91-2.95-85.37a8.67,8.67,0,0,1,0-3.05c.69-1.91,1.31-4.71,2.7-5.26s4.33.49,5.67,1.79C680.26,325,691.59,336.37,703,347.63c1.17,1.17,2.45,2.23,4,3.67,8.31-10.4,16.38-20.48,24.42-30.59,9.24-11.61,18.36-23.32,27.78-34.78,1.49-1.82,4.33-2.53,6.55-3.76,1.1,2.13,2.91,4.17,3.21,6.41,3.41,25.18,6.59,50.39,9.84,75.59.22,1.67.53,3.33.91,5.62l34.35-12.37c9-3.24,17.9-6.69,27-9.64C843.14,347.12,845.72,348.12,848.05,348.36Z"/><path d="M841.1,347.78c-9.08,3-18,6.4-27,9.64l-34.35,12.37c-.38-2.29-.69-4-.91-5.62-3.25-25.2-6.43-50.41-9.84-75.59-.3-2.24-2.11-4.28-3.21-6.41-2.22,1.23-5.06,1.94-6.55,3.76-9.42,11.46-18.54,23.17-27.78,34.78-8,10.11-16.11,20.19-24.42,30.59-1.6-1.44-2.88-2.5-4-3.67-11.42-11.26-22.75-22.61-34.29-33.73-1.34-1.3-4.21-2.37-5.67-1.79s-2,3.35-2.7,5.26a8.67,8.67,0,0,0,0,3.05c1,28.46,2.26,56.91,2.95,85.37.14,5.89,2.42,8.84,7.35,11.33a245.59,245.59,0,0,0,68.81,22.62c15.22,2.67,30.8,3.26,46.22,4.72,3.52.33,6-1.13,8-4.3,17.73-28.34,35.65-56.55,53.33-84.91,1.14-1.82.76-4.57,1.08-6.89C845.72,348.12,843.14,347.12,841.1,347.78ZM812.5,394c-8,12.68-16.13,25.3-24,38.06-1.72,2.78-3.63,4-7,3.89A257.83,257.83,0,0,1,676,409.87c-1.74-.84-3.72-3.33-3.8-5.13-1.13-25.21-2-50.43-2.84-75.65a5.72,5.72,0,0,1,.49-1.38c1.06.87,2.08,1.58,3,2.44q14.4,14.18,28.77,28.39c5.26,5.22,6.73,5.21,11.26-.49q21.63-27.24,43.28-54.48c1.46-1.84,3-3.63,5.29-6.37,3,23,5.79,44.81,8.6,66.61.4,3.05.77,6.1,1.18,9.14,1,7.36,2.45,8.31,9.29,5.85q23.84-8.58,47.64-17.21c1.53-.55,3.09-1,5.87-1.9C826.4,371.83,819.47,382.91,812.5,394Z"/><path d="M744.87,734.86A21.77,21.77,0,0,1,723.11,712c.15-3.48,1.77-6,5.47-6.21s5.71,1.76,6.24,5.34c.13.84.08,1.7.19,2.54.79,5.76,4.49,9.44,9.55,9.54s8.9-3.48,9.81-9.23c.16-1,.07-2.06.26-3.06.68-3.51,2.78-5.45,6.44-5.12,3.48.31,5,2.64,5.21,5.89A21.69,21.69,0,0,1,744.87,734.86Z"/><path d="M475.22,658.75c1-3.92,1.68-8,3.28-11.66.58-1.34,3.38-1.72,5.17-2.54.63,1.73,1.78,3.47,1.76,5.2,0,2.13-1.28,4.21-1.54,6.38-1.4,11.39,4.49,19.67,15.71,21.93,3,.61,5.86,1.55,4.65,4.94-.52,1.43-4,2.8-6,2.55C484.94,683.83,475.77,672.73,475.22,658.75Z"/><path d="M603,509.07c12.06.42,22.88,5.63,31,16.2,1.74,2.26,3.38,4.85.45,7.13s-4.8.07-6.59-2.31c-12.25-16.32-37.29-18-49.27-2.3-1,1.26-4,.94-6.06,1.35.1-2.12-.63-4.87.43-6.26C580.12,513.46,590,509.09,603,509.07Z"/><path d="M704.47,625.87c-2-18.37-12.68-27.13-31.17-29.66-25.64-3.51-51.4-3.76-77.17-3a138.33,138.33,0,0,0-24.26,3.29c-10.43,2.2-16.71,9.15-18.25,19.66a210.66,210.66,0,0,0,1,67.79c2.5,14,14.09,23.15,28.36,23.25,10.92.08,21.85,0,32.78,0v-.43c10.92,0,21.85.13,32.77,0,11.84-.17,22.8-3.67,31.47-11.72C700.09,676.37,707.38,652.49,704.47,625.87Zm-26.34,60.38c-7.63,8.69-18.08,12.64-29.75,12.72-10.58.08-21.17,0-31.75,0v.65H583.86c-11.44,0-20.16-7-22-18.16a225.82,225.82,0,0,1-1.18-60.73c1.18-10.87,4.91-15,15.65-17.36a106.93,106.93,0,0,1,19.74-2.56c26.47-.69,52.92-.42,79.18,3.56,12.27,1.86,18.9,7.49,21,19.75C700.29,647.64,693.73,668.52,678.13,686.25Z"/><path d="M932.17,620.71c-.47-18.26-8.36-26.47-26.6-28.34a359.23,359.23,0,0,0-100.94,4.2c-12.74,2.32-20.55,11.2-23.5,23.71-4.81,20.37.22,39.34,9.91,57.16,10.17,18.69,26.17,28.16,47.69,27.9,9.73-.11,19.46,0,29.19,0v-.44c10.93,0,21.86.07,32.78,0,16.16-.13,28.52-10.25,29.79-26.45A555.83,555.83,0,0,0,932.17,620.71Zm-9,54.69c-1,14.87-9.61,21.74-24.39,21.77-10.24,0-20.48,0-30.71,0v.53c-10.41,0-20.82.11-31.23,0-14.79-.19-27-6-35.35-18.28-11.37-16.8-17.06-35.31-13.17-55.74,2.3-12,9.63-18.45,21.92-20.35a427.53,427.53,0,0,1,88.79-4.07,52.18,52.18,0,0,1,6.57.92c13.64,2.51,18.4,6.88,18.7,20.61C924.71,639,924.42,657.24,923.19,675.4Z"/><path d="M806.18,537.35c12.63.42,22.35,4.45,30.86,11.58,2.27,1.91,4.08,4.08,1.62,6.87s-4.54.91-6.61-.8c-9.26-7.61-19.63-11.48-31.75-9.13-8.57,1.65-15.62,5.72-20.24,13.36-1.47,2.42-3.22,4.36-6.12,2.54s-2.05-4.31-.55-6.68C781.38,542.54,793.36,537.73,806.18,537.35Z"/><circle cx="617.25" cy="644.55" r="44.93"/><circle class="cls-5" cx="646.7" cy="631.71" r="18.38"/><circle class="cls-5" cx="611.04" cy="667.37" r="6.46"/><circle cx="859.39" cy="644.55" r="44.93"/><circle class="cls-5" cx="888.84" cy="631.71" r="18.38"/><circle class="cls-5" cx="853.18" cy="667.37" r="6.46"/><path class="cls-6" d="M459.28,695h0a10.16,10.16,0,0,0-10.06-11.93,190.86,190.86,0,0,1-67.06-11.88A10.17,10.17,0,0,0,368.61,679h0a10.21,10.21,0,0,0,6.7,11.4,233,233,0,0,0,73.77,13.06A10.19,10.19,0,0,0,459.28,695Z"/><path class="cls-7" d="M365.94,700.51s8.77,11.27,23.44,1.86c17-10.9,15.13-41.94-6.89-39.39Z"/><path class="cls-7" d="M388.28,673.89a29.78,29.78,0,0,0-2.71-18.53,25.19,25.19,0,0,0-8.75-9.82c-13-8.38-22.89.13-22.89.13s-13.75-15.76-23.66-6.62-2,20.19-2,20.19-10.67,1-12.17,10c-1.46,8.76,7.78,13.3,7.78,13.3s-7.44,5.73,1.29,14.37,22.77,2.63,22.77,2.63S379.8,724.67,388.28,673.89Z"/><path class="cls-8" d="M349.1,653.24s-5.35,26.92,7.34,31.84c14.73,5.71,15.3-15.47,11.46-24.64"/><path class="cls-8" d="M370,671.77s.47,8.88,10.44,8.4"/><path class="cls-8" d="M347.45,667.24s-13.25-1.11-19.78-9"/><path class="cls-8" d="M347.93,699.53c8.36-3.37,11.5-13,3-17.66"/><path class="cls-8" d="M323.87,682.53c7.42,4.33,20.78,2.46,27.73-1.32"/><path class="cls-9" d="M349.49,637.66c2.22.94,4.36,2.07,6.6,3,2.39.94,4.8-2.18,7.38-1.33l.14-.1V174.46A7.66,7.66,0,0,0,356,166.8h0a7.66,7.66,0,0,0-7.65,7.66V637.19Z"/><path class="cls-9" d="M352.13,698.32c-1.27-.31-2.55,5.09-3.83,4.77V819.91a7.65,7.65,0,0,0,7.65,7.65h0a7.65,7.65,0,0,0,7.66-7.65V690.27C359.74,690.05,355.9,699.23,352.13,698.32Z"/><path class="cls-10" d="M128.41,230.12H563.16c-10.55,0-15.94-1.74,0,8.67,2.38-7.26-5.16,13,0,23.23,3.32,7.26,21.59,32.13,0,33.64-.61,7-13.21,9.86-14.36,14.53-7.24,2.33-13.92,5.11-15.14,9.09-7.19,4,17.78,9.14,29.5,16.25,6,15.16-.49,24.22,0,42-16.19,17.93-32.36,38.28,0,39.88,18.24,8.21-1,25.41,0,33.63-15.28,9.71-14.19,17.68,0,23.23-.78,5.55-5.86,8.67,0,8.67,5.7,0-19.71.81-47.32,2.1L403,490l-101.35,4.51-95.2,4.23c-26.11,1.27-54.2,2.37-70.64,3.14-21.33.77-28.92,1.23-27.64,1.23,2.63,0,.24-17.06,3.16-42.66-11.23-6.39-7.7-13.33-8.25-20.66.13-7.33-2.6-15.06,19.67-23.06-11.88-8-24.27-16.26-16.48-24.66-18.53-8.39,24.71-16.92,12-25.45-13.09-8.53,26.9-17.07,7.42-25.46-.58-8.4-3.64-16.66-13.86-24.66,2.35-16,23.54-30.93,13.4-43.72C144.71,247.19,126.42,230.12,128.41,230.12Z"/><text class="cls-11" transform="translate(219.53 323.79) rotate(-1.54)">Who’s <tspan class="cls-12" x="122.65" y="0">BRAIN</tspan><tspan x="-72.98" y="47.34">Behind The </tspan><tspan class="cls-13" x="145.97" y="47.34">Brilliance</tspan><tspan x="318.43" y="47.34">.</tspan></text><text class="cls-14" transform="translate(209.3 441.11) rotate(-1.54)">Find Out Here</text><path class="cls-15" d="M898.41,732.62h0a6.73,6.73,0,0,0-1.55,10.2,126,126,0,0,1,23.3,38.51,6.72,6.72,0,0,0,9.75,3.36h0a6.73,6.73,0,0,0,2.75-8.29A153.75,153.75,0,0,0,907,734,6.74,6.74,0,0,0,898.41,732.62Z"/><path class="cls-16" d="M941.88,776.27s.69-9.42-10.68-11.3c-13.16-2.18-26,13.88-14.06,22.38Z"/><path class="cls-16" d="M942.51,775.06c7.17,5.65,18.38-.88,24.88,1.21,7.45,2.39,10.92,15.53-12.58,14.23,0,0,6.93,10.37,16.16,13.8,10.46,3.87,8.66,14,2.17,15-5.93.92-17.47-7.35-22.21-13.9a1.74,1.74,0,0,0-2.69-.15l-.28.32a1.74,1.74,0,0,0-.13,2.2c2.22,3.07,8.42,11.48,12.6,15.28,6.57,6-4.23,17.73-13.07,9.93-7-6.15-9.18-15.6-9.81-19.33a1.74,1.74,0,0,0-1.87-1.44h0a1.74,1.74,0,0,0-1.59,1.75,165.74,165.74,0,0,0,.93,18c1,7.35-19.77,9.15-13.71-20,0,0-14.3-13.94-3.39-28.78C930.38,766.22,942.51,775.06,942.51,775.06Z"/><path class="cls-17" d="M949.09,790.25s-9.81,9.38-18-2.34"/><path d="M167.49,261.21c9.17-.62,18.34-.94,27.51-1.16,4.59-.14,9.17-.17,13.76-.25l13.75-.09,13.76.08c4.59.09,9.17.11,13.76.25,9.17.22,18.34.55,27.51,1.17-9.17.63-18.34,1-27.51,1.17-4.59.14-9.17.17-13.76.25l-13.76.08-13.75-.08c-4.59-.08-9.17-.11-13.76-.25C185.83,262.16,176.66,261.83,167.49,261.21Z"/><path d="M449.16,468.18c9.17-.62,18.35-.95,27.52-1.17,4.58-.14,9.17-.17,13.75-.25l13.76-.08,13.75.08c4.59.08,9.17.11,13.76.25,9.17.22,18.34.54,27.51,1.17-9.17.62-18.34.95-27.51,1.17-4.59.14-9.17.16-13.76.25l-13.75.08-13.76-.09c-4.58-.08-9.17-.11-13.75-.25C467.51,469.12,458.33,468.8,449.16,468.18Z"/><path d="M499.64,252.13a30.72,30.72,0,0,1,5.81-1.18,52.81,52.81,0,0,1,11.61,0,29.86,29.86,0,0,1,5.8,1.18,30.62,30.62,0,0,1-5.8,1.18,51.42,51.42,0,0,1-5.81.32,53.7,53.7,0,0,1-5.8-.33A30.69,30.69,0,0,1,499.64,252.13Z"/><line class="cls-18" x1="193.74" y1="451.43" x2="503.68" y2="439.32"/></svg>