<svg id="Layer_1" data-name="Layer 1" xmlns="http://www.w3.org/2000/svg" xmlns:xlink="http://www.w3.org/1999/xlink" viewBox="0 0 1080 1080"><defs><style>.cls-1{fill:url(#linear-gradient);}.cls-2{fill:url(#linear-gradient-2);}.cls-3{fill:#fbfbfb;}.cls-11,.cls-13,.cls-14,.cls-4,.cls-6,.cls-7{fill:none;}.cls-4,.cls-5,.cls-6{stroke:#020202;}.cls-11,.cls-12,.cls-13,.cls-14,.cls-4,.cls-5,.cls-6,.cls-7,.cls-8{stroke-miterlimit:10;}.cls-11,.cls-12,.cls-13,.cls-4,.cls-5,.cls-6{stroke-width:5px;}.cls-12,.cls-5,.cls-8{fill:#fff;}.cls-13,.cls-6{stroke-linecap:round;}.cls-11,.cls-12,.cls-13,.cls-14,.cls-7,.cls-8{stroke:#000;}.cls-7,.cls-8{stroke-width:7px;}.cls-9{fill:url(#linear-gradient-3);}.cls-10{font-size:39.45px;font-family:ComicSansMS-Bold, Comic Sans MS;font-weight:700;}.cls-14{stroke-width:2px;}</style><linearGradient id="linear-gradient" x1="335.24" y1="649.14" x2="897.12" y2="649.14" gradientUnits="userSpaceOnUse"><stop offset="0" stop-color="#d92662"/><stop offset="1" stop-color="#e62332"/></linearGradient><linearGradient id="linear-gradient-2" x1="601.5" y1="363.34" x2="789.35" y2="363.34" xlink:href="#linear-gradient"/><linearGradient id="linear-gradient-3" x1="86.95" y1="332.36" x2="512.83" y2="332.36" xlink:href="#linear-gradient"/></defs><path class="cls-1" d="M894.3,603.59l-8.47-20.47-18.35-8.47L826.54,569l-52.95,2.82L739,574.65l-24,11.29L700.18,605l-35.29-.71-5.65-8.47-12-14.11-20.47-6.36L544.89,569l-50.12,7.76-17.65,17-52.23-5-43.06-2.11-14.12,2.11-22.59,9.18-9.88,28.94,9.18,12.71,9.88-4.24,4.24-6.35,5.64-16.94,14.12-9.18L396,604.29l47.29,3.53,25.41,2.12,1.41,14.12,2.83,10.59s-11.3,31.76,5.65,67.76,66.35,25.41,66.35,25.41,57.17-2.82,69.88-4.23,34.59-28.24,39.53-31.06,14.12-43.06,16.24-50.12,21.17-5.65,21.17-5.65,5.11-2.72,10.59,25.42,37.41,53.64,37.41,53.64l20.47,9.89,43.06,1.41,45.18-1.41,26.12-12,18.35-25.42,4.23-55ZM589.68,699c-10.58.08-21.17,0-31.75,0v.65H525.16c-11.44,0-20.16-7-22-18.16A225.82,225.82,0,0,1,502,620.75c1.18-10.87,4.91-15,15.65-17.36a106.93,106.93,0,0,1,19.74-2.56c26.47-.69,52.92-.42,79.18,3.56,12.27,1.86,18.9,7.49,21,19.75,4,23.5-2.54,44.38-18.14,62.11C611.8,694.94,601.35,698.89,589.68,699Zm219.71-1.8v.53c-10.41,0-20.82.11-31.23,0-14.79-.19-27-6-35.35-18.28-11.37-16.8-17.06-35.31-13.17-55.74,2.3-12,9.63-18.45,21.92-20.35a427.53,427.53,0,0,1,88.79-4.07,52.18,52.18,0,0,1,6.57.92c13.64,2.51,18.4,6.88,18.7,20.61.39,18.2.1,36.47-1.13,54.63-1,14.87-9.61,21.74-24.39,21.77C829.86,697.19,819.62,697.17,809.39,697.17Z"/><path d="M839.71,744.27a67.24,67.24,0,0,1,3.43-8.06c.2-.37.42-.72.64-1.08a5.53,5.53,0,0,1,2-4A18.34,18.34,0,0,1,849,729.7a19.24,19.24,0,0,1,5.84-2.16c2.92-.65,5.86-1.24,8.72-2.14a32.21,32.21,0,0,0,5.38-2.26c14.37-8,24.57-19.92,28.15-36.33,6.55-30,6.87-60.31-1.62-90.2-3.92-13.82-13.25-22.43-27.15-25.82-5.95-1.46-12.06-2.27-18.12-3.28-3.41-.56-5.13-1.8-5.29-5.88-.55-13-6.18-24-15.62-32.9A67.88,67.88,0,0,0,789.72,510c-3.52-.41-5.3-1.63-6-5.3a34.58,34.58,0,0,0-3.65-9.5c-10.39-19.45-33.15-28.47-56.38-22.11-4.1,1.12-6.79.42-10.1-2.12-23.08-17.7-48.66-22.73-76.18-12.7-11.41,4.16-22,10.45-33,15.78-.39.7-1.23.13-2.07-.44-14.74-10.11-30.48-11.44-46.63-4.31-4.49,2-7.11,1.46-10.75-1.31-11.1-8.46-23.78-11.84-37.62-9.56A70,70,0,0,0,467.58,479c-1.82,1.86-4.69,2.91-7.26,3.79-7.39,2.52-15.37,3.79-22.22,7.31-15.87,8.15-26.76,20.38-27.84,39.38-.1,1.78-1.81,3.89-3.35,5.12-11.49,9.13-21.41,19.94-24.85,34.21-2.48,10.33-7.12,13.76-17.23,15.79C344,588.8,330.19,608,331.08,628.27c.43,9.75,3.88,14,12.82,15.68,7.32,1.39,12.91-1.83,16.47-9.83,1.8-4,3-8.35,4.83-12.39a45,45,0,0,1,5-8.83c2.92-3.85,6.66-5.09,11.28-4.54-13.77,23.28-14.08,46.41,1,69.63l-.43.46c1.07-1.13,13.67,11.39,14.28,13,1.7,4.43-.61,8-.66,12.32,0,3.42,1.49,7.44,2.62,10.63a53.4,53.4,0,0,0,48.18,35.85c1.61.09,3.7,1.67,4.59,3.15,10.16,16.72,25.07,25.22,44.46,25.35,7.43.06,14.87-1.38,22.46-2.16a.85.85,0,0,1,.29.54q.09,38.42.06,76.82c0,1-.61,2.68-1.31,2.91-3.58,1.18-3.4,4-3.15,6.72.72,7.64-.95,14.57-4.16,21.59-2.5,5.48-3.29,11.76-4.66,17.73-.81,3.52.86,5.31,4.41,6a241.54,241.54,0,0,0,69.3,3.13c5.82-.53,8.22-4.55,6.7-10.18a29.2,29.2,0,0,0-1.8-4.77c-6.5-13.79-18.48-20.56-32.32-24.6-3.8-1.12-5.2-2.64-4.94-6.63.18-2.67-.09-6.61-1.76-7.86-2.43-1.84-2.59-3.6-2.59-6q0-33.28,0-66.58c0-1.3.17-2.61.29-4.25,1.47.4,2.6.68,3.71,1,27,8.15,51.22,3.82,72.26-15.65,1.38-1.28,3.81-1.74,5.83-2,6.41-.76,12.93-.83,19.27-2,4.63-.83,9.53-4.87,13.43-3.9,4.12,1,6.75,6.94,10.8,9.54,8.37,5.4,17.25,10,26.85,15.48,0,22.32,0,46.21-.05,70.1,0,1-.53,2.78-1.21,3-3.82,1.25-3.5,4.33-3.32,7.16a38.78,38.78,0,0,1-4,20.63c-2.27,4.48-3.39,9.65-4.4,14.64-1.61,7.89-.85,8.84,7,10.27,20.27,3.71,40.73,4.23,61.24,3.1,12.52-.69,15.15-5.72,9.3-17-.48-.91-1-1.78-1.56-2.65-6.83-10.91-17.22-16.94-29.2-20.16-4.88-1.32-6.16-3.55-5.85-8.16.15-2.31-.85-4.77-1.62-7.06-.68-2-2.54-3.83-2.56-5.75-.2-18.43-.13-36.87-.13-55.31V783.68c11.92-1.71,22.68-5.22,32.25-11.95.76-.54,2.54-.11,3.63.37,21.52,9.49,42.63,7.42,63.21-2.69,10.26-5,17.43-13.32,22.68-24.37A.58.58,0,0,1,839.71,744.27Zm22.88-166.82c14.73,2.48,23.3,11.12,26.63,25.39a183.84,183.84,0,0,1,.58,80.75c-4.92,23.18-24.95,38.67-48.81,39.17-10.58.22-21.17,0-31.75,0V723c-12.46,0-25,1-37.36-.2C741.81,720,721.5,703,710.47,675.53c-4.32-10.72-5.77-22.67-7.89-34.18-.73-3.92-2.09-6-5.76-7.31-9.77-3.47-19.24-2.2-28.36,1.84-1.7.76-3.14,3.89-3.31,6-1.65,20.21-7.51,38.85-20.19,54.9-13.66,17.31-31.63,27-53.7,27.69s-44,.91-66,.76c-22.78-.16-43.16-16.36-47.67-38.49-5.51-27-5.74-54.2.82-81.25,3.53-14.58,12.47-22.85,27.15-25.59A302.25,302.25,0,0,1,582,575.44c17.31,1.19,34.56,3.69,51.69,6.5,12.69,2.09,21.46,10,26.08,22.1,1.29,3.36,3.13,5.1,6.69,5,12.1-.26,24.2-.39,36.29-.88a5.72,5.72,0,0,0,4.11-3.07c5.86-15.31,17.54-22.73,33.08-25.62C780.7,571.89,821.55,570.56,862.59,577.45ZM709.73,478.07c-3.5,2.91-6.85,5.93-10.49,8.54-.88.63-2.85.27-4.09-.22a42.43,42.43,0,0,0-23.6-2.4c-2.73.5-5.47,1.78-4.24,4.92.56,1.43,3.75,2.88,5.51,2.63,17.3-2.45,29.55,5.38,39.38,18.59,1.87,2.51,3.16,7.45,7.49,4.53,4.51-3,.65-6.58-1.31-9.13-3.71-4.83-8-9.19-12.43-14.15.88-.8,2-2,3.31-3,18.82-14.71,47.82-12,60.93,6.23,3.34,4.65,5.29,10.64,6.63,16.32,1.1,4.67,2.53,6.51,7.62,6.5,20.82-.05,43.45,14.92,50.15,33.09,1.72,4.67,2.2,9.81,3.41,15.45-2.44,0-3.73,0-5,0-32.66-1.42-65.13-.5-97.25,6.52-15.47,3.38-27.23,11.22-34.33,25.63-.56,1.13-2.17,2.49-3.21,2.43s-2.14-1.79-2.58-3c-5.16-14.19-12.17-27-24.83-36.1a4.84,4.84,0,0,1-1.52-3.85c3.78-30.09-20.39-49.52-46.73-50.3a2.94,2.94,0,0,1-1-.17c-3.52-9.19-6.67-17.39-9.93-25.91C633,462.22,675.67,449.16,709.73,478.07ZM410.88,541.68c4.31,5.55,7.75,11.62,12.69,16,10.41,9.19,22.62,10.49,35.38,5,12-5.18,21.44-12.79,22.91-26.95.26-2.51.36-5.31-.51-7.58-.58-1.55-3-2.41-4.56-3.58-1,1.55-2.9,3.11-2.88,4.65.18,13.17-4.11,20.06-16.58,25.76-11,5-21.84,3.56-29.95-4.05a28.83,28.83,0,0,1-7.42-31c7.33-20,36.34-34.43,56.67-28,2.93.92,5.87,1.67,6.52-1.9.27-1.52-2.33-3.76-4-5.33-.87-.85-2.42-1-4.23-1.64,7.81-8.17,17.14-12.79,27.41-15.67,16.17-4.53,30.41-.61,42.61,10.64,3.26,3,5.72,3,9.39.69,24.21-15,52.53-2.19,57.5,25.78a21.68,21.68,0,0,1,.68,4.55c-.24,5.35,2.54,6.1,7.33,6.45,6.85.5,14,1.41,20.3,4,16.19,6.85,23.56,20.59,21.09,37.94-.73,5.16.48,8.08,5.09,10.72,9.07,5.18,18.83,20.54,21.77,33.37-6.47,0-12.59.13-18.7-.12a4.83,4.83,0,0,1-3.27-2.47c-7.06-14.43-18.66-22.63-34.27-25.54-44.08-8.21-88.16-8.91-132.22.1-8.87,1.81-15.92,6.57-21.66,13.6a7.25,7.25,0,0,1-5.46,2.15c-21.57-2-43.11-4.36-64.68-6.41-6.92-.66-13.9-.7-21.28-1C389.27,564.53,398.32,551.7,410.88,541.68ZM358,618.36c-1.69,4.46-3.4,8.91-5.18,13.33-1.47,3.61-4,5.25-8.08,4.52S339.29,632.9,339,629c-1.33-16.61,9.81-32.19,27-36.93A63.31,63.31,0,0,1,381.14,590c30.13-.73,59.9,3.37,89.68,7.2a6.47,6.47,0,0,1,1.4.49c-1.31,7.65-1.3,7.5-8.24,7q-39.06-2.62-78.11-5.05C371.93,598.83,362.88,605.52,358,618.36Zm154,283.9,67.3,2.69C573.19,909.42,517.16,907.09,512,902.26Zm52.15-18.89,13.22,12.82c-.24.61-.49,1.22-.73,1.82l-17.82.82Zm-20.72-6.75a9.31,9.31,0,0,1,3,.66c.61,3.85.42,9.05,1.68,9.42,5,1.5,3-5,6.56-6.76l3.86,1.48c-1.92,5.79-3.72,11.24-5.86,17.74l-41.12-3.55c3-6.7,5.38-12.05,7.93-17.32.3-.64,1.63-1.07,2.5-1.1C529.14,876.92,536.28,876.7,543.42,876.62Zm-7.25-25.26c0,1.48-.19,3-.31,4.66H524.38v-5.73c0-23.88,0-47.76.09-71.64,0-1.93,1.18-3.85,1.82-5.77,1.8.61,3.63,1.13,5.39,1.84,3.88,1.58,4.61,4.6,4.58,8.58C536.08,806,536.19,828.67,536.17,851.36Zm1.37,10.78c3.13,0,3.36,2,3.33,4.41s.1,4.9-3.36,5-6.77.33-10.15.26c-8-.17-8.14-.41-7.14-9.66C526.1,862.15,531.82,862.17,537.54,862.14Zm150,40.14,68.2,2.66C733,908,710.18,907.62,687.57,902.28Zm52.63-18.95,13.26,12.95c-.36.6-.72,1.2-1.09,1.79H735.14C736.67,893.61,738.15,889.32,740.2,883.33Zm-19.63-6.57a18,18,0,0,1,3.39.75c-.55,2-1.39,3.69-1.39,5.41,0,1.42,1,2.83,1.57,4.25,1.24-.83,2.78-1.44,3.65-2.56,1-1.28,1.37-3,2.19-5l4.75,1.72c-1.94,5.72-3.77,11.14-6,17.77l-41-3.54c3-6.59,5.23-11.81,7.68-17a3.22,3.22,0,0,1,2.34-1.49C705.33,876.92,713,876.82,720.57,876.76Zm-6.92-14.39c1.19.08,2.84,2.28,3.17,3.76.47,2.14.84,5.17-2.79,5.29-5.07.17-10.21.53-15.21-.07-5.68-.69-2-5.3-3.39-9.16C702.21,862.19,708,862,713.65,862.37ZM701,856V783.12l11,.81V856Zm115.56-95.5c-19.93,11.43-40.66,14-61.92,2.83-1.74-.92-5.26-.69-6.74.5-25.1,20.17-67.37,14.36-84.68-12-2.18-3.32-4.56-3.4-7.82-1.8-11,5.36-22.4,7.88-34.72,6.52-2.12-.24-5,1.59-6.74,3.31-19,19.26-48.83,24.12-72.75,11.61-1.51-.79-3.25-1.46-4.32-2.68-4.89-5.58-10-4.6-16.34-2.26-13.85,5.09-28.21,7.21-42.41,1-9.47-4.16-17.14-10.54-21.37-20.3-1.39-3.21-3.43-4.55-7-4.77-30.79-1.87-48.86-23-46.75-54,.14-2-1.31-5.12-3-6.09-25-14.5-25.82-50.57-11.53-69.64,3.06-4.08,6.1-5.76,11.29-5.29,22.26,2,44.56,3.61,66.84,5.38a8.83,8.83,0,0,1,1.8.65c-.41,3.65-.85,7.32-1.23,11a219.09,219.09,0,0,0,2.14,61.2c4.73,26.71,28.24,46.93,55.42,47.14,22.19.17,44.43.6,66.58-.56,35.29-1.86,59.15-21,72.57-52.92,4.29-10.22,6-21.59,8.25-32.57.73-3.62,1.81-5.56,5.38-6,1-.13,2-.37,3-.51,12.24-1.77,13.58-.71,15.17,11.27,2,15.46,7,29.93,15.74,42.89,16,23.84,38.37,36.29,67.19,36.49,16.91.11,33.81-.23,50.71-.35,2,0,4,0,6.42,0C833.77,743.92,827.54,754.23,816.52,760.54Z"/><path class="cls-2" d="M789.35,348.36c-.32,2.32.06,5.07-1.08,6.89-17.68,28.36-35.6,56.57-53.33,84.91-2,3.17-4.44,4.63-8,4.3-15.42-1.46-31-2-46.22-4.72A245.59,245.59,0,0,1,612,417.12c-4.93-2.49-7.21-5.44-7.35-11.33-.69-28.46-1.92-56.91-3-85.37a8.67,8.67,0,0,1,0-3.05c.69-1.91,1.31-4.71,2.7-5.26s4.33.49,5.67,1.79c11.54,11.12,22.87,22.47,34.29,33.73,1.17,1.17,2.45,2.23,4.05,3.67,8.31-10.4,16.38-20.48,24.42-30.59,9.24-11.61,18.36-23.32,27.78-34.78,1.49-1.82,4.33-2.53,6.55-3.76,1.1,2.13,2.91,4.17,3.21,6.41,3.41,25.18,6.59,50.39,9.84,75.59.22,1.67.53,3.33.91,5.62l34.35-12.37c9-3.24,17.9-6.69,27-9.64C784.44,347.12,787,348.12,789.35,348.36Z"/><path d="M782.4,347.78c-9.08,3-18,6.4-27,9.64l-34.35,12.37c-.38-2.29-.69-4-.91-5.62-3.25-25.2-6.43-50.41-9.84-75.59-.3-2.24-2.11-4.28-3.21-6.41-2.22,1.23-5.06,1.94-6.55,3.76-9.42,11.46-18.54,23.17-27.78,34.78-8,10.11-16.11,20.19-24.42,30.59-1.6-1.44-2.88-2.5-4.05-3.67C632.89,336.37,621.56,325,610,313.9c-1.34-1.3-4.21-2.37-5.67-1.79s-2,3.35-2.7,5.26a8.67,8.67,0,0,0,0,3.05c1,28.46,2.26,56.91,3,85.37.14,5.89,2.42,8.84,7.35,11.33a245.59,245.59,0,0,0,68.81,22.62c15.22,2.67,30.8,3.26,46.22,4.72,3.52.33,6-1.13,8-4.3,17.73-28.34,35.65-56.55,53.33-84.91,1.14-1.82.76-4.57,1.08-6.89C787,348.12,784.44,347.12,782.4,347.78ZM753.8,394c-8,12.68-16.13,25.3-24,38.06-1.72,2.78-3.63,4-6.95,3.89a257.83,257.83,0,0,1-105.49-26.05c-1.74-.84-3.72-3.33-3.8-5.13-1.13-25.21-2-50.43-2.84-75.65a5.72,5.72,0,0,1,.49-1.38c1.06.87,2.08,1.58,3,2.44q14.4,14.18,28.77,28.39c5.26,5.22,6.73,5.21,11.26-.49q21.63-27.24,43.28-54.48c1.46-1.84,3-3.63,5.29-6.37,3,23,5.79,44.81,8.6,66.61.4,3.05.77,6.1,1.18,9.14,1,7.36,2.45,8.31,9.29,5.85q23.83-8.58,47.64-17.21c1.53-.55,3.09-1,5.87-1.9C767.7,371.83,760.77,382.91,753.8,394Z"/><path d="M686.17,734.86A21.75,21.75,0,0,1,664.42,712c.14-3.48,1.76-6,5.46-6.21s5.71,1.76,6.24,5.34c.13.84.08,1.7.19,2.54.79,5.76,4.5,9.44,9.55,9.54s8.9-3.48,9.82-9.23c.16-1,.06-2.06.25-3.06.69-3.51,2.78-5.45,6.44-5.12,3.48.31,5,2.64,5.22,5.89A21.7,21.7,0,0,1,686.17,734.86Z"/><path d="M416.52,658.75c1-3.92,1.69-8,3.28-11.66.58-1.34,3.38-1.72,5.17-2.54.63,1.73,1.78,3.47,1.77,5.2,0,2.13-1.28,4.21-1.55,6.38-1.4,11.39,4.5,19.67,15.71,21.93,3,.61,5.87,1.55,4.65,4.94-.52,1.43-4,2.8-6,2.55C426.24,683.83,417.08,672.73,416.52,658.75Z"/><path d="M544.25,509.07c12.06.42,22.88,5.63,31,16.2,1.74,2.26,3.38,4.85.46,7.13s-4.81.07-6.6-2.31c-12.25-16.32-37.29-18-49.27-2.3-1,1.26-4,.94-6.06,1.35.1-2.12-.63-4.87.44-6.26C521.42,513.46,531.26,509.09,544.25,509.07Z"/><path d="M645.77,625.87c-2-18.37-12.68-27.13-31.17-29.66-25.64-3.51-51.4-3.76-77.17-3a138.33,138.33,0,0,0-24.26,3.29c-10.43,2.2-16.71,9.15-18.25,19.66a210.66,210.66,0,0,0,1,67.79c2.5,14,14.09,23.15,28.36,23.25,10.92.08,21.85,0,32.78,0v-.43c10.92,0,21.85.13,32.77,0,11.84-.17,22.8-3.67,31.47-11.72C641.39,676.37,648.68,652.49,645.77,625.87Zm-26.34,60.38c-7.63,8.69-18.08,12.64-29.75,12.72-10.58.08-21.17,0-31.75,0v.65H525.16c-11.44,0-20.16-7-22-18.16A225.82,225.82,0,0,1,502,620.75c1.18-10.87,4.91-15,15.65-17.36a106.93,106.93,0,0,1,19.74-2.56c26.47-.69,52.92-.42,79.18,3.56,12.27,1.86,18.9,7.49,21,19.75C641.59,647.64,635,668.52,619.43,686.25Z"/><path d="M873.47,620.71c-.47-18.26-8.36-26.47-26.6-28.34a359.23,359.23,0,0,0-100.94,4.2c-12.74,2.32-20.55,11.2-23.5,23.71-4.81,20.37.22,39.34,9.91,57.16,10.17,18.69,26.17,28.16,47.69,27.9,9.73-.11,19.46,0,29.19,0v-.44c10.93,0,21.86.07,32.78,0,16.16-.13,28.52-10.25,29.79-26.45A555.83,555.83,0,0,0,873.47,620.71Zm-9,54.69c-1,14.87-9.61,21.74-24.39,21.77-10.24,0-20.48,0-30.71,0v.53c-10.41,0-20.82.11-31.23,0-14.79-.19-27-6-35.35-18.28-11.37-16.8-17.06-35.31-13.17-55.74,2.3-12,9.63-18.45,21.92-20.35a427.53,427.53,0,0,1,88.79-4.07,52.18,52.18,0,0,1,6.57.92c13.64,2.51,18.4,6.88,18.7,20.61C866,639,865.72,657.24,864.49,675.4Z"/><path d="M747.48,537.35c12.63.42,22.35,4.45,30.86,11.58,2.28,1.91,4.08,4.08,1.62,6.87s-4.54.91-6.61-.8c-9.26-7.61-19.63-11.48-31.75-9.13-8.57,1.65-15.62,5.72-20.24,13.36-1.47,2.42-3.22,4.36-6.12,2.54s-2-4.31-.54-6.68C722.68,542.54,734.66,537.73,747.48,537.35Z"/><circle cx="558.56" cy="644.55" r="44.93"/><circle class="cls-3" cx="588" cy="631.71" r="18.38"/><circle class="cls-3" cx="552.35" cy="667.37" r="6.46"/><circle cx="800.7" cy="644.55" r="44.93"/><circle class="cls-3" cx="830.14" cy="631.71" r="18.38"/><circle class="cls-3" cx="794.49" cy="667.37" r="6.46"/><path class="cls-4" d="M400.59,695h0a10.17,10.17,0,0,0-10.07-11.93,190.84,190.84,0,0,1-67-11.88A10.17,10.17,0,0,0,309.92,679h0a10.19,10.19,0,0,0,6.7,11.4,232.88,232.88,0,0,0,73.76,13.06A10.2,10.2,0,0,0,400.59,695Z"/><path class="cls-5" d="M307.24,700.51s8.77,11.27,23.44,1.86c17-10.9,15.13-41.94-6.88-39.39Z"/><path class="cls-5" d="M329.59,673.89a29.92,29.92,0,0,0-2.71-18.53,25.22,25.22,0,0,0-8.76-9.82c-13-8.38-22.89.13-22.89.13s-13.75-15.76-23.66-6.62-2,20.19-2,20.19-10.66,1-12.17,10c-1.45,8.76,7.78,13.3,7.78,13.3s-7.43,5.73,1.29,14.37,22.77,2.63,22.77,2.63S321.1,724.67,329.59,673.89Z"/><path class="cls-6" d="M290.41,653.24s-5.36,26.92,7.33,31.84c14.73,5.71,15.3-15.47,11.46-24.64"/><path class="cls-6" d="M311.28,671.77s.47,8.88,10.45,8.4"/><path class="cls-6" d="M288.75,667.24s-13.24-1.11-19.77-9"/><path class="cls-6" d="M289.23,699.53c8.36-3.37,11.5-13,3-17.66"/><path class="cls-6" d="M265.17,682.53c7.43,4.33,20.78,2.46,27.73-1.32"/><path class="cls-7" d="M290.8,637.66c2.22.94,4.35,2.07,6.6,3s4.79-2.18,7.37-1.33l.14-.1V174.46a7.66,7.66,0,0,0-7.65-7.66h0a7.65,7.65,0,0,0-7.65,7.66V637.19Z"/><path class="cls-7" d="M293.44,698.32c-1.28-.31-2.56,5.09-3.83,4.77V819.91a7.64,7.64,0,0,0,7.65,7.65h0a7.65,7.65,0,0,0,7.65-7.65V690.27C301,690.05,297.2,699.23,293.44,698.32Z"/><path class="cls-8" d="M69.71,230.12H504.46c-10.54,0-15.93-1.74,0,8.67,2.39-7.26-5.16,13,0,23.23,3.32,7.26,21.59,32.13,0,33.64-.61,7-13.21,9.86-14.35,14.53-7.24,2.33-13.92,5.11-15.15,9.09-7.19,4,17.78,9.14,29.5,16.25,6,15.16-.49,24.22,0,42-16.19,17.93-32.36,38.28,0,39.88,18.24,8.21-1,25.41,0,33.63-15.28,9.71-14.19,17.68,0,23.23-.78,5.55-5.86,8.67,0,8.67,5.7,0-19.71.81-47.32,2.1l-112.83,5L243,494.51l-95.2,4.23c-26.1,1.27-54.2,2.37-70.63,3.14-21.34.77-28.93,1.23-27.64,1.23,2.62,0,.24-17.06,3.16-42.66-11.24-6.39-7.71-13.33-8.26-20.66.14-7.33-2.6-15.06,19.67-23.06-11.88-8-24.27-16.26-16.48-24.66-18.53-8.39,24.71-16.92,12-25.45-13.1-8.53,26.9-17.07,7.41-25.46-.58-8.4-3.63-16.66-13.86-24.66,2.35-16,23.54-30.93,13.4-43.72C86,247.19,67.73,230.12,69.71,230.12Z"/><path class="cls-9" d="M186,323a17.86,17.86,0,0,1-.66-3.78c-.05-1.7-.18-4.47-.41-8.32q-.47-6.33-.39-9.37-2.4,6.14-6.65,14.94-1.5,3.06-2.28,5.15a1.6,1.6,0,0,1,.16.65,1.83,1.83,0,0,1-.81,1.53,3.06,3.06,0,0,1-1.83.68c-1.75,0-2.51-.71-2.28-2.27l-.3-2.44-.85-9.4q-.27-2.93-2.48-13.64a2.23,2.23,0,0,1,.26-1.67,2.06,2.06,0,0,1,1.94-1,1.79,1.79,0,0,1,1.37.58c.38.4.8,1.83,1.24,4.29s.85,5.4,1.21,8.81l.89,8.86q2.55-4.68,5.91-12.52a57.08,57.08,0,0,1,3.71-7.82c.87-1.35,1.69-2,2.46-2.05a1.56,1.56,0,0,1,1.6.85,14,14,0,0,1,.5,4.24c0,1.14,0,2.5,0,4.08,0,1.09.11,3.63.32,7.6l.48,7.93,6.12-11.86,2.85-5.76c.19-.41.64-1.56,1.33-3.45,1.11-3.09,2.36-4.65,3.73-4.69,1.13,0,1.71.44,1.74,1.4a7.23,7.23,0,0,1-.88,2.45L203,299.2l-1.52,3.49-7.56,14.1-2,3.95q-1.32,2.52-1.68,3a2.56,2.56,0,0,1-.89.81,2.6,2.6,0,0,1-1.21.33,2.23,2.23,0,0,1-1.6-.53A1.36,1.36,0,0,1,186,323Z"/><path class="cls-9" d="M210.09,313c-.66,5-1.24,7.86-1.72,8.71a2.21,2.21,0,0,1-1.86,1.31,1.67,1.67,0,0,1-1.24-.44,1.54,1.54,0,0,1-.52-1.13,2.65,2.65,0,0,1,.29-1.12,15.09,15.09,0,0,0,.6-2.81l2.3-17.08.49-2.67a12.77,12.77,0,0,0,.16-2.44,5.36,5.36,0,0,1,.49-2.86,2,2,0,0,1,1.71-.88c1.08,0,1.63.53,1.66,1.68a38.76,38.76,0,0,1-.82,7.59c-.3,1.74-.52,3.16-.67,4.24l-.21,1.7q3.69-4.32,7.75-4.43a5.46,5.46,0,0,1,3.24.79c.82.56,1.26,1.74,1.3,3.54a21.9,21.9,0,0,1-.1,2.57l-.32,3.69-.15,4c0,.27,0,1,0,2.12s.06,1.82.09,2a1.67,1.67,0,0,1-.12.83,2.13,2.13,0,0,1-.74.94,2.09,2.09,0,0,1-1.28.46,1.37,1.37,0,0,1-1.36-.63,8.73,8.73,0,0,1-.44-3.27,37.56,37.56,0,0,1,.32-7.25,22.3,22.3,0,0,0,.46-3.93c0-1.38-.52-2.07-1.43-2a6.11,6.11,0,0,0-3.52,1.32A22,22,0,0,0,210.09,313Z"/><path class="cls-9" d="M226.77,315.43a14.44,14.44,0,0,1,3.06-9.33,10.31,10.31,0,0,1,8.27-4.35,5.22,5.22,0,0,1,4.47,1.9,8.67,8.67,0,0,1,1.68,5.33,15.55,15.55,0,0,1-2.83,9.68,9.24,9.24,0,0,1-7.53,4.3,6.24,6.24,0,0,1-5.09-2.08A8.18,8.18,0,0,1,226.77,315.43Zm10.41-9.76a5.72,5.72,0,0,0-4.85,3.1,10.92,10.92,0,0,0-1.76,6.05A4.51,4.51,0,0,0,231.7,318a3.49,3.49,0,0,0,2.72,1.1,5.75,5.75,0,0,0,4.42-2.44c1.26-1.57,1.85-3.87,1.77-6.88q-.12-4.17-3.31-4.08Z"/><path class="cls-9" d="M250.08,295.78l1.16-3.42c.34-1,.89-1.53,1.65-1.55a1.22,1.22,0,0,1,1.39,1.35,22.12,22.12,0,0,1-1.12,4.44c-.75,2.44-1.63,3.67-2.61,3.7a1.16,1.16,0,0,1-1.33-1.3A13.1,13.1,0,0,1,250.08,295.78Z"/><path class="cls-9" d="M268.16,303.27q-.72.24-1.89.57a18.78,18.78,0,0,0-4.73,1.93,3.13,3.13,0,0,0-1.5,2.13,6.23,6.23,0,0,0,1.07.25,14.89,14.89,0,0,1,6.62,2.25,5.33,5.33,0,0,1,2.15,4.31,6.27,6.27,0,0,1-2.46,5.44,11.41,11.41,0,0,1-6.84,2.1,12.46,12.46,0,0,1-5-.83c-1.48-.6-2.24-1.42-2.27-2.45a2.18,2.18,0,0,1,.7-1.62,2.27,2.27,0,0,1,1.55-.73q.59,0,1.41.87a3.78,3.78,0,0,0,1.81.66,11.4,11.4,0,0,0,2.32.23c3.37-.09,5-1,5-2.83q0-2.21-3.23-2.94l-1.94-.39c-2-.41-3.28-.92-3.8-1.53a3.24,3.24,0,0,1-.81-2.07,6.64,6.64,0,0,1,.82-3.37,6.8,6.8,0,0,1,2.48-2.63,22.88,22.88,0,0,1,5.14-2.07,28.74,28.74,0,0,0,3.8-1.31,4,4,0,0,1,1.76-.42,1.41,1.41,0,0,1,1.66,1.52l-.06,1.41.07,1.31a2.73,2.73,0,0,1-.64,2.34,2.43,2.43,0,0,1-1.51.62q-1,0-1.29-.51A6,6,0,0,1,268.16,303.27Z"/><path class="cls-9" d="M304.15,305.22a7.49,7.49,0,0,1,2.92,2.6,6.39,6.39,0,0,1,1.14,3.38q.12,4.23-5,7t-14.21,3a2.37,2.37,0,0,1-2-.88,2.54,2.54,0,0,1-.65-2.05l2.69-20.5c0-.06.06-.65.14-1.78a10.66,10.66,0,0,1,.84-4.09c.39-.64,1.37-1.14,2.92-1.5a26.63,26.63,0,0,1,5.35-.63A10.34,10.34,0,0,1,305,292a7,7,0,0,1,3.08,5.54A9.05,9.05,0,0,1,304.15,305.22Zm-11.27,3.46-1,7.25a39.61,39.61,0,0,0,8.07-1.37c2-.62,2.95-1.5,2.92-2.64,0-1-.68-1.75-2-2.37a7.36,7.36,0,0,0-2.88-.9C296.94,308.69,295.2,308.69,292.88,308.68Zm4.76-13.62-2,.05a9.78,9.78,0,0,0-1,.07l-.51,4.12-.57,4a14.85,14.85,0,0,0,2.13.14,9.06,9.06,0,0,0,5-1.47,4,4,0,0,0,1.95-3.46,3.18,3.18,0,0,0-1.59-2.41A5.54,5.54,0,0,0,297.64,295.06Z"/><path class="cls-9" d="M316.23,311.44l-.53,5.95a3.26,3.26,0,0,1-1,2.16,3.13,3.13,0,0,1-2.07.84,2.34,2.34,0,0,1-1.7-.59,2.11,2.11,0,0,1-.69-1.51c0-.33.21-1.94.66-4.81l2.7-20a4.28,4.28,0,0,1,1.18-2.44,3.72,3.72,0,0,1,2.72-1.1,31.48,31.48,0,0,1,4.3.17,17.39,17.39,0,0,1,4,.84,17.8,17.8,0,0,1,3.36,1.88,11,11,0,0,1,3.17,3.18,7.6,7.6,0,0,1,1.24,4q.17,6.18-8,9.37a26.59,26.59,0,0,1,4.86,3.41c1.68,1.43,2.53,2.6,2.55,3.48a2.93,2.93,0,0,1-.9,2.16,3.05,3.05,0,0,1-2.17,1,2.39,2.39,0,0,1-1.83-.78A26.4,26.4,0,0,0,316.23,311.44Zm2.25-16-1.34,10.25.82,0c3.45-.09,6-.63,7.68-1.63s2.5-2,2.47-2.92c0-1.31-.85-2.55-2.47-3.74a9.3,9.3,0,0,0-5.25-1.87Z"/><path class="cls-9" d="M353.82,310.36c-1,.15-2.55.33-4.73.55a39.11,39.11,0,0,0-4.72.61,65.12,65.12,0,0,1-4.22,6.89,2.91,2.91,0,0,1-2.23,1.06,2.45,2.45,0,0,1-1.75-.58,2.08,2.08,0,0,1-.72-1.53q0-1,3.76-7.17a1.37,1.37,0,0,1-.13-.52c0-.95.67-1.65,2.08-2.1q12.48-17.46,14.29-17.51c1.38,0,2.21.79,2.52,2.49.06,2.39.32,6.09.78,11.08s.75,7.78.89,8.34.33,1.22.56,2a9.23,9.23,0,0,1,.38,2.09,2.76,2.76,0,0,1-.93,2.11,3.22,3.22,0,0,1-2.2,1Q355,319.17,353.82,310.36Zm-1-10.9q-2.46,3.57-5.05,7.15a22.12,22.12,0,0,1,2.79-.39c1.41-.11,2.3-.2,2.67-.26C353.21,304.26,353.08,302.1,352.85,299.46Z"/><path class="cls-9" d="M378.32,294.63q-.75,3.78-1.52,9.46l-1.12,8.69,2.58-.11c1.1-.05,2-.07,2.73-.07a2.1,2.1,0,0,1,1.64.63,2.17,2.17,0,0,1,.6,1.44,2.92,2.92,0,0,1-.88,2.18,3,3,0,0,1-2.14,1l-1.35,0-1.88.09-1.91.09a48.78,48.78,0,0,0-5.23.49A27.39,27.39,0,0,1,366,319a2.3,2.3,0,0,1-1.68-.58,2.08,2.08,0,0,1-.69-1.51,3.19,3.19,0,0,1,3.06-3.19,25.42,25.42,0,0,0,3.47-.36q1.6-13.65,2.81-18.79l-4.21.25a2.23,2.23,0,0,1-1.65-.54,2,2,0,0,1-.74-1.6,3,3,0,0,1,.8-2.09,3.43,3.43,0,0,1,2.34-1.07c1-.09,2.89-.18,5.65-.25a56.8,56.8,0,0,1,5.87.19c2.24.17,3.62.3,4.13.4a2,2,0,0,1,1.21.62,2,2,0,0,1,.46,1.33,2.93,2.93,0,0,1-.89,2.3,3.23,3.23,0,0,1-2.22.92C383.11,295,381.3,294.91,378.32,294.63Z"/><path class="cls-9" d="M393.9,298q-1.08,6.6-1.82,13.48c-.36,3.33-.86,5.45-1.51,6.34a2.86,2.86,0,0,1-2.23,1.37,2.52,2.52,0,0,1-2-.65,2.31,2.31,0,0,1-.69-1.59,15.13,15.13,0,0,1,.48-2.75q1.24-6.71,1.87-12.92l.44-3.64a28.18,28.18,0,0,0,.24-3.49c.07-1.35.14-2.45.23-3.29a3.39,3.39,0,0,1,1.23-2.21,3.82,3.82,0,0,1,2.39-1c.95,0,1.9.77,2.86,2.37A98.9,98.9,0,0,0,410,310l.41-2.92q0-.35.74-6.09t.72-7l.07-3q.07-3.57,3.18-3.65c1.42,0,2.18,1.43,2.26,4.41a46.1,46.1,0,0,1-.82,8.25l-1.68,12.24a19.49,19.49,0,0,1-.91,3.49,3,3,0,0,1-3,2.15,3.4,3.4,0,0,1-2.2-.86,57.06,57.06,0,0,1-5.21-5.66A130.61,130.61,0,0,1,393.9,298Z"/><path class="cls-9" d="M108.49,359c3.27,1.4,4.94,3.16,5,5.26s-1.45,4.16-4.54,6.23-7.71,3.2-13.87,3.36a1.87,1.87,0,0,1-1.47-.72,2.05,2.05,0,0,1-.56-1.59l.75-5.63q.42-3.11,1.5-8.46c.72-3.58,1.21-6.27,1.45-8.08s.48-3.2.7-4.19.48-1.57.79-1.75a10.13,10.13,0,0,1,2.37-.61,24.76,24.76,0,0,1,3.8-.4,9.43,9.43,0,0,1,6.14,2.09,6.7,6.7,0,0,1,2.9,5.28,10.74,10.74,0,0,1-1.06,4.66A11.38,11.38,0,0,1,108.49,359Zm-6.45,2.5-1.58.12a13.14,13.14,0,0,1-2.18-.13l-.67,4.35-.51,4q6.84-.49,9.72-2.31c1.91-1.21,2.86-2.09,2.85-2.66s-.6-1.09-1.75-1.68a16,16,0,0,0-3.91-1.38Zm-1.11-14.92-.51,3.37-1.32,7.49,2.87.17a9.58,9.58,0,0,0,3.28-.89,6.93,6.93,0,0,0,3.19-2.65,6,6,0,0,0,1.11-3.44,3.92,3.92,0,0,0-1.8-3,6,6,0,0,0-3.86-1.3A26.94,26.94,0,0,0,100.93,346.55Z"/><path class="cls-9" d="M119.44,366.46c1.18,2.1,3.18,3.11,6,3a13.08,13.08,0,0,0,3.54-.71,5.58,5.58,0,0,0,2.77-1.64,2.14,2.14,0,0,1,1.56-1.06,1.43,1.43,0,0,1,1.07.4,1.41,1.41,0,0,1,.45,1q0,2-3.27,3.68A15.1,15.1,0,0,1,125,373a9.74,9.74,0,0,1-6.48-1.76,6.45,6.45,0,0,1-2.45-5.15,15.9,15.9,0,0,1,3-9.37,9.8,9.8,0,0,1,8.2-4.77,9.67,9.67,0,0,1,5.21,1,3.6,3.6,0,0,1,1.88,3.17,4.07,4.07,0,0,1-1.09,3,8.86,8.86,0,0,1-2.47,2c-.89.47-2.06,1-3.51,1.72Zm.16-3.55,6.22-3a34,34,0,0,0,5.37-3.05,5.67,5.67,0,0,0-4.41-1.43Q122,355.54,119.6,362.91Z"/><path class="cls-9" d="M143.88,362.12c-.67,4.95-1.24,7.86-1.73,8.71a2.18,2.18,0,0,1-1.86,1.31,1.67,1.67,0,0,1-1.24-.44,1.58,1.58,0,0,1-.52-1.13,2.65,2.65,0,0,1,.3-1.12,15.09,15.09,0,0,0,.6-2.81l2.3-17.08.48-2.67a12.8,12.8,0,0,0,.17-2.44,5.26,5.26,0,0,1,.48-2.86,2,2,0,0,1,1.71-.88c1.08,0,1.64.53,1.67,1.67a39.64,39.64,0,0,1-.82,7.6c-.3,1.74-.53,3.16-.68,4.24l-.2,1.7q3.68-4.32,7.74-4.43a5.35,5.35,0,0,1,3.24.79c.83.56,1.26,1.74,1.31,3.54a22.13,22.13,0,0,1-.11,2.57l-.32,3.69-.14,4c0,.27,0,1,0,2.12a20.36,20.36,0,0,0,.09,2,1.67,1.67,0,0,1-.12.83,2.09,2.09,0,0,1-.75.94,2.13,2.13,0,0,1-1.28.46,1.36,1.36,0,0,1-1.35-.63,8.88,8.88,0,0,1-.45-3.27,38.39,38.39,0,0,1,.33-7.26,22.84,22.84,0,0,0,.45-3.92c0-1.39-.51-2.07-1.42-2a6.08,6.08,0,0,0-3.52,1.32A21.8,21.8,0,0,0,143.88,362.12Z"/><path class="cls-9" d="M163.74,371.15c-1.08,0-1.64-.45-1.66-1.44l.61-5.92a57.12,57.12,0,0,1,1-6q.6-3.33.78-4.56a2.07,2.07,0,0,1,2.16-2c1.08,0,1.63.46,1.66,1.46,0,.33-.26,2-.81,5q-.81,4.1-1,6c-.19,2.28-.4,4.09-.61,5.42S164.93,371.12,163.74,371.15Zm2.08-26.4a2.43,2.43,0,0,1,.76-1.82,2.57,2.57,0,0,1,1.81-.83,1.84,1.84,0,0,1,1.43.51,1.78,1.78,0,0,1,.56,1.28,2.7,2.7,0,0,1-2.58,2.67,1.88,1.88,0,0,1-1.4-.5A1.79,1.79,0,0,1,165.82,344.75Z"/><path class="cls-9" d="M178.16,354.38q3.78-4.39,7.22-4.49,4.17-.12,4.3,5.07a22.11,22.11,0,0,1-.13,2.91l-.54,3.71a25.62,25.62,0,0,0-.16,4.15c.08,2.66-.06,4.34-.39,5a2,2,0,0,1-1.89,1.08c-1.13,0-1.67-.56-1.63-1.78v-4.22a32.86,32.86,0,0,1,.34-4.34q.36-2.64.6-3.57a13.44,13.44,0,0,0,.14-2.05c0-1.39-.43-2.09-1.18-2.07q-2.53.07-5.09,3.48a15.31,15.31,0,0,0-3,6c-.07.33-.15.67-.25,1.05a11.59,11.59,0,0,0-.41,2.61l-.12,2.43a2.55,2.55,0,0,1-.68,1.66,2.16,2.16,0,0,1-1.52.64c-1.08,0-1.63-.46-1.66-1.46l.21-3.17a38.52,38.52,0,0,1,1.05-6.25,55.94,55.94,0,0,0,1.15-7.37l.13-1.62a2.27,2.27,0,0,1,.69-1.54,2.16,2.16,0,0,1,1.52-.62c1.18,0,1.72.78,1.61,2.44Z"/><path class="cls-9" d="M207,368.73a11.05,11.05,0,0,1-6.24,2.21,7.47,7.47,0,0,1-8.14-7.52,14.1,14.1,0,0,1,3.05-9.22,10.38,10.38,0,0,1,8.34-4.29,6.33,6.33,0,0,1,5,1.87q1.55-9.24,2.05-11a2.12,2.12,0,0,1,2-1.77c1,0,1.45.4,1.48,1.29s-.75,5-2.31,12.41a83.15,83.15,0,0,0-1.32,8.48,51.65,51.65,0,0,0-.35,6.93v.25a1.94,1.94,0,0,1-.58,1.31,2,2,0,0,1-1.51.71C207.68,370.45,207.18,369.88,207,368.73Zm0-4.39.35-3.32.67-4.51a4.08,4.08,0,0,0-4.41-3c-2.75.08-4.71,1.08-5.88,3a10.72,10.72,0,0,0-1.67,5.88,5.07,5.07,0,0,0,1.48,3.48,4.67,4.67,0,0,0,3.66,1.43A8.48,8.48,0,0,0,207,364.34Z"/><path class="cls-9" d="M252.58,343.94l-.93,0c-1.31,0-2.46,0-3.47,0h-1.54l-2.15.06q-.39,0-.72.06l-1.34.07c-.06.89-.16,2.06-.31,3.5s-.3,3.16-.41,5.16c-.22,4.06-.46,7-.71,8.71l-.13,2q-.17,5.58-2.7,5.65a1.84,1.84,0,0,1-1.22-.43,1.47,1.47,0,0,1-.56-1.13,4.78,4.78,0,0,1,.24-1.22,26.09,26.09,0,0,0,.46-3.67c.11-1.47.2-2.43.25-2.88q.33-2.41.56-7.76c.09-1.8.2-3.33.32-4.6l.27-3-2.76.15a19.13,19.13,0,0,1-5.14-.17c-1.21-.26-1.82-.76-1.84-1.49a2.54,2.54,0,0,1,.61-1.79,2,2,0,0,1,1.56-.75c.22,0,.58,0,1.1,0,2.21.15,3.69.21,4.44.19,1.37,0,3.13-.16,5.28-.37,1.27-.12,2.38-.2,3.31-.22s2,0,3.47,0l2.56,0c.56,0,1.13,0,1.74,0a2,2,0,0,1,1.38.33,1.34,1.34,0,0,1,.51,1.09,2.7,2.7,0,0,1-.57,1.74A1.92,1.92,0,0,1,252.58,343.94Z"/><path class="cls-9" d="M260.11,359c-.66,4.95-1.24,7.85-1.72,8.71a2.22,2.22,0,0,1-1.86,1.31,1.63,1.63,0,0,1-1.24-.45,1.54,1.54,0,0,1-.52-1.12,2.5,2.5,0,0,1,.3-1.12,17.31,17.31,0,0,0,.6-2.82L258,346.44l.49-2.68a13.62,13.62,0,0,0,.17-2.43,5.26,5.26,0,0,1,.48-2.86,1.93,1.93,0,0,1,1.71-.88c1.08,0,1.63.53,1.66,1.67a38.92,38.92,0,0,1-.82,7.6c-.3,1.74-.52,3.15-.67,4.24l-.21,1.7q3.69-4.32,7.75-4.43a5.39,5.39,0,0,1,3.24.79c.82.56,1.26,1.74,1.31,3.54a22,22,0,0,1-.11,2.56l-.32,3.69-.15,4c0,.27,0,1,0,2.12s.06,1.83.1,2a1.85,1.85,0,0,1-.13.84,2.19,2.19,0,0,1-.74.94,2.15,2.15,0,0,1-1.28.46,1.37,1.37,0,0,1-1.36-.63,8.82,8.82,0,0,1-.44-3.27,37.67,37.67,0,0,1,.32-7.26,22.12,22.12,0,0,0,.46-3.92c0-1.39-.51-2.07-1.43-2a6.16,6.16,0,0,0-3.52,1.31A22.34,22.34,0,0,0,260.11,359Z"/><path class="cls-9" d="M280.06,362.15c1.18,2.1,3.18,3.11,6,3a12.47,12.47,0,0,0,3.55-.71,5.68,5.68,0,0,0,2.77-1.63,2.12,2.12,0,0,1,1.55-1.07,1.44,1.44,0,0,1,1.07.41,1.39,1.39,0,0,1,.45,1c0,1.31-1.05,2.53-3.26,3.68a15.12,15.12,0,0,1-6.59,1.8,9.71,9.71,0,0,1-6.49-1.76,6.46,6.46,0,0,1-2.45-5.15,15.88,15.88,0,0,1,3-9.36,10.63,10.63,0,0,1,13.41-3.78,3.63,3.63,0,0,1,1.87,3.17,4.11,4.11,0,0,1-1.08,3,9,9,0,0,1-2.47,2c-.9.46-2.07,1-3.51,1.72Zm.16-3.55,6.22-3a32.57,32.57,0,0,0,5.37-3.06,5.64,5.64,0,0,0-4.41-1.42Q282.66,351.22,280.22,358.6Z"/><path class="cls-9" d="M328.74,351.92a7.54,7.54,0,0,1,2.91,2.6,6.39,6.39,0,0,1,1.14,3.38q.12,4.23-5,7t-14.22,3a2.37,2.37,0,0,1-2-.88A2.5,2.5,0,0,1,311,365l2.68-20.5c0-.06.06-.65.15-1.78a10.72,10.72,0,0,1,.83-4.09c.4-.64,1.37-1.14,2.92-1.5a25.93,25.93,0,0,1,5.35-.63,10.38,10.38,0,0,1,6.67,2.14,6.94,6.94,0,0,1,3.07,5.54A9,9,0,0,1,328.74,351.92Zm-11.28,3.46-1,7.25a39.86,39.86,0,0,0,8.08-1.37q3-.93,2.91-2.64c0-1-.67-1.75-1.95-2.37a7.13,7.13,0,0,0-2.88-.89C321.52,355.39,319.79,355.39,317.46,355.38Zm4.76-13.62-2,.06a8.23,8.23,0,0,0-1,.06l-.51,4.12-.56,4a14.81,14.81,0,0,0,2.12.14,9.15,9.15,0,0,0,5-1.47,3.94,3.94,0,0,0,1.94-3.46,3.16,3.16,0,0,0-1.59-2.41A5.53,5.53,0,0,0,322.22,341.76Z"/><path class="cls-9" d="M352.79,352.1a3.9,3.9,0,0,1-.88,2,2.73,2.73,0,0,1-2.2,1c-1.36,0-2-.56-2.09-1.8a5.44,5.44,0,0,1,0-.67l.12-1.95a9.75,9.75,0,0,0-6.79,4.65l-1.24,9.69a3.08,3.08,0,0,1-1,1.86,3,3,0,0,1-2,.8,1.94,1.94,0,0,1-1.66-.67,2.36,2.36,0,0,1-.44-1.85l1.65-12.67.41-2.77a6.82,6.82,0,0,1,.45-1.93,2.51,2.51,0,0,1,.94-1,3,3,0,0,1,1.54-.45,2,2,0,0,1,2.27,2.14,14.11,14.11,0,0,1,7.89-2.78c2.1-.05,3.19,1.08,3.25,3.4a9.9,9.9,0,0,1-.11,1.66Z"/><path class="cls-9" d="M357.19,366.47a2.35,2.35,0,0,1-1.71-.56,2,2,0,0,1-.68-1.53l.43-3.94q.42-4,1.18-7.84a44,44,0,0,0,.75-4.36,2.9,2.9,0,0,1,1-1.85,3,3,0,0,1,2-.81,2.3,2.3,0,0,1,1.65.55,2.06,2.06,0,0,1,.66,1.54,31.51,31.51,0,0,1-.72,4.48,68.85,68.85,0,0,0-1.09,7.14c-.23,2.29-.41,3.82-.54,4.6a2.94,2.94,0,0,1-1,1.86A3,3,0,0,1,357.19,366.47Zm1.3-26.22a2.93,2.93,0,0,1,1-2.32,3.54,3.54,0,0,1,2.38-1,2.68,2.68,0,0,1,1.89.65,2.24,2.24,0,0,1,.82,1.69,3,3,0,0,1-1,2.31,3.54,3.54,0,0,1-2.43,1.05,2.56,2.56,0,0,1-1.87-.66A2.28,2.28,0,0,1,358.49,340.25Z"/><path class="cls-9" d="M371.23,362.66c-.32,2.45-1.36,3.7-3.14,3.75a2.33,2.33,0,0,1-1.81-.66,2.14,2.14,0,0,1-.51-1.88l3.52-26.78a2.68,2.68,0,0,1,1-1.83,3.24,3.24,0,0,1,2-.74,2.25,2.25,0,0,1,1.79.65,2.18,2.18,0,0,1,.5,1.77Z"/><path class="cls-9" d="M382,362.37q-.48,3.67-3.13,3.75a2.32,2.32,0,0,1-1.81-.66,2.17,2.17,0,0,1-.52-1.88l3.52-26.78a2.72,2.72,0,0,1,1-1.83,3.27,3.27,0,0,1,2-.74,2.23,2.23,0,0,1,1.78.65,2.14,2.14,0,0,1,.5,1.77Z"/><path class="cls-9" d="M389.85,365.6a2.35,2.35,0,0,1-1.71-.57,2,2,0,0,1-.68-1.53l.43-3.94q.42-4,1.18-7.84a44,44,0,0,0,.75-4.36,2.88,2.88,0,0,1,1-1.84,3,3,0,0,1,2-.82,2.26,2.26,0,0,1,1.65.56,2,2,0,0,1,.66,1.54,31.69,31.69,0,0,1-.72,4.47,69.67,69.67,0,0,0-1.09,7.14c-.23,2.29-.41,3.83-.54,4.6a2.94,2.94,0,0,1-1,1.86A3,3,0,0,1,389.85,365.6Zm1.3-26.23a2.93,2.93,0,0,1,1-2.32,3.58,3.58,0,0,1,2.38-1,2.68,2.68,0,0,1,1.89.65,2.24,2.24,0,0,1,.82,1.69,3,3,0,0,1-1,2.31,3.59,3.59,0,0,1-2.43,1.06,2.56,2.56,0,0,1-1.88-.67A2.3,2.3,0,0,1,391.15,339.37Z"/><path class="cls-9" d="M410.05,363.78a15.76,15.76,0,0,1-5.63,1.89q-7.94.21-8.13-7.09a12.94,12.94,0,0,1,4-10.08,13.54,13.54,0,0,1,9.27-4.15,10.08,10.08,0,0,1,4.24,1c1.56.7,2.36,1.52,2.39,2.45a2.25,2.25,0,0,1-.58,1.56,19.67,19.67,0,0,0-1,4.5,30.74,30.74,0,0,0-.33,4.4,4.12,4.12,0,0,0,.15,1.19l.63,1.87a10.69,10.69,0,0,1,.49,1.84,2.33,2.33,0,0,1-.83,1.6,2.92,2.92,0,0,1-2.11.91C412,365.67,411.19,365.05,410.05,363.78Zm.29-14.48a2.09,2.09,0,0,0-1.11-.34,7.48,7.48,0,0,0-5.25,2.56,8.31,8.31,0,0,0-2.28,6.24q.09,3.4,3.08,3.33a7.37,7.37,0,0,0,4.48-1.7Q409.28,352.1,410.34,349.3Z"/><path class="cls-9" d="M426.87,346.2a9.85,9.85,0,0,1,6.28-3q4.85-.12,5,5.46a22.78,22.78,0,0,1-.23,3.57l-.2,1.39a31.54,31.54,0,0,0-.34,5.14,33.18,33.18,0,0,1,0,3.69,3,3,0,0,1-.94,1.89,2.89,2.89,0,0,1-2,.86A2,2,0,0,1,432,363a62.89,62.89,0,0,1,.1-7.17,46.77,46.77,0,0,1,.82-5.1,7.25,7.25,0,0,0,.23-1.52c0-.65-.24-1-.68-.95-1.22,0-2.49.79-3.83,2.27a16.89,16.89,0,0,0-3,4.51,16.29,16.29,0,0,0-1.13,5.79,9.12,9.12,0,0,1-.24,2.32,2.79,2.79,0,0,1-1,1.27,3.06,3.06,0,0,1-1.86.63,2.41,2.41,0,0,1-1.67-.53,1.94,1.94,0,0,1-.68-1.47l.1-2.08a47.81,47.81,0,0,1,1.05-6.77,48,48,0,0,0,1-5.95c.08-1.21.16-2.13.25-2.78a2.74,2.74,0,0,1,1-1.71,3.11,3.11,0,0,1,2-.78c1.67,0,2.44.94,2.3,2.94Z"/><path class="cls-9" d="M439.23,357.35q-.12-4.41,3.66-9.39t8-5.09a11.55,11.55,0,0,1,4.74,1c1.73.73,2.61,1.6,2.64,2.62a2.6,2.6,0,0,1-.81,1.9,2.73,2.73,0,0,1-2,.91,2.88,2.88,0,0,1-1.87-.82,5,5,0,0,0-3.37-.81q-1.54,0-3.76,3.28t-2.16,5.36a3.22,3.22,0,0,0,1.24,2.54,5,5,0,0,0,3.34.9,8,8,0,0,0,3.29-1.09,9.88,9.88,0,0,1,2.53-1.05,2,2,0,0,1,1.57.6,2.12,2.12,0,0,1,.65,1.48q0,1.69-3.33,3.28a14.48,14.48,0,0,1-5.33,1.63,9.45,9.45,0,0,1-6.46-1.91A6.82,6.82,0,0,1,439.23,357.35Z"/><path class="cls-9" d="M465,357.18a6,6,0,0,0,5,1.87,9.51,9.51,0,0,0,4.49-1.18,6.63,6.63,0,0,1,2.71-1c1.13,0,1.71.44,1.73,1.42.05,1.5-.94,2.77-2.94,3.81a15.24,15.24,0,0,1-6.62,1.65,10.9,10.9,0,0,1-7-1.81,6.48,6.48,0,0,1-2.65-5.29,15,15,0,0,1,3.11-9.26,10.64,10.64,0,0,1,8.79-4.69,11.19,11.19,0,0,1,5.7,1.06,3.75,3.75,0,0,1,2.12,3.36,4.51,4.51,0,0,1-1.51,3.57,22.58,22.58,0,0,1-6,3.43Zm.22-4.9,4.61-2a42.51,42.51,0,0,0,4.42-2.33,6.05,6.05,0,0,0-3.23-.63C468.61,347.41,466.68,349.05,465.19,352.28Z"/><path class="cls-9" d="M483.16,362.28a3,3,0,0,1,2.74-2.87,1.93,1.93,0,0,1,1.49.58,2.06,2.06,0,0,1,.61,1.41,2.56,2.56,0,0,1-.83,1.93,2.81,2.81,0,0,1-1.93.88,2,2,0,0,1-1.48-.55A2,2,0,0,1,483.16,362.28Z"/><text class="cls-10" transform="translate(150.61 441.11) rotate(-1.54)">Find Out Here</text><path class="cls-11" d="M839.72,732.62h0a6.72,6.72,0,0,0-1.55,10.2,126,126,0,0,1,23.29,38.51,6.73,6.73,0,0,0,9.76,3.36h0A6.73,6.73,0,0,0,874,776.4,153.48,153.48,0,0,0,848.34,734,6.74,6.74,0,0,0,839.72,732.62Z"/><path class="cls-12" d="M883.18,776.27s.69-9.42-10.67-11.3c-13.17-2.18-26,13.88-14.07,22.38Z"/><path class="cls-12" d="M883.82,775.06c7.16,5.65,18.37-.88,24.87,1.21,7.46,2.39,10.92,15.53-12.57,14.23,0,0,6.93,10.37,16.16,13.8,10.45,3.87,8.65,14,2.16,15-5.93.92-17.46-7.35-22.2-13.9a1.74,1.74,0,0,0-2.69-.15l-.29.32a1.75,1.75,0,0,0-.13,2.2c2.22,3.07,8.43,11.48,12.61,15.28,6.56,6-4.24,17.73-13.07,9.93-7-6.15-9.19-15.6-9.82-19.33a1.74,1.74,0,0,0-1.87-1.44h0a1.75,1.75,0,0,0-1.59,1.75,165.74,165.74,0,0,0,.93,18c1,7.35-19.77,9.15-13.71-20,0,0-14.29-13.94-3.39-28.78C871.69,766.22,883.82,775.06,883.82,775.06Z"/><path class="cls-13" d="M890.4,790.25s-9.81,9.38-18-2.34"/><path d="M108.8,261.21c9.17-.62,18.34-.94,27.51-1.16,4.58-.14,9.17-.17,13.75-.25l13.76-.09,13.75.08c4.59.09,9.17.11,13.76.25,9.17.22,18.34.55,27.51,1.17-9.17.63-18.34,1-27.51,1.17-4.59.14-9.17.17-13.76.25l-13.75.08-13.76-.08c-4.58-.08-9.17-.11-13.75-.25C127.14,262.16,118,261.83,108.8,261.21Z"/><path d="M390.47,468.18c9.17-.62,18.34-.95,27.51-1.17,4.58-.14,9.17-.17,13.75-.25l13.76-.08,13.76.08c4.58.08,9.17.11,13.75.25,9.17.22,18.34.54,27.51,1.17-9.17.62-18.34.95-27.51,1.17-4.58.14-9.17.16-13.75.25l-13.76.08-13.76-.09c-4.58-.08-9.17-.11-13.75-.25C408.81,469.12,399.64,468.8,390.47,468.18Z"/><path d="M441,252.13a30.62,30.62,0,0,1,5.8-1.18,52.81,52.81,0,0,1,11.61,0,30,30,0,0,1,5.81,1.18,30.72,30.72,0,0,1-5.81,1.18,51.24,51.24,0,0,1-5.8.32,53.88,53.88,0,0,1-5.81-.33A30.59,30.59,0,0,1,441,252.13Z"/><line class="cls-14" x1="135.05" y1="451.43" x2="444.98" y2="439.32"/></svg>