<svg id="Layer_1" data-name="Layer 1" xmlns="http://www.w3.org/2000/svg" xmlns:xlink="http://www.w3.org/1999/xlink" viewBox="0 0 800 200"><defs><style>.cls-1,.cls-5{fill:#acacac;}.cls-2{fill:#fff;}.cls-3{fill:url(#linear-gradient);}.cls-4{fill:#df254e;}.cls-5{font-size:23.06px;font-family:Arial-BoldMT, Arial;font-weight:700;}.cls-6{letter-spacing:-0.07em;}.cls-7{letter-spacing:-0.02em;}.cls-8{letter-spacing:0em;}.cls-9{fill:none;}</style><linearGradient id="linear-gradient" x1="75.84" y1="129.36" x2="75.02" y2="31.08" gradientUnits="userSpaceOnUse"><stop offset="0" stop-color="#d82661"/><stop offset="1" stop-color="#e23744"/></linearGradient></defs><path class="cls-1" d="M575.24,126.25v-3.81q0-47.09,0-94.18a6,6,0,0,0-.08-2.33c-.34-.73-1.12-1.75-1.76-1.79-3.11-.18-6.24-.08-9.77-.08v45.3h-52v-45H500.38V126.19h11.53V81.31h51.84v44.94Z"/><path class="cls-1" d="M630.43,24.26v102h59.92v-11.3H642.18V79.42H684V67.71H642.26V35.48h48.08V24.26Z"/><path class="cls-1" d="M336.34,35.52h48.5V24.32h-60v101.9h60V114.91H336.36V79.4h41.72V67.66H336.34Z"/><path class="cls-1" d="M479.37,103.53c-21.09,19.51-44.4,13.74-57.95.08a39.82,39.82,0,0,1-2.06-54.25c6.95-8.11,15.67-13.28,26.32-14.59,13.12-1.62,24,3.37,33.62,12.46,2.34-3.14,4.52-6,6.65-8.92-19-20.74-53.17-20.5-72.87.27C391.43,61.4,393.2,95.84,417,115.51c21.82,18,52.57,15.49,68.83-3.09Z"/><path class="cls-1" d="M184.14,81h41.91V69.37H184.36v-34h48V24.13H172.45V126.25h11.69Z"/><path class="cls-1" d="M310.38,24.22H239.52V35.63h29.63v90.56h11.62V35.48h29.61Z"/><path class="cls-1" d="M139.32,24.21v102h11.24v-102Z"/><path class="cls-1" d="M608.15,126.32v-102h-11v102Z"/><path class="cls-2" d="M219.9,159.25H136.53v5.32H219.9Z"/><path class="cls-2" d="M772.06,159.28H760v5.36h12.1Z"/><path class="cls-3" d="M26.24,62.35c.38-1.74.76-3.48,1.16-5.22,3.93-16.94,18.33-29.88,35.83-32.48,11.94-1.77,23.14-.06,33.57,6.13a10.53,10.53,0,0,0,1.15.5c7.06-9.94,17.67-13.11,26.56-7.68l-8.45,7.26c-3.54-1.45-6.35-3-9.35-3.66-1.34-.31-3.28.75-4.55,1.7-2.67,2-2.52,3.65,0,5.92C115,46.45,119.08,60.94,114.72,77.37s-16,25.71-32.23,29.28a49.23,49.23,0,0,1-35.1-5,7.58,7.58,0,0,0-5.08-.51c-7.52,2-12.48,8.16-12.38,15,.1,7,4.65,12.34,12.32,14.64C51,133.41,59,131,66.64,127c6.88-3.64,13.5-7.75,20.39-11.35,6.15-3.2,12.77-4.63,19.65-2.71,10.88,3,17.29,13.24,16.35,25.67a30.89,30.89,0,0,1-26,28.7,24.3,24.3,0,0,1-24.51-10.15l2.23,2c11,10.06,34,10.18,40.11-9.37A19.79,19.79,0,0,0,113.62,135c-3.14-6.7-10.15-10-18-7.5-5.64,1.75-10.82,4.93-16.26,7.33-6.78,3-13.43,6.44-20.49,8.47-4.48,1.28-9.72,1-14.4.23-9.55-1.65-15.09-7.94-17.34-17.21-.26-1.08-.6-2.14-.89-3.21v-6.08c.17-.29.46-.55.52-.86C28.17,108,33.42,103,40.84,100a13.41,13.41,0,0,0,1.85-1.16c-10-10-12.38-13.37-14.61-21.23-.73-2.57-1.24-5.19-1.84-7.79Zm74.06,3.57C100,58.26,99.36,50.45,96.37,43c-4.2-10.45-11.52-16.83-23.13-17.26-12.3-.46-21,5.1-26.13,16.1-3.12,6.77-4.27,14-4.5,21.3-.34,10.32.79,20.47,6,29.7s13.46,13.53,23.83,13.31c10.94-.23,18.74-5.65,23.26-15.67C99.19,82.73,99.94,74.49,100.3,65.92Z"/><path class="cls-1" d="M773.76,101.52c-1.41,3.75-2.24,7.87-4.35,11.19-5.9,9.35-15.22,13.43-25.84,14.69-13.71,1.63-26.08-1.4-35.93-11.65-2.06-2.13-3.58-4.78-5.48-7.37l9-6.61c1.62,2,3,4,4.73,5.74,9.32,9.33,25.57,11.44,37,4.9,11.14-6.35,12.14-18.38,1.58-25.55-5.52-3.75-12-6.1-18.11-9-5.7-2.69-11.73-4.78-17.13-8-17.49-10.3-13.51-30.15-3-39.14C730,18.93,753.42,20.06,764.6,33.46a71.9,71.9,0,0,1,4.76,7.38l-8.9,6c-4.9-8.71-12.24-13-22-12.73a21,21,0,0,0-16.07,7.48c-5.09,6-4.49,13.76,1.94,18.3,3.81,2.7,8.26,4.55,12.56,6.48,5.55,2.5,11.31,4.53,16.83,7.07,10,4.62,18.11,11,20.08,22.71Z"/><path class="cls-1" d="M575.24,126.25H563.75V81.31H511.91v44.88H500.38V24.34h11.25v45h52V24.06c3.53,0,6.66-.1,9.77.08.64,0,1.42,1.06,1.76,1.79a6,6,0,0,1,.08,2.33q0,47.1,0,94.18Z"/><path class="cls-1" d="M630.43,24.26h59.91V35.48H642.26V67.71H684V79.42H642.18v35.51h48.17v11.3H630.43Z"/><path class="cls-1" d="M336.34,35.52V67.66h41.74V79.4H336.36v35.51h48.48v11.31h-60V24.32h60v11.2Z"/><path class="cls-1" d="M479.37,103.53l6.47,8.89c-16.26,18.58-47,21.13-68.83,3.09-23.81-19.67-25.58-54.11-3.93-76.93,19.7-20.77,53.85-21,72.87-.27-2.13,2.87-4.31,5.78-6.65,8.92-9.58-9.09-20.5-14.08-33.62-12.46-10.65,1.31-19.37,6.48-26.32,14.59a39.82,39.82,0,0,0,2.06,54.25C435,117.27,458.28,123,479.37,103.53Z"/><path class="cls-1" d="M184.14,81v45.25H172.45V24.13h59.93V35.34h-48v34h41.69V81Z"/><path class="cls-1" d="M310.38,24.22V35.48H280.77v90.71H269.15V35.63H239.52V24.22Z"/><path class="cls-1" d="M139.32,24.21h11.24v102H139.32Z"/><path class="cls-1" d="M608.15,126.32h-11v-102h11Z"/><path class="cls-4" d="M219.9,159.25v5.32H136.53v-5.32Z"/><path class="cls-4" d="M772.06,159.28v5.36H760v-5.36Z"/><text class="cls-5" transform="translate(222.79 170.35)">WHERE INNO<tspan class="cls-6" x="149.91" y="0">VA</tspan><tspan x="178.53" y="0">TION MEETS THE REA</tspan><tspan class="cls-7" x="427.11" y="0">L</tspan><tspan class="cls-8" x="440.79" y="0" xml:space="preserve"> WORLD</tspan></text><path class="cls-1" d="M435.43,79c-.37,1.34-1.21,2-2.23,1.89a2,2,0,0,1-1.5-.9,2.81,2.81,0,0,1-.26-2.91,1.86,1.86,0,0,1,1.66-1.17A2.06,2.06,0,0,1,435,77,2.76,2.76,0,0,1,435.43,79Z"/><path class="cls-1" d="M433.28,84.31a3,3,0,0,1,1.9,3.47,1.76,1.76,0,0,1-2.46,1.12,2.86,2.86,0,0,1-1.46-3.8A1.65,1.65,0,0,1,433.28,84.31Z"/><path class="cls-1" d="M431.61,83.07a2.31,2.31,0,0,1-.25.61,1.67,1.67,0,0,1-2.52.46,3,3,0,0,1-.86-3.79,1.68,1.68,0,0,1,2.69-.38A3.14,3.14,0,0,1,431.61,83.07Z"/><path class="cls-1" d="M432.18,74.68a2.23,2.23,0,0,1-.39.77,1.82,1.82,0,0,1-3.2-.29,2.79,2.79,0,0,1,.25-3,1.77,1.77,0,0,1,1.77-.78,1.87,1.87,0,0,1,1.5,1.26A3.07,3.07,0,0,1,432.18,74.68Z"/><path class="cls-1" d="M428.25,78.55a2.14,2.14,0,0,1-.52.88,1.51,1.51,0,0,1-2.19,0,3.15,3.15,0,0,1-.37-3.93,1.65,1.65,0,0,1,2.85.39A3.38,3.38,0,0,1,428.25,78.55Z"/><path class="cls-1" d="M434.77,82.25a1.9,1.9,0,0,1,3.28-.87,2.49,2.49,0,0,1,.64,2.67,1.9,1.9,0,0,1-3.18.69A2.59,2.59,0,0,1,434.77,82.25Z"/><path class="cls-1" d="M426.22,68.52A2.34,2.34,0,0,1,427.6,67a1.45,1.45,0,0,1,1.92.73,3.06,3.06,0,0,1-.73,3.53,1.57,1.57,0,0,1-2.61-.77A3.19,3.19,0,0,1,426.22,68.52Z"/><path class="cls-1" d="M428.4,86.48c-.39,1.41-1.56,1.75-2.55.91a3.22,3.22,0,0,1-1.15-3,1.46,1.46,0,0,1,1-1.34,1.62,1.62,0,0,1,1.76.58A3.29,3.29,0,0,1,428.4,86.48Z"/><path class="cls-1" d="M437.57,72.63A2.27,2.27,0,0,1,439.23,75a2.14,2.14,0,0,1-1.74,2.08,1.78,1.78,0,0,1-1.56-.52,2.35,2.35,0,0,1,.49-3.74A1.71,1.71,0,0,1,437.57,72.63Z"/><path class="cls-1" d="M430.1,92.18a3,3,0,0,1-1.88-3.76,1.35,1.35,0,0,1,1.5-.77,3.09,3.09,0,0,1,2.21,3.68A1.4,1.4,0,0,1,430.1,92.18Z"/><path class="cls-1" d="M425.85,90.12a1.18,1.18,0,0,1-1.92.76A4,4,0,0,1,422.22,87a1.13,1.13,0,0,1,1.75-.81,2.68,2.68,0,0,1,1,.84A4,4,0,0,1,425.85,90.12Z"/><path class="cls-1" d="M432.44,69.82a2.08,2.08,0,0,1,2.1-1.67,1.58,1.58,0,0,1,1.37.88,2.64,2.64,0,0,1-.31,2.87,1.83,1.83,0,0,1-1.91.64,1.76,1.76,0,0,1-1.32-1.5A2.52,2.52,0,0,1,432.44,69.82Z"/><path class="cls-1" d="M425,82c0,.07,0,.14,0,.21a1.34,1.34,0,0,1-2.43.45A3.45,3.45,0,0,1,422,79a1.26,1.26,0,0,1,2.06-.41,2.53,2.53,0,0,1,.73,1A3.68,3.68,0,0,1,425,82Z"/><path class="cls-1" d="M438.82,78.46a1.84,1.84,0,0,1,1.75-1.26,2.06,2.06,0,0,1,2,1.44,2.11,2.11,0,0,1-.19,2,1.81,1.81,0,0,1-1.87.86,2,2,0,0,1-1.63-1.31A2.33,2.33,0,0,1,438.82,78.46Z"/><path class="cls-1" d="M422.51,71.87a2.53,2.53,0,0,1,.71-1.26,1.36,1.36,0,0,1,2.11.16,3,3,0,0,1,.38,2.67,2.23,2.23,0,0,1-1,1.44,1.25,1.25,0,0,1-1.74-.27,2.84,2.84,0,0,1-.57-2.36C422.44,72.12,422.48,72,422.51,71.87Z"/><path class="cls-1" d="M442.49,88.27a1.75,1.75,0,0,1-2.17,1.23,2.3,2.3,0,0,1-1.69-2.74,1.75,1.75,0,0,1,2.19-1.26A2.28,2.28,0,0,1,442.49,88.27Z"/><path class="cls-1" d="M437.15,89A2.54,2.54,0,0,1,439,91.64a1.59,1.59,0,0,1-2.08,1.28A2.6,2.6,0,0,1,435,90.36,1.57,1.57,0,0,1,437.15,89Z"/><path class="cls-1" d="M433.62,66.4A2.49,2.49,0,0,1,432.3,68a1.47,1.47,0,0,1-2.1-.82,2.69,2.69,0,0,1,1.41-3.3,1.45,1.45,0,0,1,1.95.78A2.53,2.53,0,0,1,433.62,66.4Z"/><path class="cls-1" d="M444.06,85.77a2.17,2.17,0,0,1-1.47-2.62,1.89,1.89,0,0,1,2.25-1.32,2.23,2.23,0,0,1,1.51,2.64A1.87,1.87,0,0,1,444.06,85.77Z"/><path class="cls-1" d="M422.41,76.92a2.26,2.26,0,0,1-.72,1.2,1,1,0,0,1-1.44-.05,1.72,1.72,0,0,1-.37-.48,3.58,3.58,0,0,1-.05-3.5,1.44,1.44,0,0,1,.23-.32,1.09,1.09,0,0,1,1.7,0,2.48,2.48,0,0,1,.57,1A4.26,4.26,0,0,1,422.41,76.92Z"/><path class="cls-1" d="M424.56,64.74a3.34,3.34,0,0,1,1.26-2,1.33,1.33,0,0,1,1.51-.15,1.26,1.26,0,0,1,.59.9,3.15,3.15,0,0,1-1.24,3.23,1.29,1.29,0,0,1-2.16-.87A2.49,2.49,0,0,1,424.56,64.74Z"/><path class="cls-1" d="M423.86,68.46a2.76,2.76,0,0,1-1.12,1.68,1.08,1.08,0,0,1-1.71-.52,3.16,3.16,0,0,1,0-2.47,2.84,2.84,0,0,1,.82-1.21,1.16,1.16,0,0,1,2,.5A3.24,3.24,0,0,1,423.86,68.46Z"/><path class="cls-1" d="M443.1,71.76A1.86,1.86,0,0,1,440.34,73a2,2,0,0,1-.64-2.65,1.87,1.87,0,0,1,2.32-1A2,2,0,0,1,443.1,71.76Z"/><path class="cls-1" d="M425.75,91.61a1,1,0,0,1,1.39-.76,3.35,3.35,0,0,1,2.17,2.39,2.33,2.33,0,0,1,.09,1,1.07,1.07,0,0,1-1.37.93A3.38,3.38,0,0,1,425.75,91.61Z"/><path class="cls-1" d="M435.82,95.13A1.38,1.38,0,0,1,434,96a2.81,2.81,0,0,1-2-2.68,1.27,1.27,0,0,1,1.59-1.23A2.78,2.78,0,0,1,435.85,95,1.39,1.39,0,0,1,435.82,95.13Z"/><path class="cls-1" d="M446.56,76.15a1.86,1.86,0,0,1-2.31,1.31A2,2,0,0,1,443,75a1.91,1.91,0,0,1,2.18-1.36A2,2,0,0,1,446.56,76.15Z"/><path class="cls-1" d="M419.42,82.51a1.91,1.91,0,0,1,.26-.58.9.9,0,0,1,1.21-.25,2.22,2.22,0,0,1,.88.89,3.85,3.85,0,0,1,.52,3c-.26,1-1.06,1.16-1.8.47A3.85,3.85,0,0,1,419.42,82.51Z"/><path class="cls-1" d="M440.08,67.34a2,2,0,0,1-.87,1.25,1.61,1.61,0,0,1-1.76.16,1.69,1.69,0,0,1-.88-1.74,2.3,2.3,0,0,1,.92-1.71,1.61,1.61,0,0,1,2.64,1A2.09,2.09,0,0,1,440.08,67.34Z"/><path class="cls-1" d="M423.88,93.32a.75.75,0,0,1-1.17.54A3.84,3.84,0,0,1,420.93,92a4.22,4.22,0,0,1-.46-1.69,1.75,1.75,0,0,1,0-.46.78.78,0,0,1,1.23-.54,2.87,2.87,0,0,1,.93.73,5.46,5.46,0,0,1,1.17,2.25A2.08,2.08,0,0,1,423.88,93.32Z"/><path class="cls-1" d="M428.61,61.59a3,3,0,0,1,1.44-1.8,1.2,1.2,0,0,1,1.89.94,3,3,0,0,1-1.52,2.88,1.23,1.23,0,0,1-1.92-1A2.36,2.36,0,0,1,428.61,61.59Z"/><path class="cls-1" d="M417.93,70.49a3.14,3.14,0,0,1,.77-1.55.92.92,0,0,1,1.58.21,2.6,2.6,0,0,1,.34,1.25A3.83,3.83,0,0,1,420,73a1,1,0,0,1-1.83-.16A3.3,3.3,0,0,1,417.93,70.49Z"/><path class="cls-1" d="M417.15,77.67a1.93,1.93,0,0,1,.37-.76.76.76,0,0,1,1.14-.09,1.63,1.63,0,0,1,.47.54,4.47,4.47,0,0,1,.42,3.37c-.12.45-.33.91-.91,1s-.83-.37-1.05-.76A4.48,4.48,0,0,1,417.15,77.67Z"/><path class="cls-1" d="M450.29,80.5a1.72,1.72,0,0,1-2.1,1.24,1.93,1.93,0,0,1-1.39-2.35,1.76,1.76,0,0,1,2.14-1.25A1.89,1.89,0,0,1,450.29,80.5Z"/><path class="cls-1" d="M444.21,93.4a2,2,0,0,1-1.48-2.35,1.73,1.73,0,0,1,2.11-1.14,2.08,2.08,0,0,1,1.53,2.37A1.69,1.69,0,0,1,444.21,93.4Z"/><path class="cls-1" d="M426.86,60.26a3.77,3.77,0,0,1-1.3,2,1.68,1.68,0,0,1-.56.3.93.93,0,0,1-1.32-.72,2.7,2.7,0,0,1,.26-1.7,3.83,3.83,0,0,1,1.22-1.57,1.63,1.63,0,0,1,.47-.25.92.92,0,0,1,1.33.76A2.37,2.37,0,0,1,426.86,60.26Z"/><path class="cls-1" d="M437.63,63a2.32,2.32,0,0,1-1.58,1.59,1.32,1.32,0,0,1-1.59-.73,2.37,2.37,0,0,1,1.77-3.15,1.3,1.3,0,0,1,1.28.69A2.19,2.19,0,0,1,437.63,63Z"/><path class="cls-1" d="M441.21,93.27a2.17,2.17,0,0,1,1.64,1.92,1.36,1.36,0,0,1-1.34,1.51A2.25,2.25,0,0,1,439.19,95C438.93,93.73,439.9,92.91,441.21,93.27Z"/><path class="cls-1" d="M450.19,88.69a1.73,1.73,0,0,1-2.14,1.12,1.87,1.87,0,0,1-1.34-2.3,1.73,1.73,0,0,1,2.2-1.11A1.92,1.92,0,0,1,450.19,88.69Z"/><path class="cls-1" d="M422.82,63.48a3.59,3.59,0,0,1-1,1.76c-.33.32-.72.64-1.24.43a1.15,1.15,0,0,1-.65-1.21,4,4,0,0,1,1.21-2.86,1.12,1.12,0,0,1,1.25-.4c.49.21.55.68.57,1.14A3.38,3.38,0,0,1,422.82,63.48Z"/><path class="cls-1" d="M433.26,98.15a1.05,1.05,0,0,1-1.49.65,3.29,3.29,0,0,1-2.08-2.23,1.47,1.47,0,0,1,0-.83,1.05,1.05,0,0,1,1.42-.64,3.25,3.25,0,0,1,2.19,2.52A1.3,1.3,0,0,1,433.26,98.15Z"/><path class="cls-1" d="M447,68.2a1.71,1.71,0,0,1-2.24,1,1.55,1.55,0,0,1-.94-1.33,1.69,1.69,0,1,1,3.18.28Z"/><path class="cls-1" d="M426.46,97.81A4,4,0,0,1,424,94.54c0-.68.51-1,1.19-.73a3.81,3.81,0,0,1,2,2.19,2.08,2.08,0,0,1,.22,1.2C427.4,97.78,427,98,426.46,97.81Z"/><path class="cls-1" d="M438,96.33a2.42,2.42,0,0,1,1.64,1.7A1.23,1.23,0,0,1,438,99.58a2.48,2.48,0,0,1-1.8-1.62,1.26,1.26,0,0,1,.22-1.38A1.57,1.57,0,0,1,438,96.33Z"/><path class="cls-1" d="M447.26,71.33a1.7,1.7,0,0,1,2-1.24,1.81,1.81,0,0,1,1.24,2.15,1.68,1.68,0,1,1-3.23-.91Z"/><path class="cls-1" d="M432.79,58.68a2.71,2.71,0,0,1,1.6-1.78,1,1,0,0,1,1.55.92,2.61,2.61,0,0,1-1.64,2.59,1.09,1.09,0,0,1-1.58-1A2,2,0,0,1,432.79,58.68Z"/><path class="cls-1" d="M440.91,63.21a1.94,1.94,0,0,1,1.21-1.38,1.4,1.4,0,0,1,1.74.64,2,2,0,0,1-.67,2.5,1.5,1.5,0,0,1-2.34-1.53A1.55,1.55,0,0,1,440.91,63.21Z"/><path class="cls-1" d="M417.61,75.33A2.53,2.53,0,0,1,417,76.5a.58.58,0,0,1-.94,0,1.78,1.78,0,0,1-.41-.78,5.12,5.12,0,0,1,.22-3.3c.14-.34.33-.69.77-.69s.62.36.76.69A4.85,4.85,0,0,1,417.61,75.33Z"/><path class="cls-1" d="M420.34,88.89c-.17.61-.61.75-1.14.38a2.06,2.06,0,0,1-.54-.52,4.7,4.7,0,0,1-1-3.25c.09-.78.64-1,1.27-.48a4.3,4.3,0,0,1,1.35,2.48A2.73,2.73,0,0,1,420.34,88.89Z"/><path class="cls-1" d="M451,83.71a1.62,1.62,0,0,1,2-1.09,1.73,1.73,0,0,1,1.17,2.14,1.62,1.62,0,0,1-2.07,1.08A1.69,1.69,0,0,1,451,83.71Z"/><path class="cls-1" d="M430.83,57.29a3.51,3.51,0,0,1-1.2,1.82,1.44,1.44,0,0,1-1.58.25,1.3,1.3,0,0,1-.3-1.5,3.61,3.61,0,0,1,1.3-1.8,1.27,1.27,0,0,1,.27-.18,1.19,1.19,0,0,1,1.23-.08,1.07,1.07,0,0,1,.36,1.18C430.89,57.09,430.85,57.19,430.83,57.29Z"/><path class="cls-1" d="M419.41,66.7a3.74,3.74,0,0,1-.94,1.68c-.56.53-1.1.38-1.33-.35a2.47,2.47,0,0,1-.08-1.08,4.88,4.88,0,0,1,.93-2.46c.24-.31.53-.63,1-.51s.53.54.6.93A4.88,4.88,0,0,1,419.41,66.7Z"/><path class="cls-1" d="M426.76,55.68a4.63,4.63,0,0,1-1.61,2.3,1.65,1.65,0,0,1-.36.22.89.89,0,0,1-.93.07.82.82,0,0,1-.33-.91,4.19,4.19,0,0,1,2.12-3,.83.83,0,0,1,.92,0,.82.82,0,0,1,.28.89A2.87,2.87,0,0,1,426.76,55.68Z"/><path class="cls-1" d="M454.21,76.5a1.59,1.59,0,0,1-1.93,1.1,1.7,1.7,0,0,1-1.16-2.11,1.58,1.58,0,0,1,1.94-1.07A1.69,1.69,0,0,1,454.21,76.5Z"/><path class="cls-1" d="M438.64,59.32A2.16,2.16,0,0,1,440,57.88a1.12,1.12,0,0,1,1.54.8A2.08,2.08,0,0,1,440.47,61a1.28,1.28,0,0,1-1.37,0,1.36,1.36,0,0,1-.53-1.32A2.83,2.83,0,0,1,438.64,59.32Z"/><path class="cls-1" d="M422.91,58.35a5.63,5.63,0,0,1-1.19,2.14,2.58,2.58,0,0,1-.6.49c-.61.34-1.07.08-1.1-.61a3.08,3.08,0,0,1,.3-1.33,4.88,4.88,0,0,1,1.24-1.81,2,2,0,0,1,.41-.29c.59-.3,1-.07,1,.58A3.56,3.56,0,0,1,422.91,58.35Z"/><path class="cls-1" d="M417.53,84.25s-.07.17-.14.28c-.2.35-.46.39-.8.14a2,2,0,0,1-.61-.79,5.78,5.78,0,0,1-.52-3.19.58.58,0,0,1,0-.14c.09-.29.16-.61.53-.68s.53.22.7.43A5.51,5.51,0,0,1,417.53,84.25Z"/><path class="cls-1" d="M450.17,96A1.44,1.44,0,0,1,449,97a1.72,1.72,0,0,1-1.65-.51,1.35,1.35,0,0,1-.14-2,1.75,1.75,0,0,1,2.33-.08A1.49,1.49,0,0,1,450.17,96Z"/><path class="cls-1" d="M435.62,102.14a3.09,3.09,0,0,1-1.73-1.63,1,1,0,0,1,.12-1.22,1.17,1.17,0,0,1,1.32-.19,3,3,0,0,1,1.7,1.51,1.49,1.49,0,0,1,.16.65C437.22,102,436.58,102.41,435.62,102.14Z"/><path class="cls-1" d="M429.36,98a3.58,3.58,0,0,1,2,2.39.77.77,0,0,1-.23.9,1,1,0,0,1-1,0,3.84,3.84,0,0,1-2-1.86,2.66,2.66,0,0,1-.2-.56C427.83,98,428.32,97.62,429.36,98Z"/><path class="cls-1" d="M454,92.49a1.61,1.61,0,0,1-2,1.05,1.53,1.53,0,0,1-1.14-1.86,1.56,1.56,0,0,1,2-1A1.52,1.52,0,0,1,454,92.49Z"/><path class="cls-1" d="M444.71,100A1.85,1.85,0,0,1,443.5,99a1.23,1.23,0,0,1,1.12-1.87,1.94,1.94,0,0,1,1.63.7,1.37,1.37,0,0,1,.15,1.7A1.48,1.48,0,0,1,444.71,100Z"/><path class="cls-1" d="M434.86,54.47a3,3,0,0,1-1.58,1.89,1,1,0,0,1-1.06,0,.89.89,0,0,1-.3-1,3,3,0,0,1,1.67-2.08,1.32,1.32,0,0,1,.56-.13.69.69,0,0,1,.77.55A1.55,1.55,0,0,1,434.86,54.47Z"/><path class="cls-1" d="M415,68.59a3.69,3.69,0,0,1,.58-1.35c.14-.19.31-.38.59-.32s.33.29.4.5a3.32,3.32,0,0,1,.12,1.29,5.66,5.66,0,0,1-.66,2.52c-.16.26-.32.58-.69.53s-.45-.44-.51-.74A5.39,5.39,0,0,1,415,68.59Z"/><path class="cls-1" d="M457.08,78.78a1.48,1.48,0,1,1-1.81,1A1.39,1.39,0,0,1,457.08,78.78Z"/><path class="cls-1" d="M439.8,55.67a2.37,2.37,0,0,1-1.27,1.48,1,1,0,0,1-1.53-1,2.45,2.45,0,0,1,1.57-2,.92.92,0,0,1,1.28.8A2.25,2.25,0,0,1,439.8,55.67Z"/><path class="cls-1" d="M425.66,100.25a4.91,4.91,0,0,1-.44-.23,5.4,5.4,0,0,1-2-2.55c-.12-.32-.25-.7.07-1s.7,0,1,.17a5.51,5.51,0,0,1,2,2.57,1.5,1.5,0,0,1,.1.52C426.43,100.2,426.16,100.4,425.66,100.25Z"/><path class="cls-1" d="M441.89,100.07a2.11,2.11,0,0,1,1.58,1.38,1,1,0,0,1-.9,1.34,2.13,2.13,0,0,1-2.14-1.26,1.07,1.07,0,0,1,.16-1.18A1.26,1.26,0,0,1,441.89,100.07Z"/><path class="cls-1" d="M419.7,92.55a.41.41,0,0,1,.6-.33,1.9,1.9,0,0,1,.72.48,5.59,5.59,0,0,1,1.59,2.82c.07.3.17.67-.17.87s-.61-.07-.84-.26a5.54,5.54,0,0,1-1.9-3.19A.65.65,0,0,1,419.7,92.55Z"/><path class="cls-1" d="M427.67,54.26a3.79,3.79,0,0,1,2.08-2.19c.69-.28,1.14,0,1,.76a3.53,3.53,0,0,1-1.91,2.45.83.83,0,0,1-1,0C427.51,55,427.59,54.66,427.67,54.26Z"/><path class="cls-1" d="M448,63.63a1.45,1.45,0,0,1,2.15-.91,1.61,1.61,0,0,1,.55,1.78,1.47,1.47,0,0,1-1.44,1A1.45,1.45,0,0,1,448,63.63Z"/><path class="cls-1" d="M419.43,61.26a5.84,5.84,0,0,1-1,2,2.38,2.38,0,0,1-.47.48.57.57,0,0,1-.59.17.55.55,0,0,1-.3-.53,4.39,4.39,0,0,1,.58-2.35,3.82,3.82,0,0,1,.95-1.34c.18-.15.38-.32.65-.21s.28.37.3.6A3.27,3.27,0,0,1,419.43,61.26Z"/><path class="cls-1" d="M451.43,67.6a1.38,1.38,0,0,1,1.62-1,1.56,1.56,0,0,1,1.11,1.88,1.41,1.41,0,0,1-1.68,1A1.53,1.53,0,0,1,451.43,67.6Z"/><path class="cls-1" d="M458,88.75a1.51,1.51,0,0,1-1.85,1,1.43,1.43,0,0,1-1-1.77,1.5,1.5,0,0,1,1.9-.94A1.39,1.39,0,0,1,458,88.75Z"/><path class="cls-1" d="M415.51,79.12a1.87,1.87,0,0,1-.27.65.33.33,0,0,1-.57,0,1.42,1.42,0,0,1-.37-.68,6.94,6.94,0,0,1-.17-3.5c.06-.32.14-.72.54-.74s.49.39.59.68A7,7,0,0,1,415.51,79.12Z"/><path class="cls-1" d="M445.08,59.79a1.46,1.46,0,0,1,1.11-1.11,1.14,1.14,0,0,1,1.4.71,1.67,1.67,0,0,1-.58,1.94,1.31,1.31,0,0,1-1.4.09,1.28,1.28,0,0,1-.6-1.28A2.41,2.41,0,0,1,445.08,59.79Z"/><path class="cls-1" d="M417.3,87.78a1.24,1.24,0,0,1,.5.38,6.54,6.54,0,0,1,1.45,3.16,1.63,1.63,0,0,1,0,.66c-.07.31-.29.38-.57.21a2.55,2.55,0,0,1-.78-.82,7.1,7.1,0,0,1-1-2.48,2.16,2.16,0,0,1,0-.8C416.85,87.84,417,87.68,417.3,87.78Z"/><path class="cls-1" d="M433.33,101.65a3.36,3.36,0,0,1,1.87,1.7,1.41,1.41,0,0,1,.11.45c.05.5-.27.79-.79.72a3.36,3.36,0,0,1-2.36-2.06C432,101.76,432.43,101.39,433.33,101.65Z"/><path class="cls-1" d="M414.88,65.43a9.14,9.14,0,0,1,.92-2.53,2,2,0,0,1,.51-.67c.23-.17.4-.12.5.15a1.66,1.66,0,0,1,.06.7,8.54,8.54,0,0,1-1,3.37,1.81,1.81,0,0,1-.19.29c-.16.2-.29.51-.59.43s-.27-.41-.31-.66a.69.69,0,0,1,0-.8C414.82,65.62,414.9,65.54,414.88,65.43Z"/><path class="cls-1" d="M420.79,56a6.07,6.07,0,0,1,2.12-2.78c.21-.16.47-.33.73-.16s.17.49.09.74a6,6,0,0,1-2,2.88c-.23.19-.52.45-.83.25S420.73,56.3,420.79,56Z"/><path class="cls-1" d="M455.33,71.64a1.33,1.33,0,0,1,1.57-1,1.44,1.44,0,0,1,1,1.78,1.33,1.33,0,0,1-1.62.93A1.47,1.47,0,0,1,455.33,71.64Z"/><path class="cls-1" d="M439.6,105.13a2.57,2.57,0,0,1-1.46-1.14.93.93,0,0,1,0-1.09,1,1,0,0,1,1.08-.28,2.4,2.4,0,0,1,1.55,1.1.94.94,0,0,1,.09,1.17C440.54,105.28,440.1,105.26,439.6,105.13Z"/><path class="cls-1" d="M442.77,56.23a1.93,1.93,0,0,1,.89-1.14,1,1,0,0,1,1.59.79,1.7,1.7,0,0,1-.53,1.49,1.3,1.3,0,0,1-1.52.28A1.28,1.28,0,0,1,442.77,56.23Z"/><path class="cls-1" d="M427.89,100.41a4.45,4.45,0,0,1,2.36,2.51.5.5,0,0,1-.07.56.58.58,0,0,1-.62,0,4.44,4.44,0,0,1-2.44-2.45.5.5,0,0,1,.06-.62C427.38,100.27,427.61,100.37,427.89,100.41Z"/><path class="cls-1" d="M452.77,97.88a1.32,1.32,0,0,1,1,1.05,1.08,1.08,0,0,1-.63,1.12,1.52,1.52,0,0,1-1.64-.09,1.14,1.14,0,0,1-.44-1.46A1.47,1.47,0,0,1,452.77,97.88Z"/><path class="cls-1" d="M434.72,50.64A3.54,3.54,0,0,1,433,52.55a1.35,1.35,0,0,1-.34.11c-.56.11-.9-.22-.78-.76a2.07,2.07,0,0,1,.28-.67,3.68,3.68,0,0,1,1.53-1.37,1.76,1.76,0,0,1,.44-.15c.47-.08.73.16.67.62A3.12,3.12,0,0,1,434.72,50.64Z"/><path class="cls-1" d="M424.45,53.29a5.14,5.14,0,0,1,2.15-2.41l.2-.08a.56.56,0,0,1,.55,0,.44.44,0,0,1,.08.53,4.65,4.65,0,0,1-2.25,2.68c-.21.11-.45.21-.67,0S424.37,53.62,424.45,53.29Z"/><path class="cls-1" d="M438.78,51.81a2.56,2.56,0,0,1-1.41,1.61.88.88,0,0,1-1-.07.79.79,0,0,1-.19-.91,2.77,2.77,0,0,1,1.34-1.61.92.92,0,0,1,1.08,0C439,51.07,438.87,51.45,438.78,51.81Z"/><path class="cls-1" d="M448.49,103.06a1.46,1.46,0,0,1-1.08-1.06.89.89,0,0,1,.42-1,1.59,1.59,0,0,1,1.58,0,1.22,1.22,0,0,1,.19.12,1.15,1.15,0,0,1,.54,1.37,1.32,1.32,0,0,1-1.48.67Z"/><path class="cls-1" d="M461.94,84.66a1.24,1.24,0,0,1-1.58.89,1.22,1.22,0,0,1-.82-1.63,1.28,1.28,0,0,1,1.64-.8A1.2,1.2,0,0,1,461.94,84.66Z"/><path class="cls-1" d="M456.7,94.62a1.19,1.19,0,0,1,.92,1.4,1.47,1.47,0,0,1-1.75.92,1.21,1.21,0,0,1-.9-1.42A1.46,1.46,0,0,1,456.7,94.62Z"/><path class="cls-1" d="M414.67,83.38c0-.18.08-.32.25-.36s.24.08.33.18a2.62,2.62,0,0,1,.23.32,7.77,7.77,0,0,1,1,3.53c0,.26.08.62-.24.71s-.48-.26-.62-.5a7.88,7.88,0,0,1-1-3.57A2,2,0,0,1,414.67,83.38Z"/><path class="cls-1" d="M417.94,58.58a7.71,7.71,0,0,1,1.67-2.78c.2-.21.43-.54.75-.34s.12.52,0,.78a8,8,0,0,1-1.64,2.91,2,2,0,0,1-.35.3c-.13.1-.27.23-.45.12a.46.46,0,0,1-.13-.46C417.85,58.94,417.9,58.77,417.94,58.58Z"/><path class="cls-1" d="M431.35,49.4a4.42,4.42,0,0,1-2.25,2.15.52.52,0,0,1-.64-.07.56.56,0,0,1,0-.66,4.55,4.55,0,0,1,2.16-2.06l.23-.08C431.31,48.57,431.52,48.79,431.35,49.4Z"/><path class="cls-1" d="M414.35,74a3.15,3.15,0,0,1-.29.8c-.06.09-.12.21-.26.2s-.19-.13-.24-.24a2.37,2.37,0,0,1-.18-.86,8.81,8.81,0,0,1,.41-3.46,1.42,1.42,0,0,1,.12-.25c.17-.25.34-.24.47,0a2,2,0,0,1,.18.71A9.45,9.45,0,0,1,414.35,74Z"/><path class="cls-1" d="M461.82,76.5a1.22,1.22,0,0,1-1.49.77,1.28,1.28,0,0,1-.82-1.57,1.18,1.18,0,0,1,1.5-.79A1.25,1.25,0,0,1,461.82,76.5Z"/><path class="cls-1" d="M445.89,103.47a1.63,1.63,0,0,1,1.14,1,.83.83,0,0,1-.65,1.15,1.79,1.79,0,0,1-1.85-.84.84.84,0,0,1,.65-1.32A1.84,1.84,0,0,1,445.89,103.47Z"/><path class="cls-1" d="M441.2,52.86a2,2,0,0,1,1.34-1.35.72.72,0,0,1,.95.61,1.84,1.84,0,0,1-1.15,1.9.88.88,0,0,1-.92-.09C441.08,53.64,441.13,53.26,441.2,52.86Z"/><path class="cls-1" d="M423.35,98.92a2.48,2.48,0,0,1,.34.19,7.47,7.47,0,0,1,2.39,2.76c.1.19.25.44,0,.61s-.43,0-.6-.13A7.54,7.54,0,0,1,423,99.49a1,1,0,0,1-.08-.3C422.93,98.94,423.07,98.84,423.35,98.92Z"/><path class="cls-1" d="M438.14,107.2a2.93,2.93,0,0,1-1.65-1.24c-.17-.27-.29-.58-.06-.85a.76.76,0,0,1,.86-.17,2.85,2.85,0,0,1,1.68,1.28c.16.27.29.57.06.85S438.47,107.28,438.14,107.2Z"/><path class="cls-1" d="M422,98.83a3.76,3.76,0,0,1-.44-.34,8.83,8.83,0,0,1-2-2.95c-.08-.2-.21-.47,0-.62s.43.08.58.22a7.65,7.65,0,0,1,2.18,3.29.33.33,0,0,1,0,.39C422.29,98.9,422.19,98.87,422,98.83Z"/><path class="cls-1" d="M459.31,92a1.27,1.27,0,0,1,1.59-.84,1,1,0,0,1,.7,1.33,1.28,1.28,0,0,1-1.6.82A1,1,0,0,1,459.31,92Z"/><path class="cls-1" d="M451.85,60.12a1.13,1.13,0,0,1,1.31-.87,1.32,1.32,0,0,1,.85,1.54,1.16,1.16,0,0,1-1.33.85A1.22,1.22,0,0,1,451.85,60.12Z"/><path class="cls-1" d="M433.42,106.42a4,4,0,0,1-2.09-1.83.48.48,0,0,1,0-.59.53.53,0,0,1,.6-.1,3.8,3.8,0,0,1,2.27,2,.42.42,0,0,1-.05.53C433.94,106.58,433.72,106.5,433.42,106.42Z"/><path class="cls-1" d="M448.92,56.55a1.08,1.08,0,0,1,1.51-.84,1.24,1.24,0,0,1,.48,1.55,1.14,1.14,0,0,1-1.32.7A1.1,1.1,0,0,1,448.92,56.55Z"/><path class="cls-1" d="M455.38,63.81a1,1,0,0,1,1.25-.7,1.27,1.27,0,0,1,.82,1.56,1,1,0,0,1-1.31.64A1.17,1.17,0,0,1,455.38,63.81Z"/><path class="cls-1" d="M436.21,49.19a3,3,0,0,1,1.85-1.64c.48-.15.79.15.63.6A2.85,2.85,0,0,1,436.94,50a.61.61,0,0,1-.68-.08C436.06,49.71,436.14,49.48,436.21,49.19Z"/><path class="cls-1" d="M432.64,48.55a2.83,2.83,0,0,1,.77-1,3.79,3.79,0,0,1,1.55-.91.44.44,0,0,1,.45.08.36.36,0,0,1,0,.43,3.9,3.9,0,0,1-2.25,2,.44.44,0,0,1-.48,0C432.58,49,432.56,48.82,432.64,48.55Z"/><path class="cls-1" d="M414.43,82.75c-.05.13,0,.3-.2.31s-.23-.13-.27-.25a4.88,4.88,0,0,1-.23-.64,11.81,11.81,0,0,1-.4-3.55,1.23,1.23,0,0,1,0-.2c0-.12,0-.26.17-.29s.2.13.25.23a3,3,0,0,1,.2.49,11.23,11.23,0,0,1,.5,3.5C414.47,82.49,414.44,82.63,414.43,82.75Z"/><path class="cls-1" d="M443.36,107.71a1.92,1.92,0,0,1-1.16-.82c-.38-.62-.08-1.16.66-1.12a1.81,1.81,0,0,1,1.57.94c.33.59,0,1.09-.69,1.06C443.6,107.76,443.45,107.72,443.36,107.71Z"/><path class="cls-1" d="M414.67,66.63a15,15,0,0,1-.74,3c-.05.13-.11.26-.17.38s-.11.25-.25.21-.12-.19-.13-.3a6.52,6.52,0,0,1,.14-1.71,12.38,12.38,0,0,1,.71-2.67,0,0,0,0,1,0,0c.1-.17.13-.49.37-.45s.11.34.14.53A2.34,2.34,0,0,1,414.67,66.63Z"/><path class="cls-1" d="M417.68,93.35a11.3,11.3,0,0,1-.88-2.06c-.06-.21-.22-.53,0-.64s.4.21.53.39a10,10,0,0,1,1.69,3.31c.06.18.17.45,0,.55s-.34-.17-.48-.3-.17-.24-.3-.31a.29.29,0,0,1-.25-.08A1.73,1.73,0,0,1,417.68,93.35Z"/><path class="cls-1" d="M442.48,49.25a2.14,2.14,0,0,1-1.24,1.34.65.65,0,0,1-.72-.06.66.66,0,0,1-.16-.72,2.34,2.34,0,0,1,1.14-1.37.72.72,0,0,1,.85,0C442.64,48.64,442.55,48.94,442.48,49.25Z"/><path class="cls-1" d="M448.5,53.48a2.27,2.27,0,0,1-.13.33,1,1,0,0,1-1.31.55,1,1,0,0,1-.41-1.29,1.59,1.59,0,0,1,.37-.59.94.94,0,0,1,1.05-.25.83.83,0,0,1,.48.87A2,2,0,0,1,448.5,53.48Z"/><path class="cls-1" d="M422.48,52.29a2.73,2.73,0,0,1,.41-.72,7.91,7.91,0,0,1,1.62-1.7,5.11,5.11,0,0,1,.46-.28c.12-.06.27-.14.4,0s0,.25,0,.37a7.32,7.32,0,0,1-1.44,1.93,4.21,4.21,0,0,1-1,.78c-.12.07-.27.17-.4.07S422.44,52.45,422.48,52.29Z"/><path class="cls-1" d="M429.55,105.49a3.5,3.5,0,0,1-.88-.53,6.33,6.33,0,0,1-1.64-1.78c-.07-.14-.18-.32,0-.46s.34-.07.5,0a6,6,0,0,1,2.46,2.35c.07.12.14.27,0,.4S429.71,105.53,429.55,105.49Z"/><path class="cls-1" d="M460.05,69.1a1.11,1.11,0,0,1-.75-1.44.93.93,0,0,1,1.2-.6,1.15,1.15,0,0,1,.75,1.39A.92.92,0,0,1,460.05,69.1Z"/><path class="cls-1" d="M426,49.89a4.24,4.24,0,0,1,.33-.5A6.37,6.37,0,0,1,428,47.85a2.69,2.69,0,0,1,.48-.24c.16,0,.35-.17.5,0s0,.33-.06.46a6.5,6.5,0,0,1-2.33,2.18.92.92,0,0,1-.23.09.35.35,0,0,1-.34-.05C425.91,50.18,426,50.07,426,49.89Z"/><path class="cls-1" d="M415.75,61.4a11.36,11.36,0,0,1,1.45-3c.11-.16.24-.44.47-.34s.09.36,0,.55a10.58,10.58,0,0,1-1.6,3.48c-.09.13-.2.36-.39.28s-.11-.33-.08-.51A3.54,3.54,0,0,1,415.75,61.4Z"/><path class="cls-1" d="M465.73,80.33a1,1,0,0,1-1.25.74,1,1,0,0,1-.64-1.32,1,1,0,0,1,1.28-.63A1,1,0,0,1,465.73,80.33Z"/><path class="cls-1" d="M432.9,46a.66.66,0,0,1-.07.15,5.34,5.34,0,0,1-2.43,1.94c-.14.05-.33.15-.46,0s0-.35.06-.49a5.13,5.13,0,0,1,2.48-1.86.41.41,0,0,1,.39,0C433,45.79,432.92,45.89,432.9,46Z"/><path class="cls-1" d="M455.44,103a.78.78,0,0,1-.6-1.07,1.19,1.19,0,0,1,1.5-.62.79.79,0,0,1,.6,1A1.18,1.18,0,0,1,455.44,103Z"/><path class="cls-1" d="M452,105.73c-.56-.16-.89-.59-.8-1a1.09,1.09,0,0,1,1.21-.72,1.35,1.35,0,0,1,.64.24.77.77,0,0,1-.07,1.36A1.26,1.26,0,0,1,452,105.73Z"/><path class="cls-1" d="M465.08,87.37a.88.88,0,0,1,.54,1.15,1.09,1.09,0,0,1-1.28.7.9.9,0,0,1-.6-1.21A1.06,1.06,0,0,1,465.08,87.37Z"/><path class="cls-1" d="M436.28,107a3.15,3.15,0,0,1,1.7,1.39c.08.15.16.31,0,.46a.37.37,0,0,1-.43.09,3.32,3.32,0,0,1-2.06-1.42.39.39,0,0,1-.06-.49.45.45,0,0,1,.47-.1A2.58,2.58,0,0,1,436.28,107Z"/><path class="cls-1" d="M459.42,100a.74.74,0,0,1-.57-1,1.14,1.14,0,0,1,1.43-.68.76.76,0,0,1,.57.92A1.17,1.17,0,0,1,459.42,100Z"/><path class="cls-1" d="M445.09,49.89a1.48,1.48,0,0,1,.74-.81.61.61,0,0,1,1,.59,1.5,1.5,0,0,1-.54,1.14.85.85,0,0,1-1,.17C445,50.8,444.93,50.49,445.09,49.89Z"/><path class="cls-1" d="M422.13,52.16a9.87,9.87,0,0,1-1.35,2,5.11,5.11,0,0,1-.89.91c-.09.06-.19.18-.31.09s-.08-.24,0-.36a5.67,5.67,0,0,1,.78-1.32,8,8,0,0,1,1.47-1.66c.1-.08.2-.18.35-.12S422.22,51.87,422.13,52.16Z"/><path class="cls-1" d="M441.79,109.51a2.44,2.44,0,0,1-1.26-.9.56.56,0,0,1-.09-.6.54.54,0,0,1,.58-.2,2.11,2.11,0,0,1,1.54.9c.14.21.27.45.1.68s-.43.21-.69.17Z"/><path class="cls-1" d="M448.94,108a1.3,1.3,0,0,1-.61-.42.65.65,0,0,1,.3-1.06,1.39,1.39,0,0,1,1.19.11.86.86,0,0,1,.48.87.82.82,0,0,1-.78.57A1.53,1.53,0,0,1,448.94,108Z"/><path class="cls-1" d="M439.34,45.27a3.6,3.6,0,0,1-2,1.56.33.33,0,0,1-.36-.1.37.37,0,0,1,0-.43,3.54,3.54,0,0,1,1.59-1.37,2,2,0,0,1,.47-.15C439.37,44.71,439.49,44.86,439.34,45.27Z"/><path class="cls-1" d="M431.64,106a5.32,5.32,0,0,1,2.26,1.85c.07.1.14.22.05.33a.3.3,0,0,1-.34,0,5.21,5.21,0,0,1-2.38-1.81c-.08-.11-.19-.25-.09-.38S431.42,105.94,431.64,106Z"/><path class="cls-1" d="M440.35,46.83a2.48,2.48,0,0,1,1.6-1.34c.33-.1.51.08.45.42a2.48,2.48,0,0,1-1.56,1.55C440.41,47.55,440.21,47.35,440.35,46.83Z"/><path class="cls-1" d="M416.42,90.51a.3.3,0,0,1-.07.11.13.13,0,0,1-.15-.07,2,2,0,0,1-.21-.3,14.75,14.75,0,0,1-1.35-3.75c0-.14-.13-.35.05-.41s.22.17.28.28a14.43,14.43,0,0,1,1.42,3.89A1.9,1.9,0,0,1,416.42,90.51Z"/><path class="cls-1" d="M464.61,71.1a1,1,0,0,1,.58,1.18.81.81,0,0,1-1,.52,1,1,0,0,1-.61-1.2A.78.78,0,0,1,464.61,71.1Z"/><path class="cls-1" d="M434.14,45.68c.05-.07.1-.18.17-.27A5.13,5.13,0,0,1,436.5,44c.14,0,.33-.13.43,0s0,.27-.12.37A4.8,4.8,0,0,1,434.49,46C434.19,46.07,434.07,46,434.14,45.68Z"/><path class="cls-1" d="M413,78.12a15.68,15.68,0,0,1,0-4.93h.18a16,16,0,0,1,.05,4.93Z"/><path class="cls-1" d="M456.78,57.34a.67.67,0,0,1-.89.47,1,1,0,0,1-.57-1.18.69.69,0,0,1,.9-.48A1,1,0,0,1,456.78,57.34Z"/><path class="cls-1" d="M446.71,109.86a1.14,1.14,0,0,1-.82-.59.48.48,0,0,1,.35-.75,1.46,1.46,0,0,1,1.36.48.6.6,0,0,1,.14.62c-.1.24-.33.29-.57.31A1.2,1.2,0,0,1,446.71,109.86Z"/><path class="cls-1" d="M431.32,44.91l-.22.27a9.65,9.65,0,0,1-2.24,1.66l-.16.07c-.12.05-.26.14-.37,0s0-.24.09-.33A6.73,6.73,0,0,1,431,44.77c.1,0,.21-.09.31,0S431.31,44.85,431.32,44.91Z"/><path class="cls-1" d="M464.86,95.8a1,1,0,0,1-1.22.64.71.71,0,0,1-.3-1.11,1.1,1.1,0,0,1,1.19-.36A.64.64,0,0,1,464.86,95.8Z"/><path class="cls-1" d="M445.79,46.85a1.6,1.6,0,0,1-.85,1,.53.53,0,0,1-.61,0,.49.49,0,0,1-.13-.58,1.69,1.69,0,0,1,.83-1c.2-.12.43-.25.66-.07S445.85,46.59,445.79,46.85Z"/><path class="cls-1" d="M453.75,53.89a.68.68,0,0,1-.9.52.87.87,0,0,1-.51-1.14.73.73,0,0,1,.88-.53A.88.88,0,0,1,453.75,53.89Z"/><path class="cls-1" d="M426.48,104.31l-.06,0a10.59,10.59,0,0,1-2.64-2.66c-.06-.09-.14-.21,0-.29s.2,0,.29.09a12.1,12.1,0,0,1,2.6,2.65c.05.07.13.16.06.25S426.55,104.34,426.48,104.31Z"/><path class="cls-1" d="M423.14,101.12a1.48,1.48,0,0,1-.63-.49,15.24,15.24,0,0,1-2.19-2.87c-.05-.1-.19-.24-.07-.34s.22.08.3.15a16.75,16.75,0,0,1,2.54,3.28A.29.29,0,0,1,423.14,101.12Z"/><path class="cls-1" d="M424.84,48.79c.06-.07.12-.19.2-.29a9.42,9.42,0,0,1,2.37-1.93c.1-.06.22-.17.32,0s0,.19-.09.27A10,10,0,0,1,425.16,49c-.09.05-.21.14-.33.05S424.81,48.89,424.84,48.79Z"/><path class="cls-1" d="M435.18,43.32c-.06.06-.11.14-.18.2A8,8,0,0,1,432.73,45l-.27.09c-.09,0-.18,0-.23-.06a.17.17,0,0,1,0-.2,3.31,3.31,0,0,1,.32-.33,7.41,7.41,0,0,1,2.1-1.24,1.37,1.37,0,0,1,.35-.08C435.15,43.13,435.24,43.17,435.18,43.32Z"/><path class="cls-1" d="M459.69,59.77a.87.87,0,0,1,.58,1.08.64.64,0,0,1-.86.42.9.9,0,0,1-.54-1.1A.61.61,0,0,1,459.69,59.77Z"/><path class="cls-1" d="M451.33,50.54a.8.8,0,0,1-.87.65.73.73,0,0,1-.49-.84,1,1,0,0,1,.2-.49.65.65,0,0,1,.74-.29.59.59,0,0,1,.44.65A2.33,2.33,0,0,1,451.33,50.54Z"/><path class="cls-1" d="M427.9,104.81a6.89,6.89,0,0,1,1.41,1,9.13,9.13,0,0,1,1.14,1.1c.07.09.21.19.12.3s-.21,0-.29,0A9.26,9.26,0,0,1,427.7,105c-.06-.07-.12-.15-.07-.23S427.8,104.8,427.9,104.81Z"/><path class="cls-1" d="M441,111a2.91,2.91,0,0,1-1.36-.91c-.09-.11-.18-.24-.09-.39s.23-.11.36-.1a2.57,2.57,0,0,1,1.6.9c.12.13.26.3.14.47s-.31.11-.48.07Z"/><path class="cls-1" d="M435.75,108.76a4.79,4.79,0,0,1,1.93,1.27c.09.09.22.21.14.34s-.27.08-.39,0a4.84,4.84,0,0,1-1.94-1.23c-.1-.09-.24-.22-.15-.36S435.62,108.74,435.75,108.76Z"/><path class="cls-1" d="M417.24,57.77A12.58,12.58,0,0,1,419.47,54C419.59,54.57,417.92,57.38,417.24,57.77Z"/><path class="cls-1" d="M440.92,42.58a1.83,1.83,0,0,1-.13.16,4.82,4.82,0,0,1-1.9,1.22c-.13,0-.32.14-.42,0s0-.26.15-.36a4.41,4.41,0,0,1,2-1.15C440.74,42.39,440.94,42.31,440.92,42.58Z"/><path class="cls-1" d="M441.1,44.28a1.61,1.61,0,0,1,.22-.3,3.53,3.53,0,0,1,1.41-.92c.12,0,.27-.09.37,0s0,.22-.07.31a3.22,3.22,0,0,1-1.56,1.18.32.32,0,0,1-.34,0C441,44.52,441.06,44.42,441.1,44.28Z"/><path class="cls-1" d="M421.89,51.28a7.34,7.34,0,0,1,2.68-2.85A9,9,0,0,1,421.89,51.28Z"/><path class="cls-1" d="M445,110.31a1.33,1.33,0,0,1,.84.58c.21.33.06.6-.33.57a1.65,1.65,0,0,1-1.16-.52c-.14-.14-.27-.31-.18-.5s.33-.21.54-.19S444.92,110.29,445,110.31Z"/><path class="cls-1" d="M455,108a.53.53,0,0,1-.41-.68c.1-.36.63-.55,1.13-.41a.47.47,0,0,1,.37.62A.84.84,0,0,1,455,108Z"/><path class="cls-1" d="M449.57,47.49c-.12.28-.27.57-.63.64a.41.41,0,0,1-.48-.18.91.91,0,0,1,.1-.9l0,0c.22-.32.52-.45.78-.33S449.67,47.12,449.57,47.49Z"/><path class="cls-1" d="M414.2,65.22a12.29,12.29,0,0,1,1.58-4.47A20.94,20.94,0,0,1,414.2,65.22Z"/><path class="cls-1" d="M445.66,44a1.8,1.8,0,0,1-1.07,1c-.31.12-.48,0-.42-.34a1.93,1.93,0,0,1,1.3-1.14C445.72,43.55,445.78,43.67,445.66,44Z"/><path class="cls-1" d="M459.35,104.43a.47.47,0,0,1,.21.81,1,1,0,0,1-1.06.24.52.52,0,0,1,0-.91A1.05,1.05,0,0,1,459.35,104.43Z"/><path class="cls-1" d="M436.6,43.25c-.14,0-.16-.1-.11-.19a.51.51,0,0,1,.13-.16,6.71,6.71,0,0,1,2.25-1.13c.09,0,.23-.08.29,0s-.05.17-.12.22a7.62,7.62,0,0,1-2.25,1.2Z"/><path class="cls-1" d="M464.08,64.4a.55.55,0,0,1-.7.39.79.79,0,0,1-.52-.93.6.6,0,0,1,.72-.37A.77.77,0,0,1,464.08,64.4Z"/><path class="cls-1" d="M469.39,84.2a.66.66,0,0,1-.82.49.61.61,0,0,1-.37-.81.66.66,0,0,1,.83-.46A.6.6,0,0,1,469.39,84.2Z"/><path class="cls-1" d="M432.11,107.8a9.75,9.75,0,0,1,2.36,1.65s.12.11.08.18-.14,0-.2,0c-.21-.09-.42-.18-.62-.29a8.93,8.93,0,0,1-1.81-1.3c-.07-.08-.18-.16-.11-.27S432,107.78,432.11,107.8Z"/><path class="cls-1" d="M452.08,110c-.34-.1-.55-.26-.54-.56s.25-.42.53-.48h0a.88.88,0,0,1,.86.28.43.43,0,0,1,0,.55A.83.83,0,0,1,452.08,110Z"/><path class="cls-1" d="M418.14,94.15l.1.14,1.27,2.18a3.74,3.74,0,0,1,.44.94,2.9,2.9,0,0,1-.68-.81,23.65,23.65,0,0,1-1.74-2.94c-.1-.21-.1-.21,0-.26C417.87,93.57,417.93,93.92,418.14,94.15Z"/><path class="cls-1" d="M413.31,81.39A20.13,20.13,0,0,1,414.37,86,19.13,19.13,0,0,1,413.31,81.39Z"/><path class="cls-1" d="M468.68,75.22a.6.6,0,0,1,.42.78.54.54,0,0,1-.72.4.64.64,0,0,1-.4-.8A.54.54,0,0,1,468.68,75.22Z"/><path class="cls-1" d="M434.22,42.37c0,.08,0,.12-.07.15A12.38,12.38,0,0,1,431.69,44c-.1,0-.24.13-.32,0s.06-.19.14-.25a9,9,0,0,1,2.61-1.36S434.19,42.37,434.22,42.37Z"/><path class="cls-1" d="M468.59,91.38a.45.45,0,0,1,.3.62.69.69,0,0,1-.83.48.49.49,0,0,1-.31-.63A.7.7,0,0,1,468.59,91.38Z"/><path class="cls-1" d="M427.88,45.79a6.14,6.14,0,0,1,2.8-1.92A10.4,10.4,0,0,1,427.88,45.79Z"/><path class="cls-1" d="M449.76,111.67c-.42-.11-.68-.39-.61-.63s.39-.35.78-.27a1.57,1.57,0,0,1,.23.09.47.47,0,0,1,.35.52c-.05.28-.29.3-.53.31Z"/><path class="cls-1" d="M462.68,102.61c-.26-.07-.39-.23-.33-.49a.79.79,0,0,1,.93-.51.37.37,0,0,1,.29.49A.76.76,0,0,1,462.68,102.61Z"/><path class="cls-1" d="M438.08,41.13a8.61,8.61,0,0,1-2.8,1.33A4.8,4.8,0,0,1,438.08,41.13Z"/><path class="cls-1" d="M440,111.12a4,4,0,0,1,1.35.79c.07.06.17.13.11.23s-.17.07-.26,0a4.54,4.54,0,0,1-1.59-.82c-.09-.07-.23-.15-.16-.28s.22,0,.33,0Z"/><path class="cls-1" d="M447.61,44.84a1.17,1.17,0,0,1,.53-.68.38.38,0,0,1,.41,0c.16.1.13.25.09.38a1.2,1.2,0,0,1-.48.71.39.39,0,0,1-.47,0C447.51,45.16,447.58,45,447.61,44.84Z"/><path class="cls-1" d="M444.39,112.6a2.38,2.38,0,0,1-.89-.47c-.11-.09-.25-.2-.19-.35s.24-.11.38-.09a1.94,1.94,0,0,1,1.05.52c.1.09.23.19.17.33s-.25.09-.38.09Z"/><path class="cls-1" d="M443.16,40.55A6.25,6.25,0,0,1,441,41.64c-.07,0-.16,0-.18-.06s0-.13.09-.17a4.4,4.4,0,0,1,.87-.49A3,3,0,0,1,443.16,40.55Z"/><path class="cls-1" d="M444.64,41.14a.8.8,0,0,1-.13.13,4.61,4.61,0,0,1-1.54.87c-.1,0-.23.1-.3,0s.05-.17.12-.23a4.63,4.63,0,0,1,1.59-.86C444.48,41,444.61,41,444.64,41.14Z"/><path class="cls-1" d="M438.43,111.56a2.14,2.14,0,0,1-1-.34,6.75,6.75,0,0,1-1.26-.77s-.12-.1-.08-.17.1,0,.16,0A7.22,7.22,0,0,1,438.43,111.56Z"/><path class="cls-1" d="M424.83,47.72a15.47,15.47,0,0,1,2.73-2.31A10.68,10.68,0,0,1,424.83,47.72Z"/><path class="cls-1" d="M445.07,42.59c-.14,0-.15-.13-.09-.21a2.37,2.37,0,0,1,1.32-.91c.14,0,.22.06.14.18a2.39,2.39,0,0,1-1.3.94Z"/><path class="cls-1" d="M439.55,41a5.64,5.64,0,0,1,2.51-.94A7.19,7.19,0,0,1,439.55,41Z"/><path class="cls-1" d="M448.11,112.21c.38.11.65.38.59.57s-.41.21-.75.06l0,0c-.2-.1-.48-.21-.4-.47S447.92,112.2,448.11,112.21Z"/><path class="cls-1" d="M422,50.61a25.37,25.37,0,0,1-2.33,3A16.18,16.18,0,0,1,422,50.61Z"/><path class="cls-1" d="M467.55,68.24a.49.49,0,0,1-.33-.58.37.37,0,0,1,.47-.28A.51.51,0,0,1,468,68C468,68.22,467.78,68.27,467.55,68.24Z"/><path class="cls-1" d="M455.6,50.07a.55.55,0,0,1,.36.65.35.35,0,0,1-.44.26.56.56,0,0,1-.33-.67A.32.32,0,0,1,455.6,50.07Z"/><path class="cls-1" d="M431.44,43a11.24,11.24,0,0,1,2.61-1.4A8.32,8.32,0,0,1,431.44,43Z"/><path class="cls-1" d="M458.23,53.44a.3.3,0,0,1,.4-.23.53.53,0,0,1,.36.61.32.32,0,0,1-.4.26A.53.53,0,0,1,458.23,53.44Z"/><path class="cls-1" d="M431.92,108.65a13.84,13.84,0,0,1-2.75-1.92A18.06,18.06,0,0,1,431.92,108.65Z"/><path class="cls-1" d="M447.59,42.56a1.46,1.46,0,0,1,.68-.64c.08,0,.17-.06.24,0s0,.15,0,.22a1.35,1.35,0,0,1-.64.67c-.08,0-.18.09-.26,0A.21.21,0,0,1,447.59,42.56Z"/><path class="cls-1" d="M437.63,40.48A16.23,16.23,0,0,1,435,41.6,5.93,5.93,0,0,1,437.63,40.48Z"/><path class="cls-1" d="M425.3,103.6A24.4,24.4,0,0,1,428,106,17.84,17.84,0,0,1,425.3,103.6Z"/><path class="cls-1" d="M452.84,47.47c.07-.21.19-.36.42-.28s.29.36.24.59a.31.31,0,0,1-.4.26C452.8,47.94,452.81,47.7,452.84,47.47Z"/><path class="cls-1" d="M467.51,98.55c.1,0,.14.17.1.33a.57.57,0,0,1-.63.35c-.19-.06-.22-.2-.18-.37A.55.55,0,0,1,467.51,98.55Z"/><path class="cls-1" d="M441.4,39.51a8.76,8.76,0,0,1-2.41.8A7.29,7.29,0,0,1,441.4,39.51Z"/><path class="cls-1" d="M433.35,109.39a16.89,16.89,0,0,1,2.56,1.43A11.06,11.06,0,0,1,433.35,109.39Z"/><path class="cls-1" d="M444.7,113.44a2.77,2.77,0,0,1-1.37-.46c-.05,0-.1-.08-.07-.14s.1-.06.16,0A2.4,2.4,0,0,1,444.7,113.44Z"/><path class="cls-1" d="M440.2,112.25a4.78,4.78,0,0,1,1.85.76A5.1,5.1,0,0,1,440.2,112.25Z"/><path class="cls-1" d="M445.1,40.16a3.82,3.82,0,0,1,1.75-.66A4.48,4.48,0,0,1,445.1,40.16Z"/><path class="cls-1" d="M451.78,45c-.08.18-.16.37-.38.31s-.22-.26-.17-.44.15-.38.39-.31S451.78,44.86,451.78,45Z"/><path class="cls-1" d="M443.94,39.74a5.84,5.84,0,0,1,2-.59A6.15,6.15,0,0,1,443.94,39.74Z"/><path class="cls-1" d="M457.65,109.85c-.12,0-.24-.12-.19-.27a.49.49,0,0,1,.57-.26.2.2,0,0,1,.19.25A.51.51,0,0,1,457.65,109.85Z"/><path class="cls-1" d="M446.61,40.5a2.36,2.36,0,0,1,1.36-.68A2.63,2.63,0,0,1,446.61,40.5Z"/><path class="cls-1" d="M447.25,113.76a1.18,1.18,0,0,1-.59-.35.07.07,0,0,1,0-.11.89.89,0,0,1,.69.13c.12.07.32.14.27.28S447.38,113.75,447.25,113.76Z"/><path class="cls-1" d="M454.62,111.64c-.14,0-.29-.07-.25-.24s.27-.27.48-.26.31.06.26.26S454.82,111.64,454.62,111.64Z"/><path class="cls-1" d="M441.13,39.08a9.4,9.4,0,0,1-2,.57A6.1,6.1,0,0,1,441.13,39.08Z"/><path class="cls-1" d="M462.2,56.61a.37.37,0,0,1,.24.44.22.22,0,0,1-.29.17.38.38,0,0,1-.28-.47C461.9,56.6,462,56.57,462.2,56.61Z"/><path class="cls-1" d="M437.64,39.89a10.21,10.21,0,0,1-2,.78A7.23,7.23,0,0,1,437.64,39.89Z"/><path class="cls-1" d="M445.37,38.84l-1.92.48,0-.12a11.74,11.74,0,0,1,1.93-.45Z"/><path class="cls-1" d="M428.76,44.36a18.54,18.54,0,0,1,2-1.29l0,.07-2,1.29Z"/><path class="cls-1" d="M452.41,112.58c.15,0,.28.13.21.28s-.3.17-.48.13-.27-.12-.19-.27S452.24,112.55,452.41,112.58Z"/><path class="cls-1" d="M461.31,107.6c-.15,0-.18-.14-.13-.25a.4.4,0,0,1,.49-.2c.11,0,.14.12.09.22A.39.39,0,0,1,461.31,107.6Z"/><path class="cls-1" d="M439.63,112.35a5.85,5.85,0,0,1-2-.85Z"/><path class="cls-1" d="M448.44,40.73a1.11,1.11,0,0,1,.81-.59A1.15,1.15,0,0,1,448.44,40.73Z"/><path class="cls-1" d="M445,38.51l-1.65.33,0-.09a10,10,0,0,1,1.63-.32Z"/><path class="cls-1" d="M450.83,42.59c-.07.15-.13.34-.34.31s-.11-.18-.07-.29.13-.32.34-.28S450.84,42.5,450.83,42.59Z"/><path class="cls-1" d="M450.5,113.94c-.11,0-.27-.07-.22-.22s.21-.09.32-.07.27.07.22.22S450.62,114,450.5,113.94Z"/><path class="cls-1" d="M446.66,114a1.56,1.56,0,0,1,.85.24A1.26,1.26,0,0,1,446.66,114Z"/><path class="cls-1" d="M441.09,38.75l-1,.27A1.62,1.62,0,0,1,441.09,38.75Z"/><rect class="cls-9" x="-308.41" y="-676.29" width="1600" height="1600"/></svg>